<?xml version="1.0" encoding="UTF-8" standalone="no"?>
<svg
   xmlns:dc="http://purl.org/dc/elements/1.1/"
   xmlns:cc="http://creativecommons.org/ns#"
   xmlns:rdf="http://www.w3.org/1999/02/22-rdf-syntax-ns#"
   xmlns:svg="http://www.w3.org/2000/svg"
   xmlns="http://www.w3.org/2000/svg"
   width="300"
   height="300"
   viewBox="0 0 79.374998 79.375002"
   version="1.1"
   id="svg8">
  <defs
     id="defs2" />
  <metadata
     id="metadata5">
    <rdf:RDF>
      <cc:Work
         rdf:about="">
        <dc:format>image/svg+xml</dc:format>
        <dc:type
           rdf:resource="http://purl.org/dc/dcmitype/StillImage" />
        <dc:title></dc:title>
      </cc:Work>
    </rdf:RDF>
  </metadata>
  <path
     id="path1382"
     d="m 39.6875,26.458334 a 15.874999,15.874999 0 0 0 -15.875,15.875 15.874999,15.874999 0 0 0 15.875,15.875 15.874999,15.874999 0 0 0 15.874999,-15.875 15.874999,15.874999 0 0 0 -15.874999,-15.875 z m 0,5.291667 A 10.583333,10.583333 0 0 1 50.270833,42.333334 10.583333,10.583333 0 0 1 39.6875,52.916667 10.583333,10.583333 0 0 1 29.104166,42.333334 10.583333,10.583333 0 0 1 39.6875,31.750001 Z"
     style="opacity:1;fill:#ffffff;fill-opacity:1;fill-rule:evenodd;stroke:#242424;stroke-width:0;stroke-linecap:butt;stroke-linejoin:round;stroke-miterlimit:4;stroke-dasharray:none;stroke-opacity:1;paint-order:normal" />
  <path
     id="path1387"
     d="M 25.399998,25.92917 35.983331,15.345836 v 53.445832"
     style="fill:none;stroke:#ffffff;stroke-width:5.29166651;stroke-linecap:butt;stroke-linejoin:miter;stroke-miterlimit:4;stroke-dasharray:none;stroke-opacity:1" />
</svg>
