<?xml version="1.0" encoding="UTF-8" standalone="no"?>
<svg
   xmlns:dc="http://purl.org/dc/elements/1.1/"
   xmlns:cc="http://creativecommons.org/ns#"
   xmlns:rdf="http://www.w3.org/1999/02/22-rdf-syntax-ns#"
   xmlns:svg="http://www.w3.org/2000/svg"
   xmlns="http://www.w3.org/2000/svg"
   xmlns:sodipodi="http://sodipodi.sourceforge.net/DTD/sodipodi-0.dtd"
   xmlns:inkscape="http://www.inkscape.org/namespaces/inkscape"
   id="svg8"
   version="1.1"
   viewBox="0 0 79.374998 79.375002"
   height="300"
   width="300"
   sodipodi:docname="4chan.svg"
   inkscape:version="0.92.4 (5da689c313, 2019-01-14)">
  <sodipodi:namedview
     pagecolor="#ffffff"
     bordercolor="#666666"
     borderopacity="1"
     objecttolerance="10"
     gridtolerance="10"
     guidetolerance="10"
     inkscape:pageopacity="0"
     inkscape:pageshadow="2"
     inkscape:window-width="1252"
     inkscape:window-height="997"
     id="namedview7"
     showgrid="false"
     inkscape:zoom="2.2250293"
     inkscape:cx="147.18414"
     inkscape:cy="143.54328"
     inkscape:window-x="653"
     inkscape:window-y="12"
     inkscape:window-maximized="0"
     inkscape:current-layer="svg8" />
  <defs
     id="defs2" />
  <metadata
     id="metadata5">
    <rdf:RDF>
      <cc:Work
         rdf:about="">
        <dc:format>image/svg+xml</dc:format>
        <dc:type
           rdf:resource="http://purl.org/dc/dcmitype/StillImage" />
        <dc:title />
      </cc:Work>
    </rdf:RDF>
  </metadata>
  <g
     transform="matrix(0.59199251,0,0,0.59199251,15.841621,-112.76015)"
     id="layer1">
    <path
       id="path823"
       d="m 30.062325,295.03167 c -3.895508,-1.00799 -5.162292,-3.14783 -7.047001,-5.96082 -1.511494,2.18347 -3.055379,3.30544 -5.17861,2.76877 -3.151161,-0.8713 -5.99297,-4.16954 -6.999964,-8.12425 -0.9724853,-3.81917 0.06435,-7.88665 2.872972,-11.27058 2.699314,-3.25223 7.101818,-6.09224 12.926249,-8.33859 1.221255,-0.47101 4.401467,-1.52323 4.603039,-1.52297 0.183763,1.8e-4 0.88173,1.16227 2.035134,3.38827 4.571414,8.82258 5.726456,18.29829 2.995939,24.57798 -1.32091,2.38322 -3.355268,5.22029 -6.207758,4.48219 z m 3.88166,-4.70335 c 1.059646,-1.69807 1.174143,-3.60869 1.497193,-5.32198 0.377827,-4.1806 -0.526027,-8.75292 -1.758512,-12.46078 -0.475201,-1.28645 -0.973413,-2.57597 -1.42012,-3.58936 -0.398285,-0.90429 -0.903423,-1.87901 -1.276823,-2.57506 -0.674412,-1.19066 -0.745196,-1.34794 -1.231456,-1.17956 -3.852826,1.44197 -6.170855,2.27373 -9.137553,4.2205 -2.335195,1.65865 -3.654384,2.92545 -5.509489,5.31931 -0.687835,1.28317 -1.614952,2.95823 -1.804632,4.20119 -0.252883,1.85238 -0.355351,3.66788 0.182947,5.40238 0.643852,2.07462 1.97294,4.26515 3.991868,4.82463 2.83903,0.78675 4.116216,-1.9571 4.582059,-4.10689 0.186964,-0.96081 0.167008,-1.86777 0.862834,-0.53247 1.386898,2.6235 2.941719,5.38417 5.374598,7.04887 1.852101,1.2234 4.537143,1.05648 5.647086,-1.25078 z m -3.511243,1.26333 c -2.12081,-0.3511 -3.427609,-2.00354 -4.699655,-3.78473 -1.548921,-2.16888 -1.736186,-3.28497 -2.859482,-4.73526 -0.521945,-0.47297 -1.120363,-0.0158 -1.244026,0.70493 -0.142683,0.83162 -0.413265,1.88535 -0.942004,3.06869 -0.405304,0.87607 -0.672156,1.25666 -1.475342,1.61441 -0.530013,0.18933 -1.238803,0.18451 -1.824238,-0.088 -2.634445,-1.37079 -3.420146,-4.3365 -3.541029,-7.09856 -0.06755,-1.54354 0.352993,-2.92818 0.99801,-4.28637 0.445815,-0.94018 0.361601,-0.87579 1.067876,-0.81657 6.085715,0.0327 11.793937,0.0259 17.923792,0.0259 1.123387,4.14418 1.522553,10.99628 -0.81068,14.13867 -0.646859,0.82467 -1.595149,1.42212 -2.593222,1.25689 z m 21.152085,-4.51487 c -2.137873,-2.15844 -3.958273,-5.11574 -5.250758,-9.0289 -1.308696,-3.96224 -2.075251,-7.40806 -2.257708,-11.53866 4.822856,-1.62257 10.496991,-2.78497 14.924782,-2.81296 4.413144,-5.6e-4 8.07638,0.72596 11.231774,2.22749 3.664181,1.74364 5.705908,4.14857 5.698324,6.71202 -0.0056,1.86899 -1.147033,3.64422 -3.306886,5.14277 -1.280327,0.90033 -2.792939,1.39056 -4.131285,2.11833 0.69577,0.55415 1.471922,1.23211 1.871762,2.01987 0.398408,1.03589 0.477797,1.98299 0.0964,3.01611 -0.974205,2.63891 -4.336445,5.13111 -8.015141,5.66789 -4.069104,0.59375 -7.999579,-0.63474 -10.861264,-3.52396 z m 11.448301,1.00979 c 0.671861,-0.14291 2.5993,-0.6746 3.739066,-1.84599 1.299981,-1.13298 1.410724,-2.77118 0.730296,-3.92943 -0.614282,-0.99192 -2.998622,-2.69962 -4.423196,-2.94323 0.958558,-0.30723 1.754574,-0.52336 2.456285,-0.7746 2.572746,-0.87221 3.639084,-1.35687 5.470581,-2.67557 0.945994,-0.77612 2.554831,-1.9893 2.249865,-3.15158 -1.4093,-5.3711 -7.395516,-6.71148 -12.171295,-6.85681 -5.421459,-0.16498 -10.130619,0.69929 -14.749714,2.23099 0.733297,5.43441 1.920533,10.65285 5.161089,15.04687 3.521822,4.60689 7.275763,5.92419 11.537023,4.89935 z m -6.070222,-1.35472 c -4.529281,-2.75934 -7.31689,-6.36367 -8.433321,-11.59372 7.203695,0.10406 14.877893,0.0321 21.980936,-0.004 -1.801625,1.86981 -4.949459,2.72424 -7.185715,3.37955 -1.583327,0.44363 -0.914953,1.52995 -0.04711,1.84273 1.113011,0.36948 1.819191,0.82324 2.367735,1.19265 1.029592,0.68876 1.61047,1.61168 1.518144,2.41207 -0.118959,2.07556 -3.011813,3.17072 -4.457104,3.48851 -1.973222,0.11338 -4.23395,0.15146 -5.743565,-0.71779 z m -9.318781,-39.37472 c -2.277303,-6.88097 -2.646303,-13.69807 -1.0355,-19.13022 0.817482,-2.75681 1.952022,-4.72064 3.552111,-6.14851 2.441185,-2.17844 5.312294,-1.96329 7.871456,0.58984 1.466191,1.64483 2.227614,3.01072 3.154496,4.82126 1.263779,-1.93452 3.216043,-3.01099 5.340807,-2.22835 2.255828,0.86994 4.261949,3.09939 5.41851,6.02174 0.555922,1.40467 0.806981,2.7938 0.806546,4.46274 -9.26e-4,1.84038 -0.380215,3.49216 -1.193316,5.19061 -0.32643,0.68189 -1.212643,2.10341 -1.516449,2.43247 -1.009717,1.16286 -2.173556,2.34159 -3.448116,3.29167 -3.029453,2.21676 -7.587226,4.14681 -12.640469,5.35278 -0.634005,0.15131 -3.998102,0.8465 -4.09629,0.8465 -0.873852,-1.79016 -1.640923,-3.7903 -2.213786,-5.50253 z m 6.93255,2.44453 c 3.211923,-0.89642 6.301884,-2.24111 8.430775,-3.54 2.286988,-1.3193 4.195071,-3.27892 5.49925,-5.23473 0.731779,-1.44734 1.340039,-2.51867 1.614997,-4.35486 0.149862,-1.05747 0.162595,-2.12725 0.03603,-3.0276 -0.474467,-2.25156 -1.598672,-4.56155 -3.114242,-5.45032 -1.227903,-0.65443 -2.149391,-0.65991 -3.158913,0.033 -0.76688,0.52635 -1.461119,1.46507 -1.81799,2.14924 -0.649209,1.2446 -0.614451,1.6879 -0.796666,2.42488 -0.06682,0.41002 -0.158242,0.0995 -0.413422,-0.63663 -0.336447,-1.1175 -0.820784,-2.02052 -1.23834,-2.91871 -1.204408,-2.33174 -2.8864,-5.34142 -5.476739,-5.87996 -2.466874,-0.51287 -4.267709,2.48986 -4.9951,4.21318 -0.468924,1.11097 -0.962747,3.41419 -1.026202,4.07459 -0.157107,1.63506 -0.301995,4.57423 -0.138796,6.48229 0.138533,1.61967 0.309659,2.90283 0.579443,4.28412 0.309518,1.58473 0.777198,3.20486 1.316305,4.58639 0.408712,1.03939 0.819714,2.78016 1.39609,3.54328 0.809561,-0.05 1.674115,-0.30014 3.30352,-0.74816 z m -5.885148,-13.85147 c 0.02235,-1.09062 0.06466,-1.53186 0.157631,-1.64373 3.926427,0.0494 6.602346,0.13814 10.032838,0.26648 7.540668,-0.0983 7.796221,-0.045 10.375047,-0.0512 0.319451,0.91533 0.150181,2.39268 -0.216676,3.58966 -1.424272,3.57219 -3.590279,6.05479 -6.9833,7.90203 -3.27982,1.78561 -7.032126,2.95767 -10.236905,3.64805 -2.068041,-4.05068 -3.155923,-9.66035 -3.128635,-13.71129 z m -32.14941,15.5637 c -4.490468,-0.46594 -8.1590449,-1.89478 -10.3716668,-4.03958 -3.0179726,-2.92547 -2.6673108,-6.52716 1.0752288,-9.29741 1.5314174,-1.13356 2.5620062,-1.58527 4.017835,-2.35402 -0.663519,-0.54836 -1.5114836,-1.11215 -1.9593944,-1.90453 -1.3888365,-2.57765 0.6582425,-6.12268 4.6913824,-8.12429 3.514032,-1.74399 7.436967,-1.75197 10.88099,-0.0221 2.966213,1.48985 5.399101,4.12603 7.393424,8.01122 1.092498,2.12835 1.742227,3.8226 2.56345,6.68464 0.545874,1.90239 1.526043,6.59265 1.526043,7.30232 -4.025401,2.00579 -9.859208,3.39515 -14.075834,3.79156 -1.421788,0.12477 -4.310214,0.10074 -5.741458,-0.0478 z m 4.954323,-2.18472 c 2.413238,-0.16674 2.929942,-0.32624 5.093228,-0.67956 1.512691,-0.39547 2.724848,-0.69294 4.162289,-1.16894 0.97069,-0.28629 2.592517,-0.89865 3.346208,-1.15954 0.05795,-1.33081 -1.064993,-4.78986 -1.354392,-5.64391 -1.23737,-3.9528 -3.410836,-7.55189 -6.003458,-10.53405 -2.55545,-2.93941 -7.034933,-4.08528 -10.176245,-3.0828 -1.893618,0.6043 -4.98434,2.20922 -4.904262,4.5567 0.115577,1.07627 0.544649,2.04585 1.879653,2.87061 1.243363,0.75983 2.478737,1.18699 3.187856,1.47162 -4.285067,1.6242 -9.2450217,4.24043 -9.7262586,6.99689 -0.3709459,2.79318 2.3489268,4.38781 4.3089076,5.0876 3.398224,1.17483 7.127469,1.49674 10.186474,1.28538 z M 9.7104334,246.47005 c -1.9436819,-1.28135 -2.5252547,-2.69223 -1.5614876,-4.5839 0.9225032,-1.22418 2.0867482,-2.16451 3.4388482,-2.86815 2.138396,-1.09128 4.017958,-1.96462 6.082196,-2.87183 3.682906,0.10523 8.47245,0.1681 12.423546,0.12493 1.65486,2.97429 2.491272,6.28906 3.302508,9.45141 -2.706564,1.07933 -5.579496,1.88892 -8.14917,2.44667 -1.910672,0.41471 -3.43906,0.45475 -5.615285,0.48365 -3.333813,0.079 -7.284438,-0.71778 -9.9211556,-2.18278 z"
       style="fill:#ffffff;fill-opacity:1;stroke-width:0.09260417"
       inkscape:connector-curvature="0" />
  </g>
</svg>
