<?xml version="1.0" encoding="UTF-8" standalone="no"?>
<svg
   xmlns:dc="http://purl.org/dc/elements/1.1/"
   xmlns:cc="http://creativecommons.org/ns#"
   xmlns:rdf="http://www.w3.org/1999/02/22-rdf-syntax-ns#"
   xmlns:svg="http://www.w3.org/2000/svg"
   xmlns="http://www.w3.org/2000/svg"
   width="300"
   height="300"
   viewBox="0 0 79.374998 79.375002"
   version="1.1"
   id="svg8">
  <defs
     id="defs2" />
  <metadata
     id="metadata5">
    <rdf:RDF>
      <cc:Work
         rdf:about="">
        <dc:format>image/svg+xml</dc:format>
        <dc:type
           rdf:resource="http://purl.org/dc/dcmitype/StillImage" />
        <dc:title></dc:title>
      </cc:Work>
    </rdf:RDF>
  </metadata>
  <path
     id="path4530"
     d="m 27.006547,61.595156 c -2.464822,-0.486468 -4.63169,-1.638428 -6.555422,-3.799751 -2.707093,-3.041434 -3.266258,-9.320169 -0.275669,-12.58662 1.294178,-1.413557 5.476091,-5.363575 5.476091,-5.363575 -0.154618,2.323917 -0.116596,4.552646 1.252282,6.588582 -3.261725,2.249004 -4.17803,5.443012 -2.224091,7.910196 1.830997,2.311948 5.054654,2.098427 6.677128,0.829831 4.157374,-3.848107 8.105908,-7.641424 11.767211,-11.767841 0.955171,-0.966005 1.776938,-2.207273 1.788922,-3.338495 0,-1.646197 -0.453474,-2.426517 -1.519021,-3.455977 -0.50146,-0.484477 -0.421232,-0.49329 -0.763105,-0.825546 0.725129,-0.766562 3.222299,-3.273746 3.946485,-3.972648 4.692398,3.354223 4.720145,10.517339 1.908372,13.774078 -3.434289,3.977769 -9.918591,10.42706 -13.789235,14.079362 -2.149368,1.543867 -4.691018,2.432581 -7.689925,1.9284 z m 3.339119,-16.762217 c -1.156888,-1.625378 -1.300433,-4.162162 -1.172532,-5.451542 0.189668,-1.912055 1.344191,-3.655998 2.29103,-5.079265 0.306011,-0.459988 3.261416,-3.524809 6.881695,-7.132012 4.483335,-4.40719 6.485438,-7.995822 12.123793,-8.514253 0.588361,-0.05448 1.615317,-0.03187 2.282126,0.05024 2.048877,0.280421 4.697875,1.924455 6.079376,3.485449 2.142241,2.420574 3.105519,5.247854 2.513686,8.119375 -0.601962,2.920664 -2.156845,4.565838 -3.872344,6.661031 -1.132138,1.170136 -2.392958,2.427797 -3.420492,3.473404 0.68822,-2.273139 -0.263743,-5.300841 -1.070715,-6.746276 l 2.333585,-2.88193 c 0.841256,-1.038935 0.797692,-4.059522 -0.842237,-5.571924 -1.639929,-1.512403 -4.628919,-1.749856 -6.060269,-0.348794 -3.530377,3.740335 -8.541921,8.432073 -12.001159,12.015262 -2.05926,1.968711 -1.925473,4.584828 0.732607,7.645257 -0.82601,0.869223 -2.848668,3.060904 -3.620233,3.855235 -1.401151,-1.285926 -2.274976,-2.310663 -3.177917,-3.579257 z"
     style="fill:#ffffff;stroke-width:0.14263286;fill-opacity:1" />
</svg>
