<?xml version="1.0" encoding="UTF-8" standalone="no"?>
<svg
   xmlns:dc="http://purl.org/dc/elements/1.1/"
   xmlns:cc="http://creativecommons.org/ns#"
   xmlns:rdf="http://www.w3.org/1999/02/22-rdf-syntax-ns#"
   xmlns:svg="http://www.w3.org/2000/svg"
   xmlns="http://www.w3.org/2000/svg"
   id="svg8"
   version="1.1"
   viewBox="0 0 79.374998 79.375002"
   height="300"
   width="300">
  <defs
     id="defs2" />
  <metadata
     id="metadata5">
    <rdf:RDF>
      <cc:Work
         rdf:about="">
        <dc:format>image/svg+xml</dc:format>
        <dc:type
           rdf:resource="http://purl.org/dc/dcmitype/StillImage" />
        <dc:title></dc:title>
      </cc:Work>
    </rdf:RDF>
  </metadata>
  <g
     transform="translate(0,-217.62499)"
     id="layer1">
    <path
       id="rect843"
       transform="matrix(0.26458333,0,0,0.26458333,0,217.62499)"
       d="M 150.20898 69.609375 C 141.0822 69.620714 138.66351 69.734825 133.88281 70.380859 C 118.45288 72.466478 105.26078 76.363463 92.082031 82.726562 C 84.885221 86.201385 81.509056 88.119587 75.042969 92.412109 C 67.356177 97.515001 61.408781 102.42042 54.265625 109.54688 C 47.666052 116.13104 43.959043 120.43779 39.330078 126.9043 C 35.483217 132.27826 35.398303 132.65502 38.863281 128.9707 C 58.0498 108.56961 83.915931 94.648414 111.5332 89.859375 C 118.619 88.630651 125.16607 88.104637 133.37305 88.105469 C 154.57087 88.10751 173.30456 92.605734 192.38477 102.27539 C 211.14849 111.78461 227.4833 125.60538 240.29492 142.81055 C 241.72385 144.72953 243.07012 146.23113 243.28711 146.14844 C 243.50409 146.06567 248.51295 142.96474 254.41797 139.25781 C 260.32299 135.55093 265.15766 132.39241 265.16211 132.23828 C 265.17761 131.69898 260.42272 124.99436 256.79688 120.44336 C 252.10651 114.55622 241.81338 104.26199 235.91992 99.564453 C 217.21529 84.655502 196.23574 75.190712 173.31445 71.318359 C 164.42776 69.817018 161.43303 69.595391 150.20898 69.609375 z M 150.35352 112.08789 C 145.34734 112.08714 140.37855 112.30058 137.625 112.72852 C 110.64174 116.9213 87.957076 130.92384 72.626953 152.85156 C 70.947766 155.25341 71.125847 155.15935 75.931641 151.11719 C 81.898581 146.09835 89.473986 141.37349 96.908203 138.03125 C 131.13589 122.64347 171.11047 130.20115 198.15039 157.17383 C 201.42757 160.44285 206.45693 166.16499 207.44922 167.75391 C 207.67195 168.11069 207.94366 168.40234 208.05273 168.40234 C 208.16181 168.40234 212.98421 165.40984 218.76953 161.75391 C 224.55485 158.09793 229.32951 154.92294 229.38086 154.69727 C 229.56247 153.89899 222.81126 145.43224 218.25781 140.74805 C 203.21184 125.27005 184.87039 115.91752 163.30469 112.73047 C 160.40368 112.30174 155.35969 112.08864 150.35352 112.08789 z M 3.9472656 135.04297 L 4.0371094 147.68359 L 4.1269531 160.32422 L 77.251953 206.53125 C 117.47146 231.94532 150.45529 252.73839 150.54883 252.73828 C 150.64237 252.73817 183.62619 231.94536 223.8457 206.53125 L 296.97266 160.32227 L 297.06055 147.68359 L 297.15039 135.04297 L 295.36133 136.18164 C 294.37694 136.80783 261.39149 157.64683 222.06055 182.49023 L 150.54883 227.66016 L 79.039062 182.49023 C 39.70812 157.64683 6.7226698 136.80783 5.7382812 136.18164 L 3.9472656 135.04297 z M 150.69922 154.51562 C 147.06182 154.5409 143.11978 154.82473 140.68555 155.30469 C 128.77953 157.65276 117.66577 164.22974 110.03516 173.44336 C 108.56112 175.22318 107.41562 176.7379 107.48828 176.81055 C 107.56096 176.88311 108.43887 176.41981 109.44141 175.7793 C 114.32781 172.65718 120.50673 170.21381 126.0293 169.2207 C 129.83867 168.53566 137.25948 168.53791 141.08203 169.22461 C 152.06411 171.199 162.67105 177.73317 170.60547 187.41016 C 172.0028 189.11438 173.17303 190.50977 173.20508 190.50977 C 173.2372 190.50977 177.82481 187.62567 183.40039 184.10156 C 188.97598 180.57746 193.59095 177.53968 193.6543 177.34961 C 193.82445 176.83915 191.10123 173.35509 188.25 170.43359 C 179.71907 161.69249 168.54368 156.17294 156.52539 154.76367 C 154.95363 154.57936 152.88166 154.50046 150.69922 154.51562 z "
       style="opacity:1;fill:#ffffff;fill-opacity:1;fill-rule:evenodd;stroke:#ffffff;stroke-width:0;stroke-linecap:square;stroke-linejoin:round;stroke-miterlimit:4;stroke-dasharray:none;stroke-opacity:1;paint-order:normal" />
  </g>
</svg>
