<?xml version="1.0" encoding="UTF-8" standalone="no"?>
<svg
   xmlns:dc="http://purl.org/dc/elements/1.1/"
   xmlns:cc="http://creativecommons.org/ns#"
   xmlns:rdf="http://www.w3.org/1999/02/22-rdf-syntax-ns#"
   xmlns:svg="http://www.w3.org/2000/svg"
   xmlns="http://www.w3.org/2000/svg"
   xmlns:sodipodi="http://sodipodi.sourceforge.net/DTD/sodipodi-0.dtd"
   xmlns:inkscape="http://www.inkscape.org/namespaces/inkscape"
   id="svg8"
   version="1.1"
   viewBox="0 0 79.374998 79.375002"
   height="300"
   width="300"
   sodipodi:docname="audible.svg"
   inkscape:version="0.92.4 (5da689c313, 2019-01-14)">
  <sodipodi:namedview
     pagecolor="#ffffff"
     bordercolor="#666666"
     borderopacity="1"
     objecttolerance="10"
     gridtolerance="10"
     guidetolerance="10"
     inkscape:pageopacity="0"
     inkscape:pageshadow="2"
     inkscape:window-width="788"
     inkscape:window-height="686"
     id="namedview7"
     showgrid="false"
     borderlayer="true"
     inkscape:showpageshadow="false"
     inkscape:zoom="0.78666667"
     inkscape:cx="127.75424"
     inkscape:cy="150"
     inkscape:window-x="1061"
     inkscape:window-y="271"
     inkscape:window-maximized="0"
     inkscape:current-layer="svg8" />
  <defs
     id="defs2" />
  <metadata
     id="metadata5">
    <rdf:RDF>
      <cc:Work
         rdf:about="">
        <dc:format>image/svg+xml</dc:format>
        <dc:type
           rdf:resource="http://purl.org/dc/dcmitype/StillImage" />
        <dc:title></dc:title>
      </cc:Work>
    </rdf:RDF>
  </metadata>
  <g
     transform="matrix(0.65391925,0,0,0.65391925,13.7655,-129.25793)"
     id="layer1">
    <path
       id="rect843"
       transform="matrix(0.26458333,0,0,0.26458333,0,217.62499)"
       d="m 150.20898,69.609375 c -9.12678,0.01134 -11.54547,0.12545 -16.32617,0.771484 -15.42993,2.085619 -28.62203,5.982604 -41.800779,12.345703 -7.19681,3.474823 -10.572975,5.393025 -17.039062,9.685547 -7.686792,5.102892 -13.634188,10.008311 -20.777344,17.134771 -6.599573,6.58416 -10.306582,10.89091 -14.935547,17.35742 -3.846861,5.37396 -3.931775,5.75072 -0.466797,2.0664 19.186519,-20.40109 45.05265,-34.322286 72.669919,-39.111325 7.0858,-1.228724 13.63287,-1.754738 21.83985,-1.753906 21.19782,0.002 39.93151,4.500265 59.01172,14.169921 18.76372,9.50922 35.09853,23.32999 47.91015,40.53516 1.42893,1.91898 2.7752,3.42058 2.99219,3.33789 0.21698,-0.0828 5.22584,-3.1837 11.13086,-6.89063 5.90502,-3.70688 10.73969,-6.8654 10.74414,-7.01953 0.0155,-0.5393 -4.73939,-7.24392 -8.36523,-11.79492 -4.69037,-5.88714 -14.9835,-16.18137 -20.87696,-20.878907 -18.70463,-14.908951 -39.68418,-24.373741 -62.60547,-28.246094 -8.88669,-1.501341 -11.88142,-1.722968 -23.10547,-1.708984 z m 0.14454,42.478515 c -5.00618,-7.5e-4 -9.97497,0.21269 -12.72852,0.64063 -26.98326,4.19278 -49.667924,18.19532 -64.998047,40.12304 -1.679187,2.40185 -1.501106,2.30779 3.304688,-1.73437 5.96694,-5.01884 13.542345,-9.7437 20.976562,-13.08594 34.227687,-15.38778 74.202267,-7.8301 101.242187,19.14258 3.27718,3.26902 8.30654,8.99116 9.29883,10.58008 0.22273,0.35678 0.49444,0.64843 0.60351,0.64843 0.10908,0 4.93148,-2.9925 10.7168,-6.64843 5.78532,-3.65598 10.55998,-6.83097 10.61133,-7.05664 0.18161,-0.79828 -6.5696,-9.26503 -11.12305,-13.94922 -15.04597,-15.478 -33.38742,-24.83053 -54.95312,-28.01758 -2.90101,-0.42873 -7.945,-0.64183 -12.95117,-0.64258 z m -146.4062544,22.95508 0.089844,12.64062 0.089844,12.64063 73.1250004,46.20703 c 40.219506,25.41407 73.203336,46.20714 73.296876,46.20703 0.0935,-1.1e-4 33.07736,-20.79292 73.29687,-46.20703 l 73.12696,-46.20898 0.0879,-12.63868 0.0898,-12.64062 -1.78906,1.13867 c -0.98439,0.62619 -33.96984,21.46519 -73.30078,46.30859 L 150.54883,227.66016 79.039062,182.49023 C 39.70812,157.64683 6.7226698,136.80783 5.7382812,136.18164 Z M 150.69922,154.51562 c -3.6374,0.0253 -7.57944,0.30911 -10.01367,0.78907 -11.90602,2.34807 -23.01978,8.92505 -30.65039,18.13867 -1.47404,1.77982 -2.61954,3.29454 -2.54688,3.36719 0.0727,0.0726 0.95059,-0.39074 1.95313,-1.03125 4.8864,-3.12212 11.06532,-5.56549 16.58789,-6.5586 3.80937,-0.68504 11.23018,-0.68279 15.05273,0.004 10.98208,1.97439 21.58902,8.50856 29.52344,18.18555 1.39733,1.70422 2.56756,3.09961 2.59961,3.09961 0.0321,0 4.61973,-2.8841 10.19531,-6.40821 5.57559,-3.5241 10.19056,-6.56188 10.25391,-6.75195 0.17015,-0.51046 -2.55307,-3.99452 -5.4043,-6.91602 -8.53093,-8.7411 -19.70632,-14.26065 -31.72461,-15.66992 -1.57176,-0.18431 -3.64373,-0.26321 -5.82617,-0.24805 z"
       style="opacity:1;fill:#ffffff;fill-opacity:1;fill-rule:evenodd;stroke:#ffffff;stroke-width:0;stroke-linecap:square;stroke-linejoin:round;stroke-miterlimit:4;stroke-dasharray:none;stroke-opacity:1;paint-order:normal"
       inkscape:connector-curvature="0" />
  </g>
</svg>
