<?xml version="1.0" encoding="UTF-8" standalone="no"?>
<svg
   xmlns:dc="http://purl.org/dc/elements/1.1/"
   xmlns:cc="http://creativecommons.org/ns#"
   xmlns:rdf="http://www.w3.org/1999/02/22-rdf-syntax-ns#"
   xmlns:svg="http://www.w3.org/2000/svg"
   xmlns="http://www.w3.org/2000/svg"
   xmlns:sodipodi="http://sodipodi.sourceforge.net/DTD/sodipodi-0.dtd"
   xmlns:inkscape="http://www.inkscape.org/namespaces/inkscape"
   id="svg8"
   version="1.1"
   viewBox="0 0 79.374998 79.375002"
   height="300"
   width="300"
   sodipodi:docname="bbc.svg"
   inkscape:version="0.92.4 (5da689c313, 2019-01-14)">
  <sodipodi:namedview
     pagecolor="#ffffff"
     bordercolor="#666666"
     borderopacity="1"
     objecttolerance="10"
     gridtolerance="10"
     guidetolerance="10"
     inkscape:pageopacity="0"
     inkscape:pageshadow="2"
     inkscape:window-width="957"
     inkscape:window-height="797"
     id="namedview7"
     showgrid="false"
     borderlayer="true"
     inkscape:showpageshadow="false"
     inkscape:zoom="1.5733333"
     inkscape:cx="208.95743"
     inkscape:cy="158.359"
     inkscape:window-x="954"
     inkscape:window-y="85"
     inkscape:window-maximized="0"
     inkscape:current-layer="svg8" />
  <defs
     id="defs2" />
  <metadata
     id="metadata5">
    <rdf:RDF>
      <cc:Work
         rdf:about="">
        <dc:format>image/svg+xml</dc:format>
        <dc:type
           rdf:resource="http://purl.org/dc/dcmitype/StillImage" />
        <dc:title></dc:title>
      </cc:Work>
    </rdf:RDF>
  </metadata>
  <g
     transform="matrix(0.70531376,0,0,0.70531376,11.777635,-139.98335)"
     id="layer1">
    <path
       id="rect825"
       d="m 23.607516,241.78754 -23.34293217,0.0182 0.0161648,21.66582 H 23.607516 Z m 4.597873,0 v 21.68403 c 7.717859,-2.8e-4 15.435717,2.1e-4 23.153577,6.4e-4 -0.05277,-7.17071 0.06116,-14.49576 0.0077,-21.66646 -7.664622,-0.0571 -15.496657,0.0395 -23.161276,-0.0182 z m 27.915661,0.009 v 21.67569 h 22.989367 v -21.67569 z m -49.91977,2.62672 3.0378807,0.001 c 3.6906163,0.001 5.1914793,0.36485 6.4317633,1.63631 2.252593,2.30921 1.289089,4.4906 -0.477431,6.10824 1.889109,0.68752 2.866967,2.19077 3.050906,3.80528 0.212471,1.86496 -0.741806,3.37765 -2.607472,4.22456 -1.123823,0.51016 -2.157416,0.63177 -5.412507,0.6376 l -4.02314,0.007 v -8.21048 z m 27.915661,6.4e-4 h 3.000036 c 7.846488,-0.24969 8.937394,5.12554 5.716652,7.79914 4.272259,1.01958 5.315324,8.65772 -4.66276,8.62184 h -4.053928 z m 40.559812,1.16945 0.08017,3.1001 c -1.702735,-0.85181 -3.681048,-1.47165 -5.40417,-1.5786 -4.047509,-0.22932 -7.047245,1.56347 -7.214943,4.88716 -0.318636,6.31521 7.077904,7.06924 10.978939,5.38878 l 1.724203,-0.77872 v 3.18606 l -1.559992,0.53304 c -5.051088,1.72593 -10.409472,0.68557 -13.034791,-3.79093 -2.453353,-4.32752 -0.236831,-10.09539 4.674845,-11.60566 3.641905,-1.11983 6.36848,-0.39978 9.755739,0.65877 z m -37.604036,1.37653 v 4.4343 l 1.772392,-0.0313 c 3.73423,-0.066 3.594038,-4.44437 0.125455,-4.4176 z m -27.9156612,0.0814 v 4.26944 h 2.0059492 c 4.247116,0 4.075132,-4.26944 -0.01549,-4.26944 z m 0,6.89617 v 4.26945 h 2.9887122 c 3.915995,0 4.151958,-4.26945 0,-4.26945 z m 27.9156612,6.6e-4 v 4.26946 l 2.858045,-0.0422 c 3.987363,-0.0588 3.949112,-4.3277 0,-4.26946 z"
       style="opacity:1;fill:#ffffff;fill-opacity:1;fill-rule:evenodd;stroke:#1d0083;stroke-width:0;stroke-linecap:square;stroke-linejoin:round;stroke-miterlimit:4;stroke-dasharray:none;stroke-opacity:1;paint-order:normal"
       inkscape:connector-curvature="0"
       sodipodi:nodetypes="ccccccccccccccccccscsccccccccccccccscccscscccssccssscccssccsssc" />
  </g>
</svg>
