<?xml version="1.0" encoding="UTF-8" standalone="no"?>
<svg
   xmlns:dc="http://purl.org/dc/elements/1.1/"
   xmlns:cc="http://creativecommons.org/ns#"
   xmlns:rdf="http://www.w3.org/1999/02/22-rdf-syntax-ns#"
   xmlns:svg="http://www.w3.org/2000/svg"
   xmlns="http://www.w3.org/2000/svg"
   id="svg8"
   version="1.1"
   viewBox="0 0 79.374998 79.375002"
   height="300"
   width="300">
  <defs
     id="defs2" />
  <metadata
     id="metadata5">
    <rdf:RDF>
      <cc:Work
         rdf:about="">
        <dc:format>image/svg+xml</dc:format>
        <dc:type
           rdf:resource="http://purl.org/dc/dcmitype/StillImage" />
        <dc:title></dc:title>
      </cc:Work>
    </rdf:RDF>
  </metadata>
  <g
     transform="translate(0,-217.62499)"
     id="layer1">
    <path
       id="rect825"
       d="m 23.607516,241.78754 -23.34293217,0.0182 0.0161648,21.66582 H 23.607516 Z m 4.597873,0 v 21.68403 c 7.717859,-2.8e-4 15.435717,2.1e-4 23.153577,6.4e-4 -0.05277,-7.17071 0.06116,-14.49576 0.0077,-21.66646 -7.664622,-0.0571 -15.496657,0.0395 -23.161276,-0.0182 z m 27.915661,0.009 v 21.67569 h 22.989367 v -21.67569 z m -49.91977,2.62672 3.0378807,0.001 c 3.6906163,0.001 5.1914793,0.36485 6.4317633,1.63631 2.252593,2.30921 1.289089,4.4906 -0.477431,6.10824 1.889109,0.68752 2.866967,2.19077 3.050906,3.80528 0.212471,1.86496 -0.741806,3.37765 -2.607472,4.22456 -1.123823,0.51016 -2.157416,0.63177 -5.412507,0.6376 l -4.02314,0.007 v -8.21048 z m 27.915661,6.4e-4 h 3.000036 c 1.649878,0 3.561231,0.2429 4.285491,0.38487 3.476317,0.68146 4.22822,5.34011 1.431161,7.41427 4.206956,1.40674 3.849796,6.42172 0.812611,7.87007 -1.286445,0.61347 -1.883821,0.75177 -5.475371,0.75177 h -4.053928 z m 34.65275,0.0405 c 1.457979,0.0173 2.957939,0.20722 4.100755,0.56446 l 1.806307,0.56449 0.100071,1.55037 c 0.05507,0.85248 0.0464,1.54973 -0.0199,1.54973 -1.702735,-0.85181 -3.681048,-1.47165 -5.40417,-1.5786 -4.047509,-0.22932 -6.601594,1.5745 -6.919902,4.88716 -0.201928,2.10152 0.06523,3.01879 1.281608,4.40416 1.986728,2.26276 5.710773,2.65271 9.40229,0.98462 l 1.724203,-0.77872 v 1.59271 1.59335 l -1.559992,0.53304 c -2.194694,0.75008 -5.820613,0.93537 -7.734537,0.39513 -2.236176,-0.63118 -4.135212,-2.13102 -5.300254,-4.18606 -2.453353,-4.32752 -0.189173,-9.94831 4.674845,-11.60566 0.974759,-0.33214 2.39069,-0.48749 3.848667,-0.47018 z m -31.696974,2.50548 v 4.4343 l 1.645946,-0.15779 c 0.931288,-0.0895 1.929058,-0.41512 2.298937,-0.74985 0.757976,-0.68596 0.842927,-1.74668 0.209751,-2.61261 -0.310224,-0.42425 -1.000759,-0.65244 -2.298936,-0.7601 z m -27.9156612,0.0814 v 4.26944 h 1.5844622 c 1.74255,0 3.075041,-0.61779 3.04975,-2.11362 -0.0247,-1.4609 -1.136759,-2.15582 -3.065239,-2.15582 z m 0,6.89617 v 4.26945 h 2.3143322 c 1.480348,-0.026 3.931285,0.13013 3.925639,-2.13472 -0.005,-2.00705 -2.817831,-2.13216 -3.925639,-2.13473 z m 27.9156612,6.6e-4 v 4.26946 h 2.225814 c 1.749822,0 3.674489,-0.33437 3.685737,-2.13474 0.0086,-1.3908 -1.216712,-2.13472 -3.685737,-2.13472 z"
       style="opacity:1;fill:#ffffff;fill-opacity:1;fill-rule:evenodd;stroke:#1d0083;stroke-width:0;stroke-linecap:square;stroke-linejoin:round;stroke-miterlimit:4;stroke-dasharray:none;stroke-opacity:1;paint-order:normal" />
  </g>
</svg>
