<?xml version="1.0" encoding="UTF-8" standalone="no"?>
<svg
   xmlns:dc="http://purl.org/dc/elements/1.1/"
   xmlns:cc="http://creativecommons.org/ns#"
   xmlns:rdf="http://www.w3.org/1999/02/22-rdf-syntax-ns#"
   xmlns:svg="http://www.w3.org/2000/svg"
   xmlns="http://www.w3.org/2000/svg"
   id="svg8"
   version="1.1"
   viewBox="0 0 79.374998 79.375002"
   height="300"
   width="300">
  <defs
     id="defs2" />
  <metadata
     id="metadata5">
    <rdf:RDF>
      <cc:Work
         rdf:about="">
        <dc:format>image/svg+xml</dc:format>
        <dc:type
           rdf:resource="http://purl.org/dc/dcmitype/StillImage" />
        <dc:title></dc:title>
      </cc:Work>
    </rdf:RDF>
  </metadata>
  <g
     transform="translate(0,-217.62499)"
     id="layer1">
    <path
       id="rect825"
       transform="matrix(0.26458333,0,0,0.26458333,0,217.62499)"
       d="m 76.316406,63.982422 c -0.139543,0.0053 -0.215218,0.0188 -0.242187,0.03711 -0.269707,0.183307 -13.150341,10.132393 -28.625,22.109375 L 19.3125,107.9043 l -3.308594,33.58984 -3.308594,33.58789 23.642579,27.44727 c 13.003417,15.09645 23.769257,27.49614 23.921875,27.55468 0.260976,0.10016 209.799604,20.25771 211.189454,20.31641 0.52256,0.0227 0.64808,-0.0743 0.64844,-0.50195 2.3e-4,-0.2914 3.49205,-37.72012 7.75976,-83.17578 4.26772,-45.45566 7.73038,-82.675867 7.69531,-82.710941 -0.0351,-0.03402 -47.52136,-4.62342 -105.52539,-10.195313 C 95.029166,65.459268 78.409549,63.902967 76.316406,63.982422 Z m -23.421875,29.570312 1.337891,0.144532 c 0.735042,0.07899 8.843439,0.882819 18.019531,1.787109 9.176088,0.904252 17.716437,1.854131 18.978516,2.111328 5.425073,1.10555 10.262801,2.895047 13.380861,4.949217 2.31386,1.52436 3.54169,2.78079 4.44336,4.54492 2.21943,4.34238 0.31407,10.82929 -4.06446,13.8418 -1.26184,0.8682 -3.49018,1.97543 -4.42578,2.19922 -0.652287,0.15609 -0.597094,0.20453 1.06055,0.92578 3.82132,1.66254 6.89011,4.35322 8.36328,7.33398 0.76433,1.54655 0.90103,2.07378 0.99219,3.81055 0.19279,3.67317 -0.68088,5.98733 -3.12891,8.27735 -2.46889,2.30951 -6.00266,3.79592 -11.066404,4.65429 -2.588685,0.43884 -10.451317,0.62012 -13.546875,0.3125 -1.23041,-0.12208 -7.058162,-0.69979 -12.951172,-1.2832 -5.893013,-0.58345 -13.18703,-1.32462 -16.207031,-1.64649 -3.019997,-0.32201 -5.588206,-0.58398 -5.708984,-0.58398 -0.120794,0 -0.220703,-0.36397 -0.220703,-0.80859 0,-0.84809 4.362029,-47.775376 4.605468,-49.546878 z m 64.091799,6.484376 c 0.12057,-0.120568 47.62587,4.47256 47.79492,4.62109 0.17745,0.1561 -1.06704,14.03577 -1.27734,14.2461 -0.0567,0.0567 -4.8664,-0.35533 -10.68946,-0.91602 -5.82306,-0.56069 -10.65611,-0.95366 -10.74023,-0.87305 -0.0841,0.0805 -0.22537,1.1008 -0.31445,2.26758 l -0.16211,2.1211 9.73437,0.91211 c 5.35384,0.50086 9.77504,0.94653 9.82617,0.99218 0.0925,0.0824 -1.10361,13.08002 -1.21289,13.17969 -0.0314,0.0302 -4.39077,-0.36212 -9.6875,-0.86914 -5.29672,-0.50717 -9.68218,-0.87055 -9.74609,-0.80664 -0.1412,0.14135 -0.60339,4.83954 -0.48633,4.94336 0.0456,0.0404 4.90387,0.52387 10.79688,1.07617 5.893,0.5523 10.81087,1.09222 10.92968,1.19922 0.13025,0.11716 0.009,2.41803 -0.30664,5.79492 -0.7816,8.3774 -0.68345,7.84412 -1.41015,7.8086 -0.33948,-0.0151 -11.21435,-1.06821 -24.16602,-2.33594 -12.95167,-1.26773 -23.55276,-2.31337 -23.55859,-2.32422 -0.0336,-0.0627 4.63225,-50.99357 4.67578,-51.03711 z m 79.41797,7.0293 c 6.78873,0.1101 13.19196,1.3197 19.2539,3.63281 2.02826,0.77393 6.20059,2.81226 7.09571,3.4668 0.42145,0.30803 0.21578,0.65946 -3.63672,6.18554 -2.24655,3.22247 -4.1251,5.90761 -4.17383,5.9668 -0.0487,0.0593 -0.37562,-0.0811 -0.72656,-0.31055 -1.51651,-0.99156 -5.98438,-3.0004 -7.89649,-3.55078 -3.88094,-1.11704 -8.76165,-1.19645 -10.73242,-0.17383 -0.71208,0.36964 -0.84766,0.56384 -0.84766,1.21289 0,0.68557 0.13728,0.85275 1.22071,1.46485 1.54694,0.87398 4.09546,1.73967 10.31836,3.50781 6.97147,1.98081 8.37594,2.47465 9.98047,3.51172 5.86085,3.78803 8.01617,11.17171 5,17.13086 -2.86336,5.65723 -9.77632,9.38129 -19.57227,10.54297 -2.62492,0.31143 -7.67771,0.40144 -10.59766,0.18945 -5.83189,-0.42353 -14.10713,-2.14263 -19.66211,-4.08398 -3.9988,-1.39752 -8.384,-3.36602 -8.2539,-3.70508 0.0668,-0.17386 2.08671,-3.22051 4.48828,-6.77149 l 4.36719,-6.45703 1.22851,0.9375 c 2.60958,1.99106 8.32421,4.3473 12.92383,5.32813 1.22694,0.26154 2.98071,0.41991 4.67188,0.42187 2.27728,0.003 2.88295,-0.0785 3.80664,-0.5039 0.60412,-0.27856 1.21428,-0.72057 1.35546,-0.98438 0.63305,-1.18288 -1.19425,-2.72122 -4.21874,-3.54883 -10.83311,-2.96436 -12.25202,-3.40435 -14.71876,-4.58398 -5.41143,-2.58784 -8.22465,-5.89842 -8.88085,-10.44727 -0.99559,-6.90149 4.19669,-13.02115 13.92187,-16.40625 3.98597,-1.38742 6.42226,-1.80573 11.35352,-1.95117 0.98567,-0.029 1.96182,-0.0372 2.93164,-0.0215 z m -118.996097,1.68164 c -0.252193,0.006 -0.475191,0.0232 -0.660156,0.0508 l -0.957031,0.14258 -0.294922,3.30078 c -0.162407,1.81534 -0.254704,3.34299 -0.205078,3.39258 0.133682,0.13379 3.189876,0.50279 4.441406,0.53711 0.597528,0.0151 1.651145,-0.0763 2.341797,-0.20704 1.738027,-0.32957 2.830193,-0.91632 3.457031,-1.85742 1.139218,-1.71039 0.362503,-3.54824 -1.875,-4.43945 -1.305185,-0.51988 -4.482694,-0.96516 -6.248047,-0.91992 z m 148.089847,1.94531 c 0.1748,-0.20145 53.72024,4.78142 54.1289,5.03711 0.17076,0.10696 -1.25167,16.43018 -1.44531,16.58594 -0.0439,0.034 -3.19532,-0.24066 -7.00195,-0.61329 -3.80664,-0.37266 -6.95147,-0.64619 -6.99024,-0.60742 -0.0388,0.0386 -0.76729,7.43331 -1.61718,16.43164 -0.84989,8.99834 -1.62385,16.73312 -1.72071,17.18946 l -0.17578,0.83008 -12.79297,-1.22071 c -7.0363,-0.67139 -12.82021,-1.25682 -12.85351,-1.30078 -0.0333,-0.0438 0.60088,-7.81482 1.41015,-17.26953 0.80928,-9.45472 1.45483,-17.20415 1.4336,-17.2207 -0.0212,-0.0151 -3.16559,-0.32268 -6.98633,-0.67969 -3.82074,-0.35679 -6.97796,-0.6739 -7.01563,-0.70508 -0.14271,-0.11792 1.45275,-16.25626 1.62696,-16.45703 z m -151.361331,15.81445 -0.271485,4.08399 c -0.149404,2.24545 -0.196013,4.15722 -0.101562,4.24804 0.36446,0.35037 3.607395,0.63486 6.648437,0.58399 2.669156,-0.0446 3.357237,-0.13322 4.294922,-0.55664 2.039894,-0.92073 2.880686,-2.41913 2.316407,-4.12891 -0.762104,-2.30918 -4.262983,-3.66505 -10.515626,-4.07422 z m -43.175781,8.41602 c 2.285974,0 2.586825,0.0558 4.001953,0.73633 2.837966,1.36471 4.551474,3.44089 5.318359,6.44531 0.973591,3.81426 -0.680494,8.05445 -4.001953,10.25976 -2.040557,1.35485 -4.955044,1.9697 -7.162109,1.50977 -2.937421,-0.61209 -5.431439,-2.57685 -6.806641,-5.35938 -0.847601,-1.71499 -0.886719,-1.89776 -0.886719,-4.16015 0,-2.17349 0.06151,-2.49758 0.751953,-3.95508 0.973215,-2.05447 2.670139,-3.75142 4.72461,-4.72461 1.471512,-0.69706 1.768387,-0.75195 4.060547,-0.75195 z m -0.248047,3.39648 c -0.544579,0.0238 -1.105331,0.12226 -1.681641,0.29492 -1.169083,0.35037 -2.892826,1.85516 -3.509766,3.06446 -2.011528,3.94291 0.907766,8.66797 5.355469,8.66797 0.831229,0 1.879027,-0.15396 2.328125,-0.3418 2.926444,-1.22275 4.404937,-4.30283 3.527344,-7.34766 -0.313414,-1.0874 -0.652863,-1.62474 -1.613281,-2.55859 -1.289459,-1.25376 -2.772515,-1.85078 -4.40625,-1.7793 z m 27.361328,14.03711 c 0.237278,-0.23093 35.698792,3.45642 38.433593,3.9961 5.366948,1.05909 10.484778,2.95994 13.513668,5.02148 1.65277,1.12486 3.60994,3.16163 4.25586,4.42773 1.49751,2.93537 0.99928,7.72702 -1.11914,10.76954 -1.52908,2.19609 -4.28465,4.23767 -6.77734,5.02343 l -1.24024,0.39258 1.85547,0.8711 c 2.4829,1.16708 4.34453,2.46612 5.92969,4.13671 2.52071,2.65656 3.39377,4.92937 3.23633,8.42188 -0.15368,3.40883 -1.45515,5.76464 -4.30859,7.80078 -5.35115,3.81853 -14.031103,4.89471 -28.144536,3.49023 -15.017087,-1.49435 -30.409463,-3.09691 -30.470703,-3.17382 -0.08958,-0.11263 4.725579,-51.0704 4.835938,-51.17774 z m 62.935551,6.0586 c 0.0383,-0.0382 5.64962,0.43277 12.46875,1.04687 l 12.39843,1.11719 v 0.6582 c 0,0.36246 -0.59873,6.98924 -1.33007,14.72461 -0.73135,7.73533 -1.37838,14.63996 -1.4375,15.34375 -0.31291,3.72473 2.23072,5.93515 6.88867,5.98633 2.51514,0.0265 3.59862,-0.29764 4.89648,-1.4668 1.78698,-1.60951 1.74602,-1.38893 3.36914,-18.24219 0.80878,-8.39769 1.5289,-15.32771 1.60156,-15.40039 0.0727,-0.0726 5.77681,0.42303 12.67579,1.10157 6.89897,0.67853 18.95525,1.83329 26.79101,2.5664 l 14.24609,1.33399 3.55665,7.04687 3.55664,7.04688 2.44921,-3.31446 c 1.34664,-1.82358 3.43312,-4.65093 4.63672,-6.2832 l 2.1875,-2.96875 0.87305,0.12109 c 0.48011,0.0661 6.59594,0.6487 13.58984,1.29493 6.99391,0.64626 13.13057,1.25374 13.63672,1.35156 l 0.91993,0.17969 -13.53516,13.42187 -13.53516,13.42188 -1,10.71484 c -0.54993,5.893 -1.0434,10.84789 -1.0957,11.00977 -0.0523,0.16176 -0.17613,0.27992 -0.27734,0.26367 -0.10122,-0.0151 -5.76854,-0.57442 -12.59375,-1.24219 v -0.002 c -6.82522,-0.66777 -12.47295,-1.27765 -12.55079,-1.35547 -0.0778,-0.0779 0.2939,-4.73661 0.82813,-10.35352 0.53424,-5.6169 0.9302,-10.52943 0.87891,-10.91797 -0.0592,-0.44821 -3.86377,-6.21784 -10.40821,-15.77929 -5.67354,-8.28907 -10.46255,-15.22441 -10.64062,-15.41407 -0.28075,-0.29896 -0.32227,-0.27315 -0.32227,0.20118 0,1.41388 -3.10457,32.74931 -3.32617,33.57226 -0.67972,2.52431 -3.06031,6.12688 -5.33594,8.07617 -5.46227,4.67895 -11.8602,6.63674 -21.71679,6.64649 -17.25035,0.0189 -29.79446,-5.56595 -34.63477,-15.41797 -1.03273,-2.10202 -1.86523,-5.07036 -1.86523,-6.65039 0,-1.11628 3.0399,-33.32312 3.15625,-33.43945 z m -40.234379,9.00586 -0.302735,3.17578 c -0.166866,1.74686 -0.254689,3.30229 -0.195312,3.45703 0.152655,0.39775 1.219157,0.50163 4.726562,0.45703 2.667682,-0.034 3.189469,-0.10615 4.058594,-0.56445 v -0.002 c 1.322396,-0.69743 1.828125,-1.51487 1.828125,-2.95117 0,-1.04591 -0.08553,-1.2287 -0.896484,-1.92969 -1.262846,-1.09164 -3.315777,-1.59753 -6.585938,-1.62304 z m 182.445309,5.46679 c 1.6366,-0.0322 3.28703,0.83409 3.91602,2.49414 1.31848,3.47989 -2.05997,6.88581 -5.39453,5.43946 -2.47865,-1.07509 -3.32065,-3.92238 -1.82813,-6.17774 0.76935,-1.16256 2.03374,-1.73078 3.30664,-1.75586 z m 0.0156,0.8418 c -0.36952,0.0184 -0.75687,0.11312 -1.15235,0.30078 -1.18399,0.56186 -1.75865,1.56964 -1.75976,3.08398 0,0.97716 0.12293,1.36583 0.62695,1.96485 0.80639,0.95834 1.36805,1.18946 2.62695,1.08008 0.71725,-0.0624 1.22349,-0.28481 1.71094,-0.75196 2.26041,-2.16561 0.5339,-5.80677 -2.05273,-5.67773 z M 262.3652,174.5 c 0.17953,-0.0224 0.4169,0.008 0.73633,0.041 0.60857,0.0627 1.34531,0.2646 1.63672,0.44726 0.74557,0.4673 0.70882,1.55744 -0.0723,2.17188 l -0.60157,0.47265 0.48828,0.95703 0.48829,0.95704 h -0.48829 c -0.35244,0 -0.61838,-0.29221 -0.95312,-1.04883 -0.25542,-0.57748 -0.55571,-1.10643 -0.66797,-1.17578 -0.26468,-0.16366 -0.49023,0.43367 -0.49023,1.30273 0,0.54293 -0.10411,0.6875 -0.49805,0.6875 -0.47834,0 -0.49306,-0.0753 -0.34375,-1.82617 0.20265,-2.37663 0.22704,-2.9191 0.76562,-2.98633 z m 0.76368,0.80859 c -0.59731,0 -0.63147,1.09516 -0.0391,1.25 0.22666,0.0593 0.42939,0.1216 0.45118,0.13672 0.0215,0.0151 0.20724,-0.0393 0.4121,-0.11719 0.20489,-0.0786 0.37305,-0.33119 0.37305,-0.5625 0,-0.44371 -0.44562,-0.70703 -1.19726,-0.70703 z m -184.046879,9.82422 -0.271484,4.08008 c -0.149329,2.24478 -0.213747,4.13977 -0.142578,4.21094 0.07117,0.071 1.049914,0.25879 2.173828,0.41601 2.586603,0.3617 6.848027,0.22805 8.4375,-0.26367 2.246714,-0.69502 3.390997,-2.75173 2.558594,-4.59765 -0.961951,-2.13325 -4.318908,-3.365 -10.06836,-3.69336 z"
       style="opacity:1;fill:#ffffff;fill-opacity:1;fill-rule:evenodd;stroke:#1d0083;stroke-width:0;stroke-linecap:square;stroke-linejoin:round;stroke-miterlimit:4;stroke-dasharray:none;stroke-opacity:1;paint-order:normal" />
  </g>
</svg>
