<?xml version="1.0" encoding="UTF-8" standalone="no"?>
<svg
   xmlns:dc="http://purl.org/dc/elements/1.1/"
   xmlns:cc="http://creativecommons.org/ns#"
   xmlns:rdf="http://www.w3.org/1999/02/22-rdf-syntax-ns#"
   xmlns="http://www.w3.org/2000/svg"
   xmlns:sodipodi="http://sodipodi.sourceforge.net/DTD/sodipodi-0.dtd"
   xmlns:inkscape="http://www.inkscape.org/namespaces/inkscape"
   id="svg8"
   version="1.1"
   viewBox="0 0 79.374998 79.375002"
   height="300"
   width="300"
   sodipodi:docname="bestbuy.svg"
   inkscape:version="0.92.4 (5da689c313, 2019-01-14)">
  <sodipodi:namedview
     pagecolor="#ffffff"
     bordercolor="#666666"
     borderopacity="1"
     objecttolerance="10"
     gridtolerance="10"
     guidetolerance="10"
     inkscape:pageopacity="0"
     inkscape:pageshadow="2"
     inkscape:window-width="1153"
     inkscape:window-height="1001"
     id="namedview7"
     showgrid="false"
     borderlayer="true"
     inkscape:showpageshadow="false"
     inkscape:zoom="2"
     inkscape:cx="129.87393"
     inkscape:cy="109.03713"
     inkscape:window-x="756"
     inkscape:window-y="12"
     inkscape:window-maximized="0"
     inkscape:current-layer="svg8" />
  <defs
     id="defs2">
    <pattern
       y="0"
       x="0"
       height="6"
       width="6"
       patternUnits="userSpaceOnUse"
       id="EMFhbasepattern" />
  </defs>
  <metadata
     id="metadata5">
    <rdf:RDF>
      <cc:Work
         rdf:about="">
        <dc:format>image/svg+xml</dc:format>
        <dc:type
           rdf:resource="http://purl.org/dc/dcmitype/StillImage" />
        <dc:title></dc:title>
      </cc:Work>
    </rdf:RDF>
  </metadata>
  <path
     id="path819"
     d="M 0.02949826,38.588085 19.883684,4.2136718 H 59.570889 L 79.403911,38.588085 59.570889,72.962497 H 19.883684 Z"
     style="fill:none;stroke:none;stroke-width:0.26458332"
     inkscape:connector-curvature="0" />
  <g
     transform="matrix(0.9512003,0,0,0.9512003,1.4710138,-204.04672)"
     id="layer1">
    <path
       style="opacity:1;fill:#ffffff;fill-opacity:1;fill-rule:evenodd;stroke:#1d0083;stroke-width:0;stroke-linecap:square;stroke-linejoin:round;stroke-miterlimit:4;stroke-dasharray:none;stroke-opacity:1;paint-order:normal"
       d="m 24.34487,236.4264 c -0.0289,9.6e-4 -0.04458,0.004 -0.05016,0.008 -0.05585,0.038 -2.723728,2.09864 -5.928873,4.57934 l -5.82774,4.51017 -0.685283,6.9572 -0.685283,6.9568 4.896902,5.68494 c 2.693297,3.12681 4.923141,5.69507 4.954753,5.70719 0.05407,0.0207 43.454162,4.19582 43.742031,4.20798 0.108234,0.006 0.134232,-0.0154 0.134306,-0.10393 4.9e-5,-0.0604 0.723281,-7.81268 1.607219,-17.22755 0.883939,-9.41487 1.601133,-17.12402 1.593869,-17.13128 -0.0072,-0.007 -9.842729,-0.95762 -21.856654,-2.11166 -18.019254,-1.73096 -21.461546,-2.05331 -21.895084,-2.03685 z m -4.851189,6.12467 c 0,0 4.988218,0.50055 7.940224,0.83739 1.336837,0.15254 3.207661,0.70487 3.691792,1.96646 0.631602,1.64585 -0.642342,2.99622 -1.828099,3.37443 1.201065,0.48291 2.327242,1.4292 2.22697,2.44805 -0.27542,2.79847 -3.509434,2.96762 -5.746024,2.74314 l -7.283258,-0.731 z m 13.274835,1.34307 c 0,0 9.864376,0.92635 9.899391,0.95712 0.03676,0.0323 -0.264566,2.95068 -0.264566,2.95068 l -4.438565,-0.37055 -0.09871,0.90899 4.051423,0.39442 -0.251217,2.7298 -4.025127,-0.34708 -0.100719,1.02387 4.500053,0.4713 -0.355585,2.81758 -9.884829,-0.96521 z m 21.906817,2.9264 -1.617739,2.51702 c -0.665218,-0.67281 -4.240329,-1.5667 -4.184517,-0.58455 0.0226,0.39761 1.881371,0.90678 2.389999,1.02994 2.605149,0.62251 4.1348,2.34993 3.102788,4.27554 -1.305985,2.25314 -3.766525,2.38913 -6.248864,2.22293 -2.087782,-0.23541 -3.938999,-0.65117 -5.782027,-1.61329 l 1.834166,-2.73992 c 0.885674,0.62939 1.974004,1.12214 2.931263,1.29775 0.569748,0.0975 1.259196,0.20729 1.756091,-0.0169 0.720439,-0.36457 -0.03957,-0.79923 -0.593049,-0.93894 -2.255521,-0.56935 -2.537666,-0.70511 -3.048583,-0.94944 -1.120825,-0.536 -1.703507,-1.22169 -1.839421,-2.16386 -0.206209,-1.42945 0.84533,-2.76982 2.883529,-3.3981 2.386053,-0.73551 5.924951,-0.669 8.416364,1.06189 z m -30.439282,-1.08213 -0.103558,1.38634 c 0.634853,0.10922 1.716159,0.2185 2.12098,-0.31634 0.235957,-0.35426 0.09326,-0.78946 -0.388354,-0.91951 -0.580134,-0.15665 -1.0347,-0.18643 -1.629066,-0.15049 z m 31.007655,0.36287 11.211297,1.04329 -0.299355,3.43531 -2.898093,-0.25283 -0.72776,7.13561 C 60.760292,257.28133 57.21784,256.9404 57.21784,256.9404 l 0.589003,-7.14369 -2.900118,-0.28681 z M 23.89341,249.3768 c -0.0326,0.57251 -0.07727,1.72574 -0.07727,1.72574 0.366386,0.0377 0.747514,0.0977 1.377039,0.12098 0.639054,0.0236 1.534974,-0.29839 1.369353,-0.97049 -0.110396,-0.44797 -0.500647,-0.70158 -1.689312,-0.79731 z m -8.923248,1.67761 c 1.143904,0 2.071224,0.92732 2.071224,2.07121 0,1.14391 -0.92732,2.07124 -2.071224,2.07124 -1.143903,0 -2.071223,-0.92733 -2.071222,-2.07124 -10e-7,-1.14389 0.927319,-2.07121 2.071222,-2.07121 z m 5.596345,3.67643 c 0.04916,-0.0479 7.391435,0.72988 7.960452,0.82766 1.334258,0.22934 3.001942,0.67214 3.680464,1.95714 0.318695,0.60356 0.235082,1.62097 -0.231798,2.23062 -0.456108,0.59557 -1.005434,0.91439 -1.660619,1.12178 1.258298,0.50938 2.360917,1.38777 2.282796,2.7816 -0.182407,3.25439 -5.138746,2.48764 -6.721763,2.3386 -3.110374,-0.30949 -6.298477,-0.64143 -6.311162,-0.65737 -0.01855,-0.0234 0.978773,-10.57781 1.00163,-10.60003 z m 13.035353,1.25486 5.150545,0.44823 -0.573224,6.36416 c -0.06945,0.77107 0.506962,1.15718 1.33618,1.23989 0.754823,0.0753 1.443223,-0.22754 1.51903,-0.93812 0.225033,-2.10934 0.615298,-6.33381 0.615298,-6.33381 l 11.125134,1.03601 1.47332,2.91913 1.920734,-2.60277 6.010592,0.61043 c -1.868955,1.85331 -3.737911,3.70662 -5.606866,5.55994 l -0.439728,4.55426 -5.259774,-0.53844 0.353565,-4.4058 c -1.559957,-2.40721 -4.414861,-6.50007 -4.414861,-6.50007 0,0 -0.444983,4.69837 -0.700502,7.03446 -0.300297,2.72799 -4.66368,3.16937 -6.701652,2.97617 -3.254488,-0.30854 -6.777457,-1.57237 -6.461531,-4.49763 0.248227,-2.2984 0.653728,-6.92604 0.653728,-6.92604 z m -8.333435,1.86533 -0.103162,1.37379 c 0.310879,0.0359 0.845946,0.0805 1.060427,0.0947 0.560307,0.0162 1.174356,-0.10338 1.137819,-0.72858 -0.04013,-0.68691 -1.098952,-0.72969 -1.549776,-0.73584 z m -0.350731,3.66831 -0.05624,0.84509 c -0.03093,0.46493 -0.04427,0.85743 -0.02953,0.87215 0.01475,0.0147 0.217461,0.0537 0.450247,0.0862 0.535743,0.075 1.41838,0.0472 1.747593,-0.0546 0.465347,-0.14395 0.702352,-0.56994 0.529942,-0.95227 -0.19924,-0.44184 -0.89454,-0.69697 -2.085379,-0.76498 z"
       id="rect825"
       inkscape:connector-curvature="0"
       sodipodi:nodetypes="ccccccccccscsccsscsscccccccccccccccccscccccccscsscccsccccccccccccssscccscccccsscscccccssscccccccccccsscccscccccccccccc" />
  </g>
</svg>
