<?xml version="1.0" encoding="UTF-8" standalone="no"?>
<svg
   xmlns:dc="http://purl.org/dc/elements/1.1/"
   xmlns:cc="http://creativecommons.org/ns#"
   xmlns:rdf="http://www.w3.org/1999/02/22-rdf-syntax-ns#"
   xmlns:svg="http://www.w3.org/2000/svg"
   xmlns="http://www.w3.org/2000/svg"
   xmlns:sodipodi="http://sodipodi.sourceforge.net/DTD/sodipodi-0.dtd"
   xmlns:inkscape="http://www.inkscape.org/namespaces/inkscape"
   id="svg8"
   version="1.1"
   viewBox="0 0 79.374998 79.375002"
   height="300"
   width="300"
   sodipodi:docname="blizzard2.svg"
   inkscape:version="0.92.4 (5da689c313, 2019-01-14)">
  <sodipodi:namedview
     pagecolor="#ffffff"
     bordercolor="#666666"
     borderopacity="1"
     objecttolerance="10"
     gridtolerance="10"
     guidetolerance="10"
     inkscape:pageopacity="0"
     inkscape:pageshadow="2"
     inkscape:window-width="961"
     inkscape:window-height="879"
     id="namedview7"
     showgrid="false"
     borderlayer="true"
     inkscape:showpageshadow="false"
     inkscape:zoom="1"
     inkscape:cx="217.02952"
     inkscape:cy="163.2973"
     inkscape:window-x="950"
     inkscape:window-y="121"
     inkscape:window-maximized="0"
     inkscape:current-layer="svg8" />
  <defs
     id="defs2" />
  <metadata
     id="metadata5">
    <rdf:RDF>
      <cc:Work
         rdf:about="">
        <dc:format>image/svg+xml</dc:format>
        <dc:type
           rdf:resource="http://purl.org/dc/dcmitype/StillImage" />
        <dc:title></dc:title>
      </cc:Work>
    </rdf:RDF>
  </metadata>
  <g
     transform="translate(-0.52916667,-216.83124)"
     id="layer1"
     style="opacity:1">
    <path
       id="rect848"
       d="m 32.695977,238.12942 c -0.387599,1.33752 -0.724659,3.84595 -0.600229,4.46694 0.056,0.27949 0.0099,0.25869 -0.287114,-0.13 -4.527945,-6.02745 -7.100174,1.51189 -6.576231,6.22017 -2.888851,0.27187 -9.454441,0.54145 -11.237608,1.98834 -0.300105,0.25751 -0.350908,0.35178 -0.15571,0.28965 1.330662,-0.42354 5.925086,-0.85346 9.12494,-0.85399 2.370138,-4.6e-4 2.333942,-0.0172 2.460541,1.12755 0.523685,3.46348 1.438927,5.75413 2.555493,8.71121 -4.807801,7.07927 -11.172866,22.44138 6.400456,15.27671 -3.409202,7.29007 4.726001,5.28055 8.649055,2.67702 1.895385,2.65325 4.541863,6.87946 6.788456,8.4925 0.898578,0.55559 0.846723,0.27439 -0.167577,-0.90855 -2.005456,-2.54299 -4.12635,-5.62026 -5.298061,-8.41873 3.228623,-2.83463 4.947552,-4.18175 6.854866,-7.20218 18.259967,0.45032 20.476514,-5.74201 10.034328,-13.12837 8.17153,-0.75645 2.076886,-6.96688 -1.751584,-8.8813 1.058386,-2.60519 2.406526,-5.11482 3.362931,-7.91492 0.358293,-1.06603 0.599018,-2.95619 0.375849,-2.95028 -0.07593,0.002 -0.240538,0.50606 -0.586945,1.40903 -1.272938,3.31802 -2.724766,5.86006 -4.491542,8.73778 -3.455269,-1.35481 -6.626265,-2.11768 -9.863355,-2.46309 -6.111686,-11.41987 -12.630431,-16.37184 -15.590959,-6.54549 z m 13.049313,6.42052 c -3.734056,-0.15726 -6.842049,0.77552 -9.725733,2.00666 -0.08459,0 -0.112788,-0.25074 -0.06501,-0.57876 0.654914,-9.25891 4.69578,-9.21766 9.790723,-1.4279 z m -13.774167,0.44448 c 0.139182,0.36627 0.53855,3.75521 0.446218,3.78649 -1.565738,-0.0105 -2.757938,-0.0398 -4.437565,-0.0727 -0.09746,-2.8419 1.812218,-7.40416 3.991347,-3.71377 z m 24.45959,4.33163 c -0.05839,0.59088 -1.595938,2.88659 -2.175122,3.40157 -1.163929,-1.86896 -2.724038,-3.62745 -4.725527,-4.31942 0.632088,0.72585 4.09546,4.21514 3.888202,4.70828 -5.737417,-1.88682 -10.959476,-3.21082 -16.303094,-3.80089 -0.01522,0.61813 -0.133257,1.27385 -0.02545,1.87784 6.757235,1.80757 12.46891,3.1916 17.478966,6.35156 -0.15105,6.84682 -5.877763,13.37682 -11.50692,17.10002 -0.697528,-1.28046 -1.194097,-2.16441 -1.634803,-3.62144 2.591051,-0.46865 4.267308,-0.55254 6.153187,-2.00727 -0.733312,0.22439 -5.292019,1.69777 -5.916938,1.03882 -0.05336,-0.0863 0.440101,-0.59972 1.096461,-1.14055 2.414439,-1.98943 6.140998,-5.908 9.135396,-9.60649 1.114648,-1.37673 1.11354,-1.4529 -0.0277,-2.09004 l -0.709866,-0.39621 c -4.361655,4.78503 -8.960649,8.99262 -14.055913,12.13853 -6.505192,-4.41269 -8.421368,-12.07579 -9.154038,-18.719 1.162048,0.15572 4.018964,0.13496 3.941895,0.64404 -0.01437,0.12298 -0.287633,0.81382 -0.607012,1.53533 -0.539484,1.21876 -0.583729,1.4324 -0.626509,3.00961 l -0.04606,1.69782 c 0.202738,-1.02647 0.37283,-2.07085 0.688963,-3.06754 0.332699,-1.03076 1.310355,-2.78716 1.4579,-2.61935 1.1294,5.24305 2.333428,10.35913 4.781196,15.7964 0.60844,-0.2855 1.249694,-0.52046 1.835161,-0.84778 -0.865006,-3.48585 -3.751857,-12.01683 -3.2908,-18.36745 4.377285,-2.57457 12.087128,-2.35201 20.348418,1.30361 z m 1.798706,1.09787 c 5.598177,3.57733 2.821498,6.56698 -0.834317,4.48217 l -1.760172,-0.86468 c 0.902922,-1.454 1.800105,-2.75788 2.594489,-3.61749 z m -2.303137,7.89481 c 8.884749,6.36268 4.447828,9.31572 -3.098637,9.34451 2.276981,-3.63388 2.759933,-6.81798 3.098637,-9.34451 z m -26.76894,3.75059 c 1.754605,3.36415 3.435576,5.29895 6.68616,7.50992 -8.793371,3.73737 -11.153299,1.12565 -6.68616,-7.50992 z m 10.353092,9.63417 c 0.03204,0.003 0.0556,0.0149 0.06924,0.0358 0.740874,1.31337 1.279846,2.33462 2.030151,3.72965 -6.159374,3.53419 -8.208208,-0.82805 -2.099386,-3.76527 z"
       style="opacity:1;fill:#ffffff;fill-opacity:1;fill-rule:evenodd;stroke:#ffffff;stroke-width:0;stroke-linecap:square;stroke-linejoin:round;stroke-miterlimit:4;stroke-dasharray:none;stroke-opacity:1;paint-order:normal"
       inkscape:connector-curvature="0"
       sodipodi:nodetypes="cccccccccccccccccccsccccccccccccccccccccccccccccccccccccccccccccccccccccc" />
  </g>
</svg>
