<?xml version="1.0" encoding="UTF-8" standalone="no"?>
<svg
   xmlns:dc="http://purl.org/dc/elements/1.1/"
   xmlns:cc="http://creativecommons.org/ns#"
   xmlns:rdf="http://www.w3.org/1999/02/22-rdf-syntax-ns#"
   xmlns:svg="http://www.w3.org/2000/svg"
   xmlns="http://www.w3.org/2000/svg"
   id="svg8"
   version="1.1"
   viewBox="0 0 79.374998 79.375002"
   height="300"
   width="300">
  <defs
     id="defs2" />
  <metadata
     id="metadata5">
    <rdf:RDF>
      <cc:Work
         rdf:about="">
        <dc:format>image/svg+xml</dc:format>
        <dc:type
           rdf:resource="http://purl.org/dc/dcmitype/StillImage" />
        <dc:title></dc:title>
      </cc:Work>
    </rdf:RDF>
  </metadata>
  <g
     transform="translate(0,-217.62499)"
     id="layer1">
    <path
       id="rect848"
       d="m 34.72093,218.33663 c -0.828104,-0.005 -1.611146,0.2052 -2.34407,0.63549 -1.847183,1.08444 -3.288907,3.41387 -4.324013,6.98582 -0.563062,1.94301 -1.052706,5.58698 -0.871945,6.48909 0.08134,0.40599 0.01448,0.37579 -0.417089,-0.18884 -1.952442,-2.55442 -3.473272,-3.48239 -5.181999,-3.16183 -1.449829,0.27199 -3.113571,2.61227 -3.855197,5.42298 -0.41639,1.5781 -0.775873,5.07388 -0.623991,6.06831 l 0.107968,0.7065 -1.983636,0.14902 c -8.3344596,0.62482 -12.8910414,1.49516 -14.34111731,2.73941 -0.43595627,0.37407 -0.50975958,0.51103 -0.22619712,0.42078 1.93303873,-0.61528 8.60730673,-1.23981 13.25570243,-1.2406 3.443076,-6.5e-4 3.390493,-0.0248 3.574402,1.63799 0.264184,2.38853 1.427635,6.60389 2.896221,10.49331 l 0.816115,2.16138 -1.245931,2.09859 c -4.806755,8.09569 -7.079401,15.14138 -6.116753,18.96439 0.390922,1.55248 1.933136,3.0485 3.655684,3.54608 2.691899,0.77761 7.119102,0.0518 11.072144,-1.81532 1.579915,-0.74621 2.055883,-0.89446 1.932731,-0.60142 -1.638273,3.8983 -1.542231,5.82521 0.33909,6.81588 2.163936,1.13948 8.054933,-0.12199 11.551223,-2.47339 l 0.674074,-0.45363 1.343633,1.93438 c 4.077646,5.8704 7.040751,9.48927 8.517887,10.40259 1.305353,0.80709 1.230022,0.39861 -0.243438,-1.31984 -1.884515,-2.19783 -5.648821,-7.84415 -6.862259,-10.29297 -0.509922,-1.02906 -0.885295,-1.90061 -0.834177,-1.93684 0.05111,-0.0362 1.242004,-1.07025 2.646213,-2.29767 2.655531,-2.32122 5.408946,-5.2798 6.611843,-7.10406 l 0.699935,-1.06079 4.304307,-0.004 c 13.902459,-0.0131 21.221538,-3.81305 18.934842,-9.83114 -0.879699,-2.31518 -3.353032,-5.07933 -6.88771,-7.69727 -1.0284,-0.76166 -1.827066,-1.45427 -1.774679,-1.53903 0.05239,-0.0848 0.709072,-0.20988 1.459399,-0.27792 2.705899,-0.24535 4.477955,-1.61796 4.477955,-3.46891 0,-1.2711 -1.321634,-3.40974 -3.354771,-5.42953 -1.591317,-1.58088 -3.965362,-3.30844 -5.037905,-3.66595 -0.127904,-0.0426 0.386059,-1.38128 1.142067,-2.97463 1.668175,-3.51584 3.011031,-6.66962 3.654042,-8.58275 0.520487,-1.54861 0.870184,-4.29444 0.545991,-4.28583 -0.110313,0.003 -0.49394,0.92404 -0.852651,2.04685 -0.735659,2.30268 -2.932807,6.76809 -5.057611,10.27902 -0.783581,1.29474 -1.443653,2.38118 -1.4672,2.41427 -0.02354,0.0331 -0.96818,-0.29728 -2.098991,-0.73401 -2.75596,-1.06435 -6.670601,-2.05297 -9.699364,-2.44957 -1.366044,-0.17889 -2.50458,-0.35638 -2.530037,-0.39452 -0.02546,-0.0382 -0.685073,-1.17938 -1.465559,-2.53578 C 43.744721,223.38718 38.710875,218.36087 34.72093,218.3367 Z m 3.569883,8.80689 c 0.615013,-0.008 1.27677,0.12489 1.855964,0.40025 1.259971,0.59901 3.780501,3.22121 5.448837,5.66806 l 1.413832,2.07313 -1.750048,0.002 c -3.452094,0.002 -7.144218,0.80865 -10.8792,2.37528 -0.705312,0.29584 -1.379948,0.53777 -1.499221,0.53777 -0.122904,0 -0.163854,-0.36424 -0.09441,-0.84074 v -4.2e-4 c 0.705477,-4.84132 2.168653,-8.48053 3.928271,-9.77079 0.392558,-0.28785 0.960976,-0.43628 1.575985,-0.44418 z m -13.677305,6.67875 c 0.100559,-0.005 0.196907,0.006 0.286954,0.0324 0.632153,0.18913 1.834028,1.37762 2.0994,2.07599 0.202186,0.53208 0.782347,5.45514 0.648212,5.50057 -0.03108,0.0105 -1.494162,-0.009 -3.251322,-0.0431 l -3.195079,-0.0625 v -0.95569 c 0,-1.25918 0.531323,-3.25148 1.239361,-4.64873 0.54923,-1.08385 1.46858,-1.86506 2.172474,-1.89907 z m 19.232469,4.0543 c 4.411447,3.1e-4 6.68897,0.32505 11.04505,1.57517 2.837962,0.81444 7.304014,2.43442 7.641017,2.77142 0.125909,0.12591 -0.01462,0.58415 -0.360439,1.17409 -0.779071,1.32906 -2.593458,3.77082 -2.799338,3.76735 -0.09273,-0.002 -0.521645,-0.56872 -0.953228,-1.2603 -1.086609,-1.74121 -2.860491,-3.45829 -4.444704,-4.30266 -0.734377,-0.39143 -1.39446,-0.71184 -1.466789,-0.71184 -0.07233,0 0.727672,0.82506 1.777962,1.83337 1.683943,1.61666 4.115227,4.76147 3.870387,5.00631 -0.04912,0.049 -1.649446,-0.41815 -3.556338,-1.03821 -5.982008,-1.94516 -14.128866,-3.82141 -18.859306,-4.34331 l -1.267686,-0.13998 -0.07759,1.26891 c -0.04267,0.69783 -0.02432,1.35434 0.04063,1.45898 0.06497,0.10466 1.073721,0.40074 2.241851,0.65808 8.706284,1.91793 17.790919,5.18645 22.26252,8.00925 l 0.887136,0.55954 -0.137115,1.71515 c -0.55683,6.96415 -6.098818,15.39454 -14.039796,21.35691 -1.295805,0.97294 -2.438574,1.76894 -2.539069,1.76894 -0.100499,0 -0.56214,-0.8325 -1.02589,-1.84981 -1.129116,-2.47687 -1.456058,-3.30393 -1.348971,-3.41102 0.04925,-0.0492 0.995957,-0.20752 2.103918,-0.35181 2.444053,-0.31828 4.348268,-0.92104 5.769864,-1.82682 0.585721,-0.37319 1.064888,-0.705 1.064888,-0.73729 0,-0.0322 -1.011328,0.28775 -2.247596,0.71102 -2.363245,0.80913 -6.054236,1.27317 -6.347879,0.79805 -0.07753,-0.12545 0.639332,-0.87122 1.59282,-1.65686 3.50743,-2.89001 8.920958,-8.5825 13.270892,-13.95523 1.619236,-1.99996 1.617625,-2.11064 -0.04023,-3.0362 l -1.031228,-0.57556 -1.849804,2.01606 c -5.366013,5.8487 -12.481977,11.98668 -17.067384,14.72169 l -1.501684,0.89575 -1.016037,-0.69912 C 27.015142,265.62836 22.524223,256.34377 21.306355,244.96791 l -0.151482,-1.41507 1.985277,0.15435 c 2.94389,0.22852 3.785119,0.40395 3.741073,0.78123 -0.02085,0.17858 -0.417841,1.18222 -0.881799,2.23035 -0.783704,1.77048 -0.847979,2.08084 -0.910123,4.37204 l -0.06691,2.4664 0.314868,-1.65357 c 0.173324,-0.90934 0.481987,-2.17061 0.685981,-2.80262 0.483308,-1.49738 1.903539,-4.04888 2.117875,-3.80511 0.09182,0.10444 0.339081,1.09798 0.549686,2.20778 1.153123,6.07641 3.703359,14.53238 5.933662,19.67419 l 0.462245,1.0653 1.285749,-0.56858 c 0.707126,-0.31272 1.328259,-0.61107 1.380171,-0.66299 0.05192,-0.0519 -0.317038,-1.43574 -0.819809,-3.0752 -2.585691,-8.43158 -4.168062,-16.88869 -4.025153,-21.5125 l 0.06445,-2.09448 1.457346,-0.72046 c 2.64788,-1.30864 4.953671,-1.73272 9.416517,-1.7324 z m 21.299029,5.94146 c 0.613355,-0.0187 2.873013,1.99755 3.808397,3.39829 1.599079,2.39465 1.019096,3.90229 -1.579683,4.10561 -1.111243,0.0869 -1.43281,-0.009 -3.608884,-1.07679 l -2.388818,-1.17203 1.716385,-2.6224 c 0.943942,-1.44231 1.867639,-2.62701 2.052603,-2.63268 z m -3.345742,11.46871 c 0.09672,0.0352 0.998893,0.71363 2.004981,1.50784 3.410027,2.69192 5.152032,5.13658 5.152032,7.23091 0,0.92024 -0.116724,1.2058 -0.804622,1.96721 -0.968928,1.07249 -2.541954,1.84398 -4.784614,2.34736 -1.660172,0.37263 -6.069134,0.75147 -6.069134,0.52136 0,-0.0666 0.405343,-0.81332 0.900682,-1.65933 1.708226,-2.91755 3.005989,-6.95855 3.276363,-10.20061 0.08157,-0.97818 0.227587,-1.74981 0.324312,-1.71474 z m -38.886953,5.44843 0.93147,1.59487 c 2.188913,3.74794 4.804968,6.65955 7.527712,8.37831 0.683685,0.43159 1.247806,0.85288 1.253731,0.9364 0.0059,0.0836 -0.798261,0.46396 -1.786997,0.84526 -3.977336,1.53382 -7.83193,2.0117 -9.408305,1.16628 -1.207323,-0.64749 -1.651955,-1.4123 -1.754154,-3.01732 -0.120087,-1.88591 0.556345,-4.33592 2.059581,-7.45874 z m 15.039825,13.99546 c 0.04653,0.005 0.08078,0.0217 0.10058,0.0518 0.107717,0.16366 0.81512,1.44998 1.572294,2.85803 l 1.376885,2.56001 -0.6244,0.49755 c -1.422923,1.1346 -5.320725,1.79159 -6.755114,1.13837 -1.140496,-0.51937 -1.332411,-1.90031 -0.481951,-3.46766 0.600255,-1.10624 4.113834,-3.71307 4.81171,-3.63803 z"
       style="opacity:1;fill:#ffffff;fill-opacity:1;fill-rule:evenodd;stroke:#ffffff;stroke-width:0;stroke-linecap:square;stroke-linejoin:round;stroke-miterlimit:4;stroke-dasharray:none;stroke-opacity:1;paint-order:normal" />
  </g>
</svg>
