<?xml version="1.0" encoding="UTF-8" standalone="no"?>
<svg
   xmlns:dc="http://purl.org/dc/elements/1.1/"
   xmlns:cc="http://creativecommons.org/ns#"
   xmlns:rdf="http://www.w3.org/1999/02/22-rdf-syntax-ns#"
   xmlns:svg="http://www.w3.org/2000/svg"
   xmlns="http://www.w3.org/2000/svg"
   xmlns:sodipodi="http://sodipodi.sourceforge.net/DTD/sodipodi-0.dtd"
   xmlns:inkscape="http://www.inkscape.org/namespaces/inkscape"
   id="svg10"
   width="300"
   height="300"
   viewBox="0 0 281.25 281.24999"
   version="1.1"
   sodipodi:docname="blogger.svg"
   inkscape:version="0.92.4 (5da689c313, 2019-01-14)">
  <sodipodi:namedview
     pagecolor="#ffffff"
     bordercolor="#666666"
     borderopacity="1"
     objecttolerance="10"
     gridtolerance="10"
     guidetolerance="10"
     inkscape:pageopacity="0"
     inkscape:pageshadow="2"
     inkscape:window-width="1018"
     inkscape:window-height="981"
     id="namedview7"
     showgrid="false"
     borderlayer="true"
     inkscape:showpageshadow="false"
     inkscape:zoom="1.5733333"
     inkscape:cx="207.86966"
     inkscape:cy="152.59565"
     inkscape:window-x="310"
     inkscape:window-y="42"
     inkscape:window-maximized="0"
     inkscape:current-layer="svg10" />
  <metadata
     id="metadata16">
    <rdf:RDF>
      <cc:Work
         rdf:about="">
        <dc:format>image/svg+xml</dc:format>
        <dc:type
           rdf:resource="http://purl.org/dc/dcmitype/StillImage" />
        <dc:title></dc:title>
      </cc:Work>
    </rdf:RDF>
  </metadata>
  <defs
     id="defs14" />
  <g
     id="g8"
     transform="matrix(0.46347171,0,0,0.46347171,66.183213,97.236476)">
    <path
       id="path6"
       style="fill:#ffffff;fill-opacity:1;stroke-width:2.09324932"
       d="M 96.834385,223.11741 C 72.797369,223.10988 44.092047,202.75448 43.897379,174.15133 43.469933,111.34524 43.659669,63.098632 43.928158,1.2787335 44.31487,-29.653649 67.018476,-46.316253 90.868758,-46.321337 l 113.121662,-0.02411 c 38.09513,-0.0081 46.10843,32.03053 48.09236,52.9157761 1.78826,18.8253979 -1.3551,42.2718559 2.04764,59.0166599 3.69642,7.815227 8.46856,10.848202 19.28898,12.259338 8.12523,1.059644 19.24454,8.579568 19.16673,18.095374 l -0.67144,82.110679 c -0.18964,23.19133 -32.20268,45.11606 -52.18981,45.1098 z M 120.39236,118.87197 c -23.15651,-0.12968 -22.597174,42.20915 1.50983,42.18431 l 93.8827,-0.0967 c 23.67423,-0.0244 23.62967,-41.42104 2.66147,-41.53847 z M 185.5984,15.179074 121.63812,15.07282 C 97.5194,15.03275 102.85264,53.608113 119.73385,53.823887 l 65.86455,0.841874 c 22.71377,0.290325 20.36734,-39.452852 0,-39.486687 z"
       inkscape:connector-curvature="0"
       sodipodi:nodetypes="sscssscsssssssssssssss" />
  </g>
</svg>
