<?xml version="1.0" encoding="UTF-8" standalone="no"?>
<svg
   xmlns:dc="http://purl.org/dc/elements/1.1/"
   xmlns:cc="http://creativecommons.org/ns#"
   xmlns:rdf="http://www.w3.org/1999/02/22-rdf-syntax-ns#"
   xmlns:svg="http://www.w3.org/2000/svg"
   xmlns="http://www.w3.org/2000/svg"
   id="svg10"
   width="300"
   height="300"
   viewBox="0 0 281.25 281.24999"
   version="1.1">
  <metadata
     id="metadata16">
    <rdf:RDF>
      <cc:Work
         rdf:about="">
        <dc:format>image/svg+xml</dc:format>
        <dc:type
           rdf:resource="http://purl.org/dc/dcmitype/StillImage" />
        <dc:title></dc:title>
      </cc:Work>
    </rdf:RDF>
  </metadata>
  <defs
     id="defs14" />
  <g
     id="g8"
     transform="translate(-27.09796,53.804225)">
    <path
       id="path6"
       style="fill:#ffffff;fill-opacity:1;stroke-width:2.09324932"
       d="m 96.834385,223.11741 c -19.542582,-2.50579 -38.674306,-16.83146 -47.794352,-35.78803 -5.925227,-12.31592 -5.536101,-5.34539 -5.536101,-99.170094 0,-79.4536903 0.06931,-83.8871388 1.388474,-88.80904765 C 50.77276,-22.589923 68.331698,-40.032461 90.868758,-46.321337 c 5.856266,-1.634169 6.467482,-1.652345 56.245722,-1.672687 49.82852,-0.0203 50.38978,-0.0042 56.87594,1.648573 17.48707,4.455689 33.40118,17.43353 41.51416,33.854482 5.71369,11.56471415 5.75731,11.87696763 6.25678,44.774563 l 0.44384,29.232973 1.92522,4.070418 c 3.69642,7.815227 8.46856,10.848191 19.28898,12.259338 8.12523,1.059633 11.57318,2.443275 15.07577,6.049781 5.38441,5.54415 5.15426,3.387494 5.15426,48.297656 0,40.24268 -0.004,40.34665 -1.73474,45.85862 -3.58352,11.41201 -9.28985,20.38061 -18.35202,28.84369 -9.89559,9.24137 -20.71071,14.44028 -33.83779,16.26611 -7.05248,0.98088 -135.20438,0.94074 -142.890495,-0.0447 z M 219.64188,159.67473 c 4.41038,-2.01047 7.6076,-5.02186 9.832,-9.26048 1.70419,-3.24738 1.98867,-4.68826 1.98994,-10.07965 0.001,-7.26915 -1.19732,-10.22474 -6.26773,-15.44945 -6.11906,-6.30523 -3.00784,-5.97809 -57.02916,-5.99648 l -47.77457,-0.0167 -3.81272,1.89995 c -6.94072,3.45873 -11.27352,10.10014 -11.8527,18.16811 -0.64631,9.0031 3.39521,16.37053 11.0814,20.20074 l 3.84394,1.91551 48.51465,-0.0167 c 45.3527,-0.0147 48.70758,-0.10419 51.47495,-1.36572 v 3e-5 z M 189.29879,54.199151 c 7.97082,-3.774766 11.81059,-9.937357 11.81059,-18.955255 0,-8.971528 -3.93419,-15.292873 -11.81059,-18.976884 l -3.70039,-1.73077 -32.24645,-0.0074 c -37.14437,-0.0084 -37.09679,-0.01486 -42.96339,6.008047 -4.09004,4.199088 -5.82841,8.69996 -5.82841,15.090527 0,8.308574 5.55498,16.544349 12.92379,19.160719 2.41229,0.856524 9.26048,1.07073 35.55116,1.112059 l 32.5633,0.05123 3.70039,-1.7524 v -1.4e-5 z" />
  </g>
</svg>
