<?xml version="1.0" encoding="UTF-8" standalone="no"?>
<svg
   xmlns:dc="http://purl.org/dc/elements/1.1/"
   xmlns:cc="http://creativecommons.org/ns#"
   xmlns:rdf="http://www.w3.org/1999/02/22-rdf-syntax-ns#"
   xmlns:svg="http://www.w3.org/2000/svg"
   xmlns="http://www.w3.org/2000/svg"
   version="1.1"
   viewBox="0 0 360 360"
   id="busey">
  <metadata
     id="metadata11">
    <rdf:RDF>
      <cc:Work
         rdf:about="">
        <dc:format>image/svg+xml</dc:format>
        <dc:type
           rdf:resource="http://purl.org/dc/dcmitype/StillImage" />
        <dc:title></dc:title>
      </cc:Work>
    </rdf:RDF>
  </metadata>
  <defs
     id="defs9" />
  <g
     id="g4"
     transform="translate(0,-692.36216)">
    <path
       id="path2"
       style="fill:#fff;stroke-width:0"
       d="m 25.25,698.81 c 21.86,-0.0246 207.08,-0.893 207.08,-0.8929 0,0 90.74,-4.085 91.95,75.73 0.8902,58.53 -70.41,77.51 -70.41,77.51 0,0 96.08,7.5285 95.43,93.62 -0.6793,89.345 -104.34,102.025 -134.65,102.025 -30.3,0 -69.195,-14.65 -69.7,-46.97 -0.5051,-32.32 -0.184,-190.736 -0.148,-196.44 0.0222,-3.4975 -2.1,-7.14 -8.084,-7.63 -4.504,-0.373 -8.58,2.431 -8.701,7.155 -0.1161,4.57 -0.745,193.39 -0.7449,193.39 0,0 -0.4797,29.76 29.77,49.14 -35.37,-3.118 -54.61,-23.834 -54.82,-42.13 -0.4215,-36.87 -0.702,-179.07 -0.5077,-200.46 0.032,-3.5065 -3.058,-7.183 -7.515,-7.362 -4.542,-0.182 -9.316,2.407 -9.329,7.21637 0,0 0.150712,166.8298 0,199.657 -0.0244,5.315 3.803,21.87 19.461,36.01 -20.82,-4.521 -44.745,-19.846 -45.755,-39.039 0.6972,-34.86 0,-205.06 0,-205.06 0,0 -11.69,-1.481 -11.88,-12.15 -0.124,-6.75 5.733,-11.6 9.36,-11.59 36.895,0.063 102.67,0.3524 117.03,0.1506 3.72,-0.0523 9.119,3.594 9.209,11.77 0.0717,6.566 -6.75,12.178 -11.8,12.18 0.128,6.161 0.5635,180.056 0.717,191.57 0.057,4.298 -0.295,33.48 37.88,32.83 28.28,-0.4857 59.6,-16.67 61.62,-66.67 2.02,-50 -33,-82.26 -82.58,-80.81 -8.103,0.23665 -8.3015,-2.52 -8.456,-8.586 -0.166,-6.533 0.059,-8.286 -0.0124,-11.75 -0.079,-3.827 1.48,-6.618 10.08,-6.64 24.23,-0.0613 63.85,-12.71 63.82,-64.26 -0.0333,-60 -51.045,-54.31 -53.39,-54.34 -2.353,-0.0276 -28.46,-3.418 -28.46,28.4 L 58.08,752.85 c 0,0 1.671,-22.2 -23.167,-27.52 -9.26,-1.986 -14.57,-3.374 -19.58,-4.477 -5.63,-1.239 -5.105,-5.906 -3.693,-8.75 1.913,-3.85 3.57,-7.215 5.429,-9.832 2.157,-3.035 5.641,-3.463 8.18,-3.466 z" />
  </g>
</svg>
