<?xml version="1.0" encoding="UTF-8" standalone="no"?>
<svg
   xmlns:dc="http://purl.org/dc/elements/1.1/"
   xmlns:cc="http://creativecommons.org/ns#"
   xmlns:rdf="http://www.w3.org/1999/02/22-rdf-syntax-ns#"
   xmlns:svg="http://www.w3.org/2000/svg"
   xmlns="http://www.w3.org/2000/svg"
   xmlns:sodipodi="http://sodipodi.sourceforge.net/DTD/sodipodi-0.dtd"
   xmlns:inkscape="http://www.inkscape.org/namespaces/inkscape"
   width="300"
   height="300"
   viewBox="0 0 300 300"
   id="cnn"
   version="1.1"
   sodipodi:docname="cnn.svg"
   inkscape:version="0.92.4 (5da689c313, 2019-01-14)">
  <metadata
     id="metadata13">
    <rdf:RDF>
      <cc:Work
         rdf:about="">
        <dc:format>image/svg+xml</dc:format>
        <dc:type
           rdf:resource="http://purl.org/dc/dcmitype/StillImage" />
        <dc:title />
      </cc:Work>
    </rdf:RDF>
  </metadata>
  <defs
     id="defs11" />
  <sodipodi:namedview
     pagecolor="#ffffff"
     bordercolor="#666666"
     borderopacity="1"
     objecttolerance="10"
     gridtolerance="10"
     guidetolerance="10"
     inkscape:pageopacity="0"
     inkscape:pageshadow="2"
     inkscape:window-width="1120"
     inkscape:window-height="949"
     id="namedview9"
     showgrid="false"
     inkscape:zoom="3.7083822"
     inkscape:cx="157.8327"
     inkscape:cy="158.70711"
     inkscape:window-x="790"
     inkscape:window-y="50"
     inkscape:window-maximized="0"
     inkscape:current-layer="cnn"
     borderlayer="true"
     inkscape:showpageshadow="false" />
  <g
     transform="matrix(0.50427308,0,0,0.50427308,53.597822,-288.19554)"
     id="g6">
    <path
       style="fill:#ffffff;stroke-width:0"
       d="M 109.49,788.93 C 11.98,781 2.87,857.2 2.576,871.053 0.8758,946.71 64.31,956.46 73.98,956.64 c 22.39,0.4136 46.17441,1.3189 64.82182,1.36629 14.02184,0.0356 29.95,-5.49 29.95,-29.95 v -43.8 c 0,0 21.93,35.69 37.36,58.61 6.113,9.083 13.816,16.42 29.95,15.78 9.65,-0.385 27.05,-7.73 27.05146,-27.3735 l -10e-6,-46.37 c 0,0 27.82,43.75 38.97,60.54374 5.82976,8.78643 15.45797,14.49185 27.7,14.17 12.23,-0.322 28.34,-10.95 28.34,-27.7 0,-16.75 -1.288,-142.99 -1.288,-142.99 h -20.61 c 0,0 -0.219,97.56 0,138.16 0.0437,8.091 -9.66,12.56 -15.78,4.19 -7,-9.59 -68.59,-110.14 -68.59,-110.14 0,0 -9.66,-12.56 -9.66,2.576 0,0 0.33,69.5 0,104.02 -0.07,7.3 -9.34,11.59 -15.14,3.86 -7.38,-9.84 -55.25,-86.23 -69.56,-108.85 -5.06,-8 -8.37,-7.09 -8.7,1.61 -0.33,9.01 -1.29,99.83 -1.29,99.83 0,0 1.93,10.63 -10.3,11.59 -9.01,0.71 -41.565,-0.269 -64.87,0.322 -10.94,0.278 -50.64,-13.195 -50.42,-64.09 0.0822,-19.68 14.06,-58.26 57.455,-59.06 16.69,-0.31 0.2065,-0.131 29.87,0.395 z"
       id="path2"
       inkscape:connector-curvature="0" />
    <path
       style="fill:#ffffff;stroke-width:0"
       d="m 110.14,817.59 c 0,0 -23.1,0.1 -36.39,0.644 -11.72,0.47763 -45.325233,16.1 -45.09,53.45884 0.322,50.24 38.5,57.37901 45.085762,57.64535 18.58,0.751 57.969998,0.322 57.969998,0.322 0,0 9.01716,1.93225 9.66124,-6.44082 0.64408,-8.37307 -0.1285,-67.42212 0.64408,-101.12093 0.21707,-9.46833 9.01716,-15.78002 15.78002,-7.72899 12.06724,14.36577 69.88293,109.81603 69.88293,109.81603 0,0 8.05102,7.40696 8.69511,0.32205 0.67628,-7.43902 -0.63533,-70.85333 -0.32204,-105.30746 0.0693,-7.62715 12.89558,-13.92126 19.534,-2.70972 11.91339,20.12036 43.61975,73.33269 63.87466,105.11881 5.57326,8.74614 11.64874,7.72898 11.97078,-0.32204 0.45215,-11.30373 -0.32205,-132.49232 -0.32205,-132.49232 l -22.59813,0.45544 0.64408,74.06947 c 0,0 -24.60545,-40.38114 -35.42453,-58.61149 -6.00394,-10.12 -13.84,-16.42 -31.24,-16.42 -17.71,0 -26.73,9.98 -27.37,23.83 -0.64,13.85 -0.32203,47.98413 -0.32203,47.98413 0,0 -21.62411,-34.03656 -36.06862,-56.67924 -6.03212,-9.45574 -15.13592,-14.49186 -29.30574,-14.49186 -12.27564,10e-6 -28.01757,5.4747 -27.69554,28.9837 0.25159,18.36592 0,88.56132 0,88.56132 0,0 -33.322755,-0.02 -48.628215,-0.64408 C 59.050919,905.2604 48.73688,890.4131 48.761608,871.69707 c 0.02426,-18.35915 14.973851,-30.28647 27.562147,-30.91595 13.03241,-0.65169 34.136355,0 34.136355,0 z"
       id="path4"
       inkscape:connector-curvature="0" />
  </g>
</svg>
