<?xml version="1.0" encoding="UTF-8" standalone="no"?>
<svg
   xmlns:dc="http://purl.org/dc/elements/1.1/"
   xmlns:cc="http://creativecommons.org/ns#"
   xmlns:rdf="http://www.w3.org/1999/02/22-rdf-syntax-ns#"
   xmlns:svg="http://www.w3.org/2000/svg"
   xmlns="http://www.w3.org/2000/svg"
   height="300"
   width="300"
   id="svg18"
   version="1.1"
   viewbox="0 0 300 300">
  <metadata
     id="metadata24">
    <rdf:RDF>
      <cc:Work
         rdf:about="">
        <dc:format>image/svg+xml</dc:format>
        <dc:type
           rdf:resource="http://purl.org/dc/dcmitype/StillImage" />
        <dc:title></dc:title>
      </cc:Work>
    </rdf:RDF>
  </metadata>
  <defs
     id="defs22" />
  <g
     transform="translate(-47.457627,166.10169)"
     id="g16">
    <path
       id="ellipse4"
       d="M 187.3795,-156.10169 A 140,140 0 0 0 68.887314,-90.347781 l 31.382816,15.691406 a 105,105 0 0 1 87.10937,-46.445315 105,105 0 0 1 105,105 105,105 0 0 1 -105,105 A 105,105 0 0 1 97.436142,37.86316 L 67.457627,55.85144 a 140,140 0 0 0 119.921873,68.04687 140,140 0 0 0 140,-140 140,140 0 0 0 -140,-140 z"
       style="fill:#ffffff;stroke-width:0" />
    <path
       id="ellipse10"
       d="m 187.3795,-86.101688 a 70,70 0 0 0 -70,69.999998 70,70 0 0 0 70,70 A 70,70 0 0 0 246.66661,20.953 L 217.02208,2.4256598 A 35,35 0 0 1 187.3795,18.89831 a 35,35 0 0 1 -35,-35 35,35 0 0 1 35,-34.999998 35,35 0 0 1 29.66406,16.460938 l 29.66406,-18.541016 A 70,70 0 0 0 187.3795,-86.101688 Z"
       style="fill:#ffffff;stroke-width:0" />
  </g>
</svg>
