<?xml version="1.0" encoding="UTF-8" standalone="no"?>
<svg
   xmlns:dc="http://purl.org/dc/elements/1.1/"
   xmlns:cc="http://creativecommons.org/ns#"
   xmlns:rdf="http://www.w3.org/1999/02/22-rdf-syntax-ns#"
   xmlns:svg="http://www.w3.org/2000/svg"
   xmlns="http://www.w3.org/2000/svg"
   id="svg8"
   version="1.1"
   viewBox="0 0 79.374998 79.375002"
   height="300"
   width="300">
  <defs
     id="defs2" />
  <metadata
     id="metadata5">
    <rdf:RDF>
      <cc:Work
         rdf:about="">
        <dc:format>image/svg+xml</dc:format>
        <dc:type
           rdf:resource="http://purl.org/dc/dcmitype/StillImage" />
        <dc:title></dc:title>
      </cc:Work>
    </rdf:RDF>
  </metadata>
  <g
     transform="translate(0,-217.62499)"
     id="layer1">
    <path
       id="path825"
       transform="matrix(0.26458333,0,0,0.26458333,0,217.62499)"
       d="M 267 12.142578 L 208 24.642578 L 208 111 C 208 111 189.66579 86.4707 150.35742 86.785156 C 108.20903 87.12229 51.133267 120.42624 51.072266 193.57227 C 51.043035 228.61 79.934871 291.94547 151.78516 292.5 C 186.75257 292.76986 210 269.28516 210 269.28516 L 209.64258 292.5 L 267 292.5 L 267 12.142578 z M 160.71484 139.28516 A 49.999998 49.999998 0 0 1 210.71484 189.28516 A 49.999998 49.999998 0 0 1 160.71484 239.28516 A 49.999998 49.999998 0 0 1 110.71484 189.28516 A 49.999998 49.999998 0 0 1 160.71484 139.28516 z "
       style="opacity:1;fill:#ffffff;fill-opacity:1;stroke:#000000;stroke-width:0;stroke-linecap:butt;stroke-linejoin:miter;stroke-miterlimit:4;stroke-dasharray:none;stroke-opacity:1" />
  </g>
</svg>
