<?xml version="1.0" encoding="UTF-8" standalone="no"?>
<svg
   xmlns:dc="http://purl.org/dc/elements/1.1/"
   xmlns:cc="http://creativecommons.org/ns#"
   xmlns:rdf="http://www.w3.org/1999/02/22-rdf-syntax-ns#"
   xmlns:svg="http://www.w3.org/2000/svg"
   xmlns="http://www.w3.org/2000/svg"
   id="svg8"
   version="1.1"
   viewBox="0 0 79.374998 79.375002"
   height="300"
   width="300">
  <defs
     id="defs2" />
  <metadata
     id="metadata5">
    <rdf:RDF>
      <cc:Work
         rdf:about="">
        <dc:format>image/svg+xml</dc:format>
        <dc:type
           rdf:resource="http://purl.org/dc/dcmitype/StillImage" />
        <dc:title></dc:title>
      </cc:Work>
    </rdf:RDF>
  </metadata>
  <g
     transform="translate(0,-217.62499)"
     id="layer1">
    <path
       id="path823"
       d="m 15.388705,288.54309 v -6.95202 l 7.008032,-13.39061 c 6.023756,-11.50989 6.991977,-13.41167 6.893747,-13.54059 -0.06286,-0.0825 -0.331177,-0.4025 -0.596256,-0.71113 l -0.481956,-0.56113 h -6.411785 -6.411782 v -9.51684 -9.51683 l 11.694035,-0.005 11.694036,-0.005 1.066038,-0.73617 1.066038,-0.73617 3.267956,-6.23981 3.267946,-6.23981 0.691668,-0.69581 0.691667,-0.69581 h 6.937719 6.937728 v 6.9718 6.9718 l -7.001805,13.37649 -7.001814,13.3765 0.559994,0.70023 0.559985,0.70024 6.44182,0.005 6.44182,0.005 v 9.51683 9.51684 H 51.031254 39.358973 l -1.065563,0.72955 -1.065562,0.72955 -3.252459,6.20607 -3.252468,6.20606 -0.729511,0.7407 -0.729501,0.7407 h -6.937604 -6.9376 v -6.95203 z"
       style="fill:#ffffff;stroke-width:0.08978146;fill-opacity:1" />
  </g>
</svg>
