<?xml version="1.0" encoding="UTF-8" standalone="no"?>
<svg
   xmlns:dc="http://purl.org/dc/elements/1.1/"
   xmlns:cc="http://creativecommons.org/ns#"
   xmlns:rdf="http://www.w3.org/1999/02/22-rdf-syntax-ns#"
   xmlns:svg="http://www.w3.org/2000/svg"
   xmlns="http://www.w3.org/2000/svg"
   xmlns:sodipodi="http://sodipodi.sourceforge.net/DTD/sodipodi-0.dtd"
   xmlns:inkscape="http://www.inkscape.org/namespaces/inkscape"
   id="svg8"
   version="1.1"
   viewBox="0 0 79.374998 79.375002"
   height="300"
   width="300"
   sodipodi:docname="dictionary.svg"
   inkscape:version="0.92.4 (5da689c313, 2019-01-14)">
  <sodipodi:namedview
     pagecolor="#ffffff"
     bordercolor="#666666"
     borderopacity="1"
     objecttolerance="10"
     gridtolerance="10"
     guidetolerance="10"
     inkscape:pageopacity="0"
     inkscape:pageshadow="2"
     inkscape:window-width="1015"
     inkscape:window-height="847"
     id="namedview7"
     showgrid="false"
     borderlayer="true"
     inkscape:showpageshadow="false"
     inkscape:zoom="2.2250293"
     inkscape:cx="142.92542"
     inkscape:cy="147.52245"
     inkscape:window-x="759"
     inkscape:window-y="116"
     inkscape:window-maximized="0"
     inkscape:current-layer="svg8" />
  <defs
     id="defs2" />
  <metadata
     id="metadata5">
    <rdf:RDF>
      <cc:Work
         rdf:about="">
        <dc:format>image/svg+xml</dc:format>
        <dc:type
           rdf:resource="http://purl.org/dc/dcmitype/StillImage" />
        <dc:title></dc:title>
      </cc:Work>
    </rdf:RDF>
  </metadata>
  <g
     transform="matrix(0.76432578,0,0,0.76432578,9.8375895,-156.62815)"
     id="layer1">
    <path
       id="rect845"
       d="m 35.121318,228.54864 c -0.729195,0.0465 -1.370476,0.51141 -1.60107,1.23796 -0.19277,0.60736 0.737324,2.24193 3.377789,5.93646 l 3.643787,5.09877 c -1.233726,0.86729 -2.167587,1.62492 -3.292497,2.76473 l -9.206163,-7.34754 c -5.063397,-4.04093 -9.27492,-7.21199 -9.876653,-7.35852 -0.59505,-0.14489 -0.903626,0.22131 -1.188982,0.50667 -1.370608,1.37061 -0.576408,2.24684 8.713851,9.61656 l 9.232338,7.3239 c -0.669418,0.96944 -1.450294,2.21379 -1.940539,2.96485 -0.273755,-0.0183 -6.774488,-3.3482 -14.146178,-7.23268 L 5.4339384,234.99768 c -2.479882,-1.13634 -3.7238117,-1.69769 -4.48279613,0.15471 -0.93179317,2.27417 2.27251763,2.99251 4.50475163,4.09286 0.2451079,0 25.2630061,12.8446 26.2741241,13.49849 -0.53316,1.50557 -0.940286,2.90101 -1.154357,4.18507 -0.50681,-0.0237 -7.047587,-0.98457 -13.468087,-2.13475 -6.420501,-1.15019 -10.62063,-1.97847 -11.7817248,-2.11873 -1.4900666,-0.17999 -2.973532,-0.57172 -3.3745859,1.02146 -0.3566265,1.41671 0.1586003,2.28014 3.8069428,2.85371 1.2698322,0.19964 24.1082209,4.17253 24.3597659,4.42405 0.153015,1.38131 0.486038,3.22809 0.743113,4.32527 -0.795433,0.17674 0.889228,0.0544 -11.590036,0.92889 -7.985036,0.55958 -8.515169,0.74349 -9.206163,0.88921 -0.57021,0.1202 -1.4321888,0.62942 -1.3215594,1.70156 0.08507,0.82443 0.9783701,1.4747 1.6990274,1.47525 0.85063,4.3e-4 -0.307463,0.21642 9.527051,-0.49823 5.559992,-0.40401 11.374095,-0.73143 11.886437,-0.72707 0.476839,0.7146 0.450694,0.6508 1.375605,2.27832 7.363298,12.95683 23.085035,16.59467 35.395844,8.3727 6.688342,-4.69222 9.736341,-11.97119 9.758431,-20.00918 0.02365,-8.60342 -5.102901,-15.73488 -10.601189,-19.38175 -6.189374,-4.10951 -14.531909,-4.89457 -21.716647,-2.34165 -1.522065,0.54083 -1.427569,0.54645 -2.336583,0.90018 -1.915271,-3.05178 -7.330663,-10.06357 -7.86349,-10.24061 -0.250681,-0.0833 -0.503428,-0.11435 -0.746495,-0.0988 z m 19.297308,12.02154 c 1.636194,-0.0156 3.30472,0.18106 4.976324,0.61646 3.371104,0.87805 6.398,2.55364 8.632784,4.70779 4.539359,4.37557 6.135746,9.67177 6.212596,13.88609 0.111739,6.12754 -2.428565,11.57073 -6.575711,15.2963 -3.710871,3.46966 -9.290399,4.95082 -12.621104,4.91046 -3.524884,-0.0428 -4.766769,-0.28333 -6.693087,-0.91706 -7.109864,-2.3389 -12.244664,-8.46634 -13.411509,-16.00481 -1.837577,-11.87175 8.026334,-22.38584 19.479707,-22.49523 z m 3.218188,7.13221 c -0.516222,-0.001 -1.089994,-8.6e-4 -1.731961,0.002 -3.154706,0.0163 -5.905287,0.21036 -6.112109,0.43236 -0.558752,0.59976 -4.585426,23.89138 -4.197748,24.28123 0.453529,0.45605 6.853055,0.895 9.776164,0.6705 1.491631,-0.1146 3.425442,-0.69546 5.188283,-1.55717 4.726988,-2.31061 7.388914,-7.02075 7.468291,-13.21475 0.06201,-4.83902 -1.431984,-7.99172 -4.586192,-9.67821 -1.411105,-0.75448 -2.191198,-0.92321 -5.804728,-0.93649 z m -2.636366,5.37827 h 1.677918 c 3.77882,0 4.989243,1.67574 4.648679,6.43554 -0.240892,3.36682 -1.604697,6.27494 -3.371878,7.18878 -1.313556,0.67926 -3.799664,1.08403 -4.853881,0.7904 -0.518833,-0.14444 -0.691217,-0.50676 -0.548046,-1.15183 0.114881,-0.51758 0.512705,-2.69175 0.884139,-4.83192 0.37142,-2.14017 0.874801,-4.91266 1.118892,-6.16109 z"
       style="opacity:1;fill:#ffffff;fill-opacity:1;fill-rule:evenodd;stroke:#ffffff;stroke-width:0;stroke-linecap:square;stroke-linejoin:round;stroke-miterlimit:4;stroke-dasharray:none;stroke-opacity:1;paint-order:normal"
       inkscape:connector-curvature="0" />
  </g>
</svg>
