<?xml version="1.0" encoding="UTF-8" standalone="no"?>
<svg
   xmlns:dc="http://purl.org/dc/elements/1.1/"
   xmlns:cc="http://creativecommons.org/ns#"
   xmlns:rdf="http://www.w3.org/1999/02/22-rdf-syntax-ns#"
   xmlns:svg="http://www.w3.org/2000/svg"
   xmlns="http://www.w3.org/2000/svg"
   xmlns:sodipodi="http://sodipodi.sourceforge.net/DTD/sodipodi-0.dtd"
   xmlns:inkscape="http://www.inkscape.org/namespaces/inkscape"
   version="1.1"
   id="svg2"
   viewBox="0 0 300 300"
   height="300"
   width="300"
   sodipodi:docname="discord.svg"
   inkscape:version="0.92.4 (5da689c313, 2019-01-14)">
  <sodipodi:namedview
     pagecolor="#ffffff"
     bordercolor="#666666"
     borderopacity="1"
     objecttolerance="10"
     gridtolerance="10"
     guidetolerance="10"
     inkscape:pageopacity="0"
     inkscape:pageshadow="2"
     inkscape:window-width="974"
     inkscape:window-height="929"
     id="namedview6"
     showgrid="false"
     borderlayer="true"
     inkscape:showpageshadow="false"
     inkscape:zoom="1.888"
     inkscape:cx="150"
     inkscape:cy="151.90273"
     inkscape:window-x="926"
     inkscape:window-y="58"
     inkscape:window-maximized="0"
     inkscape:current-layer="svg2" />
  <metadata
     id="metadata14">
    <rdf:RDF>
      <cc:Work
         rdf:about="">
        <dc:format>image/svg+xml</dc:format>
        <dc:type
           rdf:resource="http://purl.org/dc/dcmitype/StillImage" />
        <dc:title></dc:title>
      </cc:Work>
    </rdf:RDF>
  </metadata>
  <defs
     id="defs12" />
  <path
     id="path8"
     d="m 129.35167,93.532708 c -2.02321,0.0081 -18.76063,0.483192 -36.417741,13.603402 0,0 -18.83423,33.87574 -18.83423,75.59882 0,0 10.986457,18.83405 39.891791,19.74961 0,0 4.83934,-5.75493 8.76313,-10.72508 -16.61075,-4.97015 -22.888801,-15.30243 -22.888801,-15.30243 0,0 1.308221,0.9154 3.662481,2.22333 0.13079,0 0.2612,0.13059 0.5228,0.26139 0.39237,0.26159 0.78487,0.3924 1.17726,0.65398 3.26984,1.8311 6.53957,3.27001 9.54782,4.44718 5.36251,2.22348 11.77158,4.18519 19.22682,5.62392 9.80949,1.8311 21.3191,2.48497 33.87526,0.13068 6.1473,-1.17713 12.42577,-2.87725 18.96545,-5.62392 4.57775,-1.70032 9.67851,-4.18512 15.04104,-7.71656 0,0 -6.53955,10.59428 -23.67349,15.43364 3.92381,4.83934 8.63245,10.46317 8.63245,10.46317 28.90533,-0.91556 39.89179,-19.74971 39.89179,-19.61891 0,-41.72308 -18.83424,-75.59882 -18.83424,-75.59882 C 189.19782,93.141221 171.27887,93.533724 171.27887,93.533724 l -1.83074,2.092634 c 22.23488,6.670462 32.5673,16.480212 32.5673,16.480212 -13.60251,-7.32443 -26.94313,-10.9869 -39.36849,-12.425633 -9.41714,-1.046347 -18.44222,-0.784457 -26.42061,0.26189 -0.78476,0 -1.43857,0.130603 -2.22333,0.261393 -4.57779,0.52317 -15.69513,2.09256 -29.69,8.23987 -4.839367,2.09268 -7.717075,3.66248 -7.717075,3.66248 0,0 10.725065,-10.33303 34.267855,-17.003496 l -1.30796,-1.56935 c 0,0 -0.0692,-0.0013 -0.20415,-0.001 z m -3.32713,48.263862 c 7.45522,0 13.47178,6.40867 13.34099,14.38707 0,7.97839 -5.88577,14.38755 -13.34099,14.38755 -7.32444,0 -13.34102,-6.40916 -13.34102,-14.38755 0,-7.9784 5.88578,-14.38707 13.34102,-14.38707 z m 47.73955,0 c 7.32444,0 13.34101,6.40867 13.34101,14.38707 0,7.97839 -5.88578,14.38755 -13.34101,14.38755 -7.32443,0 -13.341,-6.40916 -13.341,-14.38755 0,-7.9784 5.88577,-14.38707 13.341,-14.38707 z"
     style="fill:#ffffff;fill-opacity:1;stroke-width:0.1526358"
     inkscape:connector-curvature="0" />
</svg>
