<?xml version="1.0" encoding="UTF-8" standalone="no"?>
<svg
   xmlns:dc="http://purl.org/dc/elements/1.1/"
   xmlns:cc="http://creativecommons.org/ns#"
   xmlns:rdf="http://www.w3.org/1999/02/22-rdf-syntax-ns#"
   xmlns:svg="http://www.w3.org/2000/svg"
   xmlns="http://www.w3.org/2000/svg"
   width="300"
   height="300"
   viewBox="0 0 79.374998 79.375002"
   version="1.1"
   id="svg8">
  <defs
     id="defs2" />
  <metadata
     id="metadata5">
    <rdf:RDF>
      <cc:Work
         rdf:about="">
        <dc:format>image/svg+xml</dc:format>
        <dc:type
           rdf:resource="http://purl.org/dc/dcmitype/StillImage" />
        <dc:title></dc:title>
      </cc:Work>
    </rdf:RDF>
  </metadata>
  <g
     id="layer1"
     transform="matrix(0.71075076,0,0,0.71075076,11.824676,-143.47229)">
    <path
       style="opacity:1;fill:#ffffff;fill-opacity:1;fill-rule:evenodd;stroke:#ffffff;stroke-width:0;stroke-linecap:square;stroke-linejoin:round;stroke-miterlimit:4;stroke-dasharray:none;stroke-opacity:1;paint-order:normal"
       d="m 13.416585,237.68759 c -0.34225,0.005 -0.682522,0.0165 -1.019844,0.0331 -5.9796918,0.29266 -8.6344877,1.33967 -9.6455648,3.80454 -0.4914425,1.19804 0.6363751,2.02202 2.5906432,1.89272 1.7986295,-0.11893 2.0964979,-0.73772 0.6451161,-1.33922 l -1.0821918,-0.44853 1.7260352,-0.376 c 6.0058961,-1.30959 15.6769171,0.39926 23.6224431,4.17417 6.370259,3.02652 12.381187,8.12741 14.162648,12.01862 1.609125,3.5148 0.921023,7.22325 -1.748304,9.42354 -3.103322,2.55802 -6.407515,3.48642 -12.409256,3.48642 -2.538071,0 -4.73681,-0.12176 -4.886085,-0.27103 -0.14928,-0.14928 -0.324156,-2.53124 -0.388088,-5.29326 l -0.11579,-5.02222 h 2.2859 c 1.257477,0 3.393459,0.21197 4.74612,0.47078 4.025522,0.77022 4.733288,1.51236 2.627541,2.75479 -1.338393,0.78967 -1.242408,1.18071 0.400812,1.63442 2.31651,0.63962 4.341492,-1.06712 4.341492,-3.65948 0,-2.94167 -3.953344,-4.9186 -10.65523,-5.32824 l -3.326101,-0.20359 -0.175593,-1.41748 c -0.09657,-0.7796 -0.256416,-2.06603 -0.355005,-2.85911 -0.17871,-1.43762 -1.266062,-3.44322 -1.99706,-3.68303 -0.605458,-0.19863 -1.054743,0.96748 -1.433379,3.72184 -0.192293,1.39877 -0.414208,2.99789 -0.493062,3.55385 -0.137436,0.969 -0.258514,1.04111 -2.925925,1.74577 -5.105806,1.34881 -8.2808974,3.46793 -8.2808974,5.5261 0,1.90448 4.2687154,6.26711 8.4692144,8.65563 2.181054,1.24021 2.463103,1.51264 2.631361,2.53974 0.394433,2.40781 1.834746,3.4317 3.541776,2.51812 0.325928,-0.17442 0.689586,-0.70332 0.807985,-1.17508 0.191472,-0.76288 0.33074,-0.83561 1.259058,-0.65847 0.574043,0.10957 2.663695,0.29053 4.643689,0.40271 6.291494,0.35643 11.933378,-1.34123 15.479604,-4.65832 1.956467,-1.83004 2.733801,-3.22686 3.40499,-6.12097 0.440477,-1.8993 0.438311,-2.34791 -0.01845,-4.35611 -0.699886,-3.07716 -2.446568,-5.92898 -5.52802,-9.02654 C 36.879018,242.6687 24.02629,237.52171 13.416585,237.68762 Z m 51.174111,10.77102 c -1.205495,0.005 -1.074757,0.26594 -0.496244,4.10418 0.267685,1.77595 0.48755,3.63187 0.488608,4.12455 l 0.0025,0.89578 h -4.16905 c -4.482443,0 -4.951614,0.15476 -4.951614,1.63187 0,1.75423 0.441796,1.93106 5.048955,2.02632 l 4.234607,0.0878 0.01591,1.27496 c 0.0086,0.70116 -0.07621,2.53343 -0.188316,4.07174 -0.112158,1.5383 -0.142378,2.91409 -0.06744,3.05762 0.07497,0.14352 0.819384,0.21681 1.654145,0.16286 l 1.517357,-0.098 0.215676,-1.62869 c 0.118682,-0.8958 0.228607,-2.83352 0.244303,-4.3065 l 0.02863,-2.67845 4.478912,-0.0903 4.478912,-0.091 v -1.6287 -1.62869 l -4.594064,-0.0897 -4.594067,-0.0904 -0.196587,-2.67844 c -0.108341,-1.47328 -0.370085,-3.52192 -0.581496,-4.55208 l -0.384271,-1.873 H 65.1919 c -0.22935,0 -0.42837,-0.005 -0.600581,-0.004 z M 19.76086,259.8143 c 1.106865,0.0257 0.941086,0.76186 0.938409,3.13206 -0.0042,3.7299 -0.26453,5.62293 -0.771722,5.60882 -0.200506,-0.006 -1.463725,-0.58998 -2.80759,-1.29851 -2.906599,-1.53245 -5.863303,-4.01448 -5.863303,-4.92235 0,-0.86728 1.50641,-1.4584 5.270992,-2.06895 1.428949,-0.23174 2.372596,-0.41573 2.994637,-0.44725 0.08553,-0.004 0.164787,-0.005 0.238577,-0.004 z"
       id="rect825" />
  </g>
</svg>
