<?xml version="1.0" encoding="UTF-8" standalone="no"?>
<svg
   xmlns:dc="http://purl.org/dc/elements/1.1/"
   xmlns:cc="http://creativecommons.org/ns#"
   xmlns:rdf="http://www.w3.org/1999/02/22-rdf-syntax-ns#"
   xmlns:svg="http://www.w3.org/2000/svg"
   xmlns="http://www.w3.org/2000/svg"
   xmlns:sodipodi="http://sodipodi.sourceforge.net/DTD/sodipodi-0.dtd"
   xmlns:inkscape="http://www.inkscape.org/namespaces/inkscape"
   id="svg8"
   version="1.1"
   viewBox="0 0 79.374998 79.375002"
   height="300"
   width="300"
   sodipodi:docname="duckduckgo.svg"
   inkscape:version="0.92.4 (5da689c313, 2019-01-14)">
  <sodipodi:namedview
     pagecolor="#ffffff"
     bordercolor="#666666"
     borderopacity="1"
     objecttolerance="10"
     gridtolerance="10"
     guidetolerance="10"
     inkscape:pageopacity="0"
     inkscape:pageshadow="2"
     inkscape:window-width="1242"
     inkscape:window-height="855"
     id="namedview7"
     showgrid="false"
     borderlayer="true"
     inkscape:showpageshadow="false"
     inkscape:zoom="1.5733333"
     inkscape:cx="154.94735"
     inkscape:cy="154.77121"
     inkscape:window-x="0"
     inkscape:window-y="0"
     inkscape:window-maximized="0"
     inkscape:current-layer="svg8" />
  <defs
     id="defs2" />
  <metadata
     id="metadata5">
    <rdf:RDF>
      <cc:Work
         rdf:about="">
        <dc:format>image/svg+xml</dc:format>
        <dc:type
           rdf:resource="http://purl.org/dc/dcmitype/StillImage" />
        <dc:title></dc:title>
      </cc:Work>
    </rdf:RDF>
  </metadata>
  <g
     transform="matrix(0.58312341,0,0,0.58312341,13.095877,-113.55479)"
     id="layer1">
    <path
       id="path956"
       transform="matrix(0.26458333,0,0,0.26458333,0,217.62499)"
       d="M 171.94727,38.835938 C 99.927264,38.836655 41.543691,97.220224 41.542969,169.24023 41.54261,241.261 99.926499,299.64576 171.94727,299.64648 243.9688,299.64684 302.35388,241.26176 302.35352,169.24023 302.3528,97.219463 243.96804,38.835579 171.94727,38.835938 Z m -0.0879,9.722656 c 66.60268,-6.68e-4 120.59529,53.991066 120.5957,120.593746 -0.069,55.9548 -38.61847,104.51219 -93.09961,117.26954 -1.38158,-2.91036 -5.84375,-11.47217 -7.23242,-13.85157 0,0 0.0582,-0.0272 0.125,-0.084 0.098,-0.0834 2.68081,0.74809 5.7539,1.86328 8.80924,3.19657 15.32396,5.05489 18.25782,5.20898 2.45006,0.12889 2.80642,0.0227 3.43554,-1.01171 3.4702,-5.70637 2.80743,-34.49076 -1.08984,-38.77149 -0.42515,-0.46704 -1.66099,-1.19799 -2.49609,-1.17773 -4.0004,0.76666 -6.47726,2.26852 -9.14063,3.80083 -3.21575,1.88243 -11.3115,7.1643 -14.20508,9.29883 -1.03189,0.76119 -1.60895,1.83129 -2.08984,1.85351 0.34726,0.77087 1.4265,0.81802 3.07812,-0.40039 2.73234,-2.01558 10.31892,-7.06624 13.35547,-8.84375 4.14059,-2.4237 6.45841,-3.29203 8.19336,-3.33398 0.73722,0.19394 1.14794,0.33348 1.45508,0.88668 3.68009,4.0421 4.52453,29.73061 1.24805,35.11914 -0.5944,0.97756 -0.99103,1.26007 -2.49414,1.14257 -2.76574,-0.2162 -8.79691,-2.02644 -17.11524,-5.04492 -1.76858,-0.62289 -4.09619,-1.61528 -5.7207,-2.13867 -0.8382,-0.27006 -1.22001,0.40393 -1.85352,1.30273 -3.17878,4.50992 -10.25819,5.09658 -14.79687,5.125 -2.75599,0.113 -4.8575,-0.27537 -7.29102,-1.11523 l -4.38867,2.36523 c -7.09696,3.82749 -13.65912,6.63703 -16.78906,7.18555 -0.79835,0.13977 -1.22505,0.0378 -1.82422,-0.43359 -2.33741,-1.83859 -3.94889,-15.60434 -3.73047,-31.87305 0.11528,-8.58701 -0.0779,-8.16314 3.64258,-7.9375 3.80406,0.23089 11.11183,2.83385 20.5918,7.3457 l 4.34179,2.06641 c 2.31217,-1.22651 4.95207,-2.17024 7.26563,-2.73242 3.83344,-0.84561 7.63645,-1.2696 11.58789,-0.44531 -0.21075,-0.26608 -0.48532,-0.53085 -0.90235,-0.63868 -2.54985,-0.56764 -4.25695,-0.36004 -6.87695,-0.6914 -0.42782,-1.02849 -0.79155,-2.12447 -1.13867,-3.01563 -1.82056,-4.63581 -4.4227,-12.77788 -5.57031,-17.42969 -2.02492,-8.20754 -2.47184,-11.56473 -2.47657,-18.61132 0.0418,-2.99427 -0.0652,-5.97108 0.69922,-8.86328 4.05268,1.89649 -1.07234,-0.38851 4.05274,1.89648 4.0961,1.82392 14.91522,5.32741 21.71289,7.0293 6.38181,1.59779 13.59349,2.15614 17.72656,3.1582 17.44736,4.23009 55.73067,-23.60568 23.48437,-16.13672 -14.97533,3.45638 -19.24844,4.14703 -27.07421,4.37305 -8.12327,-0.1578 -21.3468,0.21507 -25.81446,-7.9668 -1.46018,-2.67411 -0.39211,-6.36752 2.07422,-8.5957 2.02708,-1.83141 3.65662,-1.9996 10.49024,-1.07422 5.17307,0.7005 10.15405,0.75714 13.31445,0.15234 16.14955,-2.76389 33.49497,-12.7407 43.32404,-18.94768 9.45934,-5.9735 9.53789,-12.58521 -10.83576,-8.77693 -9.96587,3.458 -24.64781,7.2548 -34.0957,9.05664 1.02346,-5.38342 1.80154,-11.18995 1.2207,-16.02148 -1.67791,-13.9572 -8.47054,-30.4873 -17.05664,-41.77539 -2.01978,-2.65531 -5.60385,-6.28403 -7.45117,-7.54492 -3.41571,-2.331533 -8.4741,-4.445264 -13.08399,-5.468752 l -2.30078,-0.511719 -3.16406,-3.164063 c -9.60416,-9.60839 -26.2049,-15.877761 -41.93359,-16.21875 v -0.002 c -1.12347,-0.02438 -3.02336,-0.0338 -4.91602,-0.01367 -1.89266,0.02013 -3.77885,0.06995 -4.87305,0.169922 -3.11885,0.418999 -6.32031,1.493608 -6.32031,1.941406 0,0.159874 0.36571,0.423645 0.8125,0.585938 3.27802,1.190891 9.52734,3.983683 9.52735,4.257812 0,0.184819 -1.56157,0.781353 -3.47071,1.326172 -4.42324,1.262098 -5.76559,1.89027 -6.7207,3.142578 -0.97188,1.274193 -1.68578,2.963373 -1.56836,3.712891 0.0872,0.556876 0.42539,0.580572 9.54492,0.658203 9.75406,0.08315 12.78246,0.341015 19.56445,1.667969 3.20907,0.627931 4.6985,1.084665 4.42774,1.355469 -0.091,0.09109 -1.97865,0.549622 -4.19531,1.019531 -5.38844,1.142286 -9.55088,2.559331 -14.19336,4.832033 -4.56858,2.23643 -7.69947,4.49345 -10.92578,7.87696 -6.28386,6.58998 -9.97537,15.38221 -11.11524,26.48242 -0.42803,4.16821 -0.13931,12.22266 0.60547,16.91797 1.22655,7.73261 6.2338,32.28777 16.7168,81.9785 3.66771,17.38539 7.55005,35.8632 8.62695,41.0625 0.84297,4.06998 1.46863,6.454 1.74805,7.48828 C 83.228641,265.26469 51.332796,219.95336 51.265625,169.15234 51.266036,102.55042 105.25746,48.559 171.85938,48.558594 Z m 21.07617,70.195316 c 3.18152,-0.0436 6.44748,1.30171 8.46875,4.41211 0,0.43929 -0.12248,0.4105 -3.25,-0.76758 -4.25092,-1.62121 -9.14887,-0.99575 -13.10157,0.93945 -0.51881,0.22035 -0.52277,0.18601 -0.082,-0.66601 1.68622,-2.44173 4.78333,-3.87434 7.96485,-3.91797 z m -60.24024,2.95898 c 1.55688,0.0336 3.07384,0.35967 4.44336,1.0332 2.18733,1.10087 2.51008,1.69516 0.69141,1.27344 -1.96229,-0.45502 -6.60445,-0.11826 -8.48047,0.59766 -4.12632,1.57467 -6.6016,4.1083 -8.74805,7.73047 -0.58402,-5.7824 4.18146,-8.86434 7.40821,-9.91211 1.53185,-0.49742 3.12866,-0.75627 4.68554,-0.72266 z m 64.9297,16.22461 c 4.17665,0 7.5625,3.38585 7.5625,7.5625 0,4.17665 -3.38585,7.5625 -7.5625,7.5625 -4.17665,0 -7.5625,-3.38585 -7.5625,-7.5625 0,-4.17665 3.38585,-7.5625 7.5625,-7.5625 z m 3.34375,2.98438 c -1.06142,0 -1.92187,0.91292 -1.92187,2.03906 0,1.12614 0.86045,2.03906 1.92187,2.03906 1.06142,0 1.92187,-0.91292 1.92187,-2.03906 0,-1.12614 -0.86045,-2.03906 -1.92187,-2.03906 z M 137.75,142 c 4.86701,0 8.8125,3.94549 8.8125,8.8125 0,4.86701 -3.94549,8.8125 -8.8125,8.8125 -4.86701,0 -8.8125,-3.94549 -8.8125,-8.8125 0,-4.86701 3.94549,-8.8125 8.8125,-8.8125 z m 3.96875,3.5 c -1.29442,0 -2.34375,1.04933 -2.34375,2.34375 0,1.29442 1.04933,2.34375 2.34375,2.34375 1.29442,0 2.34375,-1.04933 2.34375,-2.34375 0,-1.29442 -1.04933,-2.34375 -2.34375,-2.34375 z m 28.08789,111.37695 c -1.01135,0.58999 -1.73659,1.47416 -1.76953,2.44336 -0.13971,4.11061 -0.17791,8.45425 -0.37891,12.64258 -0.16569,3.45256 2.66039,3.74826 3.45508,3.87695 5.23268,0.84734 11.90456,0.86104 16.4336,-1.64257 1.42306,-0.78666 1.05468,-2.10743 1.05468,-2.10743 0,0 -6.56695,2.78736 -15.16992,1.51758 -3.09194,-0.45637 -3.64107,-2.52055 -3.66797,-3.96289 -0.083,-4.45119 -0.0107,-8.9672 0.043,-12.76758 z"
       style="opacity:1;fill:#ffffff;fill-opacity:1;fill-rule:evenodd;stroke:#ffffff;stroke-width:0;stroke-linecap:square;stroke-linejoin:round;stroke-miterlimit:4;stroke-dasharray:none;stroke-opacity:1;paint-order:normal"
       inkscape:connector-curvature="0" />
  </g>
</svg>
