<?xml version="1.0" encoding="UTF-8" standalone="no"?>
<svg
   xmlns:dc="http://purl.org/dc/elements/1.1/"
   xmlns:cc="http://creativecommons.org/ns#"
   xmlns:rdf="http://www.w3.org/1999/02/22-rdf-syntax-ns#"
   xmlns:svg="http://www.w3.org/2000/svg"
   xmlns="http://www.w3.org/2000/svg"
   id="svg8"
   version="1.1"
   viewBox="0 0 79.374998 79.375002"
   height="300"
   width="300">
  <defs
     id="defs2" />
  <metadata
     id="metadata5">
    <rdf:RDF>
      <cc:Work
         rdf:about="">
        <dc:format>image/svg+xml</dc:format>
        <dc:type
           rdf:resource="http://purl.org/dc/dcmitype/StillImage" />
        <dc:title></dc:title>
      </cc:Work>
    </rdf:RDF>
  </metadata>
  <g
     transform="translate(0,-217.62499)"
     id="layer1">
    <path
       id="path823"
       d="m 62.15095,269.2962 c 0,-0.0666 0.570227,-1.1803 1.267171,-2.47484 0.696943,-1.29455 1.44401,-2.69295 1.660147,-3.10757 l 0.392975,-0.75386 -0.564252,-1.16541 c -0.310339,-0.64097 -1.318504,-2.57455 -2.240365,-4.29683 -0.921861,-1.72229 -2.154447,-4.04056 -2.739082,-5.15171 -0.584632,-1.11116 -1.119018,-2.08407 -1.187525,-2.16204 -0.06851,-0.078 -0.102946,0.69479 -0.07653,1.71724 0.02641,1.02244 0.07203,3.92725 0.101379,6.45512 l 0.05336,4.59614 h -1.74286 -1.742858 l -0.126267,-0.63134 c -0.06945,-0.34724 -0.126268,-0.86571 -0.126268,-1.15215 v -0.52082 l -0.757604,0.72719 c -1.646481,1.5804 -4.179601,2.31939 -7.304511,2.13095 -3.81438,-0.23001 -5.902201,-1.7817 -6.589578,-4.89743 l -0.13371,-0.60608 -0.511723,1.00187 c -1.018767,1.99458 -3.4095,3.80321 -5.736352,4.33963 -3.515883,0.74399 -6.98256,-0.57964 -9.485104,-2.43052 l 0.01237,2.03868 h -1.919264 -1.919265 v -3.73752 -3.73751 H 13.063235 5.3912281 l 0.1156443,0.65659 c 0.2057124,1.16797 1.0902398,2.74966 1.9485284,3.48433 2.4865676,2.1284 7.3550182,1.54438 8.5824482,-1.02957 l 0.327616,-0.68702 h 1.998914 1.998912 l -0.141397,0.65659 c -0.216269,1.00425 -0.639388,1.71052 -1.560019,2.60396 -1.768689,1.71645 -3.614776,2.31276 -7.320927,2.29522 -6.7108501,-0.0318 -9.7605565,-4.51942 -9.8226294,-8.8862 0.00992,-4.88648 2.2412785,-7.88352 6.6363832,-8.91366 1.9573592,-0.45877 5.7955062,-0.30334 7.3490862,0.29762 2.495589,0.96534 4.011295,2.4733 4.800006,4.77548 l 0.414937,1.21117 0.05876,-6.66692 0.05876,-6.66691 1.969772,-0.0578 1.969771,-0.0578 v 4.7759 4.77589 l 0.748035,-0.65678 c 1.764312,-1.56097 4.243167,-1.9496 6.019898,-1.90847 5.223809,0.12093 9.120244,4.28583 9.271847,8.55327 l 0.02143,1.54617 0.921067,-0.93069 c 0.940385,-0.9502 2.349026,-1.62288 4.227846,-2.01896 0.501557,-0.10573 2.707444,-0.24849 4.901972,-0.31725 4.48563,-0.14053 4.249688,-0.0327 3.77913,-1.72701 -0.489594,-1.76287 -1.960209,-2.58359 -4.623231,-2.58016 -2.059858,0.003 -3.444183,0.61883 -4.047595,1.80162 l -0.419748,0.82277 -3.873033,-0.2463 c 0.568619,-2.00528 2.621622,-3.72357 3.840448,-4.19792 1.312721,-0.51088 2.787347,-0.7262 4.687438,-0.70749 2.544883,0.0251 4.592903,0.42459 6.148798,1.41471 0.488494,0.31086 0.92332,0.63928 1.454352,1.30164 -0.158798,-0.27779 -1.239677,-2.24351 -1.239677,-2.24351 l 4.544806,0.0322 3.23367,6.46489 c 1.778518,3.55569 3.279823,6.46489 3.336231,6.46489 2.385848,-4.47168 4.06768,-7.95 6.500997,-12.82877 l 4.102693,-0.007 c 0,0.0596 -1.911662,3.85834 -4.248138,8.44173 -2.336475,4.58338 -4.994715,9.81075 -5.9072,11.61637 l -1.65906,3.28296 h -2.173915 c -1.195653,0 -2.173914,-0.0545 -2.173914,-0.12113 z m -10.158782,-8.94085 c 1.644032,-0.83872 2.562254,-2.25799 2.806756,-4.33833 l 0.134654,-1.1457 -2.300629,0.002 c -4.58565,0.003 -6.956054,0.52401 -7.72452,1.69683 -0.759556,1.15923 -0.218838,3.06165 1.089041,3.8316 1.296405,0.7632 4.456015,0.73892 5.994698,-0.0461 z m -19.092524,0.14058 c 0.581236,-0.17112 1.235477,-0.62339 1.987774,-1.37412 1.455015,-1.452 1.896003,-2.73154 1.769841,-5.13525 -0.138082,-2.63078 -1.290459,-4.49078 -3.378231,-5.45263 -1.162622,-0.53563 -3.759736,-0.57732 -4.905034,-0.0787 -1.129275,0.49161 -2.486189,1.85653 -3.018985,3.03681 -0.674102,1.49332 -0.677476,4.42681 -0.0068,5.90468 1.308542,2.88341 4.222463,4.07935 7.551427,3.09926 z M 10.936892,248.04932 c -3.7830326,0.0539 -5.7949026,2.7689 -5.8002207,4.75351 0,0 2.8940223,0.0482 6.0022487,0.0482 h 5.555766 c -0.115968,-3.31399 -3.467648,-4.83434 -5.757794,-4.80173 z"
       style="fill:#ffffff;stroke-width:0.20202783;fill-opacity:1" />
  </g>
</svg>
