<?xml version="1.0" encoding="UTF-8" standalone="no"?>
<svg
   xmlns:dc="http://purl.org/dc/elements/1.1/"
   xmlns:cc="http://creativecommons.org/ns#"
   xmlns:rdf="http://www.w3.org/1999/02/22-rdf-syntax-ns#"
   xmlns:svg="http://www.w3.org/2000/svg"
   xmlns="http://www.w3.org/2000/svg"
   xmlns:sodipodi="http://sodipodi.sourceforge.net/DTD/sodipodi-0.dtd"
   xmlns:inkscape="http://www.inkscape.org/namespaces/inkscape"
   viewBox="0 0 300 300.00001"
   height="300"
   width="300"
   xml:space="preserve"
   id="svg2"
   version="1.1"
   sodipodi:docname="epicgames.svg"
   inkscape:version="0.92.4 (5da689c313, 2019-01-14)"><sodipodi:namedview
     pagecolor="#ffffff"
     bordercolor="#666666"
     borderopacity="1"
     objecttolerance="10"
     gridtolerance="10"
     guidetolerance="10"
     inkscape:pageopacity="0"
     inkscape:pageshadow="2"
     inkscape:window-width="1050"
     inkscape:window-height="940"
     id="namedview17"
     showgrid="false"
     inkscape:zoom="2.2250293"
     inkscape:cx="153.14129"
     inkscape:cy="150.02286"
     inkscape:window-x="861"
     inkscape:window-y="52"
     inkscape:window-maximized="0"
     inkscape:current-layer="svg2" /><metadata
     id="metadata8"><rdf:RDF><cc:Work
         rdf:about=""><dc:format>image/svg+xml</dc:format><dc:type
           rdf:resource="http://purl.org/dc/dcmitype/StillImage" /><dc:title /></cc:Work></rdf:RDF></metadata><defs
     id="defs6"><clipPath
       id="clipPath20"
       clipPathUnits="userSpaceOnUse"><path
         id="path18"
         d="M 0,790.889 H 900 V 0 H 0 Z" /></clipPath></defs><g
     transform="matrix(0.29731978,0,0,-0.29731978,15.277987,268.18108)"
     id="g10"><g
       id="g14"><g
         clip-path="url(#clipPath20)"
         id="g16"><g
           transform="translate(649.8358,676.9377)"
           id="g22"><path
             id="path24"
             transform="matrix(1.9191036,0,0,-1.9191036,-486.6376,8.4736448)"
             d="M 46.59375,4.4160156 C 29.817167,4.4160156 23.625,10.606226 23.625,27.390625 V 229.92188 c 0,1.89927 0.07831,3.66225 0.246094,5.29687 0.381949,3.66369 0.454008,7.21387 3.861328,11.25586 2.580006,2.54154 6.317953,4.31218 9.070312,5.42773 l 101.919926,42.70118 c 5.29101,2.42561 7.50276,3.37099 11.3457,3.29492 h 0.0156 0.0156 c 3.84294,0.0761 6.05612,-0.86931 11.34766,-3.29492 l 101.91992,-42.70118 c 3.57431,-1.43698 6.14758,-2.77932 9.07031,-5.42773 3.40732,-4.04199 3.47938,-7.59217 3.86133,-11.25586 0.16778,-1.63462 0.24414,-3.3976 0.24414,-5.29687 V 27.390625 c 0,-16.784399 -6.19074,-22.9746094 -22.9668,-22.9746094 z M 209.95508,42.451172 h 8.32031 c 13.91535,0 20.63477,6.752195 20.63477,20.736328 v 22.990234 h -16.79688 v -22.02539 c 0,-4.50106 -2.08066,-6.589844 -6.40039,-6.589844 h -2.87891 c -4.47865,0 -6.56054,2.088784 -6.56054,6.589844 v 71.054686 c 0,4.50158 2.08189,6.5918 6.56054,6.5918 h 3.20118 c 4.31712,0 6.39843,-2.09022 6.39843,-6.5918 v -25.39844 h 16.79688 v 26.20118 c 0,13.98726 -6.87788,20.89843 -20.79688,20.89843 h -8.47851 c -13.91587,0 -20.79883,-6.91117 -20.79883,-20.89843 V 63.349609 c 0,-13.986738 6.88296,-20.898437 20.79883,-20.898437 z m -102.35742,0.964844 h 26.875 c 13.91847,0 20.79687,6.911699 20.79687,20.898437 v 29.902344 c 0,13.984133 -6.8784,20.894533 -20.79687,20.894533 h -9.75782 v 40.83203 h -17.11718 z m 55.39257,0 h 17.1211 V 155.94531 h -17.1211 z m -102.050777,0.002 H 99.015625 V 59.007812 H 78.054688 V 90.839844 H 98.212891 V 106.43164 H 78.054688 v 33.91992 h 21.279296 v 15.5918 H 60.939453 Z m 63.775387,15.109375 v 41.476569 h 7.03907 c 4.31972,0 6.39843,-2.092176 6.39843,-6.593757 V 65.117188 c 0,-4.500539 -2.07871,-6.589844 -6.39843,-6.589844 z M 80.083984,182.76174 c 4.565854,0.10294 8.578398,2.01753 12.091797,4.81228 -1.722709,2.00627 -3.432436,4.09469 -5.070312,6.11914 l -0.279297,0.37305 c -1.25806,-1.0402 -2.639427,-1.92344 -4.140625,-2.56836 -4.11296,-1.53505 -8.268125,-0.53502 -11.068359,2.80281 -2.106252,2.94135 -2.44011,6.66619 -1.255865,10.04097 1.382912,3.69385 4.812098,5.72238 8.650391,5.83979 2.068405,0.0416 4.007957,-0.4758 5.767578,-1.54095 v -4.25195 h -6.789058 v -6.81836 h 15.347657 v 15.18164 c -1.760039,1.48008 -3.753501,2.63939 -5.859375,3.54688 -5.401763,2.31993 -11.780723,2.26332 -16.976563,0.047 -4.766556,-2.0618 -8.294681,-6.2839 -9.533203,-11.30273 -0.979093,-3.66202 -0.683991,-7.63255 0.650396,-11.16206 1.265998,-3.07436 3.267597,-5.88022 6.046875,-7.75586 1.489505,-1.11995 3.204986,-1.85979 4.929687,-2.52148 2.424524,-0.74929 4.956196,-0.99613 7.488276,-0.84181 z m 145.072266,0.0468 c 5.06242,-0.0548 9.79908,1.6087 13.625,4.48418 -1.50114,2.15086 -3.01348,4.29338 -4.50977,6.44726 -1.44617,-1.05496 -3.03249,-1.88613 -4.69921,-2.52343 -1.48793,-0.56894 -3.06303,-0.79898 -4.65039,-0.83992 -1.58194,-0.0408 -2.95481,0.36902 -3.53321,1.86904 -0.34257,0.88843 0.0614,1.68993 0.74219,2.28902 0.74421,0.65491 1.75376,0.85042 2.69726,1.12104 3.27061,0.93808 6.63528,1.55142 9.72071,3.03305 4.64666,2.23134 6.10002,6.97801 4.74592,11.67969 -1.6103,5.59127 -7.63459,7.53424 -12.97656,7.56433 -5.6846,0.032 -11.28546,-1.80088 -15.58203,-5.55652 l 5.07031,-6.07226 c 3.13788,2.49162 6.78537,3.96499 10.78906,4.0643 1.7425,0.0432 3.50539,-0.2845 4.04883,-2.05652 0.33736,-1.10004 -0.21112,-1.88045 -1.11914,-2.47651 -1.00379,-0.65892 -2.19333,-0.92104 -3.34766,-1.2128 -3.57387,-0.90332 -7.26147,-1.60552 -10.37109,-3.69122 -3.22162,-2.16083 -4.0375,-6.04959 -3.30268,-9.62104 1.21764,-5.91812 7.03849,-8.44092 12.65246,-8.50169 z m -113.95703,0.32618 h 8.60351 L 134.2207,217.373 h -9.58008 l -2.56054,-6.39649 h -13.3457 l -2.5586,6.39649 H 96.783203 Z M 138,183.36914 h 9.53516 c 2.68652,4.49225 5.56492,8.87896 8.23046,13.38281 2.69283,-4.49481 5.60935,-8.87693 8.28126,-13.38281 h 9.53124 v 34.00391 h -8.9746 v -20.10743 c -3.07084,4.78458 -6.26752,9.60632 -8.9297,13.73513 -3.00189,-4.50882 -5.92051,-9.07538 -8.83594,-13.64137 v 20.01367 H 138 Z m 42.44531,0 h 26.88086 v 7.70898 h -17.99805 v 5.5586 h 16.18555 v 7.23828 h -16.18555 v 5.79297 h 18.23243 v 7.70508 h -27.11524 z m -65.01367,10.48633 -3.95117,9.92578 h 7.85742 z m -14.11133,63.83594 h 97.99024 l -50.01563,16.49414 z"
             style="fill:#ffffff;fill-opacity:1;fill-rule:evenodd;stroke:none;stroke-width:0.52107662"
             inkscape:connector-curvature="0" /></g><g
           transform="translate(623.2303,286.175)"
           id="g26" /><g
           transform="translate(312.9946,481.1594)"
           id="g30" /><g
           transform="translate(590.0699,474.6773)"
           id="g34" /><g
           transform="translate(428.3257,506.1461)"
           id="g40" /><g
           transform="translate(357.6425,190.8749)"
           id="g44" /></g></g></g></svg>