<?xml version="1.0" encoding="UTF-8" standalone="no"?>
<svg
   xmlns:dc="http://purl.org/dc/elements/1.1/"
   xmlns:cc="http://creativecommons.org/ns#"
   xmlns:rdf="http://www.w3.org/1999/02/22-rdf-syntax-ns#"
   xmlns:svg="http://www.w3.org/2000/svg"
   xmlns="http://www.w3.org/2000/svg"
   height="300"
   width="300"
   id="svg12"
   version="1.1"
   viewbox="0 0 300 300">
  <metadata
     id="metadata18">
    <rdf:RDF>
      <cc:Work
         rdf:about="">
        <dc:format>image/svg+xml</dc:format>
        <dc:type
           rdf:resource="http://purl.org/dc/dcmitype/StillImage" />
        <dc:title></dc:title>
      </cc:Work>
    </rdf:RDF>
  </metadata>
  <defs
     id="defs16" />
  <g
     transform="translate(-1.1984861,200.59924)"
     id="g10"><rect
   style="fill:#ffffff;stroke-width:0"
   id="rect2"
   height="300"
   width="300"
   y="0"
   x="0" />
<path
   id="path6"
   d="m 296.39744,-126.49157 c -0.35881,-0.005 -0.7469,0.0142 -1.16668,0.0528 -3.35819,0.3088 -168.13786,54.350933 -169.22348,51.636873 -0.26298,-0.657473 -0.65274,-0.768505 -1.00081,-0.682283 0.60016,-0.590222 1.58812,-1.679696 3.17206,-3.660211 6.51374,-8.144591 13.74144,-15.981134 9.97794,-31.652719 -3.76349,-15.68124 -23.54635,-11.23131 -23.54635,-11.23131 l -0.81799,-0.95934 c 0,0 -10.31726,-1.75475 -18.355701,5.40361 -2.0072,1.7949 -8.308497,4.83487 -13.837941,9.88182 -5.52944,5.04694 -10.286961,12.092115 -12.863508,16.37671 -5.114494,8.57884 -8.00949,8.887794 -12.062486,15.112036 -8.10599,12.448486 -13.991728,20.891097 -17.562224,24.172093 -3.599446,3.319596 -23.642472,9.23639 -27.984967,12.970935 -4.3424951,3.744196 -5.3465464,7.594242 -8.183643,12.959636 -5.6741933,10.734647 30.165789,-4.334582 30.320189,-4.792957 0.1544,-0.482499 -3.512898,16.298686 -5.375346,26.8654237 -1.864378,10.5715627 1.399294,21.8815713 1.204364,26.6486653 -0.0965,2.412497 3.572004,16.502234 11.195495,26.345222 7.613841,9.939488 18.286728,15.632981 21.953724,16.88748 7.420841,2.528297 21.432629,-1.428198 23.159977,-3.618746 1.698398,-2.190547 7.429883,-2.85685 8.549283,-3.599899 2.248448,-1.505398 2.392069,-3.483791 2.218369,-3.532041 -0.339825,-0.08435 4.535965,-0.09936 8.089395,-0.915996 3.55343,-0.81664 5.46943,-4.77686 8.82636,-7.163987 6.71384,-4.774255 28.12443,-32.112595 34.36677,-39.7119615 12.48467,-15.1987323 -2.17125,-8.68499 -2.17125,-9.2278019 0.004,-0.5428118 -21.61221,21.0731624 -34.97744,29.8546524 C 96.984564,36.708624 88.743475,39.989243 76.526592,42.98074 65.236106,45.972236 52.280996,43.246491 53.36662,24.790888 c 0.53926,-9.249804 5.180084,-27.5850236 8.12333,-36.366513 2.894997,-8.78149 12.738361,-25.088841 16.308857,-27.790838 3.523691,-2.701997 10.134754,-5.018747 13.657,-6.562745 3.531898,-1.592248 8.935653,-4.873244 11.348153,-4.583744 4.82499,0.530749 7.81649,-5.499365 11.09749,-6.560864 3.18449,-0.192999 40.33582,-12.846547 49.02081,-14.474983 8.68478,-1.628435 11.56626,-3.799683 15.36836,-5.97093 3.80089,-2.171247 66.49875,-20.150006 69.21039,-20.150006 2.71647,0 38.53723,-16.048765 40.16808,-16.048765 1.62602,0 11.70478,-5.62949 12.00972,-8.81881 0.26176,-2.78896 -0.76976,-3.92174 -3.28137,-3.95423 z m -180.8619,14.56734 c 0.45387,-0.002 0.91999,0.073 1.40037,0.23936 5.12415,1.7756 4.90612,4.98045 5.31315,8.0781 0.4053,3.10729 -1.01287,13.682704 -5.40361,20.949146 -4.39075,7.266441 -11.93606,12.169619 -17.330396,15.60019 -2.702,1.717698 -7.099662,4.119117 -10.567868,4.804266 -3.453586,0.683017 -6.224098,0.938906 -6.244228,0.940488 -9e-6,3.9e-5 -0.0038,0.01131 -0.0038,0.01131 l -0.0075,-0.0095 c 0,0 0.01124,-0.0018 0.0113,-0.0019 0.0099,-0.03424 4.742062,-16.346328 12.058724,-26.111508 7.324338,-9.770614 9.359128,-10.990884 11.395268,-14.252582 1.84439,-2.95154 4.9911,-10.23019 9.37859,-10.24746 z"
   style="fill:#ffffff;stroke-width:0" />
\
            </g>
</svg>
