<?xml version="1.0" encoding="UTF-8" standalone="no"?>
<svg
   xmlns:dc="http://purl.org/dc/elements/1.1/"
   xmlns:cc="http://creativecommons.org/ns#"
   xmlns:rdf="http://www.w3.org/1999/02/22-rdf-syntax-ns#"
   xmlns:svg="http://www.w3.org/2000/svg"
   xmlns="http://www.w3.org/2000/svg"
   xmlns:sodipodi="http://sodipodi.sourceforge.net/DTD/sodipodi-0.dtd"
   xmlns:inkscape="http://www.inkscape.org/namespaces/inkscape"
   viewbox="0 0 300 300"
   version="1.1"
   id="svg12"
   width="300"
   height="300"
   sodipodi:docname="escapistmagazine.svg"
   inkscape:version="0.92.4 (5da689c313, 2019-01-14)">
  <sodipodi:namedview
     pagecolor="#ffffff"
     bordercolor="#666666"
     borderopacity="1"
     objecttolerance="10"
     gridtolerance="10"
     guidetolerance="10"
     inkscape:pageopacity="0"
     inkscape:pageshadow="2"
     inkscape:window-width="962"
     inkscape:window-height="833"
     id="namedview7"
     showgrid="false"
     borderlayer="true"
     inkscape:showpageshadow="false"
     inkscape:zoom="1.5733333"
     inkscape:cx="155.5115"
     inkscape:cy="178.43502"
     inkscape:window-x="949"
     inkscape:window-y="99"
     inkscape:window-maximized="0"
     inkscape:current-layer="svg12" />
  <metadata
     id="metadata18">
    <rdf:RDF>
      <cc:Work
         rdf:about="">
        <dc:format>image/svg+xml</dc:format>
        <dc:type
           rdf:resource="http://purl.org/dc/dcmitype/StillImage" />
        <dc:title></dc:title>
      </cc:Work>
    </rdf:RDF>
  </metadata>
  <defs
     id="defs16" />
  <path
     style="opacity:1;fill:#ffffff;fill-opacity:1;fill-rule:evenodd;stroke:#ffffff;stroke-width:0;stroke-linecap:square;stroke-linejoin:round;stroke-miterlimit:4;stroke-dasharray:none;stroke-opacity:1;paint-order:normal"
     d="m 239.96941,71.117748 c -0.36045,-0.02813 -0.70521,-0.01857 -1.08324,0.01327 -1.56918,0.126954 -2.02875,0.359773 -3.22397,1.641013 -0.8952,0.959794 -1.60784,2.238233 -1.99561,3.572129 -0.33198,1.142065 -0.72177,2.07622 -0.86402,2.07622 -0.1423,0 -1.08556,0.683881 -2.09556,1.518481 -1.00997,0.834577 -2.4911,1.851595 -3.29167,2.259988 -2.43535,1.242464 -8.24315,2.50855 -13.65021,2.978931 -2.8202,0.245368 -5.12607,0.55793 -5.12607,0.696391 0,0.633369 1.76841,0.838192 7.97284,0.918825 3.67112,0.04774 8.53318,0.323615 10.80666,0.612542 3.53445,0.44924 4.30658,0.671913 5.33564,1.537827 1.48573,1.250129 4.34661,2.720219 6.19967,3.188479 2.44855,0.618688 6.78105,0.20287 8.83363,-0.847895 1.00494,-0.514445 2.55566,-1.682424 3.4464,-2.598524 1.55952,-1.603864 1.73184,-2.010714 2.51466,-5.854666 0.24742,-1.214802 -0.70502,-3.121128 -3.11108,-6.215788 -1.7637,-2.268581 -1.99727,-2.430869 -5.88049,-4.000924 -2.50595,-1.013176 -3.70628,-1.411566 -4.78758,-1.49591 z M 79.662479,83.304273 v 64.762717 64.76273 l 20.488211,-0.22245 c 11.26838,-0.12126 29.41693,-0.40635 40.3284,-0.63515 17.79593,-0.37318 21.04296,-0.58329 20.32057,-1.30567 -0.23308,-0.23305 -25.39063,-0.72754 -57.1252,-1.12516 L 83.002496,209.28014 V 147.96061 86.641071 l 15.294423,-0.0194 c 17.263021,-0.276869 14.499291,-0.474201 29.777961,-0.10319 19.07236,0.463134 17.42047,0.35473 37.91776,0.232034 20.49721,-0.122576 37.64956,-0.301522 38.11677,-0.396545 0.46724,-0.09509 0.76686,-0.307767 0.66413,-0.473937 -0.10272,-0.166146 -15.66875,-0.4136 -34.59298,-0.55129 -18.92422,-0.13781 -1.41568,-1.197731 -23.74852,-1.386319 -22.33282,-0.188504 -5.6503,-0.607448 -34.9685,-0.618899 z m 12.670134,13.327802 v 50.996455 50.99645 h 40.647577 40.65401 v -12.1285 -12.12527 H 147.24617 120.8549 v -7.84066 -7.8471 h 24.25057 24.25054 v -11.40632 -11.39669 l -24.07323,-0.19342 -24.07324,-0.18379 -0.19666,-7.31513 -0.20634,-7.30546 h 25.34349 25.34348 V 108.75736 96.632075 H 131.90983 Z M 181.41359,210.1248 c -0.28409,0 -0.51583,0.0693 -0.51583,0.15477 0,0.0854 -0.10183,0.41566 -0.22566,0.73828 -0.16978,0.44243 0.0132,0.58999 0.74149,0.58999 0.53174,0 0.97041,-0.0727 0.97041,-0.15797 0,-0.59216 -0.5394,-1.32507 -0.97041,-1.32507 z m -10.2038,0.026 c -3.5902,-0.0561 -7.19576,0.0436 -7.56661,0.35141 -0.49056,0.40712 -0.48682,0.50645 0.0194,0.8737 0.76778,0.55699 7.8471,0.73086 10.42303,0.25468 1.4027,-0.25931 2.2894,-0.26026 2.76937,-0.002 0.9421,0.50418 2.48757,-0.24309 1.84089,-0.88981 -0.31856,-0.31852 -3.89581,-0.53066 -7.48602,-0.58675 z"
     id="rect874"
     inkscape:connector-curvature="0"
     sodipodi:nodetypes="ccccscccsccccccccccccccccccccccsccccccccccccccccccccccccccccccccsscssscccccccc" />
</svg>
