<?xml version="1.0" encoding="UTF-8" standalone="no"?>
<svg
   xmlns:dc="http://purl.org/dc/elements/1.1/"
   xmlns:cc="http://creativecommons.org/ns#"
   xmlns:rdf="http://www.w3.org/1999/02/22-rdf-syntax-ns#"
   xmlns:svg="http://www.w3.org/2000/svg"
   xmlns="http://www.w3.org/2000/svg"
   id="svg8"
   version="1.1"
   viewBox="0 0 79.374998 79.375002"
   height="300"
   width="300">
  <defs
     id="defs2" />
  <metadata
     id="metadata5">
    <rdf:RDF>
      <cc:Work
         rdf:about="">
        <dc:format>image/svg+xml</dc:format>
        <dc:type
           rdf:resource="http://purl.org/dc/dcmitype/StillImage" />
        <dc:title></dc:title>
      </cc:Work>
    </rdf:RDF>
  </metadata>
  <g
     transform="translate(0,-217.62499)"
     id="layer1">
    <path
       id="rect827"
       d="m 1.2154196,238.61665 v 0.87555 c -2.96e-4,0.76181 0.1664645,0.90375 1.2847505,1.09268 2.6354839,0.44526 2.7024732,-0.82363 2.4969124,11.76832 0,8.42283 0.1721933,10.83553 -0.1753683,11.25441 -0.2420449,0.29171 -1.3207209,0.59273 -2.0735871,0.74066 -1.1222498,0.2205 -1.3858021,0.41539 -1.4646155,1.0824 l -0.096356,0.81325 H 12.786524 24.268982 c 0.171591,-1.15114 0.195847,-2.27273 0.36744,-3.42386 v -6.5e-4 c 0.255295,-4.77131 0.707958,-4.63408 -0.185005,-4.63408 -0.63892,0 -0.724696,0.4009 -1.476823,2.17058 -0.500415,1.17743 -1.289475,2.53836 -1.824986,2.98896 -0.936846,0.78832 -1.325511,0.99569 -5.785875,0.99569 -6.4207526,-0.0294 -5.9941263,0.37946 -5.9561023,-6.12376 l 0.028265,-4.91739 3.7431203,-0.0115 c 3.625035,0.18053 3.400462,0.54842 3.759181,2.67165 0.186236,1.10233 0.227805,1.23978 1.07919,1.23978 h 0.78177 l 0.02955,-4.93344 v -4.93345 h -0.652011 c -0.683416,0 -0.726849,0.31512 -1.167838,1.83206 -0.283529,0.9753 -0.691651,1.98089 -1.301452,2.09093 -0.302274,0.0545 -1.87036,0.14132 -3.483601,0.14132 l -2.81553,-0.11755 0.028906,-5.26234 v -5.26233 h 4.949501 c 4.877576,0 5.077348,-0.16337 5.840475,0.65971 0.425879,0.45954 0.862807,1.85657 1.113878,2.8894 0.403721,1.66079 0.559444,1.88968 1.347704,1.98174 0.831345,0.0971 0.891066,0.0197 0.892903,-1.15114 9.87e-4,-0.69035 0.006,-2.43924 0.118837,-3.88637 l 0.146464,-2.60162 -11.154204,0.1471 z m 31.7545344,3.78166 c -0.688807,0 -0.722538,0.26484 -1.214731,1.82628 -0.659104,2.34724 -2.136154,4.27149 -4.065594,4.57113 -0.932377,0.17492 -1.14985,0.0732 -1.14985,0.71047 0,0.72231 0.131539,0.78562 1.626494,0.78562 h 1.708716 l 0.01799,6.8246 c 0.01607,6.22304 0.158254,6.90205 0.758003,7.70272 1.384245,1.848 4.425577,2.44471 7.069339,1.38689 1.743936,-0.69779 2.666112,-2.37161 2.221976,-2.79883 -0.500162,-0.48112 -0.312056,-0.5946 -1.250061,0.0989 -0.713074,0.5272 -1.507538,0.94846 -2.437815,0.87234 -1.095494,-0.0896 -1.662066,-0.44155 -2.151957,-1.42222 -0.481264,-0.96338 -0.3259,-2.25047 -0.326327,-7.03915 l -0.04176,-5.59765 5.632345,0.0154 0.03726,-2.34532 h -2.627313 -3.001177 v -2.79562 c 0,-2.74717 -0.01405,-2.79561 -0.80554,-2.79561 z m 16.589981,5.03558 c -1.350247,0.0318 -2.606521,0.22554 -3.388528,0.58071 -2.341707,1.06354 -3.322144,3.15064 -2.839943,5.72099 0.331511,1.76713 1.430751,3.00987 4.472218,4.45487 1.535533,0.72953 3.239328,1.56783 3.678885,2.04211 0.977606,1.05486 0.963661,2.83141 0.08286,3.91913 -0.523035,0.64593 -1.021434,0.98155 -2.52839,0.98155 -2.206573,0 -3.098296,-0.97048 -3.960886,-3.36926 -0.463401,-1.28867 -0.726101,-1.6053 -1.334213,-1.6053 -0.730764,0 -0.411021,0.10324 -0.580705,2.78342 v 2.78277 l 1.056707,0.31669 c 0.678348,0.17414 1.529363,0.38445 1.891152,0.46765 1.263073,0.29044 3.957002,0.22102 5.262338,-0.13554 2.732377,-0.74637 4.440098,-2.82277 4.440098,-5.39852 0,-2.39082 -1.674831,-3.98449 -5.408803,-5.77431 -3.013563,-1.4445 -3.55878,-1.92408 -3.984651,-3.04422 -0.697144,-1.83361 0.668998,-3.2684 3.146997,-3.2684 1.694939,0 2.742967,0.39938 3.067981,2.55472 0.350946,1.03798 0.62963,1.33754 1.318799,1.41965 0.848433,0.10104 0.697111,0.0834 0.701472,-1.61493 0.0026,-0.96171 0.147386,-2.73622 0.249885,-3.11808 0,0 -0.75308,-0.12968 -1.389457,-0.30578 -1.159024,-0.29184 -2.603572,-0.42168 -3.95382,-0.38992 z m 12.647726,0.54216 c -4.479357,-0.032 -4.156168,0.0963 -4.156168,0.0963 l 0.04368,1.06892 c 2.008983,0.18466 2.172188,1.9917 5.492949,10.33838 3.375888,8.48526 3.210941,7.7981 2.130757,9.50138 -1.099137,1.73315 -2.612398,3.00704 -4.067517,3.3153 -1.802377,0.4326 -2.538664,0.27635 -3.084687,-2.34596 -0.329955,-1.58939 -0.296402,-1.516 -0.992471,-1.516 -0.556663,0 -0.750906,0.13231 -0.860139,0.652 -0.488479,2.32408 -0.902536,3.98358 -0.902536,4.34568 0,1.11629 4.98739,1.59618 7.16441,0.68926 v -6.3e-4 c 1.508547,-0.62844 3.394825,-2.4309 4.747795,-4.53711 0.562942,-0.87635 2.677238,-5.53845 4.698331,-10.36023 3.482895,-8.30924 3.238308,-8.74236 4.379074,-9.36582 1.821236,-0.59378 1.702965,-1.33868 1.703576,-1.75625 -0.877906,-0.10115 -6.015355,-0.0803 -7.238283,0.0251 -0.06594,0.33428 0.388765,0.89051 1.263553,1.33679 1.162119,0.59287 1.249522,0.90152 1.083045,1.56483 -0.252816,1.00729 -4.41715,10.85343 -4.720175,11.19081 -0.253198,0.28192 -4.201131,-10.61791 -4.201131,-11.5634 0,-0.58647 0.913972,-1.53339 2.234822,-1.34962 l 0.01414,-1.26484 c 0,0 -0.20236,-0.0326 -4.733023,-0.0649 z"
       style="opacity:1;fill:#ffffff;fill-opacity:1;fill-rule:evenodd;stroke:#ffffff;stroke-width:0;stroke-linecap:square;stroke-linejoin:round;stroke-miterlimit:4;stroke-dasharray:none;stroke-opacity:1;paint-order:normal" />
  </g>
</svg>
