<?xml version="1.0" encoding="UTF-8" standalone="no"?>
<svg
   xmlns:dc="http://purl.org/dc/elements/1.1/"
   xmlns:cc="http://creativecommons.org/ns#"
   xmlns:rdf="http://www.w3.org/1999/02/22-rdf-syntax-ns#"
   xmlns:svg="http://www.w3.org/2000/svg"
   xmlns="http://www.w3.org/2000/svg"
   width="300"
   height="300"
   viewBox="0 0 79.374998 79.375002"
   version="1.1"
   id="svg8">
  <defs
     id="defs2" />
  <metadata
     id="metadata5">
    <rdf:RDF>
      <cc:Work
         rdf:about="">
        <dc:format>image/svg+xml</dc:format>
        <dc:type
           rdf:resource="http://purl.org/dc/dcmitype/StillImage" />
        <dc:title></dc:title>
      </cc:Work>
    </rdf:RDF>
  </metadata>
  <path
     id="path827"
     d="M 33.615412,57.698477 C 26.866837,56.36918 21.206214,50.885454 19.435386,43.961583 c -0.336751,-1.316682 -0.499802,-2.336959 -0.545451,-3.090704 -0.09324,-1.539625 0.848252,-1.882749 1.840323,-1.866124 2.513036,0.04211 5.281732,0.03903 8.327489,0.101816 0.848651,0.188768 1.479335,0.922637 1.509063,1.657192 0.03935,0.972291 1.436215,3.330604 2.466601,4.116519 1.581858,1.206541 2.92262,1.649944 4.989103,1.649944 3.223713,0 6.203837,-1.968686 8.722577,-5.762182 l 1.105315,-1.664726 -0.630111,-0.88491 c -1.15241,-1.618409 -6.141798,-5.710678 -6.962592,-5.710678 -0.125259,0 0.0071,0.897605 0.0035,1.595001 -0.01355,2.621305 -2.255884,4.904955 -4.777207,5.585038 -2.974277,0.80226 -5.829295,-0.387359 -7.530221,-3.137666 -1.22955,-1.988115 -1.428721,-5.411706 -0.464308,-7.981093 1.313407,-3.499178 4.808924,-6.152634 9.065687,-6.881787 3.80001,-0.650914 8.575682,0.575969 12.595161,3.23573 3.846335,2.545191 8.555515,7.823353 10.876719,12.190892 l 1.036641,1.950524 -1.129312,2.204706 c -2.050483,4.003076 -4.704004,7.719283 -7.506302,10.512448 -2.296163,2.288677 -3.167762,2.931922 -5.547292,4.093942 -4.45664,2.176354 -8.588662,2.744203 -13.265384,1.823008 z"
     style="fill:#ffffff;stroke-width:0.29835099;fill-opacity:1" />
</svg>
