<?xml version="1.0" encoding="UTF-8" standalone="no"?>
<svg
   xmlns:dc="http://purl.org/dc/elements/1.1/"
   xmlns:cc="http://creativecommons.org/ns#"
   xmlns:rdf="http://www.w3.org/1999/02/22-rdf-syntax-ns#"
   xmlns:svg="http://www.w3.org/2000/svg"
   xmlns="http://www.w3.org/2000/svg"
   id="svg8"
   version="1.1"
   viewBox="0 0 79.374998 79.375002"
   height="300"
   width="300">
  <defs
     id="defs2" />
  <metadata
     id="metadata5">
    <rdf:RDF>
      <cc:Work
         rdf:about="">
        <dc:format>image/svg+xml</dc:format>
        <dc:type
           rdf:resource="http://purl.org/dc/dcmitype/StillImage" />
        <dc:title></dc:title>
      </cc:Work>
    </rdf:RDF>
  </metadata>
  <g
     transform="translate(0,-217.62499)"
     id="layer1">
    <path
       id="path823"
       d="M 22.768092,238.61261 A 18.799341,18.799341 0 0 0 3.9687505,257.41196 18.799341,18.799341 0 0 0 22.768092,276.2113 18.799341,18.799341 0 0 0 39.687501,265.55222 18.799341,18.799341 0 0 0 56.606908,276.2113 18.799341,18.799341 0 0 0 75.40625,257.41196 18.799341,18.799341 0 0 0 56.606908,238.61261 18.799341,18.799341 0 0 0 39.687501,249.25408 18.799341,18.799341 0 0 0 22.768092,238.61261 Z m 33.838816,3.75988 a 15.039473,15.039473 0 0 1 15.039474,15.03947 15.039473,15.039473 0 0 1 -15.039474,15.03947 15.039473,15.039473 0 0 1 -15.039473,-15.03947 15.039473,15.039473 0 0 1 15.039473,-15.03947 z"
       style="opacity:1;fill:#ffffff;fill-opacity:1;fill-rule:evenodd;stroke:#ffffff;stroke-width:0;stroke-linecap:square;stroke-linejoin:round;stroke-miterlimit:4;stroke-dasharray:none;stroke-opacity:1;paint-order:normal" />
  </g>
</svg>
