<?xml version="1.0" encoding="UTF-8" standalone="no"?>
<svg
   xmlns:dc="http://purl.org/dc/elements/1.1/"
   xmlns:cc="http://creativecommons.org/ns#"
   xmlns:rdf="http://www.w3.org/1999/02/22-rdf-syntax-ns#"
   xmlns:svg="http://www.w3.org/2000/svg"
   xmlns="http://www.w3.org/2000/svg"
   id="svg8"
   version="1.1"
   viewBox="0 0 79.374998 79.375002"
   height="300"
   width="300">
  <defs
     id="defs2" />
  <metadata
     id="metadata5">
    <rdf:RDF>
      <cc:Work
         rdf:about="">
        <dc:format>image/svg+xml</dc:format>
        <dc:type
           rdf:resource="http://purl.org/dc/dcmitype/StillImage" />
        <dc:title></dc:title>
      </cc:Work>
    </rdf:RDF>
  </metadata>
  <g
     transform="translate(0,-217.62499)"
     id="layer1">
    <path
       id="rect825"
       transform="matrix(0.26458333,0,0,0.26458333,0,217.62499)"
       d="M 212.52539 24.244141 C 201.22823 24.229211 186.15685 24.256927 165.90234 24.289062 L 91.181641 24.408203 L 88.291016 25.390625 C 82.513962 27.35545 77.689429 31.451781 75.082031 36.605469 C 72.304974 42.094514 72.494141 33.089748 72.494141 159.18359 C 72.494141 286.05772 72.274928 276.37817 75.246094 280.79492 C 78.585764 285.75948 84.581194 287.71914 91.173828 286.00195 C 92.601235 285.63005 94.431656 284.915 95.242188 284.41406 C 96.052719 283.91312 110.21126 267.85582 126.70508 248.73047 C 143.1989 229.60511 158.87616 211.47322 161.54297 208.4375 L 166.39062 202.91797 L 191.44141 202.68359 C 215.38924 202.45909 216.61056 202.40799 219.22266 201.52539 C 226.64524 199.01756 230.5213 194.52808 233.17773 185.36133 C 234.20948 181.80098 258.23302 62.197909 259.58984 53.867188 C 260.43576 48.673399 260.42444 41.353963 259.56445 38.052734 C 258.15737 32.650542 254.94312 28.654323 250.29297 26.525391 C 246.3365 24.714052 246.41688 24.28893 212.52539 24.244141 z M 190.23047 53.287109 C 211.90522 53.300042 222.90422 53.420501 223.76172 53.650391 C 225.93051 54.234365 227.97371 56.279813 228.65234 58.544922 C 229.13333 60.150314 228.90092 61.81222 226.21094 76 C 224.57584 84.623975 223.03893 92.327065 222.79492 93.119141 C 222.22789 94.959808 220.63158 96.852864 218.56055 98.140625 L 216.92969 99.154297 L 186.8125 99.373047 C 157.00171 99.590748 156.67632 99.603529 154.93555 100.54297 C 152.69109 101.75408 150.98727 103.55144 150.12109 105.625 C 149.0726 108.13502 149.17271 118.75164 150.26758 121.16211 C 151.26481 123.35764 154.13647 125.88071 156.41211 126.5625 C 157.61471 126.92269 165.33583 127.07718 182.68555 127.08398 C 205.73306 127.09154 207.36886 127.14304 209.06641 127.91406 C 210.06178 128.36609 211.38654 129.40556 212.00977 130.22266 C 214.24895 133.1584 214.21714 133.71299 210.78906 151.25586 C 209.06424 160.08245 207.31704 167.93753 206.90625 168.71094 C 206.02992 170.36089 203.90874 172.03577 201.80469 172.74023 C 200.76901 173.08682 193.74059 173.24023 178.91211 173.24023 C 154.87889 173.24023 154.45489 173.28595 151.36133 176.20117 C 150.39502 177.11181 146.2532 181.91371 142.1582 186.87109 C 124.99285 207.65147 101.93409 235.23438 101.72852 235.23438 C 101.60674 235.23438 101.55888 195.58218 101.62109 147.11719 L 101.73438 58.998047 L 103.05273 57.130859 C 103.77821 56.103848 105.16356 54.850875 106.13086 54.345703 C 107.88481 53.429659 108.04419 53.426616 164.97656 53.310547 C 174.59372 53.290988 183.00555 53.282798 190.23047 53.287109 z "
       style="opacity:1;fill:#ffffff;fill-opacity:1;fill-rule:evenodd;stroke:#ffffff;stroke-width:0;stroke-linecap:square;stroke-linejoin:round;stroke-miterlimit:4;stroke-dasharray:none;stroke-opacity:1;paint-order:normal" />
  </g>
</svg>
