<?xml version="1.0" encoding="UTF-8" standalone="no"?>
<svg
   xmlns:dc="http://purl.org/dc/elements/1.1/"
   xmlns:cc="http://creativecommons.org/ns#"
   xmlns:rdf="http://www.w3.org/1999/02/22-rdf-syntax-ns#"
   xmlns:svg="http://www.w3.org/2000/svg"
   xmlns="http://www.w3.org/2000/svg"
   xmlns:sodipodi="http://sodipodi.sourceforge.net/DTD/sodipodi-0.dtd"
   xmlns:inkscape="http://www.inkscape.org/namespaces/inkscape"
   id="svg8"
   version="1.1"
   viewBox="0 0 79.374998 79.375002"
   height="300"
   width="300"
   sodipodi:docname="gamefaqs.svg"
   inkscape:version="0.92.4 (5da689c313, 2019-01-14)">
  <sodipodi:namedview
     pagecolor="#ffffff"
     bordercolor="#666666"
     borderopacity="1"
     objecttolerance="10"
     gridtolerance="10"
     guidetolerance="10"
     inkscape:pageopacity="0"
     inkscape:pageshadow="2"
     inkscape:window-width="844"
     inkscape:window-height="662"
     id="namedview7"
     showgrid="false"
     inkscape:zoom="0.78666667"
     inkscape:cx="350.21186"
     inkscape:cy="150"
     inkscape:window-x="961"
     inkscape:window-y="125"
     inkscape:window-maximized="0"
     inkscape:current-layer="svg8" />
  <defs
     id="defs2" />
  <metadata
     id="metadata5">
    <rdf:RDF>
      <cc:Work
         rdf:about="">
        <dc:format>image/svg+xml</dc:format>
        <dc:type
           rdf:resource="http://purl.org/dc/dcmitype/StillImage" />
        <dc:title />
      </cc:Work>
    </rdf:RDF>
  </metadata>
  <g
     transform="translate(0,-217.62499)"
     id="layer1"
     style="fill:#ffffff;fill-opacity:1;opacity:1">
    <path
       id="rect825"
       transform="matrix(0.26458333,0,0,0.26458333,0,217.62499)"
       d="m 104.39453,119.28516 c 0,0 -16.475599,0.27055 -22.365467,0.0153 -4.858879,-0.24848 -7.059566,2.37356 -8.204844,6.73464 l -0.646485,3.25195 h 36.285156 z m 49.47601,5.44364 c -4.92068,5.92906 -19.1813,22.76535 -23.17718,27.4294 -3.99588,4.66405 -8.0692,9.8404 -8.0692,9.8404 l 12.68845,0.0907 6.07329,-7.25173 12.48408,0.10958 -1.25084,7.33802 10.83596,6.1e-4 3.38207,-17.47686 -16.39029,-0.0111 7.53291,-8.8915 -0.8001,5.89667 9.89937,0.0466 c 0,0 2.17926,-9.17987 3.33333,-13.83231 1.22238,-8.68219 -8.18348,-12.50809 -16.54185,-3.28851 z m 20.12903,-1.45322 -2.03613,5.72498 33.96429,-0.21539 0.6755,-4.34124 c 0.50414,-3.23998 -1.82843,-4.57391 -4.38352,-4.5599 l -23.35077,0.12798 c -3.78858,0.0208 -4.41595,1.9887 -4.86937,3.26357 z m -57.82044,-3.10761 -9.0053,42.11719 h 10.11914 l 7.28906,-32.94141 24.97601,-0.0229 -4.63031,-9.53571 z m 97.09877,6.0279 c -5.12624,0.073 -6.62772,3.25815 -6.61185,9.0464 l 29.3804,0.41057 -4.22518,-9.72123 z m -41.74855,5.42584 -5.54358,23.64475 c -1.42754,4.21166 1.89183,7.02485 3.91971,6.9806 l 17.62772,0.0381 2.38421,6.30357 12.7659,0.0536 -3.49162,-8.03124 c 0.7124,-7.1612 5.4693,-28.78459 5.4693,-28.78459 l -9.70201,-0.0413 -4.37444,19.32142 -12.44688,-0.21626 3.3401,-19.26194 z m -98.724819,0.70118 c -1.711652,7.36981 -3.67954,15.90296 -5.439932,23.73026 0,2.14768 0.143836,6.29421 5.569972,6.30514 2.54624,0.005 14.366805,-0.2625 22.111484,-0.2625 3.170726,0.12627 6.679305,-0.57649 8.010095,-4.49219 2.14171,-7.71102 3.47433,-15.99942 4.72245,-22.01431 l -23.797295,0.0689 4.673661,9.69744 6.520134,0.0871 -0.376272,5.42336 -15.118556,0.10787 3.354975,-18.86367 c 0,0 -6.529176,0.15554 -10.230716,0.21261 z m 51.888829,2.96227 -1.97656,10 11.60774,0.27022 8.2773,-10.27999 z m 83.48437,3.23632 11.25,13.11329 -17.89497,0.23304 4.46727,10.59413 21.14866,-0.13365 c 9.17586,-0.62883 8.23739,-10.79882 5.38164,-13.33333 l -9.77489,-10.48855 z m -22.82031,25.72657 -115.392576,0.58789 -1.791016,9.44922 h 83.111332 83.11132 l -4.5567,-9.85547 -26.33737,0.32169 1.09673,3.36243 c 0.42056,1.28937 -0.34531,2.02981 -2.21146,2.03584 l -14.58585,0.0471 z"
       style="opacity:1;fill:#ffffff;fill-opacity:1;fill-rule:evenodd;stroke:#ffffff;stroke-width:0;stroke-linecap:square;stroke-linejoin:round;stroke-miterlimit:4;stroke-dasharray:none;stroke-opacity:1;paint-order:normal" />
  </g>
</svg>
