<?xml version="1.0" encoding="UTF-8" standalone="no"?>
<svg
   xmlns:dc="http://purl.org/dc/elements/1.1/"
   xmlns:cc="http://creativecommons.org/ns#"
   xmlns:rdf="http://www.w3.org/1999/02/22-rdf-syntax-ns#"
   xmlns:svg="http://www.w3.org/2000/svg"
   xmlns="http://www.w3.org/2000/svg"
   id="svg8"
   version="1.1"
   viewBox="0 0 79.374998 79.375002"
   height="300"
   width="300">
  <defs
     id="defs2" />
  <metadata
     id="metadata5">
    <rdf:RDF>
      <cc:Work
         rdf:about="">
        <dc:format>image/svg+xml</dc:format>
        <dc:type
           rdf:resource="http://purl.org/dc/dcmitype/StillImage" />
        <dc:title></dc:title>
      </cc:Work>
    </rdf:RDF>
  </metadata>
  <g
     transform="translate(0,-217.62499)"
     id="layer1">
    <path
       id="path823"
       d="M 33.77631,291.41098 C 19.60169,288.90397 8.2571189,278.74751 4.8658274,265.52825 3.6475596,260.77945 3.6728548,253.50527 4.9251002,248.48356 8.0112868,236.10743 19.275486,226.04033 32.959583,223.42844 c 6.159568,-1.17566 17.138202,-1.11578 24.476138,0.13353 3.173427,0.54028 13.21965,3.64909 14.159423,4.38165 0.303139,0.23629 0.128572,1.22806 -0.923589,5.24731 -0.713558,2.72575 -1.33334,5.0004 -1.377296,5.05473 -0.04396,0.0544 -1.110184,-0.29853 -2.3694,-0.78413 -5.936818,-2.28947 -13.650171,-3.46565 -18.873294,-2.87793 -6.12834,0.68958 -9.952286,2.47148 -14.001913,6.52463 -2.885873,2.88838 -4.187712,4.96785 -5.326451,8.50811 -2.104472,6.54267 -1.324269,14.45847 1.972725,20.01483 0.526024,0.88649 1.975916,2.64981 3.221983,3.91849 3.435668,3.49796 7.432426,5.23778 12.024568,5.23439 2.718346,-0.002 4.016194,-0.36872 5.302638,-1.49823 1.969878,-1.72957 2.058576,-2.20327 2.065563,-11.03165 l 0.0062,-7.85872 h 11.044694 11.044681 v 15.71743 c 0,14.50493 -0.08689,16.43919 -0.694358,15.4563 -0.08876,-0.14364 -1.020214,-0.55226 -2.069889,-0.90808 -3.462144,-1.17362 -7.697905,-0.78501 -20.741098,1.90287 -4.496657,0.92665 -5.467725,1.03065 -10.478285,1.12199 -3.754096,0.0685 -6.202434,-0.0196 -7.646317,-0.27498 z"
       style="fill:#ffffff;stroke-width:0.2831969;fill-opacity:1" />
  </g>
</svg>
