<?xml version="1.0" encoding="UTF-8" standalone="no"?>
<svg
   xmlns:dc="http://purl.org/dc/elements/1.1/"
   xmlns:cc="http://creativecommons.org/ns#"
   xmlns:rdf="http://www.w3.org/1999/02/22-rdf-syntax-ns#"
   xmlns:svg="http://www.w3.org/2000/svg"
   xmlns="http://www.w3.org/2000/svg"
   id="svg8"
   version="1.1"
   viewBox="0 0 79.374998 79.375002"
   height="300"
   width="300">
  <defs
     id="defs2" />
  <metadata
     id="metadata5">
    <rdf:RDF>
      <cc:Work
         rdf:about="">
        <dc:format>image/svg+xml</dc:format>
        <dc:type
           rdf:resource="http://purl.org/dc/dcmitype/StillImage" />
        <dc:title></dc:title>
      </cc:Work>
    </rdf:RDF>
  </metadata>
  <g
     transform="translate(0,-217.62497)"
     id="layer1">
    <path
       id="path4518"
       d="m 55.668869,232.06084 c -4.277197,0.0905 -6.7241,3.02714 -6.7241,3.02714 H 30.430137 c 0,0 -2.607603,-3.1288 -7.144031,-3.02649 -1.2702,0.0286 -2.691585,0.31025 -4.249292,0.98525 -6.160182,2.66941 -11.1560492,20.17601 -14.0044256,29.90795 -2.9593689,10.11118 0.4748217,18.98928 7.5957636,19.22664 7.12094,0.23736 16.377981,-18.93976 16.377981,-18.93976 h 1.424004 18.514632 1.424004 c 0,0 9.257689,19.17712 16.37863,18.93976 7.120941,-0.23736 10.55448,-9.11546 7.595112,-19.22664 -2.848374,-9.73194 -7.844242,-27.23854 -14.004423,-29.90795 -1.55771,-0.675 -2.979109,-0.95724 -4.249292,-0.9859 -0.141765,-0.003 -0.281959,-0.003 -0.419931,0 z m -2.071752,7.58668 a 2.9907948,2.9907948 0 0 1 2.990796,2.9908 2.9907948,2.9907948 0 0 1 -2.990796,2.99079 2.9907948,2.9907948 0 0 1 -2.990795,-2.99079 2.9907948,2.9907948 0 0 1 2.990795,-2.9908 z m -32.566439,0.99693 h 4.320038 v 5.31697 h 5.31697 v 4.32003 h -5.31697 v 5.31697 h -4.320038 v -5.31697 h -5.31697 v -4.32003 h 5.31697 z m 27.58178,3.98773 a 2.9907948,2.9907948 0 0 1 2.990796,2.99079 2.9907948,2.9907948 0 0 1 -2.990796,2.9908 2.9907948,2.9907948 0 0 1 -2.990795,-2.9908 2.9907948,2.9907948 0 0 1 2.990795,-2.99079 z m 9.969318,0 a 2.9907948,2.9907948 0 0 1 2.990796,2.99079 2.9907948,2.9907948 0 0 1 -2.990796,2.9908 2.9907948,2.9907948 0 0 1 -2.990795,-2.9908 2.9907948,2.9907948 0 0 1 2.990795,-2.99079 z m -4.984659,4.98465 a 2.9907948,2.9907948 0 0 1 2.990796,2.9908 2.9907948,2.9907948 0 0 1 -2.990796,2.99079 2.9907948,2.9907948 0 0 1 -2.990795,-2.99079 2.9907948,2.9907948 0 0 1 2.990795,-2.9908 z"
       style="fill:#ffffff;fill-opacity:1;stroke:#000000;stroke-width:0;stroke-linecap:butt;stroke-linejoin:miter;stroke-miterlimit:4;stroke-dasharray:none;stroke-opacity:1" />
  </g>
</svg>
