<?xml version="1.0" encoding="UTF-8" standalone="no"?>
<svg
   xmlns:dc="http://purl.org/dc/elements/1.1/"
   xmlns:cc="http://creativecommons.org/ns#"
   xmlns:rdf="http://www.w3.org/1999/02/22-rdf-syntax-ns#"
   xmlns:svg="http://www.w3.org/2000/svg"
   xmlns="http://www.w3.org/2000/svg"
   height="300"
   width="300"
   id="svg4"
   version="1.1"
   enable-background="new 0 0 50 50"
   viewBox="0 0 300 300">
  <metadata
     id="metadata10">
    <rdf:RDF>
      <cc:Work
         rdf:about="">
        <dc:format>image/svg+xml</dc:format>
        <dc:type
           rdf:resource="http://purl.org/dc/dcmitype/StillImage" />
        <dc:title></dc:title>
      </cc:Work>
    </rdf:RDF>
  </metadata>
  <defs
     id="defs8" />
  <path
     style="clip-rule:evenodd;fill:#ffffff;fill-opacity:1;fill-rule:evenodd;stroke-width:8.69533157"
     id="path2"
     d="M 150.42997,25.961217 C 78.258714,25.961217 20,84.219903 20,156.39116 c 0,57.38919 37.389924,106.08303 89.56191,123.47369 6.95626,0.86956 8.69533,-2.6086 8.69533,-6.08676 V 251.17028 C 81.736847,258.99603 73.911045,233.77962 73.911045,233.77962 67.824316,218.99756 59.128991,214.64985 59.128991,214.64985 c -12.173465,-7.82575 0.86953,-7.82575 0.86953,-7.82575 13.042994,0.86949 19.999259,13.04295 19.999259,13.04295 11.303935,19.99927 30.43366,13.91257 38.25946,10.43441 0.86953,-8.6953 4.34766,-13.9125 8.69534,-17.39066 -28.6946,-3.47816 -59.128264,-14.78206 -59.128264,-64.34545 0,-13.91251 5.217199,-26.08596 13.042995,-34.78133 -1.739061,-3.47815 -6.086723,-16.521097 0.869536,-34.78132 0,0 11.303934,-3.478095 35.650853,13.043013 10.43441,-2.6086 21.73833,-4.34771 33.04227,-4.34771 11.30392,0 22.60786,1.73911 33.04225,4.34771 25.21646,-16.521108 35.65086,-13.043013 35.65086,-13.043013 6.95626,18.260223 2.6086,31.30317 0.86953,34.78132 8.69533,8.69537 13.043,20.86882 13.043,34.78133 0,50.43294 -30.43366,60.86729 -59.12825,64.34545 4.34766,4.34765 8.69532,12.17346 8.69532,24.34692 v 35.65088 c 0,3.47809 2.60861,7.82581 8.69534,6.08669 C 243.47001,261.60463 279.99039,212.9108 279.99039,155.5216 280.85993,84.219903 222.60121,25.961217 150.42997,25.961217 Z" />
</svg>
