<?xml version="1.0" encoding="UTF-8" standalone="no"?>
<svg
   xmlns:dc="http://purl.org/dc/elements/1.1/"
   xmlns:cc="http://creativecommons.org/ns#"
   xmlns:rdf="http://www.w3.org/1999/02/22-rdf-syntax-ns#"
   xmlns:svg="http://www.w3.org/2000/svg"
   xmlns="http://www.w3.org/2000/svg"
   xmlns:sodipodi="http://sodipodi.sourceforge.net/DTD/sodipodi-0.dtd"
   xmlns:inkscape="http://www.inkscape.org/namespaces/inkscape"
   height="300"
   width="300"
   id="svg4"
   version="1.1"
   enable-background="new 0 0 50 50"
   viewBox="0 0 300 300"
   sodipodi:docname="github.svg"
   inkscape:version="0.92.4 (5da689c313, 2019-01-14)">
  <sodipodi:namedview
     pagecolor="#ffffff"
     bordercolor="#666666"
     borderopacity="1"
     objecttolerance="10"
     gridtolerance="10"
     guidetolerance="10"
     inkscape:pageopacity="0"
     inkscape:pageshadow="2"
     inkscape:window-width="963"
     inkscape:window-height="816"
     id="namedview6"
     showgrid="false"
     borderlayer="true"
     inkscape:showpageshadow="false"
     inkscape:zoom="0.78666667"
     inkscape:cx="127.75424"
     inkscape:cy="150"
     inkscape:window-x="904"
     inkscape:window-y="60"
     inkscape:window-maximized="0"
     inkscape:current-layer="svg4" />
  <metadata
     id="metadata10">
    <rdf:RDF>
      <cc:Work
         rdf:about="">
        <dc:format>image/svg+xml</dc:format>
        <dc:type
           rdf:resource="http://purl.org/dc/dcmitype/StillImage" />
        <dc:title></dc:title>
      </cc:Work>
    </rdf:RDF>
  </metadata>
  <defs
     id="defs8" />
  <path
     style="clip-rule:evenodd;fill:#ffffff;fill-opacity:1;fill-rule:evenodd;stroke-width:5.08632851"
     id="path2"
     d="m 150.95594,71.723929 c -42.21653,0 -76.294924,34.078381 -76.294924,76.294911 0,33.56976 21.871204,62.05319 52.389174,72.22585 4.06907,0.50864 5.08634,-1.5259 5.08634,-3.56045 v -13.22442 c -21.36259,4.57766 -25.94028,-10.17266 -25.94028,-10.17266 -3.56043,-8.64675 -8.64676,-11.18994 -8.64676,-11.18994 -7.120857,-4.57767 0.50863,-4.57767 0.50863,-4.57767 7.6295,0.50861 11.69855,7.62947 11.69855,7.62947 6.61224,11.69856 17.80215,8.13814 22.37986,6.1036 0.50863,-5.08631 2.54315,-8.13811 5.08632,-10.17266 -16.78488,-2.03455 -34.58703,-8.64676 -34.58703,-37.63882 0,-8.13812 3.0518,-15.25897 7.62948,-20.34532 -1.01726,-2.03454 -3.56042,-9.664 0.50864,-20.34531 0,0 6.61223,-2.03451 20.85395,7.6295 6.10359,-1.5259 12.71582,-2.54319 19.32805,-2.54319 6.61222,0 13.22445,1.01729 19.32804,2.54319 14.75035,-9.66401 20.85394,-7.6295 20.85394,-7.6295 4.06907,10.68131 1.5259,18.31077 0.50863,20.34531 5.08634,5.08635 7.6295,12.2072 7.6295,20.34532 0,29.50071 -17.80215,35.60427 -34.58703,37.63882 2.54316,2.54316 5.08632,7.12086 5.08632,14.24172 v 20.85396 c 0,2.0345 1.52591,4.57769 5.08633,3.5604 30.51798,-10.17266 51.88055,-38.65608 51.88055,-72.22585 0.50863,-41.70788 -33.56977,-75.786261 -75.78628,-75.786261 z"
     inkscape:connector-curvature="0" />
</svg>
