<?xml version="1.0" encoding="UTF-8" standalone="no"?>
<svg
   xmlns:dc="http://purl.org/dc/elements/1.1/"
   xmlns:cc="http://creativecommons.org/ns#"
   xmlns:rdf="http://www.w3.org/1999/02/22-rdf-syntax-ns#"
   xmlns:svg="http://www.w3.org/2000/svg"
   xmlns="http://www.w3.org/2000/svg"
   id="svg8"
   version="1.1"
   viewBox="0 0 79.374998 79.375002"
   height="300"
   width="300">
  <defs
     id="defs2" />
  <metadata
     id="metadata5">
    <rdf:RDF>
      <cc:Work
         rdf:about="">
        <dc:format>image/svg+xml</dc:format>
        <dc:type
           rdf:resource="http://purl.org/dc/dcmitype/StillImage" />
        <dc:title></dc:title>
      </cc:Work>
    </rdf:RDF>
  </metadata>
  <g
     transform="translate(0,-217.62499)"
     id="layer1">
    <path
       id="path823"
       transform="matrix(0.26458333,0,0,0.26458333,0,217.62499)"
       d="M 52.791016 65.503906 C 47.554828 65.390785 42.246401 70.676758 42.244141 76.242188 C 42.237829 91.811233 42.313766 104.25742 42.412109 119.9668 C 42.397566 124.9506 48.642969 130.43996 53.353516 130.45508 C 61.894322 130.48191 72.112227 130.82439 81.576172 130.72461 L 81.576172 114.64648 C 80.212624 114.60189 65.516283 114.56357 61.84375 114.53711 C 59.194751 114.5184 58.076611 112.33032 58.066406 110.51758 L 57.927734 86.308594 C 57.914578 83.996203 59.457574 81.453505 62.394531 81.464844 C 72.777253 81.504907 77.300496 81.548597 87.132812 81.658203 C 89.643761 81.686209 90.662931 83.79476 90.675781 86.205078 C 90.782855 106.35121 91.008132 136.08371 91.011719 139.08594 C 91.014315 141.25818 89.572201 143.15323 87.443359 143.15625 C 72.365958 143.17893 57.280584 143.31839 42.150391 143.14453 C 42.074082 147.86006 42.052673 153.82942 42.0625 159.39844 C 65.280928 159.27296 76.013662 159.34142 94.515625 159.33008 C 100.10608 159.32702 106.49322 153.9748 106.42383 147.49219 C 106.2087 127.39459 106.31195 98.698751 106.46094 78.226562 C 106.50538 72.119791 102.05833 65.878954 96.007812 65.798828 C 82.760039 65.623836 65.569088 65.779812 52.791016 65.503906 z M 130.83008 65.544922 C 124.10323 65.657136 119.01326 72.375274 118.95898 78.089844 C 118.83267 91.393743 118.94133 104.31178 119.0918 117.92383 C 119.16874 124.88526 124.44354 130.5366 130.64453 130.52148 L 172.72656 130.41602 C 177.95608 130.40279 183.43396 124.74296 183.49023 119.18555 C 183.53423 114.84238 183.67959 81.081337 183.64062 77.939453 C 183.57087 72.315516 178.7183 65.70047 172.80859 65.65625 C 169.60508 65.632439 133.48031 65.500701 130.83008 65.544922 z M 206.78125 65.705078 C 201.54506 65.591957 196.23859 70.879883 196.23633 76.445312 C 196.23002 92.014358 196.30595 104.45859 196.4043 120.16797 C 196.38975 125.15177 202.63516 130.64113 207.3457 130.65625 C 215.88651 130.68308 226.10441 131.02556 235.56836 130.92578 L 235.56836 114.84766 C 234.20482 114.80306 219.50652 114.76474 215.83398 114.73828 C 213.18499 114.71957 212.06685 112.53149 212.05664 110.71875 L 211.91992 86.509766 C 211.90677 84.197375 213.44781 81.654677 216.38477 81.666016 C 226.7675 81.706079 231.29267 81.749769 241.125 81.859375 C 243.63597 81.887381 244.65468 83.995932 244.66602 86.40625 C 244.77335 106.55238 245.00032 136.28488 245.00391 139.28711 C 245.00651 141.45936 243.5644 143.35635 241.43555 143.35938 C 226.35815 143.38205 211.27277 143.52151 196.14258 143.34766 C 196.06629 148.06291 196.04291 154.03129 196.05273 159.59961 C 219.27116 159.47413 230.00585 159.54259 248.50781 159.53125 C 254.09826 159.52819 260.48361 154.17597 260.41406 147.69336 C 260.19901 127.59576 260.30421 98.899923 260.45312 78.427734 C 260.49757 72.320963 256.05049 66.080126 250 66 C 236.75223 65.825008 219.55932 65.980984 206.78125 65.705078 z M 151.55078 81.488281 C 157.2501 81.496266 162.93435 81.523759 163.9707 81.556641 C 166.14352 81.625768 167.6274 83.707567 167.65234 85.873047 L 167.93359 110.45703 C 167.93359 113.07987 166.63632 114.62343 163.47852 114.63477 C 154.79242 114.66765 147.68426 114.72372 138.99805 114.69727 C 136.63811 114.69727 135.12563 112.74224 135.10938 111.33984 L 135.04297 85.835938 C 135.03685 83.524189 136.57761 81.640668 139.04297 81.537109 C 140.13804 81.491188 145.85146 81.480297 151.55078 81.488281 z M 118.45703 174.40039 C 111.73018 174.5126 106.64216 181.23074 106.58789 186.94531 C 106.46158 200.24921 106.57024 213.16921 106.7207 226.78125 C 106.79765 233.74269 112.07244 239.39402 118.27344 239.37891 L 160.35352 239.27344 C 165.58303 239.26021 171.06286 233.60039 171.11914 228.04297 C 171.16313 223.6998 171.3085 189.93876 171.26953 186.79688 C 171.19977 181.17294 166.34721 174.55594 160.4375 174.51172 C 157.23399 174.48791 121.10726 174.35617 118.45703 174.40039 z M 62.027344 174.76953 C 58.073899 174.77107 55.138699 174.78135 54.339844 174.80469 C 48.024128 174.98909 42.223241 180.56746 42.316406 187.59961 C 42.54382 202.69803 42.396322 222.83212 42.396484 226.22266 C 42.39687 234.38194 48.100507 238.73396 54.011719 238.84961 C 56.422241 238.93238 91.268539 239.13196 94.912109 238.94336 C 94.78712 235.5216 94.797705 225.97591 94.724609 223.43164 C 91.764642 223.49249 65.0453 223.7167 62.318359 223.51562 C 59.865847 223.33466 57.831843 221.33653 57.837891 219.01367 L 57.902344 195.26367 C 57.910436 192.23453 59.553096 190.60899 62.498047 190.59766 L 94.912109 190.47656 L 94.912109 174.83398 C 94.912109 174.83398 73.887679 174.76491 62.027344 174.76953 z M 260.4043 174.7793 C 258.86277 174.69127 197.01408 175.0311 192.48242 175.22461 C 188.24232 175.4058 183.26632 181.84019 183.20312 186.33594 C 183.05851 196.62419 183.25065 224.85819 183.20703 238.91406 C 183.20703 238.91406 196.84572 238.95351 198.47266 238.96484 C 198.82188 224.39575 198.62248 197.55978 198.76758 194.9668 C 198.88995 192.78011 200.10653 190.69145 202.74805 190.56445 C 205.02654 190.4556 211.21938 190.48973 214.15625 190.47461 L 214.42383 238.94336 L 222.11523 238.94336 L 229.80664 238.94336 C 229.78559 219.56587 229.69431 210.98164 229.71094 194.69531 C 229.71338 192.30654 231.44422 190.54793 233.8457 190.43945 C 235.19969 190.37822 243.69203 190.51839 245.09766 190.48438 L 245.18555 238.94336 L 252.88281 238.94336 L 260.58008 238.94336 L 260.44727 207.01562 L 260.4043 174.7793 z M 139.17969 190.34375 C 144.87901 190.35173 150.56326 190.38118 151.59961 190.41406 C 153.77242 190.48319 155.25435 192.56499 155.2793 194.73047 L 155.5625 219.31445 C 155.56182 221.93605 154.26245 223.48085 151.10547 223.49219 C 142.41937 223.52507 135.31122 223.58114 126.625 223.55469 C 124.26507 223.55469 122.75453 221.59966 122.73828 220.19727 L 122.66992 194.69141 C 122.6638 192.37966 124.20456 190.49809 126.66992 190.39453 C 127.76499 190.34861 133.48037 190.33577 139.17969 190.34375 z "
       style="opacity:1;fill:#ffffff;fill-opacity:1;stroke-width:0.51288193" />
  </g>
</svg>
