<?xml version="1.0" encoding="UTF-8" standalone="no"?>
<svg
   xmlns:dc="http://purl.org/dc/elements/1.1/"
   xmlns:cc="http://creativecommons.org/ns#"
   xmlns:rdf="http://www.w3.org/1999/02/22-rdf-syntax-ns#"
   xmlns:svg="http://www.w3.org/2000/svg"
   xmlns="http://www.w3.org/2000/svg"
   height="300"
   width="300"
   viewbox="0 0 300 300"
   version="1.1"
   id="svg16">
  <metadata
     id="metadata22">
    <rdf:RDF>
      <cc:Work
         rdf:about="">
        <dc:format>image/svg+xml</dc:format>
        <dc:type
           rdf:resource="http://purl.org/dc/dcmitype/StillImage" />
        <dc:title></dc:title>
      </cc:Work>
    </rdf:RDF>
  </metadata>
  <defs
     id="defs20" />
  <g
     id="g14"
     transform="matrix(3.0374949,0,0,3.0374949,2.4696667,-4.4099526)">
    <path
       d="m 6.3805377,2.1397135 c -0.065129,0.00287 -0.127205,0.016573 -0.1853558,0.04216 -1.8608268,0.81132 -0.3350944,20.7220495 10.6437821,28.3514385 10.945382,7.62939 18.522668,3.885402 18.608266,5.210315 0.253073,1.324908 -5.997444,1.924035 -8.931967,1.80122 -2.940107,-0.115371 -3.088392,-0.483379 -4.800353,-0.669462 -1.71196,-0.186083 1.525443,8.820318 8.112769,13.211869 6.624542,4.391551 8.831337,5.377499 13.621105,6.214871 4.782324,0.826207 7.873965,0.595464 7.89034,1.860827 0,1.278387 -1.861117,1.310022 -5.136172,1.581702 -3.297384,0.234464 -4.406437,1.339795 -7.071141,3.721654 -2.680174,2.381858 -4.540851,8.708813 -4.913016,14.849541 -0.372166,5.954646 0.930413,12.653621 0.186082,13.397952 -1.488661,1.488661 -6.698976,3.033148 -10.420629,2.605157 -3.721653,-0.372165 -5.024232,-1.116496 -6.698976,-2.419074 -1.600311,-1.302579 -1.888739,-3.051756 -1.860827,-5.58248 0,-4.838149 10.792795,-11.16496 11.909291,-17.863936 0.436103,-2.616612 -1.060489,-5.454589 -2.977323,-7.106032 v -7.594498 h -5.58248 v -5.58248 H 7.8321276 v -5.58248 H 2.026494 v 5.58248 h 5.5824796 v 11.16496 h 5.5824794 v 5.582479 h 10.065911 c 0.221175,0.395527 0.406104,0.882516 0.540801,1.488662 1.674744,7.071141 -12.839703,11.16496 -12.281455,21.585589 0.186082,5.210314 3.53557,8.745885 12.095373,10.792794 4.093818,0.930414 18.608265,1.135105 23.074249,1.116496 2.588842,0 15.723877,0.124322 18.968076,-0.133019 l 2.556456,0.211524 c 0.0074,-1.910697 -0.152183,-5.780163 -2.467051,-6.308638 -1.157434,-0.264237 -4.674862,0.323955 -7.734061,0.457935 -3.059199,0.137701 -3.187305,-1.373491 -3.42363,-2.162482 -0.227021,-0.78899 1.261439,-5.005188 5.65299,-8.112769 2.195775,-1.55379 6.304626,-3.573367 9.918351,-1.712541 3.617447,1.864549 4.086781,3.312272 5.441463,5.768563 1.362125,2.445126 1.733911,4.429318 0.915147,5.683515 -0.818764,1.265362 -3.163111,0.781257 -4.167958,1.748887 -1.004846,0.96763 -1.265801,4.311535 -0.447037,4.279901 0.818764,-0.02977 21.958193,0.01496 22.590874,-0.126476 0.632681,-0.141423 -0.07473,-2.10288 -0.670191,-3.219376 -0.595465,-1.079279 -1.339795,-2.664413 -3.163406,-2.6793 -1.82361,-0.01489 -3.494602,0.84115 -4.994428,0.803933 -1.503548,-0.03722 -2.571343,-0.763519 -3.114704,-1.247334 -1.068115,-1.083001 -0.242313,-4.134087 -0.510272,-8.525638 -0.249351,-4.413881 -0.286393,-8.545556 0.08577,-9.401536 0.372165,-0.893197 4.465984,-3.833303 5.210314,-8.559803 0.85598,-4.726499 0.297732,-7.219717 -0.930413,-10.308689 -1.228146,-3.163405 -1.32863,-4.443654 -0.930413,-5.396397 0.20469,-0.476372 0.613927,-0.484106 1.246608,-0.204982 0.640125,0.279124 0.924399,0.77454 1.615138,-0.01816 1.380734,-1.585425 -1.28368,-11.384478 -4.633168,-14.733966 -3.375539,-3.386705 -8.050226,-4.465839 -7.369164,-7.666461 0.684785,-3.215508 5.292132,-2.227588 7.104577,-2.52011 0.906223,-0.147005 1.321421,-3.47931 0.750148,-6.344984 -0.565692,-2.861951 -2.129192,-5.329291 -4.138888,-5.649353 -4.026829,-0.640125 -6.073124,2.351765 -10.539108,0.602588 -4.465984,-1.711961 -6.922275,0.413103 -11.16496,2.605157 -4.242685,2.195775 -4.652067,2.549187 -8.187637,2.828311 -3.535571,0.294011 -3.907736,-0.74433 -4.465984,0.186083 -0.669898,0.744331 0.85598,3.423921 4.093818,5.210314 1.607755,0.930413 3.39787,1.250476 4.652067,1.674744 1.265362,0.409382 1.264778,0.290725 1.45086,0.819199 0.189805,0.65129 -0.412463,2.698199 -0.460845,4.372943 -0.04838,1.674744 0.114821,4.715335 -0.101035,5.024232 -0.238186,0.334949 -1.563094,0.372165 -2.605157,-0.372165 C 51.677419,36.008426 50.918492,34.564134 50.59843,34.430155 49.928532,34.057989 48.179065,29.964171 43.415349,26.986848 38.651632,23.972309 28.22039,21.337058 21.744713,15.866229 18.514318,13.134535 14.394418,9.8340391 11.666447,7.0949023 9.11944,4.5339396 7.3574717,2.0969837 6.3805377,2.1397246 Z"
       id="path4"
       style="fill:#ffffff;fill-opacity:1;stroke-width:0.37216532" />
  </g>
</svg>
