<?xml version="1.0" encoding="UTF-8" standalone="no"?>
<svg
   xmlns:dc="http://purl.org/dc/elements/1.1/"
   xmlns:cc="http://creativecommons.org/ns#"
   xmlns:rdf="http://www.w3.org/1999/02/22-rdf-syntax-ns#"
   xmlns:svg="http://www.w3.org/2000/svg"
   xmlns="http://www.w3.org/2000/svg"
   id="svg8"
   version="1.1"
   viewBox="0 0 79.374998 79.375002"
   height="300"
   width="300">
  <defs
     id="defs2" />
  <metadata
     id="metadata5">
    <rdf:RDF>
      <cc:Work
         rdf:about="">
        <dc:format>image/svg+xml</dc:format>
        <dc:type
           rdf:resource="http://purl.org/dc/dcmitype/StillImage" />
        <dc:title></dc:title>
      </cc:Work>
    </rdf:RDF>
  </metadata>
  <path
     style="opacity:1;fill:#ffffff;fill-opacity:1;fill-rule:evenodd;stroke:#1d0083;stroke-width:0;stroke-linecap:square;stroke-linejoin:round;stroke-miterlimit:4;stroke-dasharray:none;stroke-opacity:1;paint-order:normal"
     d="m 13.600997,31.380592 v 8.581982 c 0,7.278994 0.0286,8.597911 0.187872,8.687531 0.103275,0.05812 1.069475,0.07582 2.147108,0.03949 l 1.959237,-0.06606 0.06607,-3.744535 c 0.08033,-4.552997 -0.06759,-4.249319 2.069174,-4.249319 0.977923,0 1.482861,0.0794 1.769041,0.201549 0.831123,0.354743 0.634748,3.510761 0.629132,4.026603 l -0.04101,3.765698 h 2.114076 2.114076 v -4.294217 c 0,-3.889823 -0.02359,-4.356432 -0.249808,-4.954866 -0.32926,-0.871046 -1.050848,-1.607732 -1.658332,-2.013688 -0.616304,-0.41185 -1.178456,-0.458198 -1.857557,-0.56594 -0.597488,-0.09479 -1.764887,-0.133637 -2.939887,-0.09755 l -1.948917,0.05987 v -2.68827 -2.688272 h -2.180135 z m 31.711142,0 -3.5e-5,17.228223 4.362122,0.01472 -10e-7,-17.242934 z m 20.414048,5.284931 -4.162088,2.6e-4 -0.142968,7.436427 c -0.211217,0.463574 -0.863882,0.637253 -2.30427,0.612908 -0.750937,-0.02959 -1.867316,-0.0089 -1.988656,-0.925168 l -0.05652,-7.124167 h -4.228151 l 0.0032,4.261184 c 0.0031,4.138068 0.01206,4.282559 0.306581,4.998479 0.458287,1.113999 0.936433,1.653648 1.875366,2.115884 1.130787,0.556682 1.804543,0.63798 4.883898,0.590453 2.200255,-0.03396 2.354935,-0.145377 3.28776,-0.288776 1.360451,-0.209135 2.442879,-1.418589 2.452658,-2.626337 z m -36.288715,2.6e-4 c 1.15e-4,1.720608 -0.01118,5.499832 0.07036,7.819864 0.164226,4.672516 3.866691,4.105877 6.303475,4.070131 1.962983,-0.0288 3.502419,-0.01269 3.922992,-0.163741 0.854162,-0.306772 1.439457,-0.754362 1.943235,-1.486202 0.776767,-1.128406 0.859877,-1.731305 0.859877,-6.23797 v -4.002086 h -4.36028 v 3.699633 c 0,4.633695 0.118421,4.429578 -2.515372,4.339893 -1.960787,-0.06677 -1.844912,0.206819 -1.844912,-4.354603 v -3.684923 z"
     id="rect831" />
</svg>
