<?xml version="1.0" encoding="UTF-8" standalone="no"?>
<svg
   xmlns:dc="http://purl.org/dc/elements/1.1/"
   xmlns:cc="http://creativecommons.org/ns#"
   xmlns:rdf="http://www.w3.org/1999/02/22-rdf-syntax-ns#"
   xmlns:svg="http://www.w3.org/2000/svg"
   xmlns="http://www.w3.org/2000/svg"
   width="300"
   height="300"
   viewBox="0 0 79.374998 79.375002"
   version="1.1"
   id="svg8">
  <defs
     id="defs2" />
  <metadata
     id="metadata5">
    <rdf:RDF>
      <cc:Work
         rdf:about="">
        <dc:format>image/svg+xml</dc:format>
        <dc:type
           rdf:resource="http://purl.org/dc/dcmitype/StillImage" />
        <dc:title></dc:title>
      </cc:Work>
    </rdf:RDF>
  </metadata>
  <path
     id="rect831"
     d="m 0.68163849,26.861925 v 12.859887 c 0,10.90739 0.0428619,12.883754 0.28152151,13.018049 0.1547556,0.08708 1.6025806,0.113616 3.2173886,0.05917 l 2.935867,-0.09899 0.098996,-5.611093 C 7.3357825,40.266397 7.1141462,40.72145 10.316016,40.72145 c 1.465394,0 2.236701,0.08785 2.650865,0.302017 0.321282,0.16614 0.603118,0.32206 0.626077,0.346488 0.02296,0.02443 0.08978,2.583733 0.148494,5.687276 l 0.106731,5.642804 h 3.16789 3.16789 v -6.434777 c 0,-5.828803 -0.03536,-6.528004 -0.37433,-7.424743 -0.49339,-1.30524 -1.50366,-2.531948 -2.484969,-3.017461 -0.436004,-0.215717 -0.754706,-0.430162 -0.708444,-0.476421 0.04626,-0.04626 -0.06751,-0.09572 -0.252906,-0.109824 -0.185383,-0.01411 -1.005434,-0.131979 -1.822155,-0.261801 -0.895276,-0.142309 -2.644638,-0.200252 -4.405347,-0.146174 l -2.9204001,0.08971 v -4.02831 -4.02831 H 3.9485253 Z m 47.51835351,0 v 12.836686 c 0,7.060105 0.06446,12.900765 0.143083,12.979376 0.07861,0.07861 1.526436,0.115609 3.217388,0.08237 l 3.074307,-0.06033 0.05104,-12.919053 0.05066,-12.919052 h -3.26805 z m 30.589942,7.91934 -3.118392,3.86e-4 H 72.55315 v 5.336535 c 0,3.407387 -0.07737,5.506389 -0.214235,5.806766 -0.316504,0.694654 -1.294505,0.954907 -3.452891,0.918426 -1.658518,-0.02803 -1.977758,-0.09011 -2.419229,-0.469846 -0.279739,-0.240621 -0.532198,-0.653122 -0.560724,-0.916493 -0.02853,-0.263372 -0.05898,-2.772987 -0.06806,-5.577065 l -0.01663,-5.098323 h -3.16789 -3.16789 l 0.0047,6.38528 c 0.0046,6.200792 0.01808,6.417307 0.459405,7.490095 0.68673,1.669301 1.403222,2.47795 2.810189,3.170598 1.694455,0.834176 2.704061,0.955999 7.318399,0.884781 3.297027,-0.05088 4.121782,-0.123247 4.926625,-0.432724 1.309414,-0.503489 2.569848,-1.656133 3.174466,-2.902997 l 0.500782,-1.032503 0.05491,-6.781264 z m -54.377733,3.86e-4 0.06806,6.484275 c 0.07586,7.191222 0.107039,7.383065 1.469095,9.082162 0.359794,0.448829 0.590664,0.879592 0.513158,0.957096 -0.0775,0.0775 -0.05166,0.113671 0.05723,0.08043 0.108897,-0.03323 0.704509,0.182062 1.323692,0.478354 1.64005,0.784807 2.776738,0.919691 7.190013,0.853458 2.941468,-0.04414 4.178079,-0.137936 4.808294,-0.364274 1.279942,-0.459692 2.15699,-1.130393 2.911892,-2.227037 1.163965,-1.690888 1.288502,-2.594318 1.288502,-9.347443 V 34.781646 H 40.77525 37.508364 v 5.543808 c 0,6.943477 0.177452,6.637611 -3.769219,6.503223 -2.938192,-0.100046 -2.764556,0.309911 -2.764556,-6.525266 v -5.521765 h -3.281195 z"
     style="opacity:1;fill:#ffffff;fill-opacity:1;fill-rule:evenodd;stroke:#1d0083;stroke-width:0;stroke-linecap:square;stroke-linejoin:round;stroke-miterlimit:4;stroke-dasharray:none;stroke-opacity:1;paint-order:normal" />
</svg>
