<?xml version="1.0" encoding="UTF-8" standalone="no"?>
<svg
   xmlns:dc="http://purl.org/dc/elements/1.1/"
   xmlns:cc="http://creativecommons.org/ns#"
   xmlns:rdf="http://www.w3.org/1999/02/22-rdf-syntax-ns#"
   xmlns:svg="http://www.w3.org/2000/svg"
   xmlns="http://www.w3.org/2000/svg"
   xmlns:sodipodi="http://sodipodi.sourceforge.net/DTD/sodipodi-0.dtd"
   xmlns:inkscape="http://www.inkscape.org/namespaces/inkscape"
   id="svg8"
   version="1.1"
   viewBox="0 0 79.374998 79.375002"
   height="300"
   width="300"
   sodipodi:docname="ign.svg"
   inkscape:version="0.92.4 (5da689c313, 2019-01-14)">
  <sodipodi:namedview
     pagecolor="#ffffff"
     bordercolor="#666666"
     borderopacity="1"
     objecttolerance="10"
     gridtolerance="10"
     guidetolerance="10"
     inkscape:pageopacity="0"
     inkscape:pageshadow="2"
     inkscape:window-width="893"
     inkscape:window-height="844"
     id="namedview7"
     showgrid="false"
     borderlayer="true"
     inkscape:showpageshadow="false"
     inkscape:zoom="1.7282083"
     inkscape:cx="148.58956"
     inkscape:cy="158.89831"
     inkscape:window-x="964"
     inkscape:window-y="106"
     inkscape:window-maximized="0"
     inkscape:current-layer="svg8" />
  <defs
     id="defs2" />
  <metadata
     id="metadata5">
    <rdf:RDF>
      <cc:Work
         rdf:about="">
        <dc:format>image/svg+xml</dc:format>
        <dc:type
           rdf:resource="http://purl.org/dc/dcmitype/StillImage" />
        <dc:title></dc:title>
      </cc:Work>
    </rdf:RDF>
  </metadata>
  <g
     transform="matrix(0.53245917,0,0,0.53245917,18.320141,-97.588966)"
     id="layer1">
    <path
       id="rect825"
       d="m 35.890748,221.70324 c -2.689905,0.0257 -2.461856,0.41617 -3.196871,2.57117 -0.884906,2.59449 -1.910339,7.36263 -2.503864,11.64492 l -0.545256,3.93351 1.965444,1.75197 c 1.080839,0.96344 3.239945,2.92742 4.797934,4.36467 1.557994,1.43726 2.992402,2.61842 3.187933,2.62481 0.195529,0.006 2.527563,-1.938 5.182295,-4.32051 v 5.3e-4 c 2.654733,-2.3825 4.826854,-4.41961 4.826854,-4.52663 0,-0.77308 -0.888264,-6.6613 -1.330803,-8.82136 -0.719135,-3.51015 -1.188616,-5.26007 -1.974384,-7.36174 l -0.652517,-1.74513 -5.950491,-0.0725 c -1.688729,-0.0206 -2.90964,-0.0522 -3.806274,-0.0437 z m 15.368639,6.44265 c -0.393464,0 -0.388064,0.15233 0.07677,2.20415 0.211728,0.9346 0.539288,2.91084 0.727707,4.39149 0.293851,2.30916 0.436783,2.76869 1.004806,3.23053 1.72022,1.39861 4.750912,4.42309 5.462548,5.4515 0.642115,0.92794 0.948686,1.14414 1.622621,1.14414 0.867774,0 3.168006,0.35345 6.14241,0.94329 2.184322,0.43317 2.293217,0.44252 2.510699,0.22504 0.297439,-0.29744 -2.331718,-5.0037 -4.054453,-7.25763 -1.832616,-2.39769 -4.575272,-5.10867 -6.872219,-6.79335 -1.554745,-1.1403 -6.042298,-3.53916 -6.620887,-3.53916 z m -23.147867,0.008 c -0.54807,-0.004 -3.505504,1.5073 -5.686538,2.92662 -2.79867,1.82123 -5.735864,4.57615 -7.800785,7.31651 -1.715431,2.27655 -3.635942,5.60002 -3.938249,6.81491 -0.179558,0.72159 -0.146343,0.76775 0.450611,0.61939 0.354577,-0.0881 2.280083,-0.41341 4.27897,-0.72244 1.998885,-0.30904 3.890049,-0.648 4.202201,-0.75348 0.312149,-0.1055 1.226956,-0.97936 2.033273,-1.94179 0.806319,-0.96242 2.338012,-2.47638 3.40351,-3.36459 1.605596,-1.33845 1.938422,-1.75327 1.944412,-2.42289 0.004,-0.44438 0.301723,-2.49955 0.661457,-4.56659 0.359738,-2.06702 0.597208,-3.81478 0.527905,-3.88409 -0.01417,-0.0142 -0.04023,-0.0213 -0.07677,-0.0216 z m -5.831133,19.11813 -3.095917,0.37279 c -5.68814,0.68446 -11.7000805,2.07368 -14.1519356,3.27049 l -1.0584376,0.51685 -0.00526,5.73913 c -0.00346,3.59035 0.097301,5.81958 0.2692101,5.95417 0.8801611,0.6891 6.7484991,2.36861 10.5044531,3.00653 2.461988,0.41816 6.305932,0.97247 7.042581,1.01532 0.409126,0.0238 1.127406,-0.58478 2.422891,-2.05221 1.012755,-1.14716 2.401038,-2.69175 3.084875,-3.43242 0.683834,-0.74067 1.652724,-1.83115 2.153156,-2.42342 0.500427,-0.59226 1.061334,-1.17348 1.246672,-1.29189 0.638472,-0.40789 0.31774,-1.13567 -1.218281,-2.7615 -0.847188,-0.89674 -2.388607,-2.59106 -3.425067,-3.76527 -1.03646,-1.1742 -2.308477,-2.58796 -2.826707,-3.14166 z m 35.462127,0.12198 c -0.385533,-0.007 -0.650231,0.0181 -0.762411,0.081 -0.642974,0.36027 -8.720937,9.51751 -8.720937,9.88611 0,0.20401 0.151432,0.46786 0.336514,0.58627 0.185081,0.11841 1.366362,1.36592 2.624798,2.77255 1.258436,1.40662 2.413249,2.69146 2.566434,2.8551 0.153183,0.16364 0.931184,1.04193 1.728835,1.95177 0.797643,0.90984 1.581147,1.65339 1.740926,1.65259 0.159784,-8.1e-4 1.986267,-0.24988 4.059186,-0.55366 2.072918,-0.30378 4.859243,-0.79153 6.191833,-1.08368 2.391205,-0.52426 6.945891,-1.93406 7.610444,-2.35559 0.26311,-0.1669 0.325146,-1.57621 0.26921,-6.11718 l -0.07256,-5.90105 -2.557496,-0.86127 c -3.695082,-1.24433 -12.316041,-2.86419 -15.014776,-2.91294 z m -18.119631,18.51346 c -0.0202,-0.004 -0.03634,-0.003 -0.04784,10e-4 -0.294152,0.11392 -7.690282,6.5689 -9.280914,8.09996 -0.601056,0.57855 -0.601231,0.57931 -0.207169,3.67325 0.877146,6.88683 2.525592,13.57051 3.703745,15.01635 0.379979,0.46631 11.356194,0.43289 11.737457,-0.0357 1.017827,-1.25112 2.854492,-8.61009 3.670616,-14.70718 l 0.449559,-3.35881 -1.176216,-1.08316 c -0.646894,-0.59556 -1.658868,-1.50662 -2.24885,-2.02486 -0.589985,-0.51823 -2.251978,-2.0147 -3.693227,-3.32569 -1.351171,-1.22905 -2.604199,-2.19763 -2.907155,-2.25516 z m -28.708212,2.67068 c -0.58107,0.0236 -0.355984,0.63997 0.750318,2.77781 1.680123,3.24675 3.522179,5.73519 6.106128,8.24877 2.559602,2.4899 4.546601,3.93169 7.730853,5.60872 2.485393,1.30896 2.938164,1.36577 2.722599,0.34124 -0.411219,-1.95437 -1.233004,-7.20512 -1.233004,-7.87808 0,-0.59295 -0.27837,-0.96266 -1.278749,-1.69728 -1.197945,-0.8797 -3.594372,-3.28507 -5.225411,-5.24539 -0.496241,-0.59642 -0.950745,-0.86109 -1.480655,-0.86232 -0.687787,-0.002 -5.331273,-0.75491 -7.562071,-1.22669 -0.219016,-0.0463 -0.395914,-0.0722 -0.530008,-0.0668 z m 57.89175,0.0395 c -0.412252,0.0136 -2.015433,0.25022 -3.877259,0.5768 -2.127797,0.37325 -4.214388,0.67881 -4.636512,0.67881 -0.510259,0 -0.963726,0.24383 -1.352885,0.72771 -0.784173,0.97502 -4.68742,4.89087 -5.714934,5.73333 -0.756768,0.62049 -0.847829,0.88321 -1.166751,3.36513 -0.190264,1.48065 -0.515371,3.41897 -0.722453,4.30737 -0.645234,2.76809 -0.620782,2.77987 2.543302,1.1962 2.884581,-1.44378 5.899051,-3.72847 8.379165,-6.35011 1.997778,-2.11179 2.221571,-2.37733 3.46345,-4.11334 0.813503,-1.13719 3.331035,-5.96828 3.185831,-6.11349 -0.0075,-0.007 -0.04206,-0.0104 -0.100955,-0.008 z"
       style="opacity:1;fill:#ffffff;fill-opacity:1;fill-rule:evenodd;stroke:#1d0083;stroke-width:0;stroke-linecap:square;stroke-linejoin:round;stroke-miterlimit:4;stroke-dasharray:none;stroke-opacity:1;paint-order:normal"
       inkscape:connector-curvature="0" />
  </g>
</svg>
