<?xml version="1.0" encoding="UTF-8" standalone="no"?>
<svg
   xmlns:dc="http://purl.org/dc/elements/1.1/"
   xmlns:cc="http://creativecommons.org/ns#"
   xmlns:rdf="http://www.w3.org/1999/02/22-rdf-syntax-ns#"
   xmlns:svg="http://www.w3.org/2000/svg"
   xmlns="http://www.w3.org/2000/svg"
   id="svg8"
   version="1.1"
   viewBox="0 0 79.374998 79.375002"
   height="300"
   width="300">
  <defs
     id="defs2" />
  <metadata
     id="metadata5">
    <rdf:RDF>
      <cc:Work
         rdf:about="">
        <dc:format>image/svg+xml</dc:format>
        <dc:type
           rdf:resource="http://purl.org/dc/dcmitype/StillImage" />
        <dc:title></dc:title>
      </cc:Work>
    </rdf:RDF>
  </metadata>
  <g
     transform="translate(0,-217.62499)"
     id="layer1">
    <path
       id="rect825"
       transform="matrix(0.26458333,0,0,0.26458333,0,217.62499)"
       d="M 170.69922 92.861328 C 168.86758 92.867598 166.97993 92.885395 165.04492 92.914062 L 150.69922 93.126953 L 150.60547 148.60352 C 150.53623 189.29599 150.622 204.21719 150.92969 204.58789 C 151.27374 205.00243 155.10967 205.09245 172.26367 205.08984 C 183.76591 205.08799 195.02116 204.92297 197.27539 204.72266 C 206.04538 203.94343 211.51016 201.37696 214.52148 196.625 C 217.77639 191.48866 217.95313 189.10179 217.95312 150.70508 C 217.95312 111.86253 217.81641 109.96938 214.61523 104.49023 C 211.4012 98.989132 206.29532 95.738039 198.54492 94.255859 C 193.63064 93.316085 183.5207 92.817436 170.69922 92.861328 z M 7.7929688 92.931641 L 7.4238281 93.900391 C 7.1850603 94.528397 7.0896603 114.16756 7.1523438 149.62305 C 7.2375532 197.81531 7.3147015 204.41757 7.8066406 204.72852 C 8.1321562 204.93412 14.0651 205.08449 22.013672 205.08789 C 33.053442 205.09167 35.740777 204.99687 36.080078 204.58789 C 36.387743 204.21712 36.47547 189.29599 36.40625 148.60352 L 36.310547 93.126953 L 22.050781 93.029297 L 7.7929688 92.931641 z M 76.517578 93.003906 C 74.062578 93.001511 71.038689 93.010229 67.339844 93.029297 L 48.607422 93.126953 L 48.511719 148.60352 C 48.442516 189.29599 48.530199 204.21719 48.837891 204.58789 C 49.175024 204.99411 51.56958 205.09246 61.041016 205.08789 C 67.522463 205.0849 73.039741 204.94484 73.300781 204.7793 C 73.678658 204.53967 73.772135 198.65201 73.761719 175.89453 C 73.749624 149.76144 73.981338 135.51651 74.412109 135.94727 C 74.635026 136.17026 75.398398 140.69907 76.363281 147.52539 C 76.797776 150.59936 77.637122 156.46777 78.228516 160.56641 C 78.81991 164.665 79.578588 169.94605 79.914062 172.30273 C 83.507947 197.54971 84.514982 204.02691 84.923828 204.51953 C 85.3249 205.00278 86.686067 205.0918 93.666016 205.0918 C 99.725093 205.0918 102.08552 204.96836 102.50586 204.62695 C 102.93384 204.27924 103.5218 200.805 104.82227 190.93359 C 106.5167 178.07175 107.64646 169.6142 109.15039 158.51758 C 111.67305 139.90443 112.1872 136.23314 112.41992 135.23047 C 112.97668 132.83164 113.17035 142.04325 113.21094 172.91602 C 113.24835 201.47624 113.31122 204.66358 113.8418 204.86719 C 114.72409 205.20583 137.58421 205.12834 138.125 204.78516 C 138.49653 204.54931 138.57314 193.10546 138.49805 148.80664 L 138.4043 93.126953 L 119.79492 93.029297 C 109.03788 92.97336 101.04464 93.074508 100.84961 93.269531 C 100.66407 93.455106 99.868925 98.61251 99.082031 104.73047 C 98.295145 110.84847 97.382226 117.95007 97.052734 120.51172 C 94.86133 137.54858 94.144562 142.49609 93.869141 142.49609 C 93.722382 142.49609 93.494205 141.86615 93.361328 141.09766 C 93.129643 139.75778 89.96086 118.38338 88.845703 110.63867 C 87.257829 99.610955 86.381129 93.821304 86.236328 93.402344 C 86.140262 93.124265 83.882577 93.011092 76.517578 93.003906 z M 228.20117 93.126953 L 228.10547 148.60352 C 228.03623 189.29599 228.12395 204.21719 228.43164 204.58789 C 228.76934 204.99479 231.26208 205.0918 241.22852 205.0918 C 255.36337 205.0918 254.42391 205.32163 255.22656 201.67578 C 255.93173 198.47263 256.07829 198.36873 257.71289 199.9082 C 261.5037 203.47846 265.44507 205.59205 269.83984 206.41406 C 272.78781 206.96542 275.43447 206.83572 278.84766 205.9707 C 282.1348 205.13762 284.53746 203.76944 287.19141 201.22461 C 292.80374 195.84305 293.20256 192.98749 293.20898 157.95898 C 293.2139 132.14693 292.92376 125.08668 291.73242 121.92578 C 290.12231 117.65374 286.29525 114.11338 281.68555 112.63086 C 278.63818 111.65079 271.6402 111.279 268.50586 111.92969 C 265.62966 112.52678 261.06167 114.87267 258.66016 116.98633 C 257.32331 118.1629 256.64397 118.55112 256.51758 118.21289 C 256.41583 117.94076 256.29194 112.18458 256.24023 105.42188 L 256.14453 93.126953 L 242.17383 93.126953 L 228.20117 93.126953 z M 179.76172 112.12891 L 181.99805 112.16797 C 185.31991 112.22617 186.88342 113.02911 187.88086 115.18945 C 188.70311 116.97033 188.70535 116.99653 188.82617 145.10352 C 188.9684 178.19188 188.75987 181.79298 186.5625 184.13867 C 185.34695 185.43626 180.71914 186.46067 179.99805 185.5918 C 179.68333 185.2126 179.59779 175.54588 179.66797 148.60352 L 179.76172 112.12891 z M 260.36914 127.89648 C 261.31153 127.90247 262.26772 128.25405 263.01562 129.00195 C 264.7895 130.77584 264.90234 132.58557 264.90234 159.26367 C 264.90234 185.32042 264.76269 187.75292 263.19141 189.32422 C 262.25275 190.26286 259.71897 190.50996 258.47461 189.78516 C 258.11597 189.57615 257.52855 188.87067 257.16992 188.21484 C 256.56544 187.10937 256.51758 184.99779 256.51758 159.26367 C 256.51758 143.99638 256.64656 131.04809 256.80273 130.49023 C 257.2664 128.83395 258.79849 127.88651 260.36914 127.89648 z "
       style="opacity:1;fill:#ffffff;fill-opacity:1;fill-rule:evenodd;stroke:#1d0083;stroke-width:0;stroke-linecap:square;stroke-linejoin:miter;stroke-miterlimit:4;stroke-dasharray:none;stroke-opacity:1;paint-order:normal" />
  </g>
</svg>
