<?xml version="1.0" encoding="UTF-8" standalone="no"?>
<svg
   xmlns:dc="http://purl.org/dc/elements/1.1/"
   xmlns:cc="http://creativecommons.org/ns#"
   xmlns:rdf="http://www.w3.org/1999/02/22-rdf-syntax-ns#"
   xmlns:svg="http://www.w3.org/2000/svg"
   xmlns="http://www.w3.org/2000/svg"
   xmlns:sodipodi="http://sodipodi.sourceforge.net/DTD/sodipodi-0.dtd"
   xmlns:inkscape="http://www.inkscape.org/namespaces/inkscape"
   id="svg8"
   version="1.1"
   viewBox="0 0 79.374998 79.375002"
   height="300"
   width="300"
   sodipodi:docname="imdb.svg"
   inkscape:version="0.92.4 (5da689c313, 2019-01-14)">
  <sodipodi:namedview
     pagecolor="#ffffff"
     bordercolor="#666666"
     borderopacity="1"
     objecttolerance="10"
     gridtolerance="10"
     guidetolerance="10"
     inkscape:pageopacity="0"
     inkscape:pageshadow="2"
     inkscape:window-width="1081"
     inkscape:window-height="774"
     id="namedview7"
     showgrid="false"
     borderlayer="true"
     inkscape:showpageshadow="false"
     inkscape:zoom="2"
     inkscape:cx="218.32854"
     inkscape:cy="160.07012"
     inkscape:window-x="796"
     inkscape:window-y="73"
     inkscape:window-maximized="0"
     inkscape:current-layer="svg8" />
  <defs
     id="defs2" />
  <metadata
     id="metadata5">
    <rdf:RDF>
      <cc:Work
         rdf:about="">
        <dc:format>image/svg+xml</dc:format>
        <dc:type
           rdf:resource="http://purl.org/dc/dcmitype/StillImage" />
        <dc:title></dc:title>
      </cc:Work>
    </rdf:RDF>
  </metadata>
  <g
     transform="translate(0,-217.62499)"
     id="layer1">
    <path
       id="rect825"
       d="m 43.94972,245.89405 c -1.319851,0.005 -2.626023,0.0328 -4.000224,0.0532 l 0.0461,22.29345 c 3.214115,0.0391 6.1262,0.0784 9.269663,0.0269 1.760769,-0.0289 2.847114,-0.66918 3.449411,-1.61962 0.651019,-1.02732 0.686369,-1.50473 0.686366,-9.18451 0,-7.76894 -0.02735,-8.14759 -0.667614,-9.24349 -0.642843,-1.10027 -1.664076,-1.75053 -3.214244,-2.04698 -2.088464,-0.23658 -3.901575,-0.2855 -5.569458,-0.27895 z m -32.71366,0.0337 c -0.01188,7.44714 0.01817,14.89391 0,22.34105 l 5.853642,9e-5 -0.01922,-22.34116 z m 8.293927,-2e-5 -0.01914,11.11545 0.01911,11.1975 4.938987,-10e-5 -1.3e-5,-13.72877 2.32476,13.72877 h 3.516605 l 2.141114,-13.87217 v 13.87217 h 4.983114 l 0.05587,-22.31281 h -7.511361 l -1.396173,9.89397 c 0,0 -1.090166,-6.60905 -1.526648,-9.89397 z m 35.92077,0.0196 c -0.0047,7.38836 0.04804,18.76806 0.0461,22.29345 l 5.489601,0.0129 v -1.1278 c 2.067607,0.90773 4.37898,1.63049 6.263014,0.44232 1.147129,-0.72344 1.202298,-1.64752 1.203583,-8.65361 9.51e-4,-5.1627 -0.009,-6.59509 -0.29533,-7.20705 -1.343282,-2.87075 -5.495063,-2.62052 -7.11835,-0.74261 l 3.76e-4,-5.01749 z m -9.688436,3.80061 c 0.64202,-0.0159 1.391418,0.1318 1.62392,0.61234 0.164459,0.35619 0.164906,0.36143 0.189073,5.98315 0.02845,6.61805 -0.01325,7.3383 -0.45276,7.80747 -0.243122,0.25953 -0.705716,0.33213 -1.312962,0.29064 z m 16.651718,3.3748 c 0.389782,0.31595 0.410439,1.01442 0.410439,5.72195 0,5.21164 0.03821,5.89662 -0.375279,6.34318 -0.397998,0.42983 -1.207047,0.29397 -1.204366,-0.22188 0.0159,-3.05973 -0.0467,-8.70318 -0.07346,-11.54557 -0.0058,-0.61797 0.899264,-0.57604 1.242666,-0.29768 z"
       style="opacity:1;fill:#ffffff;fill-opacity:1;fill-rule:evenodd;stroke:#1d0083;stroke-width:0;stroke-linecap:square;stroke-linejoin:miter;stroke-miterlimit:4;stroke-dasharray:none;stroke-opacity:1;paint-order:normal"
       inkscape:connector-curvature="0"
       sodipodi:nodetypes="sccscsccsccccccccccccccccccccccccsssccccsscccssssss" />
  </g>
</svg>
