<?xml version="1.0" encoding="UTF-8" standalone="no"?>
<svg
   xmlns:dc="http://purl.org/dc/elements/1.1/"
   xmlns:cc="http://creativecommons.org/ns#"
   xmlns:rdf="http://www.w3.org/1999/02/22-rdf-syntax-ns#"
   xmlns:svg="http://www.w3.org/2000/svg"
   xmlns="http://www.w3.org/2000/svg"
   xmlns:sodipodi="http://sodipodi.sourceforge.net/DTD/sodipodi-0.dtd"
   xmlns:inkscape="http://www.inkscape.org/namespaces/inkscape"
   id="svg8"
   version="1.1"
   viewBox="0 0 79.374998 79.375002"
   height="300"
   width="300"
   sodipodi:docname="imgur.svg"
   inkscape:version="0.92.4 (5da689c313, 2019-01-14)">
  <sodipodi:namedview
     pagecolor="#ffffff"
     bordercolor="#666666"
     borderopacity="1"
     objecttolerance="10"
     gridtolerance="10"
     guidetolerance="10"
     inkscape:pageopacity="0"
     inkscape:pageshadow="2"
     inkscape:window-width="1042"
     inkscape:window-height="782"
     id="namedview7"
     showgrid="false"
     borderlayer="true"
     inkscape:showpageshadow="false"
     inkscape:zoom="1.5733333"
     inkscape:cx="124.95607"
     inkscape:cy="147.13634"
     inkscape:window-x="796"
     inkscape:window-y="144"
     inkscape:window-maximized="0"
     inkscape:current-layer="svg8" />
  <defs
     id="defs2" />
  <metadata
     id="metadata5">
    <rdf:RDF>
      <cc:Work
         rdf:about="">
        <dc:format>image/svg+xml</dc:format>
        <dc:type
           rdf:resource="http://purl.org/dc/dcmitype/StillImage" />
        <dc:title></dc:title>
      </cc:Work>
    </rdf:RDF>
  </metadata>
  <g
     transform="matrix(0.6721806,0,0,0.6721806,13.25124,-134.25515)"
     id="layer1">
    <path
       id="rect825"
       transform="matrix(0.26458333,0,0,0.26458333,0,217.62499)"
       d="m 149.09375,44.445312 c -2.75681,0.04854 -5.6217,0.400954 -7.69336,1.003907 -9.60764,2.796321 -16.19155,8.958841 -18.94727,17.734375 -0.58681,1.868712 -0.69726,2.853235 -0.69726,6.236328 0,3.384227 0.1116,4.368952 0.69922,6.240234 3.2021,10.19743 11.77355,16.992411 23.26172,18.441406 2.7528,0.347339 3.98287,0.352069 6.77539,0.0293 v 0.002 c 13.09065,-1.505196 22.62714,-10.214089 24.18554,-22.08789 1.70253,-12.971754 -8.59465,-25.251039 -22.93359,-27.347656 -1.38184,-0.202054 -2.9963,-0.281076 -4.65039,-0.251954 z m 0.22266,66.292968 c -2.7939,-0.002 -5.59896,0.26041 -7.61914,0.78516 -0.98218,0.25512 -2.85646,0.98995 -4.16602,1.63281 -6.10947,2.99909 -9.69149,8.59863 -11.52734,18.02148 -0.63302,3.24908 -0.63896,3.64036 -0.7461,51.49024 -0.11221,50.11404 -0.0677,52.39659 1.13672,58.30664 2.68225,13.16202 10.99981,19.64849 24.41992,19.04297 1.74071,-0.0786 4.25904,-0.40535 5.59571,-0.72461 v 0.002 c 8.66406,-2.06937 13.61449,-8.03169 15.85546,-19.0918 l 0.6836,-3.36718 V 185.3457 133.85742 l -0.68164,-3.36523 c -2.18147,-10.76557 -7.01977,-16.72317 -15.39649,-18.95899 -1.97742,-0.52779 -4.76079,-0.79284 -7.55468,-0.79492 z"
       style="opacity:1;fill:#ffffff;fill-opacity:1;fill-rule:evenodd;stroke:#ffffff;stroke-width:0;stroke-linecap:square;stroke-linejoin:round;stroke-miterlimit:4;stroke-dasharray:none;stroke-opacity:1;paint-order:normal"
       inkscape:connector-curvature="0" />
  </g>
</svg>
