<?xml version="1.0" encoding="UTF-8" standalone="no"?>
<svg
   xmlns:dc="http://purl.org/dc/elements/1.1/"
   xmlns:cc="http://creativecommons.org/ns#"
   xmlns:rdf="http://www.w3.org/1999/02/22-rdf-syntax-ns#"
   xmlns:svg="http://www.w3.org/2000/svg"
   xmlns="http://www.w3.org/2000/svg"
   id="svg8"
   version="1.1"
   viewBox="0 0 79.374998 79.375002"
   height="300"
   width="300">
  <defs
     id="defs2" />
  <metadata
     id="metadata5">
    <rdf:RDF>
      <cc:Work
         rdf:about="">
        <dc:format>image/svg+xml</dc:format>
        <dc:type
           rdf:resource="http://purl.org/dc/dcmitype/StillImage" />
        <dc:title></dc:title>
      </cc:Work>
    </rdf:RDF>
  </metadata>
  <g
     transform="translate(0,-217.62499)"
     id="layer1">
    <path
       id="rect825"
       transform="matrix(0.26458333,0,0,0.26458333,0,217.62499)"
       d="M 149.09375 44.445312 C 146.33694 44.49385 143.47205 44.846266 141.40039 45.449219 C 131.79275 48.24554 125.20884 54.40806 122.45312 63.183594 C 121.86631 65.052306 121.75586 66.036829 121.75586 69.419922 C 121.75586 72.804149 121.86746 73.788874 122.45508 75.660156 C 125.65718 85.857586 134.22863 92.652567 145.7168 94.101562 C 148.4696 94.448901 149.69967 94.453631 152.49219 94.130859 L 152.49219 94.132812 C 165.58284 92.627616 175.11933 83.918723 176.67773 72.044922 C 178.38026 59.073168 168.08308 46.793883 153.74414 44.697266 C 152.3623 44.495212 150.74784 44.41619 149.09375 44.445312 z M 149.31641 110.73828 C 146.52251 110.73621 143.71745 110.99869 141.69727 111.52344 C 140.71509 111.77856 138.84081 112.51339 137.53125 113.15625 C 131.42178 116.15534 127.83976 121.75488 126.00391 131.17773 C 125.37089 134.42681 125.36495 134.81809 125.25781 182.66797 C 125.1456 232.78201 125.19013 235.06456 126.39453 240.97461 C 129.07678 254.13663 137.39434 260.6231 150.81445 260.01758 C 152.55516 259.93896 155.07349 259.61223 156.41016 259.29297 L 156.41016 259.29492 C 165.07422 257.22555 170.02465 251.26323 172.26562 240.20312 L 172.94922 236.83594 L 172.94922 185.3457 L 172.94922 133.85742 L 172.26758 130.49219 C 170.08611 119.72662 165.24781 113.76902 156.87109 111.5332 C 154.89367 111.00541 152.1103 110.74036 149.31641 110.73828 z "
       style="opacity:1;fill:#ffffff;fill-opacity:1;fill-rule:evenodd;stroke:#ffffff;stroke-width:0;stroke-linecap:square;stroke-linejoin:round;stroke-miterlimit:4;stroke-dasharray:none;stroke-opacity:1;paint-order:normal" />
  </g>
</svg>
