<?xml version="1.0" encoding="UTF-8" standalone="no"?>
<svg
   xmlns:dc="http://purl.org/dc/elements/1.1/"
   xmlns:cc="http://creativecommons.org/ns#"
   xmlns:rdf="http://www.w3.org/1999/02/22-rdf-syntax-ns#"
   xmlns:svg="http://www.w3.org/2000/svg"
   xmlns="http://www.w3.org/2000/svg"
   xmlns:sodipodi="http://sodipodi.sourceforge.net/DTD/sodipodi-0.dtd"
   xmlns:inkscape="http://www.inkscape.org/namespaces/inkscape"
   id="svg8"
   version="1.1"
   viewBox="0 0 79.374998 79.375002"
   height="300"
   width="300"
   sodipodi:docname="instagram.svg"
   inkscape:version="0.92.4 (5da689c313, 2019-01-14)">
  <sodipodi:namedview
     pagecolor="#ffffff"
     bordercolor="#666666"
     borderopacity="1"
     objecttolerance="10"
     gridtolerance="10"
     guidetolerance="10"
     inkscape:pageopacity="0"
     inkscape:pageshadow="2"
     inkscape:window-width="937"
     inkscape:window-height="893"
     id="namedview7"
     showgrid="false"
     borderlayer="true"
     inkscape:showpageshadow="false"
     inkscape:zoom="0.78666667"
     inkscape:cx="127.75424"
     inkscape:cy="150"
     inkscape:window-x="971"
     inkscape:window-y="117"
     inkscape:window-maximized="0"
     inkscape:current-layer="svg8" />
  <defs
     id="defs2" />
  <metadata
     id="metadata5">
    <rdf:RDF>
      <cc:Work
         rdf:about="">
        <dc:format>image/svg+xml</dc:format>
        <dc:type
           rdf:resource="http://purl.org/dc/dcmitype/StillImage" />
        <dc:title></dc:title>
      </cc:Work>
    </rdf:RDF>
  </metadata>
  <g
     transform="matrix(0.46788953,0,0,0.46788953,21.288507,-81.208621)"
     id="layer1">
    <path
       id="path823"
       d="m 23.830138,295.42672 c -7.593389,-0.4785 -11.888655,-2.16044 -15.9954896,-6.2635 -2.5777112,-2.57534 -3.9192718,-4.81902 -5.0515081,-8.44833 -1.2361845,-3.96251 -1.3321512,-5.6484 -1.3321512,-23.4024 0,-17.754 0.095967,-19.43988 1.3321512,-23.40239 1.1316453,-3.62742 2.4739419,-5.87289 5.0515081,-8.45046 2.5775666,-2.57756 4.8230376,-3.91986 8.4504556,-5.05151 3.962511,-1.23618 5.648393,-1.33215 23.402395,-1.33215 17.754,0 19.439883,0.096 23.402395,1.33215 3.627417,1.13165 5.872888,2.47395 8.450454,5.05151 2.577567,2.57757 3.919862,4.82304 5.05151,8.45046 1.236184,3.96251 1.332149,5.64839 1.332149,23.40239 0,17.754 -0.09597,19.43989 -1.332149,23.4024 -1.132238,3.62931 -2.473797,5.87299 -5.05151,8.44833 -2.492841,2.49055 -4.455972,3.70609 -7.881948,4.88038 -3.822038,1.31004 -5.50924,1.42754 -21.669026,1.50909 -8.229203,0.0415 -16.400859,-0.0152 -18.159236,-0.12597 z m 31.203193,-6.90616 c 4.291557,-0.27813 7.097389,-0.97681 9.340101,-2.32576 2.847066,-1.71246 4.914654,-4.66813 5.874694,-8.39804 0.657168,-2.55319 0.887386,-7.86752 0.887386,-20.48427 0,-12.61675 -0.230218,-17.93108 -0.887386,-20.48427 -1.331067,-5.1714 -4.445982,-8.43845 -9.418794,-9.87883 -2.956331,-0.8563 -7.417636,-1.08532 -21.141833,-1.08532 -13.724198,0 -18.185504,0.22902 -21.141834,1.08532 -4.969069,1.43929 -8.087927,4.70806 -9.4161915,9.86879 -0.6675005,2.59345 -0.8826284,7.50512 -0.8864331,20.23855 -0.00384,12.85187 0.2228816,18.17214 0.8838299,20.74003 1.7453947,6.78113 6.3434277,10.15588 14.5753857,10.69769 4.420042,0.29091 26.955408,0.3097 31.331075,0.0261 z M 35.85104,276.63522 c -4.159495,-0.8916 -6.849328,-2.37209 -9.99735,-5.50258 -2.103274,-2.09156 -2.621983,-2.78449 -3.644365,-4.86841 -1.689521,-3.44376 -2.076507,-5.11204 -2.076507,-8.95174 0,-3.8397 0.386986,-5.50798 2.076507,-8.95173 1.018426,-2.07587 1.54923,-2.78694 3.644365,-4.88208 2.095134,-2.09513 2.806211,-2.62594 4.882073,-3.64436 3.443756,-1.68952 5.112037,-2.07651 8.951736,-2.07651 3.839698,0 5.50798,0.38699 8.951735,2.07651 2.075862,1.01842 2.786939,1.54923 4.882072,3.64436 2.095136,2.09514 2.625941,2.80621 3.644367,4.88208 1.68952,3.44375 2.076506,5.11203 2.076506,8.95173 0,3.8397 -0.386986,5.50798 -2.076506,8.95174 -1.018426,2.07586 -1.549231,2.78694 -3.644367,4.88207 -2.096476,2.09648 -2.804883,2.62511 -4.882072,3.64313 -1.336366,0.65495 -3.120319,1.37321 -3.96434,1.59612 -2.135068,0.56391 -6.748808,0.69445 -8.823854,0.24967 z m 6.44545,-6.81717 c 5.767925,-1.20283 10.179203,-6.62226 10.179203,-12.50556 0,-6.90292 -5.885276,-12.78819 -12.788194,-12.78819 -6.902919,0 -12.788194,5.88527 -12.788194,12.78819 0,5.74238 4.201658,11.06517 9.808002,12.42506 1.684696,0.40865 3.86502,0.44005 5.589183,0.0805 z m 15.798325,-28.93839 c -3.356326,-1.69556 -3.356326,-6.361 0,-8.05656 1.379634,-0.69697 2.598868,-0.72322 4.001715,-0.0862 3.496491,1.58782 3.490604,6.64347 -0.0096,8.23318 -1.393456,0.63287 -2.615104,0.60519 -3.992127,-0.0905 z"
       style="fill:#fefeff;fill-opacity:1;stroke-width:0.25576389"
       inkscape:connector-curvature="0" />
  </g>
</svg>
