<?xml version="1.0" encoding="UTF-8" standalone="no"?>
<svg
   xmlns:dc="http://purl.org/dc/elements/1.1/"
   xmlns:cc="http://creativecommons.org/ns#"
   xmlns:rdf="http://www.w3.org/1999/02/22-rdf-syntax-ns#"
   xmlns:svg="http://www.w3.org/2000/svg"
   xmlns="http://www.w3.org/2000/svg"
   id="svg8"
   version="1.1"
   viewBox="0 0 79.374998 79.375002"
   height="300"
   width="300">
  <defs
     id="defs2" />
  <metadata
     id="metadata5">
    <rdf:RDF>
      <cc:Work
         rdf:about="">
        <dc:format>image/svg+xml</dc:format>
        <dc:type
           rdf:resource="http://purl.org/dc/dcmitype/StillImage" />
        <dc:title></dc:title>
      </cc:Work>
    </rdf:RDF>
  </metadata>
  <g
     transform="translate(0,-217.62499)"
     id="layer1">
    <path
       id="rect825"
       transform="matrix(0.26458333,0,0,0.26458333,0,217.62499)"
       d="M 19.917969 67.867188 C 14.677763 67.840929 9.5310041 70.590052 6.8515625 76.125 C 4.9689674 80.013945 4.9296875 81.295544 4.9296875 140.71875 C 4.9296875 199.93393 4.9738595 201.43509 6.8300781 205.26953 C 10.473224 212.79529 18.316397 215.67812 25.798828 212.24219 C 33.430033 208.73792 35.43822 203.97784 35.496094 189.25586 L 35.537109 178.90039 L 39.289062 175.92773 C 41.352994 174.29305 43.175563 173.10978 43.339844 173.29883 C 43.50414 173.4878 49.730838 181.86628 57.175781 191.91797 C 71.700903 211.52884 73.599527 213.24247 80.916016 213.33008 C 86.375267 213.39546 90.576436 211.15639 93.619141 206.55859 C 95.714269 203.3926 95.992142 202.14503 95.652344 197.44727 C 95.264519 192.08563 95.043564 191.71195 80.792969 172.33008 L 66.328125 152.65625 L 77.287109 141.81836 C 89.160476 130.07677 91.013327 126.75913 89.697266 119.60547 C 88.826765 114.87373 82.599577 108.64538 77.847656 107.75391 C 70.880743 106.44691 68.051111 108.1975 51.441406 124.08984 L 36 138.86328 L 35.537109 108.95312 C 35.142728 83.515431 34.844491 78.625951 33.544922 76.257812 C 30.491697 70.694102 25.158175 67.893446 19.917969 67.867188 z M 181.29492 67.867188 C 176.05472 67.840929 170.90796 70.588099 168.22852 76.123047 C 166.34592 80.011992 166.30664 81.295544 166.30664 140.71875 C 166.30664 199.93393 166.3508 201.43509 168.20703 205.26953 C 171.95228 213.00622 180.66424 215.75483 188.53711 211.68359 C 194.83552 208.42655 196.81866 203.09071 196.87305 189.25586 L 196.91406 178.90039 L 200.66602 175.92773 C 202.72994 174.29305 204.55501 173.10978 204.7207 173.29883 C 204.8864 173.4878 211.12568 181.87325 218.58594 191.93359 C 233.17314 211.60475 235.03155 213.27344 242.35938 213.27344 C 247.93848 213.27344 251.96951 211.1301 254.99609 206.55664 C 257.09123 203.39064 257.3691 202.14503 257.0293 197.44727 C 256.64147 192.08563 256.42052 191.71195 242.16992 172.33008 L 227.70508 152.65625 L 238.66406 141.81836 C 250.53743 130.07677 252.39028 126.75913 251.07422 119.60547 C 250.20372 114.87373 243.97653 108.64538 239.22461 107.75391 C 232.2577 106.44691 229.42806 108.1975 212.81836 124.08984 L 197.37695 138.86328 L 196.91406 108.95312 C 196.51968 83.515431 196.22144 78.625951 194.92188 76.257812 C 191.86865 70.694102 186.53513 67.893446 181.29492 67.867188 z M 129.13281 107.57617 C 126.01895 107.62637 122.90941 108.59875 120.30664 110.58398 C 114.33811 115.13639 114.36914 114.86108 114.36914 160.73438 C 114.36914 201.61575 114.39574 202.18728 116.40039 205.75391 C 120.5834 213.19659 128.93492 215.58304 136.7793 211.57617 C 140.02399 209.91881 142.88644 206.19111 144.10547 202.03711 C 144.75305 199.83043 144.99074 184.89624 144.80078 158.33984 C 144.51335 118.15761 144.50386 117.98246 142.39062 114.58398 C 139.52154 109.96998 134.32258 107.49251 129.13281 107.57617 z M 279.9043 139.21094 C 268.03184 139.3286 257.6767 153.40661 266.64258 165.99805 C 271.41054 172.69401 283.26933 174.295 290.01172 169.15234 C 298.30846 162.82409 299.02901 151.72431 291.62305 144.31836 C 287.98743 140.68274 283.86178 139.17172 279.9043 139.21094 z "
       style="opacity:1;fill:#ffffff;fill-opacity:1;fill-rule:evenodd;stroke:#ffffff;stroke-width:0;stroke-linecap:square;stroke-linejoin:round;stroke-miterlimit:4;stroke-dasharray:none;stroke-opacity:1;paint-order:normal" />
  </g>
</svg>
