<?xml version="1.0" encoding="UTF-8" standalone="no"?>
<svg
   xmlns:dc="http://purl.org/dc/elements/1.1/"
   xmlns:cc="http://creativecommons.org/ns#"
   xmlns:rdf="http://www.w3.org/1999/02/22-rdf-syntax-ns#"
   xmlns:svg="http://www.w3.org/2000/svg"
   xmlns="http://www.w3.org/2000/svg"
   height="300"
   width="300"
   id="svg18"
   version="1.1"
   viewBox="0 0 300 300">
  <metadata
     id="metadata24">
    <rdf:RDF>
      <cc:Work
         rdf:about="">
        <dc:format>image/svg+xml</dc:format>
        <dc:type
           rdf:resource="http://purl.org/dc/dcmitype/StillImage" />
        <dc:title></dc:title>
      </cc:Work>
    </rdf:RDF>
  </metadata>
  <defs
     id="defs22" />
  <g
     id="g16"
     transform="matrix(0.83120798,0,0,0.83120798,-0.71213181,-1.2753844)">
    <path
       id="path2"
       style="fill:none;stroke:#ffffff;stroke-width:11;stroke-linecap:butt;stroke-linejoin:round;stroke-miterlimit:4"
       d="m 180.06,11.36 c 0,0 -63.82,51 -42.73,122.79 21.08,71.8 43.02,135.9 43.02,135.9 l 45.3,-145.3 c 0,0 14.245,-61.54 -45.58,-113.39 z" />
    <path
       id="path4"
       style="fill:none;stroke:#ffffff;stroke-width:11.19999981;stroke-linecap:butt;stroke-linejoin:round;stroke-miterlimit:4"
       d="m 134.76,117.06 -23.65,35.33 15.95,58.975 23.65,-34.47" />
    <path
       id="path6"
       style="fill:none;stroke:#ffffff;stroke-width:11.19999981;stroke-linecap:butt;stroke-linejoin:round;stroke-miterlimit:4"
       d="m 227.07,119.62 21.94,32.76 -16.24,58.97 -23.65,-33.62" />
    <ellipse
       id="ellipse8"
       style="fill:none;stroke:#ffffff;stroke-width:11.10000038;stroke-linecap:butt;stroke-linejoin:round;stroke-miterlimit:4"
       cx="180.2"
       cy="103.81"
       rx="15.24"
       ry="15.81" />
    <path
       id="path10"
       style="fill:none;stroke:#ffffff;stroke-width:9;stroke-linecap:butt;stroke-linejoin:miter;stroke-miterlimit:4"
       d="m 156.41,190.56 47.01,-0.28" />
    <path
       id="path12"
       style="fill:#ffffff;stroke:#ffffff;stroke-width:0"
       d="m 170.37,191.42 9.97,32.76 9.4,-34.19" />
    <path
       id="path14"
       style="fill:none;stroke:#ffffff;stroke-width:25;stroke-linecap:butt;stroke-linejoin:miter;stroke-miterlimit:4"
       d="m 92.31,347.26 177.5,-0.2849" />
  </g>
</svg>
