<?xml version="1.0" encoding="UTF-8" standalone="no"?>
<svg
   xmlns:dc="http://purl.org/dc/elements/1.1/"
   xmlns:cc="http://creativecommons.org/ns#"
   xmlns:rdf="http://www.w3.org/1999/02/22-rdf-syntax-ns#"
   xmlns:svg="http://www.w3.org/2000/svg"
   xmlns="http://www.w3.org/2000/svg"
   id="svg8"
   version="1.1"
   viewBox="0 0 79.374998 79.375002"
   height="300"
   width="300">
  <defs
     id="defs2" />
  <metadata
     id="metadata5">
    <rdf:RDF>
      <cc:Work
         rdf:about="">
        <dc:format>image/svg+xml</dc:format>
        <dc:type
           rdf:resource="http://purl.org/dc/dcmitype/StillImage" />
        <dc:title></dc:title>
      </cc:Work>
    </rdf:RDF>
  </metadata>
  <g
     transform="translate(0,-217.62499)"
     id="layer1">
    <circle
       r="9.1536741"
       cy="228.74615"
       cx="11.304633"
       id="path823"
       style="opacity:1;fill:#ffffff;fill-opacity:1;fill-rule:evenodd;stroke:#1d0083;stroke-width:0;stroke-linecap:square;stroke-linejoin:miter;stroke-miterlimit:4;stroke-dasharray:none;stroke-opacity:1;paint-order:normal" />
    <rect
       y="244.65997"
       x="3.2776525"
       height="50.701172"
       width="15.876129"
       id="rect825"
       style="opacity:1;fill:#ffffff;fill-opacity:1;fill-rule:evenodd;stroke:#1d0083;stroke-width:0;stroke-linecap:square;stroke-linejoin:miter;stroke-miterlimit:4;stroke-dasharray:none;stroke-opacity:1;paint-order:normal" />
    <path
       id="path827"
       d="m 28.971875,295.2802 v -50.53542 h 15.054792 v 6.95854 h 0.210275 c 0,0 4.097484,-8.40341 15.362932,-8.19382 11.010862,0.20485 18.464159,5.8363 18.398007,21.76384 -0.06126,14.7495 10e-7,30.06222 10e-7,30.06222 l -15.799311,-0.0256 c 0,0 0.0024,-19.08161 3e-6,-27.19427 -0.0013,-4.52615 -0.866603,-10.79155 -8.322165,-10.7292 -6.863112,0.0574 -9.337936,5.27412 -9.27556,11.26157 0.09248,8.87734 0.06082,26.63215 0.06082,26.63215 z"
       style="opacity:1;fill:#ffffff;fill-opacity:1;stroke:#000000;stroke-width:0;stroke-linecap:butt;stroke-linejoin:miter;stroke-miterlimit:4;stroke-dasharray:none;stroke-opacity:1" />
  </g>
</svg>
