<?xml version="1.0" encoding="UTF-8" standalone="no"?>
<svg
   xmlns:dc="http://purl.org/dc/elements/1.1/"
   xmlns:cc="http://creativecommons.org/ns#"
   xmlns:rdf="http://www.w3.org/1999/02/22-rdf-syntax-ns#"
   xmlns:svg="http://www.w3.org/2000/svg"
   xmlns="http://www.w3.org/2000/svg"
   id="svg8"
   version="1.1"
   viewBox="0 0 79.374998 79.375002"
   height="300"
   width="300">
  <defs
     id="defs2" />
  <metadata
     id="metadata5">
    <rdf:RDF>
      <cc:Work
         rdf:about="">
        <dc:format>image/svg+xml</dc:format>
        <dc:type
           rdf:resource="http://purl.org/dc/dcmitype/StillImage" />
        <dc:title></dc:title>
      </cc:Work>
    </rdf:RDF>
  </metadata>
  <g
     transform="translate(0,-217.62499)"
     id="layer1">
    <path
       id="rect825"
       transform="matrix(0.26458333,0,0,0.26458333,0,217.62499)"
       d="m 160.91406,97.794922 c -0.49549,7.82e-4 -0.99145,0.01587 -1.51953,0.04297 -13.25862,0.679974 -22.54217,7.539499 -24.08594,17.796879 -0.21925,1.4567 0.2987,7.68946 0.81055,9.74609 0.26234,1.05411 0.47852,1.96247 0.47852,2.01758 0,0.0552 0.12244,0.0219 0.27343,-0.0703 0.16619,-0.1028 0.21013,-0.0642 0.11133,0.0957 -0.19275,0.31181 0.45614,1.97204 0.8711,2.22851 0.1584,0.0979 0.28864,0.26243 0.28906,0.36524 0.001,0.39088 2.76062,3.61933 3.96875,4.64453 3.3083,2.80736 7.19075,4.57456 11.84179,5.38867 4.01718,0.70314 6.43871,0.78478 10.9375,0.36914 0.71924,-0.0665 3.24501,-0.41021 5.61329,-0.76367 l 4.30664,-0.64258 0.16601,-7.13867 c 0.091,-3.9264 0.16589,-8.28952 0.16797,-9.69531 0.002,-1.53207 0.0986,-2.55664 0.24024,-2.55664 0.12997,0 0.20349,-0.27055 0.16211,-0.60157 l -0.0762,-0.60156 -5.84179,-0.0312 c -3.21375,-0.0189 -5.96945,0.0458 -6.12305,0.14063 -0.52774,0.32617 -0.27614,0.5208 1.2793,0.98632 1.58163,0.47339 3.09679,1.59528 2.80078,2.07422 -0.0844,0.13644 -0.0416,0.18037 0.0957,0.0957 0.13727,-0.0847 0.31294,0.0103 0.39063,0.21289 0.17794,0.46375 0.21511,12.71653 0.0391,12.89258 -0.0714,0.0714 -0.12891,-0.10153 -0.12891,-0.38477 0,-0.28346 -0.10751,-0.51563 -0.23828,-0.51563 -0.13077,0 -0.23828,0.0941 -0.23828,0.20899 0,0.39968 -3.22671,1.02483 -5.94336,1.15039 -2.30344,0.10658 -3.24915,0.0305 -5.99609,-0.48828 -2.88039,-0.54319 -3.45214,-0.73463 -4.91211,-1.63477 -1.80688,-1.11401 -4.51405,-3.52335 -5.34375,-4.75586 -1.56096,-2.31874 -2.29236,-4.74226 -2.45899,-8.15234 -0.24397,-4.99283 0.83504,-8.41753 3.61524,-11.47656 1.37329,-1.71905 3.05313,-2.48808 4.77148,-3.08789 0.44075,-0.34092 0.43808,-0.34827 -0.0781,-0.22657 -1.40422,0.16404 0.92245,-0.61526 1.25,-0.69531 0.17397,0.0669 1.31516,-0.0862 2.53515,-0.33789 1.29468,-0.26721 3.18796,-0.45717 4.54688,-0.45898 2.2552,-0.003 5.51338,0.49865 6.43554,0.99218 0.29205,0.15648 0.50177,0.15975 0.59766,0.008 0.15039,-0.23585 1.21875,0.0377 1.21875,0.31054 0,0.0782 -0.24094,0.0726 -0.53516,-0.0117 -0.29423,-0.0854 0.21352,0.29172 1.12891,0.83593 0.91539,0.54425 1.8524,1.15816 2.08203,1.36524 0.22965,0.20711 0.46354,0.33132 0.51953,0.27539 0.056,-0.0559 0.13643,-2.04928 0.17774,-4.42774 0.0722,-4.159556 0.057,-4.327513 -0.40039,-4.437497 -0.26155,-0.06274 -2.29448,-0.348327 -4.51758,-0.632812 -2.3179,-0.296504 -3.79867,-0.420315 -5.28516,-0.417969 z m -44.95117,0.960937 c -3.21862,-0.04082 -5.22912,0.02529 -5.52734,0.185547 -0.53648,0.287244 -0.61408,0.835852 -0.15821,1.115234 0.17065,0.10469 0.55469,0.59181 0.85352,1.08398 l 0.54297,0.89454 -0.49414,1.24609 c -0.27228,0.68477 -1.07471,2.84897 -1.78125,4.81055 -0.70655,1.96153 -2.53168,6.61679 -4.05664,10.34375 -1.52497,3.72695 -3.25062,8.00589 -3.83594,9.50976 -1.637919,4.20828 -2.209752,5.49253 -2.988282,6.71094 -0.721213,1.12872 -4.557902,4.93945 -4.972656,4.93945 -0.122079,0 -0.220703,0.14703 -0.220703,0.32618 0,0.25851 0.692641,0.33046 3.386719,0.35351 2.267876,0.0188 3.261941,-0.0465 3.03125,-0.20117 -0.268158,-0.17424 -0.149165,-0.23242 0.476562,-0.23242 0.62402,0 0.74204,0.0577 0.47461,0.23047 -0.266,0.17196 -0.1441,0.22813 0.47656,0.21679 0.4577,-0.008 0.69862,-0.069 0.53516,-0.13476 -0.51144,-0.20637 -0.32493,-0.55664 0.29687,-0.55664 0.36987,0 0.59375,0.13556 0.59375,0.35742 0,0.19616 0.16127,0.35547 0.35742,0.35547 0.19616,0 0.35547,-0.10556 0.35547,-0.23633 0,-0.13077 0.436,-0.23828 0.9668,-0.23828 0.57777,0 0.90564,0.095 0.81836,0.23633 -0.0922,0.14929 0.55873,0.22769 1.76953,0.21484 1.05313,-0.0113 1.97565,-0.12049 2.05078,-0.24219 0.0751,-0.1217 -0.37898,-0.4366 -1.00976,-0.70117 -0.63079,-0.26457 -1.41526,-0.64367 -1.74219,-0.8418 -0.32693,-0.19804 -0.78144,-0.41924 -1.01172,-0.49218 -0.77851,-0.24681 -0.74597,-1.19235 0.13477,-3.83594 0.98505,-2.95673 2.06308,-6.03668 2.76172,-7.88672 0.27091,-0.71739 0.49414,-1.33264 0.49414,-1.36719 0,-0.034 3.41681,-0.0625 7.59375,-0.0625 7.66187,0 7.92782,0.0263 7.98242,0.83203 0.0166,0.24718 0.38068,1.1261 0.99804,2.41602 0.19809,0.41389 0.27793,0.88473 0.17774,1.04687 -0.11229,0.1818 -0.0849,0.23386 0.0723,0.13672 0.15549,-0.096 0.34795,0.23797 0.49415,0.85547 0.40137,1.69569 0.91115,2.89842 1.07421,2.5332 0.0812,-0.18179 0.09,-0.0986 0.0195,0.1875 -0.0704,0.28611 -0.0292,0.71416 0.0918,0.95118 0.53983,1.05804 1.25129,4.31776 0.80274,3.67773 -0.17779,-0.25361 -0.43907,-0.15469 -1.27149,0.47656 -0.57691,0.43737 -1.447,1.00703 -1.93359,1.26563 -0.48659,0.25852 -0.88477,0.60507 -0.88477,0.77148 0,0.4012 1.94186,0.40579 2.3418,0.004 0.37716,-0.37758 12.85619,-0.5682 13.53125,-0.20703 0.24091,0.12888 0.57499,0.15087 0.74023,0.0488 0.20621,-0.12737 0.0579,-0.28608 -0.47265,-0.50586 -0.42514,-0.17613 -1.36973,-0.92111 -2.09766,-1.6543 -0.72793,-0.73315 -1.52004,-1.40696 -1.75976,-1.49805 -0.23974,-0.0911 -0.39448,-0.28533 -0.34571,-0.43164 0.0488,-0.14627 -0.18552,-0.55843 -0.51953,-0.91601 -0.50601,-0.54169 -3.09765,-5.37014 -3.09766,-5.77149 0,-0.0688 -0.46604,-1.12707 -1.0371,-2.35156 -0.57107,-1.22445 -1.27564,-2.97526 -1.56641,-3.89063 -0.29076,-0.9154 -0.60913,-1.77157 -0.70703,-1.90234 -0.0979,-0.13077 -0.50799,-1.09445 -0.91016,-2.14062 -0.40217,-1.04618 -1.50028,-3.8686 -2.4414,-6.27344 -0.94114,-2.40484 -1.73463,-4.75837 -1.76368,-5.23047 -0.0572,-0.93014 -0.36464,-1.89213 -1.64453,-5.1582 -0.45685,-1.1658 -0.86579,-2.387918 -0.9082,-2.714848 l -0.0762,-0.59375 z m 98.57227,0.179688 -5.50391,0.02344 c -3.02734,0.01134 -6.03951,0.103409 -6.69336,0.205078 l -1.1875,0.185547 1.06836,0.04883 c 0.80535,0.0378 0.95363,0.09623 0.5957,0.240234 -0.26154,0.105071 -0.55622,0.144583 -0.65429,0.08789 -0.44008,-0.25474 -0.10755,0.253345 0.61914,0.947268 1.79329,1.71201 1.9288,2.09419 1.95117,5.51172 0.0113,1.70184 0.15526,3.79061 0.32031,4.64062 0.22065,1.13643 0.25922,3.18081 0.14844,7.72656 -0.17174,7.0455 -0.45315,10.51337 -0.96484,11.90235 -0.4689,1.27279 -1.77264,2.50901 -3.71094,3.51758 -2.39719,1.24735 -3.77659,1.47682 -7.09766,1.18164 l -2.79687,-0.24805 -1.58594,-1.13281 c -1.25842,-0.89798 -1.74338,-1.43174 -2.34766,-2.58789 l -0.76172,-1.45703 -0.0781,-9.1543 c -0.0772,-9.1581 0.0385,-12.04765 0.45312,-11.39258 0.13127,0.2075 0.21258,-0.77872 0.21485,-2.58594 0.005,-3.60113 0.2833,-4.26895 2.50586,-6.01562 0.84768,-0.666144 1.48155,-1.309097 1.4082,-1.427736 -0.076,-0.122835 -3.96292,-0.214844 -9.03516,-0.214844 -9.7152,0 -10.46637,0.117831 -7.14843,1.125 2.03222,0.61689 3.87861,1.80227 4.52148,2.90234 0.38125,0.65243 0.41467,0.93591 0.21094,1.82618 -0.13255,0.57925 -0.15873,1.10488 -0.0566,1.16796 0.10208,0.0631 0.19461,2.97531 0.20508,6.47266 0.0287,9.55657 0.25391,17.40386 0.53515,18.60352 0.37618,1.60456 0.80378,2.43471 2.03516,3.96289 1.30778,1.623 1.76893,2.05916 2.91015,2.75195 0.46355,0.28157 0.89968,0.59291 0.96875,0.69141 0.0691,0.0983 0.9089,0.51214 1.86719,0.91992 1.91838,0.81638 4.56902,1.39954 6.64649,1.46289 l 1.3457,0.041 -1.54492,0.15625 -1.54492,0.15625 1.56445,0.041 c 0.8609,0.0227 2.16827,-0.0804 2.90625,-0.22852 v -0.002 c 0.738,-0.14816 1.28907,-0.35478 1.22461,-0.45898 -0.0644,-0.10432 -0.008,-0.25588 0.125,-0.33789 0.13292,-0.082 0.24219,-0.0227 0.24219,0.1289 0,0.454 1.55531,0.0423 3.72656,-0.98437 1.08368,-0.51243 2.07945,-0.93164 2.21289,-0.93164 0.13342,0 0.24219,-0.10556 0.24219,-0.23633 0,-0.13077 0.0924,-0.23828 0.20507,-0.23828 0.28415,0 0.0316,1.19417 -0.38867,1.84179 l -0.34765,0.53516 4.00976,0.0234 c 2.20544,0.0113 4.86595,0.0394 5.91211,0.0605 2.25013,0.0457 3.16794,-0.16602 2.69141,-0.62304 -0.17258,-0.16555 -0.76952,-0.50428 -1.32813,-0.75196 -0.5586,-0.24755 -1.44263,-0.91212 -1.96289,-1.47656 l -0.94531,-1.02539 -0.0234,-4.58203 c -0.0128,-2.52023 -0.0459,-4.79705 -0.0742,-5.05859 -0.0283,-0.26155 -0.0799,-3.04316 -0.11328,-6.18164 -0.0367,-3.44818 -0.14019,-5.51779 -0.26367,-5.23047 -0.12862,0.29934 -0.21215,-0.6858 -0.22266,-2.65625 -0.0106,-2.02243 0.0743,-3.16019 0.23829,-3.21485 0.15053,-0.0503 0.32826,-1.3889 0.4375,-3.28906 0.19483,-3.39061 0.65895,-4.91433 1.6621,-5.45117 0.31159,-0.16668 0.45118,-0.49813 0.45118,-1.076172 z m -136.679691,0.002 c -5.354056,-4.63e-4 -10.685547,0.07263 -10.685547,0.21875 0,0.119811 0.13341,0.272127 0.296875,0.337891 0.163464,0.06576 0.05595,0.128467 -0.238281,0.138671 -0.534524,0.0189 -0.782566,0.494138 -0.257813,0.494138 0.15258,0 0.216669,0.0627 0.140625,0.13867 -0.07601,0.076 0.11976,0.51908 0.435547,0.98438 0.31578,0.46534 0.578368,1.01792 0.583984,1.22852 0.0057,0.21052 0.03638,2.25446 0.06836,4.54296 0.0325,2.32623 0.182464,4.58158 0.339843,5.11329 0.398393,1.346 0.348614,23.41992 -0.05273,23.41992 -0.15326,0 -0.449761,0.35956 -0.660156,0.80078 -0.210406,0.44122 -1.033521,1.37478 -1.828125,2.07422 -0.794608,0.69944 -1.443359,1.40911 -1.443359,1.57617 0,0.23244 0.711073,0.29517 3.03125,0.26758 2.125489,-0.0265 2.711105,-0.0844 1.960937,-0.20117 -0.588469,-0.0915 3.851744,-0.15745 9.867187,-0.14649 l 10.9375,0.0176 -9.748046,0.12891 -9.748047,0.12695 10.601562,0.0547 10.601563,0.0547 0.292968,-0.97265 c 0.160517,-0.53583 0.244281,-1.02326 0.185547,-1.08203 -0.05873,-0.0586 -0.180119,0.17898 -0.267578,0.52734 -0.08746,0.34847 -0.207483,0.58357 -0.267578,0.52344 -0.117014,-0.11717 1.097031,-4.39263 1.722656,-6.06836 0.207496,-0.55578 0.467743,-1.01172 0.580079,-1.01172 0.258859,0 1.230832,-2.04368 1.121093,-2.35742 -0.04505,-0.12888 -1.30284,0.56036 -2.794922,1.53125 -1.492085,0.97084 -3.202488,1.92655 -3.802734,2.12304 -1.736024,0.56837 -4.715146,0.69959 -8.328125,0.36914 -3.036907,-0.27779 -3.397153,-0.2687 -4.185547,0.10547 -0.474391,0.22526 -0.934026,0.33769 -1.021484,0.25 -0.08746,-0.0877 -0.137294,-3.22339 -0.111328,-6.96875 0.04275,-6.16743 0.08565,-6.83888 0.460937,-7.11328 0.891428,-0.65181 8.37527,-0.27629 9.298828,0.4668 0.350362,0.28195 0.33515,0.40209 0.298828,-2.35156 -0.01701,-1.30383 0.07219,-2.23902 0.222657,-2.33203 0.379691,-0.23471 0.302482,-0.55581 -0.164063,-0.67774 -0.248164,-0.065 -0.143989,-0.12009 0.257813,-0.13672 -3.265293,0.30992 -6.205936,0.3455 -9.488282,0.25781 -0.949013,0.11075 -0.894546,0.36755 -0.820312,-3.83007 0.03477,-1.96471 0.140348,-2.80637 0.382812,-3.04883 0.212259,-0.21241 0.335938,-0.84829 0.335938,-1.73633 0,-1.80544 0.169929,-1.89468 3.609375,-1.88867 3.989412,0.008 5.716739,0.31224 7.849609,1.38672 1.458512,0.73485 1.855746,0.85225 1.960938,0.57812 0.243023,-0.63326 0.136124,-5.35099 -0.142578,-6.28125 -0.20024,-0.668331 -0.411854,-0.927194 -0.773438,-0.947263 -0.405717,-0.02268 -0.419923,-0.04752 -0.07813,-0.136719 0.230438,-0.06009 0.357925,-0.20718 0.283203,-0.328125 -0.09035,-0.146079 -5.466256,-0.22024 -10.820312,-0.220703 z m -34.25,0.002 c -4.392397,-0.0023 -6.92494,0.193219 -6.72461,0.517578 0.07282,0.117922 0.365209,0.157056 0.648438,0.08789 0.283226,-0.06954 0.385321,-0.06664 0.228515,0.0078 -0.187615,0.08731 0.0773,0.622726 0.773438,1.568356 1.083133,1.47134 1.131093,1.60994 1.066406,3.0586 -0.08893,1.99128 -0.106341,7.52356 -0.05664,18.53711 0.0291,6.47316 0.0051,12.11162 -0.05469,12.52929 -0.208743,1.45758 -1.211305,2.75253 -3.166016,4.0918 -1.781355,1.22052 -1.889834,1.21094 12.898438,1.21094 13.354443,0 13.68198,-0.0124 14.146484,-0.47656 0.261544,-0.26155 0.47461,-0.6404 0.47461,-0.83985 0,-0.32088 0.557458,-2.01616 1.083984,-3.30078 0.131452,-0.32088 0.104285,-0.40445 -0.0918,-0.2832 -0.372132,0.22979 -0.358608,0.14167 0.230469,-1.56055 0.27942,-0.80746 0.86684,-1.93947 1.306641,-2.51562 1.354624,-1.77468 1.007111,-2.21798 -0.777344,-0.99024 -1.652289,1.13681 -5.741678,3.00834 -7.457031,3.41211 -1.842169,0.43359 -3.695821,0.46489 -6.425782,0.10742 -2.568192,-0.33638 -3.0897,-0.35675 -3.710937,-0.13867 -0.482978,0.16932 -0.5156,0.0832 -0.703125,-1.9082 -0.181682,-1.92945 -0.208104,-2.00657 -0.34961,-1.01758 -0.08421,0.58847 -0.1532,-1.92632 -0.154296,-5.58789 -0.0012,-3.66157 0.06578,-6.23008 0.148437,-5.70703 0.247106,1.56408 0.494123,-3.4834 0.5,-10.20117 0.0049,-5.48444 0.04592,-6.05171 0.490235,-7.03125 0.265851,-0.58613 0.639083,-1.23817 0.830078,-1.44922 0.190979,-0.2109 0.317899,-0.63449 0.283203,-0.93946 -0.0477,-0.418806 0.08232,-0.59097 0.53125,-0.705074 1.021512,-0.259654 -1.660074,-0.474295 -5.96875,-0.476563 z m 23.220703,0 c -0.05768,0 -0.171147,0.105557 -0.251953,0.236328 -0.08081,0.130772 -0.03301,0.238281 0.105469,0.238281 0.138481,0 0.251953,-0.107509 0.251953,-0.238281 0,-0.130771 -0.04779,-0.236328 -0.105469,-0.236328 z m 156.582028,0.02734 c -4.63252,0.01515 -5.4926,0.09622 -5.58203,0.330078 -0.0897,0.233953 0.007,0.357422 0.28125,0.357422 0.47898,0 2.07755,1.575163 3,2.957033 0.52624,0.78837 0.60014,1.0978 0.4707,1.96094 -0.0994,0.66251 -0.0639,1.02539 0.0996,1.02539 0.17348,0 0.25782,2.50338 0.26954,7.96484 0.0113,5.28015 -0.0654,7.96484 -0.22657,7.96484 -0.13372,0 -0.24218,0.11363 -0.24218,0.25196 0,0.13833 0.10751,0.18635 0.23828,0.10547 0.14283,-0.0881 0.23656,0.21378 0.23437,0.75781 -0.002,0.57562 -0.0772,0.79236 -0.20312,0.59375 -0.11025,-0.17386 -0.25429,2.52813 -0.32617,6.08984 -0.0899,4.45497 -0.21991,6.57601 -0.42774,6.97071 -0.4771,0.90595 -1.37542,1.8928 -2.49805,2.75 -0.57332,0.43774 -0.9916,0.9286 -0.92968,1.08984 0.0875,0.2279 3.19869,0.29297 13.9375,0.29297 h 13.82421 l 1.0293,-3.68555 c 0.56672,-2.02692 1.03342,-3.85151 1.03516,-4.05273 0.002,-0.20107 0.20242,-0.75806 0.44726,-1.23829 0.74499,-1.46124 0.0852,-1.54114 -1.70312,-0.20507 -3.32861,2.48655 -6.19045,3.11251 -11.9375,2.60742 -1.83065,-0.16101 -3.73031,-0.27583 -4.2207,-0.25391 l -0.89063,0.041 v -4.73047 c 0,-3.57264 -0.0743,-4.75521 -0.29883,-4.83008 -0.3597,-0.11981 -0.45026,-3.23571 -0.10742,-3.68555 0.1635,-0.21429 1.21889,-0.29687 3.79492,-0.29687 3.54205,0 5.40821,0.28656 5.40821,0.82812 0,0.26646 1.17552,1.42792 1.28711,1.27149 0.16168,-0.22677 -0.18082,-2.3147 -0.36133,-2.20313 -0.40168,0.24832 -0.24275,-3.62331 0.18554,-4.52148 0.21959,-0.46046 0.35496,-0.87311 0.29883,-0.91797 -0.0561,-0.045 -2.21611,-0.0351 -4.79883,0.0254 -3.78497,0.0862 -4.69531,0.17075 -4.69531,0.43555 0,0.20636 -0.26454,0.32812 -0.71289,0.32812 h -0.71484 l -0.0488,-3.03125 c -0.0815,-4.96074 0.0445,-7.75491 0.35937,-7.95507 0.29099,-0.18482 3.42183,-0.27645 6.55079,-0.19141 1.73972,0.0472 3.86086,0.53663 5.5625,1.2832 l 0.89062,0.39063 -0.0273,-1.84571 c -0.0151,-1.01522 -0.0749,-1.65853 -0.13477,-1.42968 -0.14555,0.55699 -0.55078,0.53282 -0.55078,-0.0332 0,-0.24756 -0.16744,-0.51487 -0.37305,-0.59375 -0.24457,-0.0937 -0.34695,-0.3703 -0.29687,-0.79883 0.0633,-0.54103 -0.0266,-0.67089 -0.51758,-0.75 l -0.5957,-0.0957 0.5957,-0.17773 c 0.37432,-0.11188 -0.28585,-0.197589 -1.7832,-0.230471 -3.35139,-0.07295 -4.45543,-0.402015 -1.54688,-0.460938 1.24232,-0.02646 2.74161,-0.131635 3.33008,-0.236328 0.61376,-0.109228 -3.81054,-0.201364 -10.37695,-0.21875 -2.49351,-0.0066 -4.45778,-0.009 -6.00196,-0.0039 z m 16.51172,2.587893 c 0.0577,0 0.10352,0.10555 0.10352,0.23633 0,0.13077 -0.11347,0.23828 -0.25196,0.23828 -0.13848,0 -0.18436,-0.10751 -0.10351,-0.23828 0.0808,-0.13078 0.19428,-0.23633 0.25195,-0.23633 z m -1.53906,0.53125 c 0.0951,0.0136 0.22188,0.0622 0.37695,0.15234 0.23864,0.13871 0.34063,0.25561 0.22657,0.25977 -0.11411,0.004 -0.0749,0.16712 0.0879,0.36328 0.20451,0.24642 0.2137,0.35742 0.0293,0.35742 -0.14676,0 -0.26562,0.15515 -0.26562,0.34375 0,0.1886 -0.10751,0.40747 -0.23828,0.48828 -0.13078,0.0809 -0.23828,-0.0723 -0.23828,-0.3418 0,-0.2691 0.12432,-0.49023 0.27539,-0.49023 0.15545,0 0.0861,-0.2067 -0.15821,-0.47656 -0.3812,-0.4212 -0.38099,-0.69711 -0.0957,-0.65625 z m -84.44727,2.11328 c 0.0826,0.003 0.15385,0.025 0.19336,0.0645 0.079,0.079 -0.0619,0.13558 -0.3125,0.125 -0.277,-0.0113 -0.33223,-0.0686 -0.14257,-0.14453 0.0858,-0.0344 0.17911,-0.0484 0.26171,-0.0449 z m -37.5332,2.58594 c 0.094,0 0.22547,0.29448 0.29297,0.65429 0.17004,0.9063 3.84418,10.17164 4.32422,10.9043 0.5931,0.9052 0.39303,1.61801 -0.4707,1.67969 -0.58136,0.0416 -0.63599,0.008 -0.29688,-0.18555 0.22885,-0.13039 0.41584,-0.36437 0.41602,-0.52148 2.3e-4,-0.21355 -1.00058,-0.26726 -3.98243,-0.21094 -3.54734,0.0673 -4.03548,0.12568 -4.47265,0.53515 -0.60966,0.57083 -1.76758,0.62219 -1.76758,0.0781 0,-0.20976 0.52121,-1.62754 1.1582,-3.15039 0.63699,-1.52285 1.30405,-3.18643 1.48438,-3.69727 0.18032,-0.51084 0.51181,-0.97807 0.73633,-1.03711 0.2245,-0.059 0.47751,-0.33494 0.5625,-0.61523 0.32677,-1.07705 1.85302,-4.43359 2.01562,-4.43359 z m 31.97656,0.63086 c 0.002,-0.043 -0.32551,0.16973 -1.06054,0.73437 -0.0545,0.034 0.008,0.0605 0.14062,0.0605 0.58529,-0.45459 0.91785,-0.75191 0.91992,-0.79492 z m -33.96679,2.7539 c 0.0418,-0.0216 0.0664,-0.003 0.0664,0.0625 0,0.13077 -0.1037,0.39955 -0.23047,0.5957 -0.12676,0.19616 -0.23047,0.24992 -0.23047,0.11915 0,-0.13078 0.10371,-0.39955 0.23047,-0.59571 0.0634,-0.0981 0.12229,-0.16005 0.16407,-0.18164 z m 150.47656,6.8711 c -0.82118,0.004 -1.8651,0.22736 -2.54883,0.58007 -0.92198,0.47679 -1.62584,1.67277 -1.62695,2.76172 0,0.48269 -0.10823,0.94305 -0.23828,1.02344 -0.1301,0.0805 -0.35445,0.3685 -0.5,0.64063 -0.23929,0.44711 -0.21195,0.48111 0.29492,0.35351 l 0.56054,-0.14062 -0.0723,3.08007 -0.0723,3.08204 -0.70117,0.36328 c -0.9245,0.47807 -0.8883,0.6941 0.0742,0.45312 0.425,-0.10658 1.25333,-0.19544 1.8418,-0.19922 v -0.002 c 0.58846,-0.003 1.28338,0.0899 1.54492,0.20703 0.33177,0.14816 0.24723,-0.023 -0.2793,-0.57031 l -0.7539,-0.78125 0.041,-2.88672 0.041,-2.88672 1.13086,-0.0723 c 0.62115,-0.0397 1.1289,-0.16434 1.1289,-0.27735 0,-0.11301 0.0651,-0.37518 0.14453,-0.58203 0.1211,-0.31559 -0.0733,-0.375 -1.20312,-0.375 h -1.3457 l 0.0723,-1.11914 c 0.0627,-0.96843 0.15394,-1.14076 0.66797,-1.26953 0.32693,-0.082 0.83467,-0.0629 1.12891,0.043 0.32439,0.11716 0.53515,0.10147 0.53515,-0.041 0,-0.12964 0.33805,-0.44164 0.75196,-0.69336 l 0.75195,-0.45703 -0.64453,-0.16211 c -0.20305,-0.0509 -0.45089,-0.0736 -0.72461,-0.0723 z m -53.03516,0.39843 c 0.0135,0.0141 0.0279,0.0496 0.043,0.10743 0.0603,0.2313 0.0572,0.55192 -0.008,0.71289 -0.0651,0.161 -0.11421,-0.0277 -0.10938,-0.42188 0.004,-0.29424 0.0336,-0.44066 0.0742,-0.39844 z m -98.33789,2.45313 c 0.0826,0.003 0.15386,0.025 0.19336,0.0645 0.079,0.079 -0.0618,0.13558 -0.3125,0.125 -0.277,-0.0113 -0.33223,-0.0686 -0.14258,-0.14453 0.0858,-0.0344 0.17912,-0.0484 0.26172,-0.0449 z m 141.57422,0.93359 c -1.45648,0.0422 -2.93565,0.654 -3.82227,1.81641 -0.4706,0.61701 -0.65864,1.18544 -0.73242,2.20508 -0.0945,1.30662 -0.0582,1.4199 0.76758,2.33398 1.65546,1.83239 3.61408,2.36875 5.48633,1.50195 0.52308,-0.24226 1.27175,-0.78207 1.66406,-1.19921 0.65267,-0.694 0.71654,-0.91257 0.75586,-2.57227 0.0352,-1.48267 -0.044,-1.93637 -0.43555,-2.48633 -0.79301,-1.11369 -2.22711,-1.64185 -3.68359,-1.59961 z m -0.35547,1.02539 c 0.82094,-0.0462 1.63274,0.22575 2.17188,0.75977 0.52075,0.51587 0.59275,0.79187 0.59375,2.26562 0,1.59632 -0.0371,1.71288 -0.77539,2.37305 -1.03228,0.92307 -2.25394,0.93554 -3.29102,0.0312 -1.40081,-1.22064 -1.6142,-2.30147 -0.79102,-4.00195 0.35789,-0.73928 0.7021,-1.08359 1.27735,-1.27344 0.26596,-0.0878 0.54081,-0.1389 0.81445,-0.1543 z m -32.89453,2.00977 c 0.0135,0.0141 0.0279,0.0496 0.043,0.10742 0.0603,0.23131 0.0572,0.55192 -0.008,0.71289 -0.0651,0.16101 -0.11422,-0.0258 -0.10938,-0.41992 l -0.002,-0.002 c 0.004,-0.29424 0.0355,-0.44067 0.0762,-0.39844 z M 82.128906,134.63281 c 0.0826,0.003 0.153854,0.025 0.19336,0.0645 0.07899,0.079 -0.06184,0.13558 -0.3125,0.125 -0.277002,-0.0113 -0.334188,-0.0686 -0.144532,-0.14454 0.08581,-0.0344 0.181073,-0.0484 0.263672,-0.0449 z m 195.619144,0.71289 c -0.90766,-0.009 -1.89175,0.008 -3.05469,0.0449 -4.6496,0.14741 -7.09036,0.54007 -10.52344,1.69532 -7.23184,2.43364 -11.4534,6.60809 -12.63086,12.48828 -0.60699,3.03126 -0.22793,7.56477 0.73633,8.80469 0.15254,0.19615 0.51253,0.85436 0.79883,1.46093 0.85944,1.82094 3.07902,4.27811 4.55078,5.03711 0.7161,0.36926 1.33727,0.76953 1.38086,0.89063 0.0436,0.12094 0.17539,0.2207 0.29297,0.2207 0.11758,0 0.88545,0.40408 1.70508,0.89844 1.4646,0.88339 4.39535,2.35577 8.62304,4.33008 7.8002,3.64259 10.9526,5.57489 12.86914,7.89258 0.5069,0.61296 1.04276,1.07669 1.19141,1.02929 0.16309,-0.0522 0.22254,0.0952 0.15039,0.3711 -0.0658,0.25171 0.0543,0.72042 0.26563,1.04296 0.56524,0.86264 0.47576,5.35168 -0.0996,4.9961 -0.10368,-0.0643 -0.42983,0.28612 -0.72266,0.77734 -1.83457,3.07733 -6.02185,5.50072 -10.29883,5.95899 -2.92448,0.31332 -8.50366,-0.30829 -11.45703,-1.27539 -0.37542,-0.12284 -0.39327,-0.1043 -0.10156,0.10546 0.21554,0.15497 0.24553,0.25983 0.0762,0.26172 -0.15413,0.002 -0.43507,-0.15168 -0.625,-0.34179 -0.18992,-0.19011 -0.40122,-0.29031 -0.46875,-0.22266 -0.0675,0.0676 -1.17642,-0.42843 -2.46484,-1.10156 -2.17079,-1.13413 -2.94473,-1.63373 -5.23633,-3.38282 -0.47118,-0.35943 -0.98539,-0.65429 -1.14258,-0.65429 -0.15719,0 -0.40771,-0.26885 -0.55664,-0.59571 -0.34318,-0.7531 -0.87423,-0.80059 -0.6543,-0.0586 0.0872,0.29443 0.25733,1.23006 0.37696,2.08008 1.11507,7.92397 1.57131,10.12969 2.25976,10.90234 0.77371,0.86835 3.64544,1.77853 8.07813,2.56055 3.63314,0.64101 5.55807,0.7746 9.75,0.67773 3.19375,-0.0737 4.56574,-0.21459 6.54101,-0.67187 5.73043,-1.32624 10.6819,-3.82915 13.97266,-7.0625 1.76383,-1.7331 2.68747,-3.02361 3.61133,-5.04297 0.75533,-1.65101 1.15774,-2.91159 0.73828,-2.3125 -0.32829,0.46889 -0.32841,0.18848 0,-2.02148 0.13561,-0.91541 0.17669,-2.49776 0.0898,-3.51563 -0.1333,-1.56336 -0.21039,-1.80744 -0.49609,-1.57031 -0.40285,0.33449 -1.50217,-0.0656 -1.5293,-0.55664 -0.009,-0.1663 -0.10485,-0.0877 -0.21094,0.17383 -0.12431,0.30652 -0.17326,-0.0126 -0.13672,-0.89844 0.0557,-1.34778 0.35438,-2.23072 0.37305,-1.10352 0.009,0.57253 0.0101,0.57293 0.36524,-0.082 0.32073,-0.59127 0.31782,-0.74361 -0.043,-1.5039 -0.2524,-0.5319 -0.46616,-0.74129 -0.57422,-0.56641 -0.20795,0.33638 -0.98868,0.21987 -1.11719,-0.16602 -0.0507,-0.15231 0.12541,-0.34506 0.39258,-0.42968 l 0.48633,-0.1543 -0.50782,-0.99609 c -0.27926,-0.54747 -0.51101,-1.0479 -0.51367,-1.11329 -0.0106,-0.25889 -2.09611,-2.30819 -3.02929,-2.97656 -0.54475,-0.39016 -1.44385,-1.15586 -2,-1.70117 -0.98233,-0.96317 -3.31153,-2.27093 -6.20118,-3.48242 -3.54511,-1.4863 -8.56588,-3.76662 -9.57617,-4.34961 -0.61122,-0.35263 -1.48514,-0.84074 -1.9414,-1.08399 -1.14199,-0.6088 -3.97052,-3.43954 -4.5918,-4.5957 -0.38518,-0.71679 -0.51048,-1.36088 -0.50781,-2.61523 0.006,-2.7665 1.19222,-4.56804 3.91406,-5.94727 1.84862,-0.93679 3.83873,-1.29692 7.17187,-1.30078 3.16548,-0.004 5.40704,0.34232 7.59961,1.17578 1.40191,0.53284 1.69403,0.59487 1.1543,0.24609 -0.84753,-0.54772 0.71006,-0.20714 1.8125,0.39649 1.46451,0.80175 4.13086,2.72472 4.13086,2.97851 0,0.10545 0.0797,0.19141 0.17773,0.19141 0.0981,8e-5 0.14121,-1.44349 0.0957,-3.20898 -0.0538,-2.08706 0.004,-3.21094 0.16211,-3.21094 0.13402,0 0.29173,0.18701 0.35156,0.41601 0.0598,0.22904 0.12152,-0.8853 0.13672,-2.47656 0.0151,-1.59125 0.0901,-3.05413 0.16601,-3.25195 0.16959,-0.44194 -0.5271,-0.65355 -4.77539,-1.44922 -4.01368,-0.75169 -6.0368,-1.0264 -8.75976,-1.05469 z m -117.375,0.71094 c 0.23702,0 0.47448,0.0138 0.65429,0.041 0.35963,0.0544 0.0649,0.0977 -0.65429,0.0977 -0.71924,0 -1.01392,-0.0432 -0.6543,-0.0977 0.17981,-0.0272 0.41728,-0.041 0.6543,-0.041 z M 15.8125,136.97852 c -5.623132,0 -10.2246094,0.0448 -10.2246094,0.0996 0,0.0548 -0.065154,0.26975 -0.1445312,0.47657 -0.1007925,0.26267 -0.00515,0.375 0.3144531,0.375 0.7825402,0 3.0864037,2.36556 3.3574219,3.44726 0.1319319,0.52657 0.3128202,6.471 0.4042968,13.31641 0.090867,6.80005 0.2330677,12.41704 0.3164063,12.48242 0.083339,0.0654 0.1529845,0.27842 0.15625,0.47461 0.00326,0.19616 0.080531,1.9085 0.1718745,3.80469 0.09135,1.89619 0.22767,6.11821 0.302735,9.38281 0.07507,3.26457 0.184972,5.98382 0.244141,6.04297 0.05917,0.0593 0.110374,-0.0971 0.113281,-0.34766 0.0047,-0.40305 0.05947,-0.38706 0.470703,0.13868 0.380197,0.48604 0.46638,0.97633 0.470703,2.6914 0.0039,1.55286 -0.08751,2.191 -0.351563,2.45508 -0.196157,0.19616 -0.372067,0.69566 -0.390624,1.11133 -0.03171,0.71013 -0.04507,0.69843 -0.205079,-0.19531 l -0.169921,-0.95118 -0.0332,1.10352 c -0.01856,0.60616 -0.180214,1.44889 -0.359375,1.875 -0.2798699,0.66561 -0.3576049,0.7178 -0.552734,0.36914 -0.1946759,-0.34772 -0.3244008,-0.25791 -0.9003906,0.62109 -0.3695773,0.56406 -1.3773248,1.69339 -2.2402344,2.50977 -0.8629115,0.81638 -1.4431841,1.48538 -1.2890625,1.48633 0.1541254,9.4e-4 0.4405628,-0.15931 0.6367187,-0.35547 0.1961575,-0.19616 0.5163391,-0.35742 0.7109376,-0.35742 0.1946003,0 0.4025592,-0.1336 0.4609374,-0.29688 0.058382,-0.16365 0.1751836,-0.23373 0.2597657,-0.15625 0.084586,0.0775 -0.095851,0.40969 -0.4003907,0.73828 l -0.5527343,0.59766 2.8457031,0.1543 c 1.566088,0.0843 3.687258,0.15234 4.712891,0.15234 1.323309,0 1.86949,0.086 1.882812,0.29687 0.01504,0.23774 0.04273,0.23774 0.138672,0 0.0764,-0.18935 0.610389,-0.29523 1.46875,-0.29296 v 0.002 c 0.957616,0.003 1.24372,0.0707 0.990234,0.23437 -0.232501,0.15043 4.510216,0.23173 13.625,0.23438 l 13.982422,0.002 0.611328,-1.36719 c 0.520438,-1.1633 2.293162,-5.78161 2.806641,-7.31054 l 0.160156,-0.47461 -0.390625,0.47461 c -0.378697,0.4597 -0.387004,0.45122 -0.224609,-0.23828 0.09241,-0.39232 0.369885,-1.08722 0.617187,-1.54493 0.344164,-0.63692 0.41884,-0.69326 0.314454,-0.23828 l -0.136719,0.59571 0.357422,-0.59571 c 0.41063,-0.68156 0.487757,-1.28534 0.136718,-1.06836 -0.274318,0.16933 -0.29482,0.0688 -0.09375,-0.45507 0.07911,-0.20599 0.239891,-0.31753 0.355469,-0.2461 0.115578,0.0714 0.148928,-0.0266 0.07617,-0.21484 -0.07276,-0.18973 0.07628,-0.54293 0.330078,-0.78516 0.493172,-0.47062 1.234375,-1.79848 1.234375,-2.21094 0,-0.45002 -0.431932,-0.26651 -2.427734,1.0293 -4.428658,2.87543 -8.937522,4.85645 -12.550781,5.51367 -2.335276,0.42478 -5.36894,0.42234 -9.03711,-0.008 -1.63383,-0.19124 -3.58596,-0.41941 -4.33789,-0.50781 -0.911373,-0.10734 -1.367188,-0.0775 -1.367188,0.0918 0,0.13985 0.240923,0.29828 0.535156,0.35157 0.294233,0.0533 -0.104055,0.0879 -0.886718,0.0762 l -1.423829,-0.0215 0.04102,-2.61719 c 0.0229,-1.43849 0.06085,-6.84046 0.08398,-12.00586 0.02472,-5.51683 0.157026,-10.27907 0.320313,-11.54102 0.157323,-1.2158 0.307137,-6.16888 0.345703,-11.41211 0.03749,-5.0954 0.170122,-9.72967 0.294922,-10.29882 0.377219,-1.72022 1.629056,-3.76554 3.287109,-5.37305 0.533183,-0.51693 0.96875,-1.02662 0.96875,-1.13086 0,-0.10432 -4.599525,-0.18945 -10.222656,-0.18945 z m 125.28711,2.61718 c -0.12306,0 -0.22266,0.10751 -0.22266,0.23828 0,0.13078 0.16524,0.23829 0.36914,0.23829 0.20387,0 0.30542,-0.10751 0.22461,-0.23829 -0.0808,-0.13077 -0.24803,-0.23828 -0.37109,-0.23828 z m -44.447266,0.01 c 0.196157,0 0.516737,0.10348 0.71289,0.23047 0.317027,0.20485 0.317027,0.23047 0,0.23047 -0.196157,0 -0.516737,-0.10348 -0.71289,-0.23047 -0.317027,-0.20485 -0.317027,-0.23047 0,-0.23047 z m -28.789063,0.25781 c 0.0826,0.003 0.153854,0.025 0.19336,0.0644 0.07899,0.079 -0.06184,0.13559 -0.3125,0.125 -0.277002,-0.0113 -0.334188,-0.0666 -0.144532,-0.14257 0.08581,-0.0344 0.181073,-0.0503 0.263672,-0.0469 z m 23.300781,0 c 0.0826,0.003 0.153854,0.025 0.19336,0.0644 0.07899,0.079 -0.06184,0.13559 -0.3125,0.125 -0.277002,-0.0113 -0.334188,-0.0666 -0.144531,-0.14257 0.08581,-0.0344 0.181072,-0.0503 0.263671,-0.0469 z m 14.998048,0 c 0.15083,0 0.30159,0.0151 0.41601,0.0449 0.22886,0.0597 0.0417,0.10938 -0.41601,0.10938 -0.4577,0 -0.64486,-0.0497 -0.41602,-0.10938 0.11443,-0.0299 0.26519,-0.0449 0.41602,-0.0449 z m 20.92383,0.23633 c -0.19393,0 -0.38804,0.0146 -0.53516,0.043 -0.29423,0.0567 -0.0533,0.10351 0.53516,0.10351 0.58846,0 0.82939,-0.0468 0.53515,-0.10351 -0.14711,-0.0284 -0.34123,-0.043 -0.53515,-0.043 z m 68.93164,0.47461 c 0.0826,0.003 0.15385,0.025 0.19336,0.0644 0.079,0.079 -0.0619,0.13558 -0.3125,0.125 -0.277,-0.0113 -0.33224,-0.0666 -0.14258,-0.14258 0.0858,-0.0344 0.17912,-0.0503 0.26172,-0.0469 z m 0.95117,0 c 0.0826,0.003 0.15385,0.025 0.19336,0.0644 0.079,0.079 -0.0619,0.13558 -0.3125,0.125 -0.277,-0.0113 -0.33224,-0.0666 -0.14258,-0.14258 0.0858,-0.0344 0.17912,-0.0503 0.26172,-0.0469 z M 191.5,140.8125 c -0.0826,-0.003 -0.17589,0.0107 -0.26172,0.0449 -0.18966,0.076 -0.13442,0.13319 0.14258,0.14453 0.25062,0.0113 0.3915,-0.046 0.3125,-0.125 -0.0395,-0.0395 -0.11076,-0.061 -0.19336,-0.0644 z m -81.00586,4.76562 c -5.1309,-0.0203 -9.77241,0.86319 -14.033202,2.66407 -2.868171,1.21221 -5.359601,2.85086 -7.632813,5.02148 -3.374532,3.22228 -5.312339,6.79082 -6.080078,11.19336 -0.439019,2.51751 -0.460283,3.82506 -0.06445,4.00977 0.215206,0.10053 0.222531,0.17504 0.02539,0.26953 -0.180812,0.0865 -0.205595,0.34692 -0.07422,0.77344 0.108812,0.35338 0.379544,1.87307 0.603515,3.37695 0.402017,2.69938 1.605286,6.65625 2.023438,6.65625 0.118412,0 0.214844,0.22102 0.214843,0.49023 0,0.31333 0.101319,0.42658 0.279297,0.31641 0.187049,-0.11565 0.227085,-0.0415 0.125,0.22461 -0.08349,0.2177 -0.05314,0.39453 0.06641,0.39453 0.205984,0 0.369028,0.25759 1.320312,2.08008 0.221254,0.42383 0.496408,0.71164 0.611328,0.64062 0.114936,-0.071 0.149256,0.0218 0.07813,0.20703 -0.08005,0.20863 0.443243,0.85951 1.371094,1.70704 4.472115,4.08487 10.007476,6.31321 17.666015,7.10937 1.71988,0.17877 7.79141,-0.0721 10.73828,-0.44336 4.08231,-0.5142 8.46881,-1.28523 8.7168,-1.5332 0.11822,-0.1183 0.13321,-1.44278 0.0332,-3.02735 -0.10828,-1.71809 -0.24762,-2.62992 -0.35742,-2.33984 -0.099,0.26154 -0.19248,-1.59133 -0.20703,-4.11719 -0.0159,-2.73059 0.0618,-4.53907 0.19141,-4.45898 0.2265,0.13984 0.45573,-2.53973 0.56054,-6.58008 0.0455,-1.7526 -0.0182,-2.34378 -0.25781,-2.43555 -0.17416,-0.0669 -3.12221,-0.12304 -6.55078,-0.12304 -4.53147,0 -6.31017,0.0796 -6.51758,0.28711 -0.39166,0.39167 -0.35832,0.66406 0.082,0.66406 0.20243,0 0.92521,0.36121 1.60547,0.80273 2.16237,1.40293 3.50417,3.17922 3.00195,3.97266 -0.30878,0.48782 -0.25344,2.01142 0.13672,3.78516 0.38022,1.7286 0.49236,8.55859 0.14063,8.55859 -0.11853,0 -0.16017,-0.21303 -0.0918,-0.47461 0.12941,-0.49482 -0.14673,-0.63044 -0.53711,-0.26367 -0.47336,0.44496 -3.91004,1.02881 -6.76367,1.14844 -2.27144,0.0952 -3.44957,0.0266 -4.99414,-0.28516 -1.11155,-0.22564 -2.34011,-0.46048 -2.73242,-0.52149 -1.27295,-0.19804 -3.334359,-1.16138 -4.875004,-2.27929 C 97.153786,182.2052 94.75,179.82104 94.75,179.51172 c 0,-0.10545 -0.178886,-0.12259 -0.396484,-0.0391 -0.246501,0.0945 -0.336991,0.0569 -0.240235,-0.0996 0.08538,-0.13833 0.0012,-0.38041 -0.1875,-0.53711 -0.625326,-0.51897 -1.631632,-2.47228 -2.207031,-4.28321 -0.624775,-1.96629 -1.070188,-7.10938 -0.589844,-6.8125 0.148347,0.0918 0.307241,-0.11656 0.382813,-0.5 0.07109,-0.36056 0.259255,-1.35115 0.417969,-2.20117 1.207494,-6.46662 6.178267,-11.21041 13.121092,-12.52539 2.3827,-0.45127 7.18924,-0.31132 9.31445,0.27149 1.87479,0.51416 4.47256,1.77668 5.90039,2.86718 0.63013,0.48125 1.18585,0.83369 1.23438,0.78516 0.0618,-0.0616 0.23633,-7.22683 0.23633,-9.70703 0,-0.059 -3.69201,-0.57623 -5.94336,-0.83203 -1.82311,-0.20716 -3.58853,-0.31353 -5.29883,-0.32032 z m 108.44531,0.91407 c -9.36514,-1.9e-4 -10.30136,0.0343 -10.67187,0.40625 -0.38306,0.38305 -0.37036,0.41546 0.23047,0.57617 0.8186,0.21883 2.80071,1.7289 3.48633,2.65625 0.29291,0.39621 0.50532,0.99515 0.4746,1.33398 -0.0306,0.33789 -0.1071,4.35858 -0.16992,8.93555 -0.11353,8.27308 0.0264,12.8282 0.38672,12.60547 0.10367,-0.0643 0.25353,0.12344 0.33203,0.41602 0.31983,1.19342 0.0627,13.24432 -0.27539,12.90624 -0.063,-0.0631 -0.62365,0.60406 -1.24609,1.48243 -0.62242,0.87836 -1.57234,2.02018 -2.10938,2.53711 -0.53704,0.51692 -0.97461,1.0247 -0.97461,1.1289 0,0.10432 5.355,0.19141 11.90039,0.19141 10.11251,0 12.15719,-0.059 13.61133,-0.38672 4.18625,-0.94307 7.92897,-3.07283 10.8711,-6.1875 1.72345,-1.8246 2.7446,-3.10123 1.44726,-1.80859 -0.55779,0.55578 -1.05798,1.01172 -1.11328,1.01172 -0.0553,0 0.59364,-0.92223 1.44336,-2.04883 2.97498,-3.94436 4.15578,-7.42524 4.34375,-12.8125 0.0639,-1.83081 0.20422,-3.38558 0.3125,-3.45508 0.25391,-0.1629 -0.15545,-3.09155 -0.64648,-4.62891 -1.50438,-4.70982 -5.75505,-9.85355 -9.96094,-12.05078 -2.70593,-1.41366 -5.63485,-2.26203 -8.86524,-2.56836 -1.39762,-0.13266 -7.16015,-0.24023 -12.80664,-0.24023 z m -18.96289,0.0352 c -3.3922,0.0183 -6.80383,0.10676 -7.08984,0.25 -0.51778,0.25928 -0.54256,0.66797 -0.041,0.66797 0.46022,0 3.03389,2.42159 3.67383,3.45703 0.43787,0.70851 0.45323,0.97097 0.24219,4.10938 -0.30395,4.5205 -0.083,15.34431 0.35937,17.60156 0.38499,1.96449 0.46783,6.69141 0.11719,6.69141 -0.12427,0 -0.63203,-0.49735 -1.1289,-1.10547 -0.49691,-0.60809 -1.33239,-1.57686 -1.85547,-2.1543 -0.52309,-0.57743 -0.95435,-1.12339 -0.95899,-1.21289 -0.0113,-0.21581 -0.61657,-1.31979 -0.80664,-1.4707 -0.0823,-0.0654 -0.91837,-1.18838 -1.85742,-2.4961 -0.93908,-1.30771 -2.53996,-3.45652 -3.55859,-4.77539 -1.01866,-1.31882 -2.17112,-2.81814 -2.56055,-3.33007 -0.77861,-1.02342 -4.0534,-5.16518 -4.68164,-5.92188 -0.21766,-0.2623 -1.31795,-1.59955 -2.44531,-2.97266 -1.12737,-1.3731 -2.50511,-3.03172 -3.0625,-3.68554 -1.40132,-1.64379 -2.26185,-2.81004 -2.28125,-3.0918 -0.0159,-0.22828 -10.31895,-0.58415 -11.25196,-0.38867 -0.44925,0.0941 -0.58583,0.74609 -0.15625,0.74609 0.14328,0 0.55805,0.21114 0.91992,0.46875 0.36189,0.25777 0.73392,0.39121 0.82813,0.29688 0.0942,-0.0941 0.13634,-0.0644 0.0937,0.0664 -0.13531,0.41553 0.68819,1.37455 1.00977,1.17578 0.20398,-0.12585 0.253,-0.0685 0.15624,0.1836 -0.0775,0.2022 0.13589,0.77197 0.47266,1.26758 0.34314,0.50498 0.58738,1.17195 0.55664,1.51562 -0.0302,0.33714 -0.10617,3.82298 -0.16797,7.7461 -0.0946,6.00223 -0.0471,7.48993 0.29102,9.39062 0.53024,2.98069 0.36335,14.11737 -0.24024,16.07422 -0.47702,1.54647 -1.83223,3.09001 -3.95312,4.5 -0.911,0.60559 -1.59564,1.20031 -1.52149,1.32031 0.0776,0.12548 3.56873,0.21875 8.22071,0.21875 9.18794,0 8.90573,0.0794 6.51758,-1.83984 -0.77956,-0.62642 -1.74325,-1.60094 -2.14063,-2.16602 -0.7203,-1.02421 -0.72351,-1.04037 -0.85742,-5.10937 -0.0739,-2.24489 -0.17498,-3.81326 -0.22461,-3.48633 -0.13965,0.91967 -0.36593,-5.86637 -0.25391,-7.60938 0.0737,-1.14667 0.14422,-1.3922 0.27344,-0.95117 0.19049,0.65004 0.1753,0.84948 0.43164,-5.82422 l 0.14649,-3.80468 0.58007,-0.082 c 0.36318,-0.0514 0.70172,0.0811 0.9004,0.35546 0.92626,1.27824 6.14357,7.56678 7.15039,8.61719 0.17427,0.1818 0.488,0.58791 0.69531,0.9043 0.29087,0.44394 0.4265,0.50401 0.59375,0.26367 0.14619,-0.21014 0.16877,-0.14213 0.0703,0.20898 -0.10447,0.37267 -0.0128,0.59297 0.32422,0.77344 0.25897,0.13871 0.54091,0.473 0.62695,0.74414 0.0893,0.2812 0.29327,0.44056 0.47461,0.3711 0.30766,-0.11793 1.3708,1.071 3.20703,3.58593 0.4577,0.62688 1.28732,1.70752 1.84571,2.40235 0.55836,0.69483 0.95878,1.35529 0.88867,1.46875 -0.0701,0.11338 -0.003,0.28442 0.15039,0.3789 0.18516,0.11452 0.2188,0.0597 0.10156,-0.16211 -0.0969,-0.18368 0.0401,-0.0696 0.30274,0.25391 0.26267,0.32315 0.42615,0.67169 0.36328,0.77344 -0.0629,0.10167 0.058,0.18555 0.26953,0.18555 0.21158,0 0.31909,0.10555 0.23828,0.23632 -0.0808,0.13077 -0.033,0.23828 0.10547,0.23828 0.13848,0 0.25195,0.16455 0.25195,0.36524 0,0.20069 0.32387,0.68242 0.7207,1.07031 0.39681,0.38793 0.66194,0.70508 0.58985,0.70508 -0.30913,0 2.51561,3.3184 4.53515,5.32812 2.35214,2.34067 5.07583,4.03508 6.26563,3.89649 0.60278,-0.0703 0.6081,-0.091 0.68359,-2.56836 0.0951,-3.11989 -0.19861,-7.73389 -0.43945,-6.89453 -0.22961,0.80035 -0.38262,-6.4864 -0.2168,-10.34375 0.0731,-1.70003 0.16659,-2.82302 0.20703,-2.4961 0.071,0.57283 0.0809,0.56844 0.25586,-0.11914 0.0999,-0.39231 0.19349,-4.91347 0.20899,-10.04882 l 0.0273,-9.3379 0.56836,-0.88671 c 0.31211,-0.48779 0.91081,-1.2073 1.33008,-1.59961 0.41927,-0.39232 1.08941,-1.12439 1.49023,-1.62696 0.59422,-0.74513 0.66749,-0.95676 0.39453,-1.13867 -0.21084,-0.1406 -3.58435,-0.19216 -6.97656,-0.17383 z m -58.39844,0.0234 c -11.49288,0.0537 -13.18657,0.10875 -13.24609,0.41992 -0.0392,0.20523 0.23113,0.4871 0.63672,0.66602 0.92967,0.41012 2.13955,1.67808 2.85742,2.99219 0.53868,0.98611 0.55603,1.12561 0.25781,2.02929 -0.42127,1.27646 -0.16285,20.76684 0.29493,22.25586 0.1912,0.62204 0.28944,2.73006 0.28906,6.17578 -4.8e-4,5.08717 -0.0154,5.24614 -0.53516,5.82422 -0.29382,0.32693 -1.03067,1.15626 -1.63672,1.84375 -0.60604,0.68746 -1.45951,1.47289 -1.89843,1.74414 -0.43894,0.27137 -0.79883,0.64559 -0.79883,0.83203 0,0.29065 2.16514,0.32988 15.1582,0.27735 l 15.15625,-0.0606 0.5293,-1.7832 c 0.29106,-0.98079 0.47831,-2.09239 0.41601,-2.46875 -0.15745,-0.95108 0.69184,-3.57016 1.67774,-5.17578 1.4612,-2.37971 1.19689,-2.40749 -2.06641,-0.2168 -3.06421,2.05693 -4.42405,2.59306 -7.25976,2.86133 -2.09461,0.19805 -7.06296,-0.0124 -8.71485,-0.3711 -0.44414,-0.096 -0.96404,0.005 -1.5039,0.29493 -1.43685,0.76739 -1.50391,0.47588 -1.50391,-6.50782 0,-5.13626 0.0534,-6.04543 0.35742,-6.16211 0.19616,-0.0752 0.35547,-0.39673 0.35547,-0.71289 0,-0.84347 0.78839,-1.03711 4.19141,-1.03711 2.16503,0 2.92496,-0.0738 2.80273,-0.27148 -0.17,-0.27515 1.33403,-0.1846 2.81445,0.16992 0.64183,0.15345 0.65475,0.13586 0.69141,-1 l 0.0371,-1.1582 0.14453,1.18945 c 0.11815,0.96745 0.18179,0.61889 0.33985,-1.875 0.1068,-1.68544 0.24901,-3.20913 0.3164,-3.38476 0.10001,-0.26079 -0.91322,-0.33077 -5.50976,-0.38282 l -5.63086,-0.0645 -0.0879,-4.75391 c -0.048,-2.61539 -0.0309,-4.94302 0.0371,-5.17187 0.11081,-0.37304 0.4996,-0.41634 3.73437,-0.41211 5.67674,0.008 8.40229,0.61533 9.91016,2.21094 0.32693,0.34582 0.67341,0.63054 0.77148,0.63281 0.21808,0.004 0.22836,-2.18607 0.0234,-5.27734 -0.0842,-1.27072 -0.24413,-2.25438 -0.35547,-2.18555 -0.28543,0.1765 -0.25565,0.0387 0.18164,-0.83789 0.23501,-0.47104 0.29846,-0.85384 0.16406,-0.98828 -0.13062,-0.13077 -5.56262,-0.19644 -13.39844,-0.16016 z m -76.585932,0.0606 c -12.110514,0 -12.918997,0.0264 -12.994141,0.41601 -0.04501,0.23358 0.06226,0.41797 0.246094,0.41797 0.375496,0 1.660529,1.2906 2.060547,2.07031 0.17348,0.33827 0.313751,3.00927 0.394531,7.49024 0.134097,7.43853 0.21351,9.0567 0.460937,9.45703 0.08602,0.13909 0.18965,4.78934 0.230469,10.33399 0.05703,7.75173 0.0077,10.05464 -0.210937,9.9707 -0.156473,-0.0601 -0.636274,0.43581 -1.066407,1.09961 -0.430136,0.6638 -1.360223,1.64308 -2.068359,2.17773 -2.223349,1.67868 -2.703915,1.62305 14.037109,1.62305 h 14.78711 l 0.625,-2.07813 c 0.344541,-1.14425 0.950157,-3.14818 1.34375,-4.45117 0.393588,-1.30295 0.666658,-2.41734 0.607421,-2.47656 -0.05922,-0.0593 -0.107421,0.0356 -0.107421,0.21094 0,0.17423 -0.0668,0.2496 -0.148438,0.16797 -0.08164,-0.0816 0.238953,-0.68798 0.712891,-1.34766 1.608612,-2.23907 1.165877,-2.21549 -2.351563,0.12695 -1.487644,0.99069 -3.256179,2.00972 -3.929687,2.26563 -1.256039,0.47728 -5.254874,0.97521 -6.529297,0.8125 -0.392311,-0.0499 -1.622827,-0.16024 -2.734375,-0.24414 -1.111548,-0.0839 -2.436041,-0.20245 -2.94336,-0.26368 -0.640312,-0.0771 -1.052535,0.009 -1.347656,0.2754 -0.233839,0.21165 -0.6735,0.34777 -0.978515,0.30468 l -0.554688,-0.0781 0.0078,-4.97656 c 0.006,-3.68954 0.08246,-5.0008 0.296875,-5.07227 0.199105,-0.0665 0.279355,-0.69999 0.257812,-2.03711 -0.02381,-1.48278 -0.07327,-1.74486 -0.207031,-1.10937 l -0.173828,0.83203 -0.03125,-0.75586 c -0.05745,-1.38694 0.288834,-1.50489 4.443359,-1.49805 3.256339,0.004 3.930099,0.0768 5.332031,0.55469 0.882701,0.30085 1.605808,0.53728 1.607422,0.52734 0.0017,-0.0113 0.06061,-1.40739 0.128906,-3.10742 0.0683,-1.69999 0.165762,-3.44205 0.21875,-3.86914 l 0.09766,-0.77539 -5.574219,0.0625 -5.572266,0.0625 v -5.03711 c 3.8e-5,-3.41839 0.08367,-5.09111 0.261719,-5.20117 0.546936,-0.33789 8.129693,-0.17949 9.544922,0.19922 1.43661,0.38456 3.030609,1.22066 3.914063,2.05468 0.288755,0.27251 0.609342,0.49617 0.71289,0.4961 0.103559,-8e-5 0.170623,-2.16641 0.148438,-4.81446 l -0.04102,-4.8164 z m 161.503902,6.90625 c 1.89598,0.0114 3.90362,0.15595 5.08789,0.42773 2.95554,0.67813 5.2053,1.86381 7.01758,3.69922 1.93614,1.96082 2.67013,3.32963 3.60938,6.72852 0.58088,2.10198 0.76344,3.29217 0.83789,5.47851 0.0666,1.957 0.0143,2.79492 -0.17188,2.79492 -0.14619,0 -0.1986,0.10833 -0.11718,0.24024 0.0814,0.1319 -0.0106,0.39705 -0.20313,0.58984 -0.19276,0.19276 -0.54241,0.86083 -0.77734,1.48438 -2.42347,6.43264 -8.45214,10.01467 -16.89649,10.04101 -2.03714,0.008 -2.74033,0.0916 -3.01367,0.36524 -0.54624,0.54621 -1.32514,0.4671 -1.17187,-0.11914 0.0695,-0.26608 0.006,-0.47657 -0.14258,-0.47657 -0.14601,0 -0.26563,-0.11362 -0.26563,-0.25195 0,-0.13871 0.13345,-0.1762 0.29688,-0.084 0.23777,0.13417 0.23777,0.10353 0,-0.15235 -0.22367,-0.24113 -0.29688,-2.03755 -0.29688,-7.26562 0,-5.34611 0.0682,-6.97076 0.29688,-7.04688 0.22647,-0.0752 0.32737,-1.96049 0.41797,-7.92382 l 0.11718,-7.82618 0.95118,-0.33398 c 0.74239,-0.26017 2.52785,-0.3805 4.42382,-0.36914 z m -79.69531,16.30469 c 0.0826,0.003 0.15386,0.0249 0.19336,0.0644 0.079,0.079 -0.0618,0.13558 -0.3125,0.125 -0.277,-0.0113 -0.33419,-0.0686 -0.14453,-0.14453 h 0.002 c 0.0858,-0.0344 0.17912,-0.0484 0.26172,-0.0449 z m -74.107421,0.5625 c 0.02559,-0.028 0.180702,-0.003 0.484375,0.0547 0.357128,0.0684 0.648438,0.21871 0.648438,0.33399 0,0.30501 -0.319292,0.25868 -0.841797,-0.12305 -0.213736,-0.15628 -0.316607,-0.23766 -0.291016,-0.26562 z m 130.068361,2.58789 c -0.025,0.025 -0.0412,0.10757 -0.0469,0.24609 -0.0102,0.25058 0.0441,0.39138 0.12305,0.3125 0.079,-0.079 0.0881,-0.28356 0.0195,-0.45508 -0.0379,-0.0949 -0.0707,-0.12851 -0.0957,-0.10351 z m 89.80859,1.33789 c 0.13077,0 0.23828,0.10555 0.23828,0.23633 0,0.13077 -0.10751,0.23828 -0.23828,0.23828 -0.13077,0 -0.23828,-0.10751 -0.23828,-0.23828 0,-0.13078 0.10751,-0.23633 0.23828,-0.23633 z m 1.01758,1.51562 c 0.025,-0.025 0.0578,0.009 0.0957,0.10352 0.0687,0.17159 0.0596,0.3762 -0.0195,0.45508 -0.079,0.079 -0.13532,-0.0619 -0.125,-0.3125 0.006,-0.13852 0.0238,-0.22111 0.0488,-0.2461 z m -1.85547,0.29102 c 0.0676,0.0257 0.0881,0.0852 0.0586,0.17383 -0.11384,0.34204 -0.88477,0.52066 -0.88477,0.20507 v -0.002 c 0,-0.1251 0.2193,-0.28517 0.48828,-0.35547 0.15557,-0.0406 0.27031,-0.0472 0.33789,-0.0215 z m -9.60937,0.57031 c 0.13848,0 0.18436,0.10751 0.10351,0.23828 -0.0808,0.13077 -0.19428,0.23633 -0.25195,0.23633 -0.0577,0 -0.10352,-0.10556 -0.10352,-0.23633 0,-0.13077 0.11347,-0.23828 0.25196,-0.23828 z m 11.05468,0 c 0.20387,0 0.30542,0.10751 0.22461,0.23828 -0.0808,0.13077 -0.24803,0.23633 -0.37109,0.23633 -0.12306,0 -0.22266,-0.10556 -0.22266,-0.23633 0,-0.13077 0.16531,-0.23828 0.36914,-0.23828 z m -6.49804,0.71289 c 0.45648,0 0.99954,0.62345 0.70312,0.80664 -0.11966,0.0741 -0.40869,-0.0774 -0.64258,-0.33594 -0.35807,-0.39567 -0.36736,-0.4707 -0.0605,-0.4707 z m 3.88476,0.11914 c 0.0644,0.0145 0.10352,0.0538 0.10352,0.11328 0,0.3224 -0.42208,0.52262 -0.57617,0.27344 v -0.002 c -0.0737,-0.11906 0.0255,-0.27673 0.2207,-0.35157 0.0977,-0.0374 0.18756,-0.0477 0.25195,-0.0332 z m -2.03906,0.63281 c 0.0482,-0.008 0.10346,-0.008 0.16211,0.004 0.5965,0.11565 0.67712,0.67187 0.0977,0.67187 -0.29205,0 -0.49414,-0.15427 -0.49414,-0.375 0,-0.16611 0.0899,-0.27557 0.23437,-0.30078 z m 3.55469,0.67578 c 0.13848,0 0.25195,0.10751 0.25195,0.23829 0,0.13077 -0.0478,0.23632 -0.10547,0.23632 -0.0577,0 -0.16919,-0.10555 -0.25,-0.23632 -0.0808,-0.13078 -0.035,-0.23829 0.10352,-0.23829 z m -4.74024,1.1875 c 0.27697,0 0.4363,0.10751 0.35547,0.23829 -0.0808,0.13077 -0.24015,0.23828 -0.35547,0.23828 -0.11535,0 -0.27661,-0.10751 -0.35742,-0.23828 -0.0808,-0.13078 0.0805,-0.23829 0.35742,-0.23829 z m 1.52149,0.25391 c 0.13834,-0.006 0.25388,0.0156 0.3125,0.0742 0.0811,0.0813 -0.0631,0.14844 -0.32031,0.14844 -0.2572,0 -0.59698,0.1283 -0.75391,0.28515 -0.21679,0.21695 -0.28516,0.21783 -0.28516,0.004 0,-0.23244 0.63186,-0.49434 1.04688,-0.51172 z m 1.5957,0.69727 c 0.53041,0 0.59059,0.53685 0.10547,0.93945 -0.18837,0.15647 -0.28252,0.4384 -0.21094,0.625 0.1533,0.39942 0.11168,0.40062 -0.51562,0.0254 v 0.002 c -0.26155,-0.15571 -0.51156,-0.30072 -0.55469,-0.32226 -0.25406,-0.12586 0.80527,-1.26953 1.17578,-1.26953 z m -4.46484,0.33008 c 0.0643,0.001 0.0726,0.0926 0.0117,0.25195 -0.15806,0.41189 -0.32813,0.48861 -0.32813,0.14648 0,-0.12321 0.10512,-0.28939 0.23438,-0.36914 0.0337,-0.0208 0.0606,-0.0298 0.082,-0.0293 z m -203.302737,2.3789 c 0.02501,-0.025 0.05971,0.009 0.09766,0.10352 0.06867,0.17159 0.05961,0.3762 -0.01953,0.45508 -0.07899,0.079 -0.135318,-0.0615 -0.125,-0.3125 0.0057,-0.13852 0.02186,-0.22111 0.04687,-0.2461 z m -71.779297,0.6211 c 0.216197,0 0.308048,0.92563 0.121094,1.2207 -0.139363,0.21997 -0.206509,0.0764 -0.208984,-0.44922 -0.0019,-0.42501 0.03776,-0.77148 0.08789,-0.77148 z m 284.433594,3.38281 c 0.10532,-0.0472 0.0524,0.28703 -0.1582,0.77734 -0.13474,0.3137 -0.20822,0.35423 -0.2168,0.11914 -0.007,-0.19616 0.09,-0.51673 0.2168,-0.71289 0.0702,-0.10866 0.12309,-0.16787 0.1582,-0.18359 z m -25.12305,6.39648 c 0.10774,0 0.21515,0.0158 0.29688,0.0488 0.16346,0.0658 0.0302,0.11914 -0.29688,0.11914 -0.32693,0 -0.46032,-0.0534 -0.29687,-0.11914 0.0817,-0.0331 0.18914,-0.0488 0.29687,-0.0488 z m -250.1582,6.17774 c 0.215474,5.9e-4 0.422141,0.0147 0.568359,0.043 0.292438,0.0563 -0.0044,0.10149 -0.658203,0.0996 -0.653852,-0.002 -0.892666,-0.0487 -0.53125,-0.10351 0.180709,-0.0274 0.40562,-0.0396 0.621094,-0.0391 z"
       style="opacity:1;fill:#ffffff;fill-opacity:1;fill-rule:evenodd;stroke:#1d0083;stroke-width:0;stroke-linecap:square;stroke-linejoin:round;stroke-miterlimit:4;stroke-dasharray:none;stroke-opacity:1;paint-order:normal" />
  </g>
</svg>
