<?xml version="1.0" encoding="UTF-8" standalone="no"?>
<svg
   xmlns:dc="http://purl.org/dc/elements/1.1/"
   xmlns:cc="http://creativecommons.org/ns#"
   xmlns:rdf="http://www.w3.org/1999/02/22-rdf-syntax-ns#"
   xmlns:svg="http://www.w3.org/2000/svg"
   xmlns="http://www.w3.org/2000/svg"
   id="svg8"
   version="1.1"
   viewBox="0 0 79.374998 79.375002"
   height="300"
   width="300">
  <defs
     id="defs2" />
  <metadata
     id="metadata5">
    <rdf:RDF>
      <cc:Work
         rdf:about="">
        <dc:format>image/svg+xml</dc:format>
        <dc:type
           rdf:resource="http://purl.org/dc/dcmitype/StillImage" />
        <dc:title></dc:title>
      </cc:Work>
    </rdf:RDF>
  </metadata>
  <g
     transform="translate(0,-217.62499)"
     id="layer1">
    <path
       id="path847"
       transform="matrix(0.26458333,0,0,0.26458333,0,217.62499)"
       d="M 150 5.5019531 C 82.325934 6.4181862 26.083898 76.197689 60 147.97266 C 68.458847 165.87371 150 296.46484 150 296.46484 C 150 296.46484 215.66124 196.35501 240 150.80078 C 279.24737 77.342488 220.50189 4.5474334 150 5.5019531 z M 150 68.636719 A 34.999998 34.999998 0 0 1 185 103.63672 A 34.999998 34.999998 0 0 1 150 138.63672 A 34.999998 34.999998 0 0 1 115 103.63672 A 34.999998 34.999998 0 0 1 150 68.636719 z "
       style="fill:#ffffff;fill-opacity:1;stroke:#000000;stroke-width:0;stroke-linecap:butt;stroke-linejoin:miter;stroke-miterlimit:4;stroke-dasharray:none;stroke-opacity:1" />
  </g>
</svg>
