<?xml version="1.0" encoding="UTF-8" standalone="no"?>
<svg
   xmlns:dc="http://purl.org/dc/elements/1.1/"
   xmlns:cc="http://creativecommons.org/ns#"
   xmlns:rdf="http://www.w3.org/1999/02/22-rdf-syntax-ns#"
   xmlns:svg="http://www.w3.org/2000/svg"
   xmlns="http://www.w3.org/2000/svg"
   xmlns:sodipodi="http://sodipodi.sourceforge.net/DTD/sodipodi-0.dtd"
   xmlns:inkscape="http://www.inkscape.org/namespaces/inkscape"
   id="svg8"
   version="1.1"
   viewBox="0 0 79.374998 79.375002"
   height="300"
   width="300"
   sodipodi:docname="microcenter.svg"
   inkscape:version="0.92.4 (5da689c313, 2019-01-14)">
  <sodipodi:namedview
     pagecolor="#ffffff"
     bordercolor="#666666"
     borderopacity="1"
     objecttolerance="10"
     gridtolerance="10"
     guidetolerance="10"
     inkscape:pageopacity="0"
     inkscape:pageshadow="2"
     inkscape:window-width="1264"
     inkscape:window-height="942"
     id="namedview7"
     showgrid="false"
     inkscape:zoom="2.2250293"
     inkscape:cx="222.5389"
     inkscape:cy="173.83252"
     inkscape:window-x="645"
     inkscape:window-y="40"
     inkscape:window-maximized="0"
     inkscape:current-layer="svg8" />
  <defs
     id="defs2" />
  <metadata
     id="metadata5">
    <rdf:RDF>
      <cc:Work
         rdf:about="">
        <dc:format>image/svg+xml</dc:format>
        <dc:type
           rdf:resource="http://purl.org/dc/dcmitype/StillImage" />
        <dc:title />
      </cc:Work>
    </rdf:RDF>
  </metadata>
  <g
     transform="matrix(0.78273282,0,0,0.78273282,8.4814514,-162.07551)"
     id="layer1"
     style="opacity:1">
    <path
       id="path823"
       d="m 9.3999525,258.97124 c 5.7883675,-4.9e-4 14.8943665,0.0527 14.8943665,0.0527 v 3.32776 l -13.793235,7e-5 c -6.734937,-0.13589 -6.7245265,8.77735 0.0063,8.75578 l 1.848438,0.11016 v 3.09931 l -3.0618411,-0.0375 C -2.1222177,274.16419 -1.545139,258.75955 9.3999525,258.97124 Z m 4.7318375,5.87288 h 10.261195 v 3.15729 l -6.367379,-0.0269 -0.04585,3.08548 6.413248,0.1084 v 3.14752 h -10.2612 z m 12.629163,-5.94574 8.237671,0.1169 c 2.366814,-0.0195 4.288868,1.89052 4.270876,4.17487 l 0.150727,11.12583 c 0,-2e-5 -3.976718,0 -3.976718,0 l 0.02686,-10.48934 c 0.02889,-0.89114 -0.758622,-1.40301 -1.427884,-1.46696 l -3.53224,-0.0809 v 12.03718 H 26.76096 Z m 14.821007,11.63548 -0.0212,-5.68974 h 3.749283 v 4.41458 c 0,1.00217 0.434088,1.80133 1.660429,1.80133 h 6.440238 l -8.4e-5,-6.21591 h 10.843166 v 3.15729 h -7.103906 c 0,0 -4e-6,3.15729 0,3.15729 h 7.103906 v 3.15729 l -18.654913,-0.0604 c -2.578287,-0.008 -3.936266,-1.34112 -4.016919,-3.72171 z m 31.892655,-0.79237 c 0,-1.13459 -0.450947,-1.74008 -1.914669,-1.74008 h -5.332855 v -3.15729 l 6.990219,-0.0611 c 1.690602,-0.0717 1.625483,-2.46251 -0.04181,-2.5042 -0.173581,0.0328 -19.774905,0 -19.774905,0 v -3.35462 l 19.855925,0.0849 c 6.738363,-0.2084 5.952332,6.07748 2.918342,7.66184 0.888581,0.57991 1.075886,0.73476 1.102742,1.95686 v 5.68815 h -1.87464 -1.874641 z M 41.692309,262.14726 41.560755,258.9242 H 51.62462 v 3.35462 z m 24.497061,-5.58104 c -10.975765,0.14569 -11.637954,-15.86056 0.213746,-15.96009 11.454965,-0.0962 11.613784,15.8031 -0.213746,15.96009 z M 66.346,244.14237 c -5.29483,0.063 -5.317101,8.69306 -0.148676,8.84106 5.695904,0.1631 5.393296,-8.90345 0.148676,-8.84106 z M 5.4492385,240.96722 18.09511,240.94032 c 2.33501,-0.005 4.305887,1.33233 4.324445,4.08591 0.02708,4.01858 1.24e-4,6.50138 1.24e-4,11.13496 h -1.874642 -1.874642 c 0.001,-3.243 1.24e-4,-9.43285 1.24e-4,-9.43285 -0.0047,-1.60403 -0.7401,-2.58655 -2.872974,-2.59091 l -6.5990229,-0.0135 V 256.1611 H 5.4492385 Z m 6.7092435,5.70756 H 15.8091 l 0.1058,9.48691 h -3.756426 z m 13.221157,-5.70768 h 3.749282 v 15.19447 h -3.749282 z m 6.022151,7.6959 c -0.05638,-4.11408 3.684171,-7.62664 6.39523,-7.63521 l 7.118357,-0.0225 c 8.892216,-0.0673 9.247948,-0.0289 10.464452,1.12952 1.647025,1.56838 1.480114,4.26541 -0.36369,5.8767 l -0.722227,0.63115 c 0.933997,0.45715 1.120742,1.02508 1.117971,1.81642 l -0.03798,5.7025 c 0,-2e-5 -3.749283,0 -3.749283,0 l -0.03798,-4.63891 c -0.0067,-0.81356 -0.365451,-1.47834 -1.622549,-1.47834 h -5.652003 l -0.0014,-3.25596 c 2.247774,-0.0228 4.671901,-0.0668 6.885654,-0.0959 1.904175,-0.0242 1.821576,-2.44758 -0.07469,-2.49192 l -10.531216,-1.2e-4 c -6.418659,-0.008 -6.158361,8.80385 -0.206875,8.80385 h 2.361121 v 3.15729 l -2.713297,-0.004 c -5.107425,-0.008 -8.567497,-2.95823 -8.629667,-7.49464 z"
       style="fill:#ffffff;fill-opacity:1;stroke-width:0.19733068"
       inkscape:connector-curvature="0"
       sodipodi:nodetypes="ccccccccccccccccccccccccccccccccssccccccccsccccccccccccccscccccccssssssccccssccccccccccccccccccsccccsscccccsccssccc" />
  </g>
</svg>
