<?xml version="1.0" encoding="UTF-8" standalone="no"?>
<!-- Created with Inkscape (http://www.inkscape.org/) -->

<svg
   xmlns:dc="http://purl.org/dc/elements/1.1/"
   xmlns:cc="http://creativecommons.org/ns#"
   xmlns:rdf="http://www.w3.org/1999/02/22-rdf-syntax-ns#"
   xmlns:svg="http://www.w3.org/2000/svg"
   xmlns="http://www.w3.org/2000/svg"
   xmlns:sodipodi="http://sodipodi.sourceforge.net/DTD/sodipodi-0.dtd"
   xmlns:inkscape="http://www.inkscape.org/namespaces/inkscape"
   width="300"
   height="300"
   viewBox="0 0 79.374998 79.375002"
   version="1.1"
   id="svg8"
   inkscape:version="0.92.4 (5da689c313, 2019-01-14)"
   sodipodi:docname="minerlink.svg">
  <defs
     id="defs2" />
  <sodipodi:namedview
     id="base"
     pagecolor="#ffffff"
     bordercolor="#666666"
     borderopacity="1.0"
     inkscape:pageopacity="0.0"
     inkscape:pageshadow="2"
     inkscape:zoom="1.979899"
     inkscape:cx="135.53618"
     inkscape:cy="126.7297"
     inkscape:document-units="px"
     inkscape:current-layer="layer1"
     showgrid="false"
     units="px"
     borderlayer="true"
     inkscape:showpageshadow="false"
     inkscape:window-width="1920"
     inkscape:window-height="1057"
     inkscape:window-x="-8"
     inkscape:window-y="195"
     inkscape:window-maximized="1" />
  <metadata
     id="metadata5">
    <rdf:RDF>
      <cc:Work
         rdf:about="">
        <dc:format>image/svg+xml</dc:format>
        <dc:type
           rdf:resource="http://purl.org/dc/dcmitype/StillImage" />
        <dc:title></dc:title>
      </cc:Work>
    </rdf:RDF>
  </metadata>
  <g
     inkscape:label="Layer 1"
     inkscape:groupmode="layer"
     id="layer1"
     transform="translate(0,-217.62499)">
    <path
       style="fill:#ffffff;stroke-width:0.04199519;fill-opacity:1"
       d="m 37.145552,246.51251 c 0.043,-3.70966 0.06813,-4.85201 0.10726,-4.87619 0.02811,-0.0174 0.04472,-0.0767 0.03693,-0.13183 -0.01229,-0.0869 -0.04203,-0.10302 -0.22415,-0.12123 l -0.209976,-0.021 -0.251971,-1.00788 -0.251971,-1.00789 -0.587933,-0.0344 c -0.675458,-0.0395 -3.119507,0.0241 -4.598472,0.11958 -3.344531,0.21598 -8.118963,0.72054 -12.094144,1.2781 -0.311554,0.0437 -0.571605,0.0743 -0.577891,0.068 -0.02823,-0.0282 1.467685,-0.76213 2.131243,-1.0456 4.406445,-1.88243 9.994577,-3.16748 15.559216,-3.57801 0.508142,-0.0375 0.949906,-0.0766 0.981705,-0.087 0.04397,-0.0143 0.05116,-0.0689 0.03005,-0.22808 l -0.02776,-0.20925 h 2.354624 2.354624 l -0.02776,0.20925 c -0.02112,0.15917 -0.01392,0.21376 0.03005,0.22808 0.0318,0.0103 0.473563,0.0495 0.981705,0.087 5.659872,0.41756 11.329571,1.73701 15.79019,3.6747 0.500012,0.2172 1.922049,0.92713 1.900429,0.94875 -0.0062,0.006 -0.341072,-0.0346 -0.744163,-0.0907 -3.96309,-0.5516 -8.618411,-1.0415 -11.928031,-1.25523 -1.478567,-0.0955 -3.923115,-0.15907 -4.597104,-0.11958 l -0.586564,0.0344 -0.252223,1.01652 -0.252223,1.01651 -0.211093,0.0124 c -0.186299,0.0109 -0.212756,0.0241 -0.225266,0.1126 -0.0078,0.0551 0.0086,0.11429 0.03635,0.13146 0.0524,0.0324 0.06305,0.66245 0.163999,9.70017 0.06955,11.09252 0.327304,20.26728 0.338767,30.23653 H 39.52232 36.750638 c 0.08909,-11.76777 0.275626,-24.77494 0.394914,-35.06018 z"
       id="path823"
       inkscape:connector-curvature="0"
       sodipodi:nodetypes="ccccccccccccccccccccccccccccccccccccc" />
  </g>
</svg>
