<?xml version="1.0" encoding="UTF-8" standalone="no"?>
<svg
   xmlns:dc="http://purl.org/dc/elements/1.1/"
   xmlns:cc="http://creativecommons.org/ns#"
   xmlns:rdf="http://www.w3.org/1999/02/22-rdf-syntax-ns#"
   xmlns:svg="http://www.w3.org/2000/svg"
   xmlns="http://www.w3.org/2000/svg"
   xmlns:sodipodi="http://sodipodi.sourceforge.net/DTD/sodipodi-0.dtd"
   xmlns:inkscape="http://www.inkscape.org/namespaces/inkscape"
   id="svg8"
   version="1.1"
   viewBox="0 0 79.374998 79.375002"
   height="300"
   width="300"
   sodipodi:docname="nexus.svg"
   inkscape:version="0.92.4 (5da689c313, 2019-01-14)">
  <sodipodi:namedview
     pagecolor="#ffffff"
     bordercolor="#666666"
     borderopacity="1"
     objecttolerance="10"
     gridtolerance="10"
     guidetolerance="10"
     inkscape:pageopacity="0"
     inkscape:pageshadow="2"
     inkscape:window-width="976"
     inkscape:window-height="816"
     id="namedview7"
     showgrid="false"
     borderlayer="true"
     inkscape:showpageshadow="false"
     inkscape:zoom="1.93225"
     inkscape:cx="139.36796"
     inkscape:cy="146.77756"
     inkscape:window-x="935"
     inkscape:window-y="122"
     inkscape:window-maximized="0"
     inkscape:current-layer="svg8" />
  <defs
     id="defs2" />
  <metadata
     id="metadata5">
    <rdf:RDF>
      <cc:Work
         rdf:about="">
        <dc:format>image/svg+xml</dc:format>
        <dc:type
           rdf:resource="http://purl.org/dc/dcmitype/StillImage" />
        <dc:title></dc:title>
      </cc:Work>
    </rdf:RDF>
  </metadata>
  <g
     transform="matrix(0.56294549,0,0,0.56294549,17.239778,-104.82562)"
     id="layer1">
    <path
       id="ellipse871"
       transform="matrix(0.26458333,0,0,0.26458333,0,217.62499)"
       d="m 217.23438,6.1074219 c -3.89578,-0.049389 -7.07421,0.9545282 -10.65821,1.9589843 -5.34971,1.4993386 -17.46023,8.5209878 -26.26367,12.6269528 -0.23908,0.111511 -0.50364,0.216555 -0.78711,0.316407 -9.61232,-2.234482 -19.44664,-3.39015 -29.31836,-3.445313 -17.12073,0.02394 -34.07318,3.35804 -49.91211,9.816406 -2.446669,-0.157192 -4.780701,-0.535471 -6.998045,-1.044921 -10.97382,-2.521361 -21.065466,-5.668686 -29.292969,-6.060547 -7.83205,-0.37304 -13.484712,1.412125 -20.203125,6.564453 -13.132005,10.070891 -30.48328,35.14749 -35.3554685,50.003906 -2.7078803,8.256983 -1.1032245,12.953087 0.5039063,18.6875 1.4711122,5.24898 8.2435082,16.98972 12.3769532,25.74609 -1.99194,9.00194 -3.023031,18.18749 -3.076172,27.4043 0.04967,14.58315 2.547492,29.05589 7.390625,42.82227 0.883886,5.50459 -0.08987,10.01382 -1.181641,14.76562 -2.52136,10.97382 -4.910873,22.32914 -5.302734,30.55664 -0.373039,7.83205 1.412126,13.48471 6.564453,20.20313 10.070891,13.132 35.147494,30.48328 50.003906,35.35547 8.256983,2.70788 12.953088,1.10322 18.6875,-0.50391 5.349695,-1.49934 17.460241,-8.52099 26.263671,-12.62695 1.5323,-0.71469 4.05197,-1.1803 6.56445,-1.48633 7.58134,1.34098 15.26627,2.02001 22.9668,2.0293 14.56209,-0.0472 29.0159,-2.48906 42.77539,-7.22657 5.2466,-0.72941 9.6015,0.22171 14.1875,1.27539 10.97382,2.52136 22.33109,4.91088 30.5586,5.30274 7.83205,0.37304 13.48471,-1.41213 20.20312,-6.56446 13.13201,-10.07089 30.48328,-35.14749 35.35547,-50.0039 2.70788,-8.25698 1.10127,-12.95309 -0.50586,-18.6875 -1.49934,-5.3497 -8.52099,-17.46025 -12.62695,-26.26367 -0.32352,-0.69364 -0.59378,-1.59699 -0.82422,-2.60352 1.83807,-8.66358 2.78824,-17.48988 2.83594,-26.34375 -0.0468,-14.43768 -2.49308,-28.76855 -7.24024,-42.41406 -0.64451,-5.05126 -0.11979,-9.651339 0.8457,-13.853518 2.52134,-10.973815 5.66869,-21.067419 6.06055,-29.294921 0.37303,-7.832051 -1.41409,-13.484713 -6.56641,-20.203125 C 265.19479,29.784009 240.1201,12.432736 225.26367,7.5605469 222.1673,6.5450918 219.57179,6.1370554 217.23438,6.1074219 Z m 0.57226,14.1054691 c 17.52062,7.661113 50.14614,28.960283 58.3457,45.423828 1.09654,2.499282 -5.8611,25.799329 -24.75,40.404301 5.9072,13.58838 8.98081,28.22558 9.03516,43.02734 -0.0455,8.86795 -1.17486,17.69758 -3.36328,26.29492 2.45622,2.17939 4.5986,4.32048 6.44922,6.43555 8.97749,10.26039 11.58688,19.3299 15.74218,26.80664 1.58683,3.79899 0.5586,6.53125 0.5586,6.53125 -5.80637,16.58321 -16.23317,31.43797 -30.38086,44.62305 -4.34695,3.78123 -12.14221,14.34778 -15.2721,13.30146 -17.30937,-5.78652 -29.47858,-11.34734 -39.89977,-23.75264 -13.88535,6.07115 -28.88254,9.22884 -44.05273,9.27539 -9.10192,-0.0457 -18.1631,-1.21147 -26.97656,-3.4707 -2.34026,2.68136 -4.63507,4.98268 -6.90039,6.96484 -10.25986,8.97755 -19.329778,11.58679 -26.806644,15.74219 -2.662574,1.96564 -6.53125,0.5586 -6.53125,0.5586 -26.84649,-11.27078 -46.84404,-28.16049 -57.709193,-44.47872 -2.277428,-3.42044 7.972872,-28.37866 23.906449,-41.38457 C 43.180764,178.80933 40.049365,164.02309 40,149.06836 c 0.04244,-8.58968 1.101804,-17.14458 3.15625,-25.48828 -2.09378,-1.91049 -4.026104,-3.72886 -5.580078,-5.6543 C 29.223647,107.57662 24.828671,98.595991 21.833984,91.119141 21.029067,88.81371 21.144678,87.510452 21.275391,84.587891 32.579836,57.888996 44.54837,45.66018 65.517875,27.882317 c 1.436029,-1.217459 34.709685,13.288192 40.319965,21.096195 13.97539,-6.166913 29.08935,-9.376877 44.38086,-9.425782 9.32201,0.04578 18.60051,1.266464 27.61328,3.632813 2.24876,-2.552723 4.45671,-4.764335 6.63672,-6.671875 10.25986,-8.977512 19.22108,-11.78871 26.80664,-15.742188 1.92864,-1.005178 4.20101,-1.337545 6.5313,-0.558589 z m -2.64453,7.550781 c -9.78598,2.992029 -31.74962,8.636993 -57.57813,64.144531 l -13.13281,-8.080078 14.64844,52.527345 46.4668,-19.19336 -14.64844,-7.57617 C 207.60091,83.264699 228.27544,53.789351 256.57812,56.048828 244.09489,42.65422 230.33892,33.077612 215.16211,27.763672 Z M 66.072266,34.085938 C 64.227207,48.531481 65.507562,60.341271 73.189453,70.759766 80.650818,63.548594 89.102613,57.423952 98.292969,52.568359 87.095679,40.644936 70.579518,35.356693 66.072266,34.085938 Z M 57.111328,45.816406 C 43.71672,58.299657 34.140112,72.055616 28.826172,87.232422 c 0.261475,5.607068 8.636992,31.749628 64.144531,57.578128 l -8.080078,13.13281 52.527345,-14.64844 -19.19336,-46.466795 -7.57617,14.648435 C 84.327203,94.79362 54.851851,74.119096 57.111328,45.816406 Z M 229.9082,73.472656 c 7.15433,7.47905 13.20899,15.925196 17.98438,25.087891 13.02212,-11.066064 18.75554,-28.67943 20.14844,-33.572266 -14.39914,-3.014065 -28.14838,0.556113 -38.13282,8.484375 z m -13.69922,68.308594 -52.52734,14.64648 19.19336,46.4668 7.57617,-14.64648 c 26.32124,16.68294 54.91271,35.84223 53.41084,67.17538 13.39461,-12.48325 23.09749,-27.75444 28.41143,-42.93124 -9.36862,-16.85707 -8.63699,-31.75158 -64.14453,-57.58008 z m -74.49804,20.45508 -46.466799,19.19336 14.646479,7.57617 c -16.682933,26.32123 -40.007158,55.16524 -68.309848,52.90576 14.377286,13.77342 28.890859,23.60258 44.067666,28.9165 9.407197,-2.67633 31.749622,-8.63699 57.578122,-64.14453 l 13.13086,8.08008 z m -88.980471,37.74219 c -13.042417,11.09661 -18.765406,28.77428 -20.136719,33.60937 15.429403,2.01792 27.619502,0.0152 38.326172,-8.48242 -7.22977,-7.47779 -13.354071,-15.93792 -18.189453,-25.12695 z M 226.9375,227.69336 c -7.4882,7.17815 -15.96163,13.26658 -25.16797,18.08398 11.3178,12.81808 28.88536,18.3463 33.2793,19.57032 1.96315,-15.05851 0.0909,-27.11806 -8.11133,-37.6543 z"
       style="opacity:1;fill:#ffffff;fill-opacity:1;fill-rule:evenodd;stroke:#000000;stroke-width:0;stroke-linecap:square;stroke-linejoin:miter;stroke-miterlimit:4;stroke-dasharray:none;stroke-opacity:1;paint-order:normal"
       inkscape:connector-curvature="0" />
  </g>
</svg>
