<?xml version="1.0" encoding="UTF-8" standalone="no"?>
<svg
   xmlns:dc="http://purl.org/dc/elements/1.1/"
   xmlns:cc="http://creativecommons.org/ns#"
   xmlns:rdf="http://www.w3.org/1999/02/22-rdf-syntax-ns#"
   xmlns:svg="http://www.w3.org/2000/svg"
   xmlns="http://www.w3.org/2000/svg"
   xmlns:sodipodi="http://sodipodi.sourceforge.net/DTD/sodipodi-0.dtd"
   xmlns:inkscape="http://www.inkscape.org/namespaces/inkscape"
   id="svg8"
   version="1.1"
   viewBox="0 0 79.374998 79.375002"
   height="300"
   width="300"
   sodipodi:docname="nytimes.svg"
   inkscape:version="0.92.4 (5da689c313, 2019-01-14)">
  <sodipodi:namedview
     pagecolor="#ffffff"
     bordercolor="#666666"
     borderopacity="1"
     objecttolerance="10"
     gridtolerance="10"
     guidetolerance="10"
     inkscape:pageopacity="0"
     inkscape:pageshadow="2"
     inkscape:window-width="954"
     inkscape:window-height="930"
     id="namedview7"
     showgrid="false"
     borderlayer="true"
     inkscape:showpageshadow="false"
     inkscape:zoom="0.78666667"
     inkscape:cx="127.75424"
     inkscape:cy="150"
     inkscape:window-x="954"
     inkscape:window-y="57"
     inkscape:window-maximized="0"
     inkscape:current-layer="svg8" />
  <defs
     id="defs2" />
  <metadata
     id="metadata5">
    <rdf:RDF>
      <cc:Work
         rdf:about="">
        <dc:format>image/svg+xml</dc:format>
        <dc:type
           rdf:resource="http://purl.org/dc/dcmitype/StillImage" />
        <dc:title></dc:title>
      </cc:Work>
    </rdf:RDF>
  </metadata>
  <g
     transform="matrix(0.6692464,0,0,0.6692464,12.678068,-133.05062)"
     id="layer1">
    <path
       id="path823"
       d="m 36.84008,287.37556 c -9.594924,-1.70407 -16.734002,-7.83236 -19.441691,-16.68902 -0.946032,-3.0944 -1.022797,-8.59858 -0.159381,-11.42779 2.218234,-7.26863 8.405674,-13.11275 16.90317,-15.96526 3.052571,-1.02472 3.531427,-0.98849 1.602086,0.1212 -2.764186,1.58986 -6.3054,5.83458 -6.907607,8.2799 -0.198616,0.80649 -0.164172,0.85741 0.369944,0.54687 0.446623,-0.25967 12.090194,-5.50155 14.446947,-6.50396 0.31495,-0.13396 0.378473,2.26129 0.31309,11.80533 l -0.08203,11.97339 -4.946376,2.15061 c -2.720504,1.18284 -5.009977,2.15062 -5.087717,2.15062 -0.07774,0 -0.141342,-5.21296 -0.141342,-11.58434 0,-6.37139 -0.06789,-11.58434 -0.150865,-11.58434 -0.08298,0 -1.337854,0.54839 -2.788617,1.21864 l -2.637748,1.21864 -0.413292,1.83399 c -0.613644,2.72304 -0.526587,8.61571 0.161235,10.91361 0.886531,2.96174 2.325431,5.3562 4.338909,7.22033 2.123957,1.96641 3.280015,2.61593 6.327883,3.55524 2.82419,0.87038 8.274219,0.93603 11.64941,0.14033 l 2.298503,-0.54187 v -5.99629 -5.9963 l -2.974358,-2.62454 c -1.635897,-1.44349 -2.974358,-2.72179 -2.974358,-2.84065 0,-0.11887 1.338461,-1.37655 2.974358,-2.79484 l 2.974358,-2.57871 v -3.99432 -3.99432 l -1.938774,-0.22502 c -2.219645,-0.25761 -5.961099,-1.24422 -13.559196,-3.5755 -8.4765,-2.6008 -11.974191,-2.52643 -13.875906,0.29505 -0.955023,1.41692 -0.830325,3.69605 0.266077,4.86311 1.517437,1.61524 -1.741284,0.24502 -3.427482,-1.44118 -1.467348,-1.46735 -1.996411,-2.93333 -2.02655,-5.61537 -0.02208,-1.96519 0.115505,-2.64004 0.840273,-4.12141 1.107413,-2.26347 2.979178,-4.12921 5.373895,-5.3566 1.636647,-0.83885 2.300191,-0.98748 4.92422,-1.10298 3.992095,-0.17573 5.951073,0.20043 12.736813,2.4457 8.396809,2.77836 11.136518,2.97875 12.956534,0.9477 0.931331,-1.03932 1.102476,-2.27005 0.499652,-3.5931 -0.540651,-1.1866 -1.692679,-1.78668 -3.826906,-1.99338 l -1.917008,-0.18567 1.565451,-0.2372 c 2.959815,-0.44848 6.692972,0.72351 9.040946,2.83832 2.307375,2.07826 3.145671,6.92815 1.736661,10.04734 -1.241885,2.74922 -4.118446,4.94246 -7.405148,5.64606 l -1.493917,0.31981 0.09498,4.01016 0.09498,4.01015 2.96922,2.59973 c 1.63307,1.42986 2.928791,2.71627 2.879379,2.85871 -0.04941,0.14243 -1.399677,1.42654 -3.000586,2.85357 l -2.910744,2.5946 -0.06361,5.71286 c -0.04117,3.69723 0.04849,5.71285 0.254113,5.71284 0.174748,-10e-6 0.879202,-0.29688 1.565452,-0.65972 3.445593,-1.82176 6.559435,-5.12083 8.293993,-8.78737 l 0.937038,-1.98073 2.48e-4,1.44617 c 1.34e-4,0.79539 -0.206652,2.62697 -0.459529,4.07017 -1.705832,9.73541 -7.899421,16.02153 -17.36327,17.62267 -3.562094,0.60266 -5.888343,0.59484 -9.415809,-0.0316 z"
       style="fill:#ffffff;fill-opacity:1;stroke-width:0.31309029"
       inkscape:connector-curvature="0" />
  </g>
</svg>
