<?xml version="1.0" encoding="UTF-8" standalone="no"?>
<svg
   xmlns:dc="http://purl.org/dc/elements/1.1/"
   xmlns:cc="http://creativecommons.org/ns#"
   xmlns:rdf="http://www.w3.org/1999/02/22-rdf-syntax-ns#"
   xmlns:svg="http://www.w3.org/2000/svg"
   xmlns="http://www.w3.org/2000/svg"
   xmlns:sodipodi="http://sodipodi.sourceforge.net/DTD/sodipodi-0.dtd"
   xmlns:inkscape="http://www.inkscape.org/namespaces/inkscape"
   height="300"
   width="300"
   id="svg8"
   version="1.1"
   viewbox="0 0 300 300"
   sodipodi:docname="onedrive.svg"
   inkscape:version="0.92.4 (5da689c313, 2019-01-14)">
  <sodipodi:namedview
     pagecolor="#ffffff"
     bordercolor="#666666"
     borderopacity="1"
     objecttolerance="10"
     gridtolerance="10"
     guidetolerance="10"
     inkscape:pageopacity="0"
     inkscape:pageshadow="2"
     inkscape:window-width="1012"
     inkscape:window-height="851"
     id="namedview8"
     showgrid="false"
     borderlayer="true"
     inkscape:showpageshadow="false"
     inkscape:zoom="3.1466667"
     inkscape:cx="147.09373"
     inkscape:cy="190.82322"
     inkscape:window-x="824"
     inkscape:window-y="103"
     inkscape:window-maximized="0"
     inkscape:current-layer="svg8" />
  <metadata
     id="metadata14">
    <rdf:RDF>
      <cc:Work
         rdf:about="">
        <dc:format>image/svg+xml</dc:format>
        <dc:type
           rdf:resource="http://purl.org/dc/dcmitype/StillImage" />
        <dc:title></dc:title>
      </cc:Work>
    </rdf:RDF>
  </metadata>
  <defs
     id="defs12" />
  <g
     id="g6"
     transform="matrix(0.69739845,0,0,0.69739845,46.000702,130.18273)">
    <path
       id="path2"
       d="m 164.19792,-68.087127 c -20.71696,-0.0266 -41.46091,8.93362 -53.11649,27.68971 C 63.593486,-59.084807 34.131657,-22.260528 39.518021,8.7385461 -11.7074,19.731125 -3.681958,83.927789 44.245688,86.78586 l 25.849738,0.347816 C 51.952535,54.31848 68.700457,18.866342 103.58845,14.155403 c 12.27271,-52.348575 71.7505,-62.401643 103.63726,-27.472863 6.42108,-2.403143 12.76025,-3.500279 18.84626,-3.533938 -3.64201,-33.361179 -32.72361,-51.198299 -61.87405,-51.235729 z"
       style="fill:#ffffff;stroke-width:0"
       inkscape:connector-curvature="0"
       sodipodi:nodetypes="scccccccs" />
    <path
       id="rect830"
       d="m 110.87746,21.751441 c -52.200299,1.071601 -49.227916,76.680266 -5.1678,76.851442 23.22985,0.09025 133.53876,1.326656 159.34089,0.459482 41.24884,-1.386317 42.10526,-56.053351 2.9113,-63.241684 6.8705,-38.8401381 -39.84911,-58.313737 -63.16868,-39.1846763 C 175.00585,-46.121223 111.397,-25.614576 110.87746,21.751441 Z"
       style="opacity:1;fill:#ffffff;fill-opacity:1;fill-rule:evenodd;stroke:none;stroke-width:8.35436058;stroke-linecap:square;stroke-linejoin:miter;stroke-miterlimit:4;stroke-dasharray:none;stroke-opacity:1;paint-order:normal"
       inkscape:connector-curvature="0"
       sodipodi:nodetypes="cssccc" />
  </g>
</svg>
