<?xml version="1.0" encoding="UTF-8" standalone="no"?>
<svg
   xmlns:dc="http://purl.org/dc/elements/1.1/"
   xmlns:cc="http://creativecommons.org/ns#"
   xmlns:rdf="http://www.w3.org/1999/02/22-rdf-syntax-ns#"
   xmlns:svg="http://www.w3.org/2000/svg"
   xmlns="http://www.w3.org/2000/svg"
   height="300"
   width="300"
   id="svg8"
   version="1.1"
   viewbox="0 0 300 300">
  <metadata
     id="metadata14">
    <rdf:RDF>
      <cc:Work
         rdf:about="">
        <dc:format>image/svg+xml</dc:format>
        <dc:type
           rdf:resource="http://purl.org/dc/dcmitype/StillImage" />
        <dc:title></dc:title>
      </cc:Work>
    </rdf:RDF>
  </metadata>
  <defs
     id="defs12" />
  <g
     id="g6"
     transform="translate(0,147.64)">
    <path
       id="path2"
       d="m 164.19792,-68.087127 c -20.71696,-0.0266 -41.46091,8.93362 -53.11649,27.68971 C 63.593486,-59.084807 34.131657,-22.260528 39.518021,8.7385461 -11.7074,19.731125 -3.681958,83.927789 44.245688,86.78586 l 25.849738,0.347816 c -4.962284,-7.747702 -7.54323,-16.910775 -7.696953,-26.109519 -0.186766,-11.176101 3.218762,-22.495039 10.625445,-31.35032 6.834256,-8.170895 17.25346,-13.890114 30.564532,-15.518434 4.09988,-24.404021 21.77154,-40.918285 42.5125,-46.29766 5.41353,-1.40406 11.04564,-2.07002 16.70358,-1.95805 16.07068,0.318 32.27691,7.04953 44.42118,20.782847 6.42108,-2.403143 12.76025,-3.500279 18.84626,-3.533938 -3.64201,-33.361179 -32.72361,-51.198299 -61.87405,-51.235729 z"
       style="fill:#ffffff;stroke-width:0" />
    <path
       id="rect830"
       d="m 160.77992,-25.774284 c -4.25889,0.07398 -8.4872,0.65574 -12.58135,1.717591 -18.71614,4.854224 -34.31647,19.5175437 -36.92605,42.338601 l -0.39506,3.469533 -3.48456,0.225435 c -13.001923,0.842955 -22.000616,5.930662 -27.960222,13.055843 -5.959607,7.125181 -8.839173,16.471853 -8.682421,25.851876 0.156752,9.380023 3.367285,18.694453 9.247079,25.641488 5.874276,6.940517 14.296467,11.642978 25.712324,12.0768 l 159.1455,0.440132 0.19539,0.01935 c 9.03147,0.878735 15.79213,-2.022327 20.8816,-7.046409 5.08946,-5.024081 8.36558,-12.361694 9.29001,-20.110846 0.92445,-7.749153 -0.50987,-15.813299 -4.36696,-22.227766 -3.8571,-6.414478 -9.98581,-11.302174 -19.32505,-13.150302 l -3.5683,-0.706361 0.21041,-3.632696 c 1.4589,-25.3848329 -27.70688,-50.999313 -60.45489,-36.8187103 l -2.9242,1.26673 -1.99455,-2.486214 C 192.03441,-19.267015 177.23128,-25.529168 162.607,-25.774259 c -0.60935,-0.0099 -1.21868,-0.01099 -1.82708,0 z"
       style="opacity:1;fill:#ffffff;fill-opacity:1;fill-rule:evenodd;stroke:none;stroke-width:8.35436058;stroke-linecap:square;stroke-linejoin:miter;stroke-miterlimit:4;stroke-dasharray:none;stroke-opacity:1;paint-order:normal" />
  </g>
</svg>
