<?xml version="1.0" encoding="UTF-8" standalone="no"?>
<svg
   xmlns:dc="http://purl.org/dc/elements/1.1/"
   xmlns:cc="http://creativecommons.org/ns#"
   xmlns:rdf="http://www.w3.org/1999/02/22-rdf-syntax-ns#"
   xmlns:svg="http://www.w3.org/2000/svg"
   xmlns="http://www.w3.org/2000/svg"
   id="svg16"
   version="1.1"
   viewBox="0 0 300 300">
  <metadata
     id="metadata22">
    <rdf:RDF>
      <cc:Work
         rdf:about="">
        <dc:format>image/svg+xml</dc:format>
        <dc:type
           rdf:resource="http://purl.org/dc/dcmitype/StillImage" />
        <dc:title></dc:title>
      </cc:Work>
    </rdf:RDF>
  </metadata>
  <defs
     id="defs20" />
  <g
     id="g14">
    <path
       id="path4"
       d="M 245.38477 7.3691406 C 236.48977 7.2091406 242.6113 19.619531 242.2793 30.769531 C 241.7493 48.519531 223.4193 47.160938 194.2793 49.960938 C 153.0693 53.920938 123.64062 55.120703 88.390625 69.470703 C 45.200625 87.060703 26.829922 102.77914 15.669922 133.11914 C 3.4399219 176.72914 37.169922 223.99023 37.169922 223.99023 C 37.169922 223.99023 52.780078 238.4693 31.080078 259.5293 L 31.0625 259.51953 C 31.0625 259.51953 14.708859 272.17061 23.380859 271.84961 C 33.940859 271.45861 37.725375 270.3887 36.109375 273.7207 C 31.072375 284.1087 34.41725 287.06078 38.40625 284.30078 C 48.83525 277.07578 47.464844 283.03516 47.464844 283.03516 C 43.354844 290.94516 40.949141 307.68461 57.744141 288.47461 C 73.004141 271.01461 91.764922 273.41453 105.79492 281.89453 C 142.04992 303.80453 185.07867 290.21492 216.38867 265.29492 C 258.01967 232.15492 252.54883 152.73523 252.54883 133.11523 C 252.54883 113.49523 246.20992 74.075391 255.91992 60.275391 C 262.99992 50.225391 267.94039 57.984922 283.65039 47.294922 C 290.99039 42.304922 284.59016 38.708625 274.91016 39.265625 C 263.92616 39.905625 266.96672 35.885391 272.88672 29.775391 C 278.55172 23.930391 277.45156 22.654844 271.85156 17.089844 C 266.22156 11.499844 265.04023 29.922453 256.49023 28.189453 C 253.11423 27.509453 252.10539 25.359375 252.27539 17.609375 C 252.47539 8.748375 252.76477 7.5031406 245.38477 7.3691406 z M 216.41211 55.898438 C 216.99267 55.888388 217.52719 55.892681 218.01562 55.910156 C 239.05964 56.660156 221.43938 68.364234 211.60938 75.990234 C 200.55936 84.560234 159.20984 112.63906 133.58984 148.28906 L 133.60547 148.29492 C 112.97547 177.17992 99.196641 193.88094 74.806641 247.46094 C 64.276641 255.49094 43.591094 219.16047 45.746094 192.23047 C 49.336094 147.33047 73.235314 127.46016 86.695312 115.16016 C 102.83531 100.41016 138.59594 77.252938 166.08594 67.460938 C 188.83906 59.3525 207.70363 56.049159 216.41211 55.898438 z M 130.02344 72.900391 C 133.80995 72.892012 132.02359 74.016484 127.48047 75.224609 C 120.21047 77.164609 88.460234 92.973156 78.740234 99.285156 C 63.800234 108.98516 43.150391 132.14453 43.150391 132.14453 L 43.152344 132.14453 C 43.152344 132.14453 37.742781 139.2367 35.800781 141.5957 C 29.272781 149.5157 30.786625 136.97217 33.140625 130.57617 C 34.810625 126.03617 37.011297 119.68617 46.779297 109.57617 C 63.669297 92.686174 92.020076 79.855234 116.58008 74.365234 C 123.47333 73.317859 127.75153 72.905418 130.02344 72.900391 z M 224.18359 90.6875 C 227.69279 90.657336 229.2882 95.044983 225.93945 108.81836 C 217.00845 145.54836 208.26492 162.0993 204.16992 167.2793 C 200.07692 172.4523 184.82047 194.34977 163.98047 204.00977 C 143.14047 213.66977 138.61953 213.93669 132.51953 215.17969 C 125.21453 216.66869 108.50094 219.7062 118.21094 202.2832 C 120.32294 198.4937 122.30273 195.38672 122.30273 195.38672 L 122.31055 195.38086 C 122.31055 195.38086 153.48008 154.5193 167.33008 140.0293 C 178.38008 128.4693 200.82047 107.26969 204.73047 104.67969 C 207.17234 103.06281 218.33493 90.737773 224.18359 90.6875 z M 233.58398 161.83398 C 233.64733 161.82905 233.70792 161.8352 233.76758 161.85156 C 234.91304 162.16571 235.36044 166.47809 234.38281 177.55859 C 233.45881 188.05259 226.96975 208.51867 220.59375 221.38867 C 218.33525 225.94367 205.59281 253.15242 169.38281 263.60742 C 133.17281 274.05742 114.21289 265.2168 114.21289 265.2168 C 114.21289 265.2168 100.8018 262.95564 105.5918 243.30664 C 113.2258 225.42664 127.40141 240.09008 143.69141 240.89258 L 143.68945 240.89453 C 165.39945 241.22453 177.80055 236.71138 187.31055 230.23438 C 197.65555 223.19787 218.00984 208.51539 225.58984 180.77539 C 227.93483 172.18742 231.62033 161.98708 233.58398 161.83398 z "
       style="fill:#ffffff;stroke-width:0" />
  </g>
</svg>
