<?xml version="1.0" encoding="UTF-8" standalone="no"?>
<svg
   xmlns:dc="http://purl.org/dc/elements/1.1/"
   xmlns:cc="http://creativecommons.org/ns#"
   xmlns:rdf="http://www.w3.org/1999/02/22-rdf-syntax-ns#"
   xmlns:svg="http://www.w3.org/2000/svg"
   xmlns="http://www.w3.org/2000/svg"
   xmlns:sodipodi="http://sodipodi.sourceforge.net/DTD/sodipodi-0.dtd"
   xmlns:inkscape="http://www.inkscape.org/namespaces/inkscape"
   id="svg16"
   version="1.1"
   viewBox="0 0 300 300"
   sodipodi:docname="onion.svg"
   inkscape:version="0.92.4 (5da689c313, 2019-01-14)">
  <sodipodi:namedview
     pagecolor="#ffffff"
     bordercolor="#666666"
     borderopacity="1"
     objecttolerance="10"
     gridtolerance="10"
     guidetolerance="10"
     inkscape:pageopacity="0"
     inkscape:pageshadow="2"
     inkscape:window-width="640"
     inkscape:window-height="480"
     id="namedview7"
     showgrid="false"
     inkscape:zoom="0.78666667"
     inkscape:cx="127.75424"
     inkscape:cy="150"
     inkscape:window-x="1023"
     inkscape:window-y="250"
     inkscape:window-maximized="0"
     inkscape:current-layer="svg16" />
  <metadata
     id="metadata22">
    <rdf:RDF>
      <cc:Work
         rdf:about="">
        <dc:format>image/svg+xml</dc:format>
        <dc:type
           rdf:resource="http://purl.org/dc/dcmitype/StillImage" />
        <dc:title />
      </cc:Work>
    </rdf:RDF>
  </metadata>
  <defs
     id="defs20" />
  <g
     id="g14"
     transform="matrix(0.48914048,0,0,0.48914048,82.911618,75.136694)">
    <path
       id="path4"
       d="m 245.38477,7.3691406 c -8.895,-0.16 -2.77347,12.2503904 -3.10547,23.4003904 -0.53,17.75 -18.86,16.391407 -48,19.191407 -41.21,3.96 -70.63868,5.159765 -105.888675,19.509765 -43.19,17.59 -61.560703,33.308437 -72.720703,63.648437 -12.2300001,43.61 21.5,90.87109 21.5,90.87109 0,0 15.610156,14.47907 -6.089844,35.53907 l -0.01758,-0.01 c 0,0 -16.353641,12.65108 -7.681641,12.33008 10.56,-0.391 14.344516,-1.46091 12.728516,1.87109 -5.037,10.388 -1.692125,13.34008 2.296875,10.58008 10.429,-7.225 9.058594,-1.26562 9.058594,-1.26562 -4.11,7.91 -6.515703,24.64945 10.279297,5.43945 15.26,-17.46 34.020781,-15.06008 48.050781,-6.58008 36.255,21.91 79.28375,8.32039 110.59375,-16.59961 41.631,-33.14 36.16016,-112.55969 36.16016,-132.17969 0,-19.62 -6.33891,-59.039839 3.37109,-72.839839 7.08,-10.05 12.02047,-2.290469 27.73047,-12.980469 7.34,-4.99 0.93977,-8.586297 -8.74023,-8.029297 -10.984,0.64 -7.94344,-3.380234 -2.02344,-9.490234 5.665,-5.845 4.56484,-7.120547 -1.03516,-12.685547 -5.63,-5.59 -6.81133,12.832609 -15.36133,11.099609 -3.376,-0.68 -4.38484,-2.830078 -4.21484,-10.580078 0.2,-8.861 0.48938,-10.1062344 -6.89062,-10.2402344 z M 216.41211,55.898438 c 0.58056,-0.01005 1.11508,-0.0058 1.60351,0.01172 21.04402,0.75 3.42376,12.454078 -6.40624,20.080078 -11.05002,8.57 -52.39954,36.648824 -78.01954,72.298824 l 0.0156,0.006 c -20.63,28.885 -34.408829,45.58602 -58.798829,99.16602 -10.53,8.03 -31.215547,-28.30047 -29.060547,-55.23047 3.59,-44.9 27.48922,-64.77031 40.949218,-77.07031 16.139998,-14.75 51.900628,-37.90722 79.390628,-47.69922 22.75312,-8.108438 41.61769,-11.411779 50.32617,-11.5625 z m -86.38867,17.001953 c 3.78651,-0.0084 2.00015,1.116093 -2.54297,2.324218 -7.27,1.94 -39.020236,17.748547 -48.740236,24.060547 -14.94,9.700004 -35.589843,32.859374 -35.589843,32.859374 h 0.002 c 0,0 -5.409563,7.09217 -7.351563,9.45117 -6.528,7.92 -5.014156,-4.62353 -2.660156,-11.01953 1.67,-4.54 3.870672,-10.89 13.638672,-21 16.89,-16.889996 45.240779,-29.720936 69.800786,-35.210936 6.89325,-1.047375 11.17145,-1.459816 13.44336,-1.464843 z M 224.18359,90.6875 c 3.5092,-0.03016 5.10461,4.357483 1.75586,18.13086 -8.931,36.73 -17.67453,53.28094 -21.76953,58.46094 -4.093,5.173 -19.34945,27.07047 -40.18945,36.73047 -20.84,9.66 -25.36094,9.92692 -31.46094,11.16992 -7.305,1.489 -24.01859,4.52651 -14.30859,-12.89649 2.112,-3.7895 4.09179,-6.89648 4.09179,-6.89648 l 0.008,-0.006 c 0,0 31.16953,-40.86156 45.01953,-55.35156 11.05,-11.56 33.49039,-32.75961 37.40039,-35.34961 2.44187,-1.61688 13.60446,-13.941917 19.45312,-13.99219 z m 9.40039,71.14648 c 0.0634,-0.005 0.12394,0.001 0.1836,0.0176 1.14546,0.31415 1.59286,4.62653 0.61523,15.70703 -0.924,10.494 -7.41306,30.96008 -13.78906,43.83008 -2.2585,4.555 -15.00094,31.76375 -51.21094,42.21875 -36.21,10.45 -55.16992,1.60938 -55.16992,1.60938 0,0 -13.41109,-2.26116 -8.62109,-21.91016 7.634,-17.88 21.80961,-3.21656 38.09961,-2.41406 l -0.002,0.002 c 21.71,0.33 34.1111,-4.18315 43.6211,-10.66015 10.345,-7.03651 30.69929,-21.71899 38.27929,-49.45899 2.34499,-8.58797 6.03049,-18.78831 7.99414,-18.94141 z"
       style="fill:#ffffff;stroke-width:0"
       inkscape:connector-curvature="0" />
  </g>
</svg>
