<?xml version="1.0" encoding="UTF-8" standalone="no"?>
<svg
   xmlns:dc="http://purl.org/dc/elements/1.1/"
   xmlns:cc="http://creativecommons.org/ns#"
   xmlns:rdf="http://www.w3.org/1999/02/22-rdf-syntax-ns#"
   xmlns:svg="http://www.w3.org/2000/svg"
   xmlns="http://www.w3.org/2000/svg"
   version="1.1"
   id="svg3168"
   height="300"
   width="300">
  <defs
     id="defs3170" />
  <metadata
     id="metadata3173">
    <rdf:RDF>
      <cc:Work
         rdf:about="">
        <dc:format>image/svg+xml</dc:format>
        <dc:type
           rdf:resource="http://purl.org/dc/dcmitype/StillImage" />
        <dc:title></dc:title>
      </cc:Work>
    </rdf:RDF>
  </metadata>
  <g
     transform="translate(-78.58618,-451.88113)"
     id="layer1">
    <path
       id="path3204"
       transform="translate(78.58618,451.88113)"
       d="M 149.29102 1.4199219 C 66.839436 1.4199219 3.7895613e-14 68.257384 0 150.70898 L 0 299.86133 L 34.65625 299.86133 L 34.65625 265.22461 L 34.65625 219.03906 L 34.65625 150.70898 C 34.65625 87.401514 85.983566 36.076172 149.29102 36.076172 C 212.59851 36.076172 263.92383 87.401514 263.92383 150.70898 C 263.92383 212.23586 215.43929 262.43119 154.59766 265.20703 C 135.26647 265.04878 118.78524 261.91083 111.56641 257.46875 L 111.56641 208.19922 C 122.34026 215.25328 135.22719 219.36719 149.06641 219.36719 C 186.91912 219.36719 217.60156 188.6828 217.60156 150.83008 C 217.60156 112.97737 186.91912 82.277344 149.06641 82.277344 C 111.21369 82.277344 80.529297 112.97737 80.529297 150.83008 L 80.529297 299.86133 L 143.03516 299.86133 C 145.10909 299.94683 147.19608 300 149.29102 300 C 231.74262 300 298.58008 233.16058 298.58008 150.70898 C 298.58008 68.257384 231.74262 1.4199219 149.29102 1.4199219 z M 144.48242 265.22461 L 154.33984 265.22461 C 152.66449 265.29725 150.98427 265.34375 149.29102 265.34375 C 147.68251 265.34375 146.07482 265.29031 144.48242 265.22461 z "
       style="fill:#ffffff;fill-opacity:1;stroke:none;stroke-width:0.55145854" />
  </g>
</svg>
