<?xml version="1.0" encoding="UTF-8" standalone="no"?>
<svg
   xmlns:dc="http://purl.org/dc/elements/1.1/"
   xmlns:cc="http://creativecommons.org/ns#"
   xmlns:rdf="http://www.w3.org/1999/02/22-rdf-syntax-ns#"
   xmlns:svg="http://www.w3.org/2000/svg"
   xmlns="http://www.w3.org/2000/svg"
   id="svg8"
   version="1.1"
   viewBox="0 0 79.374998 79.375002"
   height="300"
   width="300">
  <defs
     id="defs2" />
  <metadata
     id="metadata5">
    <rdf:RDF>
      <cc:Work
         rdf:about="">
        <dc:format>image/svg+xml</dc:format>
        <dc:type
           rdf:resource="http://purl.org/dc/dcmitype/StillImage" />
        <dc:title></dc:title>
      </cc:Work>
    </rdf:RDF>
  </metadata>
  <g
     transform="translate(0,-217.62499)"
     id="layer1">
    <path
       id="path825"
       d="m 42.48371,226.10563 -18.03921,0.16071 c -1.620376,0.0144 -3.370334,0.0626 -3.779613,2.64583 l -8.210352,51.75912 c -0.377364,2.35531 1.472201,2.22237 2.284098,2.21536 3.657345,-10e-4 12.066761,-0.0532 12.066761,-0.0532 l 2.653422,-18.33834 c 0.01811,-0.11796 -0.169585,-0.28062 -0.148465,-0.3892 l 3.422529,-21.34547 c 0.358118,-2.26032 1.743069,-2.63076 3.1688,-2.65307 0.203674,-0.003 0.408366,7.1e-4 0.610815,0.007 l 17.57567,0.56689 c 2.72801,0.088 5.201324,0.61481 7.207829,1.71152 0.01449,-0.12997 0.0331,-0.25695 0.04599,-0.38809 1.181359,-12.02149 -6.638475,-16.00811 -18.85828,-15.89928 z M 61.295997,242.393 c -1.431692,12.84109 -10.68674,20.00882 -27.363187,19.26601 -2.595104,-0.11559 -4.089127,-0.29478 -4.622456,2.44688 l -3.758943,23.44456 c -0.377365,2.35532 1.4722,2.22237 2.284098,2.21537 0,0 6.205452,-0.002 9.040275,-0.002 1.560282,0 2.732521,-0.67355 2.960026,-2.10116 l 2.046385,-12.8416 c 0.493001,-3.09364 2.51315,-2.55966 5.213636,-2.57917 5.997332,-0.0434 16.655587,-2.66963 18.942513,-15.6192 1.354915,-7.67212 -0.781267,-12.06508 -4.742347,-14.23014 z"
       style="opacity:1;fill:#ffffff;fill-opacity:1;stroke:#000000;stroke-width:0;stroke-linecap:butt;stroke-linejoin:miter;stroke-miterlimit:4;stroke-dasharray:none;stroke-opacity:1" />
  </g>
</svg>
