<?xml version="1.0" encoding="UTF-8" standalone="no"?>
<svg
   xmlns:dc="http://purl.org/dc/elements/1.1/"
   xmlns:cc="http://creativecommons.org/ns#"
   xmlns:rdf="http://www.w3.org/1999/02/22-rdf-syntax-ns#"
   xmlns:svg="http://www.w3.org/2000/svg"
   xmlns="http://www.w3.org/2000/svg"
   id="svg20"
   version="1.1"
   viewBox="0 0 300 300">
  <metadata
     id="metadata26">
    <rdf:RDF>
      <cc:Work
         rdf:about="">
        <dc:format>image/svg+xml</dc:format>
        <dc:type
           rdf:resource="http://purl.org/dc/dcmitype/StillImage" />
        <dc:title></dc:title>
      </cc:Work>
    </rdf:RDF>
  </metadata>
  <defs
     id="defs24" />
  <path
     id="rect833"
     d="M 159.32431,4.7362717 V 296.31781 l 82.09357,-14.96439 V 17.686688 Z M 147.84872,6.2512002 42.908693,45.037843 V 258.08812 l 104.940027,37.04002 z m 22.69943,52.3118398 61.368,5.703263 v 17.909583 l -61.368,-4.44899 z m 38.21186,48.0901 a 12.239202,20.018453 0 0 1 11.20825,10.21462 l 10.19681,0.28071 v 19.527 l -10.27032,-0.0378 a 12.239202,20.018453 0 0 1 -10.42851,10.04086 12.239202,20.018453 0 0 1 -10.79833,-10.11884 l -27.19519,-0.10023 v -20.93275 l 27.36228,0.75523 a 12.239202,20.018453 0 0 1 9.92501,-9.6287 z m -12.84348,68.20077 v 100.8319 l -18.70715,2.96748 V 175.65147 Z"
     style="opacity:1;fill:#ffffff;fill-opacity:1;fill-rule:evenodd;stroke:none;stroke-width:0;stroke-linecap:square;stroke-linejoin:miter;stroke-miterlimit:4;stroke-dasharray:none;stroke-opacity:1;paint-order:normal" />
  <g
     id="g16"
     transform="matrix(1.1406525,0,0,1.1406525,-31.347342,-882.0186)">
    <path
       id="path14"
       d="m 218.4,884.42 a 7.1,11.9 0 0 1 -7,11.87 7.07,11.87 0 0 1 -7.17,-11.52 7.071,11.87 0 0 1 6.76,-12.2 7.071,11.87 0 0 1 7.37,11.17"
       style="fill:#ffffff;stroke-width:0" />
  </g>
  <svg
     id="svg18"
     version="1.1" />
</svg>
