<?xml version="1.0" encoding="UTF-8" standalone="no"?>
<svg
   xmlns:dc="http://purl.org/dc/elements/1.1/"
   xmlns:cc="http://creativecommons.org/ns#"
   xmlns:rdf="http://www.w3.org/1999/02/22-rdf-syntax-ns#"
   xmlns:svg="http://www.w3.org/2000/svg"
   xmlns="http://www.w3.org/2000/svg"
   id="svg8"
   version="1.1"
   viewBox="0 0 79.374998 79.375002"
   height="300"
   width="300">
  <defs
     id="defs2" />
  <metadata
     id="metadata5">
    <rdf:RDF>
      <cc:Work
         rdf:about="">
        <dc:format>image/svg+xml</dc:format>
        <dc:type
           rdf:resource="http://purl.org/dc/dcmitype/StillImage" />
        <dc:title></dc:title>
      </cc:Work>
    </rdf:RDF>
  </metadata>
  <g
     transform="translate(0,-217.62499)"
     id="layer1">
    <path
       id="rect825"
       d="m 59.125587,237.31733 c -1.129561,0 -3.282188,0.60981 -4.020944,1.13895 -0.210563,0.15082 -0.440539,0.2744 -0.511596,0.2744 -0.213817,0 -2.393116,2.21133 -2.629296,2.66805 l -0.219626,0.42478 -0.671793,-0.29507 c -0.684363,-0.40088 -1.468596,-0.633 -2.099098,-0.78807 -2.476889,-0.60491 -5.553734,-0.3294 -7.617621,0.68213 -0.467559,0.22916 -0.920089,0.41652 -1.005623,0.41652 -0.08554,0 -0.331814,-0.2702 -0.547254,-0.60048 -0.450265,-0.69028 -1.918155,-2.18206 -2.542482,-2.58383 -1.903711,-1.22508 -4.619495,-1.66251 -6.468856,-1.04231 -1.334923,0.44767 -2.16839,1.14946 -2.669603,2.24844 -0.356513,0.7817 -0.283424,2.75693 -0.04134,3.29903 0.228227,0.51107 0.39887,0.92226 0.636137,1.41645 0.174665,0.3638 0.502394,0.74046 1.092957,0.75137 0.496652,0.009 0.647816,-0.0541 0.864029,-0.36122 0.144147,-0.20476 0.305662,-0.51341 0.35915,-0.68574 0.125953,-0.4058 1.269979,-1.97674 1.803509,-2.47685 0.358465,-0.38712 0.449826,-0.46669 1.0635,-0.87644 0.961827,-0.65358 1.245095,-0.52713 3.238561,1.44694 0.855885,0.84755 1.881675,2.46832 2.029336,2.7373 0.540099,0.98384 0.976553,2.04233 1.226799,3.0856 0.180498,0.7525 0.23564,1.18385 0.244946,3.10834 0.01196,2.47186 0.01191,2.47306 -0.401011,3.24993 -0.227187,0.42742 -0.639826,1.09225 -0.916739,1.47743 -0.84769,1.17911 -1.00149,1.56237 -1.00149,2.49184 0,1.30864 0.37419,1.85959 1.687235,2.48357 0.776692,0.36909 1.414044,0.40012 2.369883,0.11627 1.674244,-0.68151 2.437633,-2.08681 2.442745,-3.61012 v -1.12189 h -0.680064 c -0.570381,0 -0.751917,-0.071 -1.130163,-0.4408 -0.672713,-0.6577 -0.599731,-1.65577 0.1664,-2.27635 0.259963,-0.21058 0.646945,-0.2443 2.816365,-0.24701 2.799106,-0.004 3.168271,0.0861 3.571875,0.86661 0.291629,0.56394 0.173791,1.18526 -0.322977,1.70378 -0.319974,0.33397 -0.49072,0.39377 -1.12758,0.39377 h -0.750859 v 0.9772 c 0,1.16031 0.311701,1.99119 1.056265,2.81533 1.506598,1.66763 4.666271,1.17776 5.375899,-0.83354 0.388601,-1.10141 0.18148,-2.02853 -0.724503,-3.24166 -0.561192,-0.75145 -0.862436,-1.2818 -1.404565,-2.47272 -0.371398,-0.81587 -0.449696,-3.36316 -0.141078,-4.59197 0.12687,-0.50513 0.28979,-1.1741 0.373621,-1.48363 0.589798,-1.81596 1.141298,-2.70069 2.006081,-3.97288 0.216821,-0.31983 0.788858,-0.95685 1.271238,-1.41542 1.628198,-1.54783 2.155079,-1.7808 2.643251,-1.39423 1.3197,1.35972 2.709474,2.56979 3.532084,4.33152 0,0.23806 0.09912,0.26633 0.846458,0.24391 0.78603,-0.0236 0.864693,-0.0566 1.101225,-0.46354 0.625417,-1.07592 0.975159,-1.82792 0.807704,-3.28455 -0.216725,-1.88524 -0.621376,-2.6061 -1.896009,-3.49281 -0.453396,-0.39163 -2.021573,-0.79633 -3.085083,-0.79633 z m -24.271387,6.34586 -0.476457,0.46561 c -0.262122,0.25604 -0.625207,0.65995 -0.806669,0.89762 -0.401593,0.52598 -1.491382,2.78638 -1.491382,3.03237 -1.057453,-0.41631 -3.014769,-0.51063 -4.109826,0.0765 -0.340937,0.0834 -0.388517,0.0541 -0.390157,-0.23926 -0.0047,-0.84249 -2.281028,-3.93774 -2.895947,-3.93774 -0.3174,0 -1.56874,1.50085 -2.087728,2.50372 -0.693182,1.33948 -0.946175,2.38312 -1.045931,4.31447 l -0.08578,1.66036 1.361157,-0.0191 c 1.489373,-0.0207 1.722801,0.0712 1.816944,0.71262 0.08369,0.5702 -0.243164,0.71882 -1.580266,0.71882 -1.214957,0 -1.327327,0.0827 -0.912605,0.67489 0.193911,0.27684 0.345124,0.31419 1.275374,0.31419 0.994568,0 1.06293,0.0201 1.189075,0.35192 0.07361,0.19361 0.09849,0.44449 0.05529,0.55707 -0.121095,0.31557 -0.655534,0.60954 -1.008724,0.55501 -0.174855,-0.027 -0.31781,0.003 -0.31781,0.0656 0,0.13518 0.73766,0.74173 1.751315,1.43971 1.272386,0.85332 2.045927,1.80725 2.06344,3.29179 0.01847,1.56592 -1.340661,3.05964 -3.320211,3.69848 -1.539425,0.49681 -2.7833,1.14594 -3.494361,1.82366 -1.610739,1.53521 -1.827912,2.58805 -1.753381,8.49302 0.02943,2.3314 0.101227,4.35233 0.15968,4.4912 0.248757,0.59098 0.730908,0.66611 4.282943,0.66611 2.101229,0 3.545847,-0.0589 3.824573,-0.15606 0.782203,-0.27268 0.877451,-1.11674 0.443899,-1.61644 -0.326549,-0.32655 -0.504155,-0.34727 -1.98024,-0.34727 -2.634936,0 -2.825667,-0.22637 -2.825667,-3.36465 0,-1.91309 -0.02651,-2.14186 -0.290422,-2.47737 -0.340528,-0.49771 -0.988371,-0.41823 -1.420068,-0.77359 -0.198247,-0.16974 -0.350366,-0.43423 -0.350366,-0.9741 0,-0.51169 0.439193,-1.09182 1.024227,-1.24024 0.992701,-0.25184 2.501587,0.43385 3.243729,1.62264 0.376658,0.60335 0.400544,0.74064 0.451136,2.58021 l 0.05374,1.94251 h 0.802535 c 0.497905,0 0.921961,0.0837 1.116728,0.22015 l 0.314193,0.22014 V 273.08 c 0,-1.77113 0.121431,-2.93705 0.157097,-3.17138 0.236262,-1.55232 2.527493,-1.41847 2.527493,0.0625 v 4.73563 c 0,4.82832 0.0295,5.12335 0.552939,5.52524 0.404384,0.31047 1.093547,0.21733 1.414899,-0.1912 0.283332,-0.3602 0.293005,-0.53 0.293005,-5.21571 V 269.982 c 0,-1.63412 2.667706,-1.75375 2.682526,0.21084 l 0.03669,4.81314 c 0.03399,4.50579 0.0534,4.83143 0.305405,5.10977 0.180946,0.19985 0.440151,0.29714 0.790652,0.29714 0.975918,0 0.962893,0.0658 1.013891,-5.22811 l 0.04547,-4.73304 0.480592,-0.84801 c 1.205934,-2.12866 1.335373,-2.47805 1.334802,-3.60288 -7.94e-4,-1.35103 -0.20868,-1.76834 -1.513602,-3.03806 -0.55908,-0.54399 -1.141487,-1.17969 -1.294495,-1.41283 -0.466066,-0.71014 -0.753949,-1.78435 -0.763778,-2.84944 -0.0089,-0.96119 0.053,-1.19164 0.674894,-2.50734 -0.158044,-0.0915 -0.511273,-0.0688 -0.756542,-0.0837 -0.691028,-0.0421 -0.586716,-1.3002 0.202054,-1.26762 0.221867,0.009 1.095513,0.006 1.494484,0.0253 0,0 0.212643,-0.19377 0.407725,-0.47232 0.125595,-0.17931 0.22841,-0.37521 0.22841,-0.43563 0,-0.0604 -0.503444,-0.11007 -1.118794,-0.11007 -1.45983,0 -1.551,-0.0485 -1.565796,-0.71004 -0.02207,-0.98619 1.082969,-0.73704 1.90531,-0.75189 l 1.269174,-0.0217 0.07493,-0.42374 c 0.118848,-0.67353 -0.09248,-2.46671 -0.39946,-3.39101 -0.61917,-1.8643 -1.270365,-3.01165 -2.349727,-4.13928 z m 7.794873,5.38934 c 0.350118,-0.0149 0.648968,0.13788 0.98392,0.47284 0.81902,0.81902 0.606573,1.97053 -0.444418,2.40967 -0.855584,0.31479 -2.004243,-0.13357 -2.042769,-1.25574 0,-0.65709 0.294352,-1.18056 0.798917,-1.42162 0.265766,-0.12696 0.494279,-0.19618 0.70435,-0.20515 z m 6.836791,0.003 c 0.436938,0.009 0.828815,0.26075 1.117762,0.64648 0.836768,1.06378 -0.193588,2.52168 -1.545125,2.18643 -0.763717,-0.18945 -1.130165,-0.6546 -1.130165,-1.43454 0,-0.32092 0.136634,-0.58416 0.483693,-0.93121 0.366985,-0.3355 0.733996,-0.47448 1.073835,-0.46716 z m -16.118911,0.0465 c 0.671198,0.0391 1.274371,0.52476 1.367359,1.30742 0.07209,0.60677 -0.174136,1.1103 -0.582396,1.37769 -0.447143,0.29285 -0.948579,0.33559 -1.436603,0.14573 -0.555696,-0.21617 -0.863496,-0.66987 -0.876951,-1.29502 -0.01071,-0.49784 0.0088,-0.78305 0.342099,-1.09192 0.356383,-0.33028 0.783772,-0.46733 1.186492,-0.4439 z m -6.864697,0.014 c 0.972482,0.0344 1.431574,0.74681 1.422652,1.47794 -0.0097,0.79303 -0.190326,1.06876 -0.879017,1.35651 -0.551374,0.23038 -0.658075,0.23263 -1.177189,0.0263 -0.418656,-0.16632 -0.751481,-0.67091 -0.874882,-1.32602 -0.01208,-0.90914 0.640312,-1.54941 1.508436,-1.53479 z m 4.823476,3.24993 0.04341,0.51728 c 0.03484,0.41802 -0.03934,0.60082 -0.38654,0.95601 -0.426902,0.43671 -0.427971,0.44307 -0.209291,0.98961 0.475462,1.1883 1.910263,0.71114 1.729611,-0.57516 -0.04429,-0.31539 -0.0048,-0.33332 0.730705,-0.33332 h 0.776697 l 0.0088,0.49455 c 0.0097,0.54837 -0.469845,1.6402 -0.876433,1.99522 -0.840885,0.73423 -1.835181,0.80692 -2.750735,0.20103 -0.314312,-0.208 -0.572003,-0.29649 -0.622702,-0.21446 -0.146794,0.23752 -1.231977,0.70351 -1.613855,0.69298 -0.199113,-0.005 -0.62638,-0.12797 -0.949812,-0.27182 -0.653111,-0.29046 -1.223669,-1.11734 -1.377177,-1.99574 -0.14496,-0.8295 -0.01889,-0.97255 0.855762,-0.97255 h 0.767395 l -0.03307,0.55914 c -0.05904,1.00063 0.778823,1.49344 1.391645,0.81855 0.453292,-0.4992 0.515962,-1.00775 0.162782,-1.3224 -0.164896,-0.1469 -0.389987,-0.47961 -0.499713,-0.73897 -0.09808,-0.27862 -0.08788,-0.36753 -0.06821,-0.7891 1.104694,-0.005 1.749658,0.0137 2.920751,-0.0109 z m -0.963247,4.92114 c 0.146121,0.002 0.296971,0.0101 0.455787,0.0258 -0.240215,0.91796 -1.477817,0.97341 -1.72806,0.0558 0.438497,-0.0411 0.833906,-0.0877 1.272273,-0.0816 z m 15.749426,4.58629 -0.481108,0.36742 c -0.264694,0.20189 -0.698775,0.41039 -0.964282,0.46353 l -0.482658,0.0966 0.423746,0.19017 c 0.507225,0.22738 2.972618,0.17555 3.398242,-0.0713 0.2456,-0.14247 0.224785,-0.16051 -0.192751,-0.16434 -0.520809,-0.005 -0.932622,-0.1825 -1.393714,-0.60203 z m 8.414991,1.01027 c -0.0325,0.01 -0.06489,0.0382 -0.101804,0.0827 -0.182579,0.22 -0.588134,0.46692 -1.396296,0.85008 -0.709605,0.33643 -1.884286,0.48901 -2.730582,0.3545 -0.742911,-0.11807 -0.747075,-0.11674 -1.388031,0.48162 -1.706483,1.59312 -4.254034,1.54013 -5.807914,-0.12092 -0.444328,-0.47498 -0.505243,-0.49773 -1.013891,-0.37827 -0.696275,0.16352 -0.704149,0.17577 -0.451136,0.66094 0.294725,0.56514 0.279321,2.20707 -0.02894,3.09387 -0.135067,0.38856 -0.532643,1.24733 -0.883669,1.9079 l -0.638204,1.20095 v 4.2199 l -0.02376,3.79874 c -0.01659,2.69585 3.48426,2.6023 3.555338,0.32711 0.07781,-2.15222 -0.08649,-4.283 -0.0987,-6.31796 -0.01217,-2.37113 0.01363,-2.68243 0.261483,-3.10834 0.48887,-0.84002 1.781794,-0.88506 2.314588,-0.0806 0.172029,0.25973 0.207576,1.0927 0.20774,4.83536 1.4e-4,4.29511 0.07165,4.33308 0.07079,4.77438 -0.0036,1.87532 3.289181,2.00525 3.32073,-0.01 l 0.07235,-4.64365 c 0.03999,-2.55375 0.187047,-4.74144 0.193786,-4.8953 0.06925,-1.58105 2.478799,-1.46186 2.48667,0.1111 l 0.0155,3.0117 c 0.01503,3.00398 0.01537,3.01121 0.297656,2.75539 0.228783,-0.20734 0.579088,-0.2656 1.827795,-0.30437 l 1.544608,-0.0481 -0.01447,-3.0608 c -0.0079,-1.68332 0.01204,-3.15558 0.04393,-3.27215 0.192374,-0.70318 0.570188,-1.75797 0.677995,-1.89187 0.06951,-0.0863 0.285763,-0.35593 0.480073,-0.59893 l 0.352952,-0.44184 -0.527616,-0.35243 c -0.81438,-0.54354 -1.844651,-1.66046 -2.213303,-2.39985 -0.211521,-0.42424 -0.308161,-0.56977 -0.405659,-0.54105 z m 6.594945,4.58525 c -0.14447,0.008 -0.293936,0.0375 -0.481107,0.0879 -0.662131,0.1783 -1.325748,0.7519 -1.548744,1.33842 -0.08268,0.21747 -0.142626,1.95708 -0.142626,4.15169 0,4.20316 -0.02545,4.34381 -0.885735,4.82761 -0.460158,0.25879 -0.739659,0.2967 -2.048971,0.27698 -2.774254,-0.0418 -2.964381,-0.0249 -3.263881,0.29663 -0.179602,0.19277 -0.262581,0.45614 -0.238747,0.75654 0.04904,0.618 0.154223,0.75756 0.686782,0.91157 0.62771,0.18153 8.494582,0.18418 9.280051,0.004 1.185997,-0.27328 1.133284,-0.002 1.132231,-5.88233 -7.93e-4,-4.708 -0.02392,-5.23304 -0.247012,-5.56555 -0.410567,-0.61192 -0.6707,-0.80524 -1.409734,-1.04697 -0.364467,-0.1192 -0.591722,-0.16857 -0.832507,-0.15606 z m -55.743881,5.66007 c -0.2987659,0.0185 -0.5531609,0.16337 -0.6289022,0.40204 -0.1423865,0.44862 -0.083272,3.43749 0.080098,4.0442 0.1795502,0.6668 0.8218884,1.56541 1.4340216,2.00711 0.8086674,0.58351 1.4040731,0.66127 5.1821096,0.67593 2.881514,0.0112 3.652207,-0.0261 3.974435,-0.19275 0.46231,-0.23907 0.575675,-0.46853 0.575675,-1.16893 0,-0.50433 -5.03e-4,-0.50452 -0.297656,-0.23564 -0.275884,0.24967 -0.55485,0.26872 -3.850411,0.26872 -1.648353,-0.11381 -3.3931151,0.0803 -4.2018095,-0.46664 -0.9839064,-0.6655 -1.1541384,-1.19317 -1.2490184,-3.27629 -0.07949,-1.74527 -0.08452,-1.76675 -0.4619867,-1.94716 -0.1823712,-0.0872 -0.3772964,-0.12167 -0.5565554,-0.11059 z m 61.128565,4.24935 c -0.06746,0.029 -0.06821,0.28016 -0.06821,0.9431 0,1.17737 0.04786,1.24615 1.271757,1.82159 0.535985,0.252 2.126101,0.66128 2.472716,0.6258 1.32185,-0.1353 2.962225,-0.62132 3.753776,-1.37976 0.647496,-0.67966 0.744373,-0.92156 0.555006,-1.37873 -0.232738,-0.56188 -0.556943,-0.54678 -1.909961,0.0868 -0.981636,0.4597 -1.213972,0.5113 -2.379184,0.52968 -0.945406,0.0149 -1.497721,-0.0514 -2.061371,-0.24753 -0.78023,-0.27155 -0.932273,-0.36258 -1.426787,-0.85369 -0.102518,-0.10182 -0.167267,-0.16468 -0.20774,-0.14728 z"
       style="opacity:1;fill:#ffffff;fill-opacity:1;fill-rule:evenodd;stroke:#ffffff;stroke-width:0;stroke-linecap:square;stroke-linejoin:round;stroke-miterlimit:4;stroke-dasharray:none;stroke-opacity:1;paint-order:normal" />
  </g>
</svg>
