<?xml version="1.0" encoding="UTF-8" standalone="no"?>
<svg
   xmlns:dc="http://purl.org/dc/elements/1.1/"
   xmlns:cc="http://creativecommons.org/ns#"
   xmlns:rdf="http://www.w3.org/1999/02/22-rdf-syntax-ns#"
   xmlns:svg="http://www.w3.org/2000/svg"
   xmlns="http://www.w3.org/2000/svg"
   id="svg8"
   version="1.1"
   viewBox="0 0 79.374998 79.375002"
   height="300"
   width="300">
  <defs
     id="defs2" />
  <metadata
     id="metadata5">
    <rdf:RDF>
      <cc:Work
         rdf:about="">
        <dc:format>image/svg+xml</dc:format>
        <dc:type
           rdf:resource="http://purl.org/dc/dcmitype/StillImage" />
        <dc:title></dc:title>
      </cc:Work>
    </rdf:RDF>
  </metadata>
  <g
     transform="translate(0,-217.62499)"
     id="layer1">
    <path
       id="path823"
       d="m 43.285757,289.65722 c 9.007078,-1.07868 16.836282,-5.47108 22.352522,-12.54038 3.668926,-4.70189 5.952488,-10.3425 6.694192,-16.53524 0.17007,-1.41999 0.170018,-5.73291 0,-7.15215 -0.982928,-8.2008 -4.649695,-15.35843 -10.65858,-20.80581 -4.562341,-4.13594 -10.404509,-6.96933 -16.48527,-7.99514 -2.059555,-0.34745 -2.740768,-0.39645 -5.511745,-0.39645 -2.7711,0 -3.458715,0.0495 -5.507965,0.39605 -9.369762,1.58477 -17.674932,7.24425 -22.600848,15.40114 -2.4658573,4.08324 -3.9573723,8.47902 -4.5467806,13.40021 -0.09483,0.79178 -0.1178818,1.49107 -0.1178818,3.57608 0,2.08501 0.023051,2.78429 0.1178818,3.57607 0.8031315,6.70565 3.2590626,12.4113 7.5975546,17.65071 0.758558,0.91608 2.94885,3.09286 3.929682,3.90545 2.138296,1.7715 4.193579,3.11187 6.596077,4.30167 0.686605,0.34003 1.283979,0.61823 1.327498,0.61823 0.05986,0 0.0694,-0.21971 0.03918,-0.90222 -0.07062,-1.59506 0.135088,-4.34179 0.438574,-5.85623 0.0687,-0.34284 1.08172,-4.67486 2.251146,-9.6267 l 2.12623,-9.00335 -0.229152,-0.6094 c -0.489979,-1.30302 -0.7293,-2.5604 -0.784143,-4.11985 -0.05647,-1.60576 0.120498,-2.87292 0.586484,-4.19942 0.836754,-2.38194 2.507825,-4.09815 4.472703,-4.59351 1.072765,-0.27045 2.394116,-0.1383 3.328935,0.33292 0.6312,0.31818 1.342909,1.06427 1.685735,1.76718 0.92978,1.90635 0.777021,3.84498 -0.679905,8.6285 -0.241816,0.79396 -0.601193,1.97505 -0.798616,2.62464 -0.537054,1.76712 -0.923747,3.34379 -0.973619,3.96977 -0.16949,2.12734 1.091126,4.12662 3.137532,4.976 1.268414,0.52646 3.030532,0.54695 4.483553,0.0521 3.325478,-1.13246 5.983524,-4.76254 7.30921,-9.98215 0.573071,-2.25633 0.809591,-4.22805 0.814656,-6.79125 0.0033,-1.68014 -0.0118,-1.95629 -0.148889,-2.71917 -0.719375,-4.0031 -2.832178,-6.9306 -6.227905,-8.62936 -2.914742,-1.45815 -6.68736,-1.93395 -10.395717,-1.31112 -3.755429,0.63075 -7.099885,2.50277 -9.380369,5.25057 -2.501942,3.01464 -3.777184,6.75057 -3.645453,10.67966 0.08274,2.46775 0.679282,4.15225 2.11833,5.98167 0.520024,0.66109 0.650272,0.96585 0.582123,1.36211 -0.124218,0.72228 -0.844617,3.3553 -0.969443,3.54327 -0.205802,0.30989 -0.633308,0.50172 -1.004691,0.45081 -0.363052,-0.0498 -1.333039,-0.51239 -1.991874,-0.95 -2.794526,-1.85621 -4.478652,-5.07865 -4.994956,-9.55744 -0.115171,-0.99908 -0.09781,-3.26184 0.03239,-4.22153 0.587131,-4.32762 2.514111,-8.26938 5.581938,-11.41823 3.779272,-3.87907 8.584338,-6.10453 14.636348,-6.77881 1.244831,-0.13869 4.952742,-0.119 6.069481,0.0322 2.684843,0.36359 4.827639,0.99543 7.053722,2.07992 4.121099,2.00768 7.485212,5.48719 9.21758,9.53377 0.955448,2.23179 1.362812,4.12006 1.425134,6.60602 0.158876,6.33706 -1.685229,12.45962 -4.999691,16.59931 -3.10413,3.87699 -7.148707,5.97282 -11.974969,6.20523 -2.30931,0.11121 -4.526923,-0.48622 -6.392689,-1.72221 -0.751644,-0.49793 -1.736484,-1.45119 -2.038969,-1.97359 -0.108266,-0.18697 -0.21442,-0.34054 -0.235897,-0.34126 -0.02148,-7.1e-4 -0.298546,1.02477 -0.615707,2.27886 -1.701464,6.72774 -1.991317,7.75115 -2.606382,9.20264 -0.40074,0.94571 -1.295277,2.68443 -1.887199,3.66816 -0.291053,0.48372 -0.51697,0.8917 -0.502036,0.90663 0.0483,0.0483 1.165699,0.34569 2.041492,0.54333 1.511917,0.34121 3.19582,0.59806 4.888393,0.74565 0.795862,0.0694 5.129021,-0.0138 5.971058,-0.11464 z"
       style="fill:#ffffff;stroke-width:0.06561601;fill-opacity:1" />
  </g>
</svg>
