<?xml version="1.0" encoding="UTF-8" standalone="no"?>
<svg
   xmlns:dc="http://purl.org/dc/elements/1.1/"
   xmlns:cc="http://creativecommons.org/ns#"
   xmlns:rdf="http://www.w3.org/1999/02/22-rdf-syntax-ns#"
   xmlns:svg="http://www.w3.org/2000/svg"
   xmlns="http://www.w3.org/2000/svg"
   width="300"
   height="300"
   viewBox="0 0 79.374998 79.375002"
   version="1.1"
   id="svg8">
  <defs
     id="defs2" />
  <metadata
     id="metadata5">
    <rdf:RDF>
      <cc:Work
         rdf:about="">
        <dc:format>image/svg+xml</dc:format>
        <dc:type
           rdf:resource="http://purl.org/dc/dcmitype/StillImage" />
        <dc:title></dc:title>
      </cc:Work>
    </rdf:RDF>
  </metadata>
  <path
     id="path4565"
     d="m 40.099035,23.468338 c -1.115011,0.414331 -20.863651,8.254 -31.1819074,12.643985 1.1405094,0.515735 31.1784564,12.740282 31.1784564,12.740282 0,0 29.786551,-12.040221 31.193323,-12.616105 C 69.760261,35.648209 41.136458,23.949306 40.099035,23.468338 Z m -0.0035,1.339467 8.179018,3.340583 -8.166551,3.483803 -8.196639,-3.447955 z m 9.90062,3.916013 8.064917,3.471789 -8.038208,3.294193 -8.053435,-3.267248 z m -19.78513,-0.0069 8.168296,3.482626 -8.161736,3.340121 -8.346493,-3.343111 z m 29.632566,4.074457 8.134506,3.402906 -8.090693,3.297473 -7.98877,-3.317622 z m -39.385792,0.01201 8.088378,3.38996 -8.09348,3.420556 -8.190987,-3.398064 z m 19.644814,0.151882 8.155539,3.227299 -8.15988,3.412339 -7.992679,-3.411869 c 0,0 7.828088,-3.227769 7.99702,-3.227769 z m 9.912988,3.846074 c 2.298443,0.9163 5.96451,2.499644 8.054086,3.372049 -1.591748,0.617471 -6.528357,2.593833 -8.380687,3.284295 -1.845707,-0.813949 -6.463318,-2.766911 -7.769239,-3.250136 1.577168,-0.686797 5.454027,-2.245076 8.09584,-3.406208 z m -19.801953,0.03632 8.177388,3.38838 -8.15913,3.316097 -7.939082,-3.341745 z m 9.881717,3.984662 c 0,0 7.903605,3.12774 8.028301,3.248506 -2.017541,0.824772 -4.198426,1.834525 -8.022039,3.401735 -3.425605,-1.311491 -8.160509,-3.281307 -8.160509,-3.281307 z m -20.738956,0.03211 c -0.328867,0.07073 -9.4664454,3.797617 -9.5754184,3.905468 0.3907134,0.208142 30.3079384,12.321535 30.3079384,12.321535 0,0 29.261558,-12.059244 29.836626,-12.320597 -0.620751,-0.2854 -9.181264,-3.604979 -9.561704,-3.754928 -0.385512,0.167991 -20.242475,8.230384 -20.242475,8.230384 0,0 -20.359512,-8.188682 -20.764967,-8.381862 z"
     style="fill:#ffffff;fill-opacity:1;stroke-width:0.11995926" />
</svg>
