<?xml version="1.0" encoding="UTF-8" standalone="no"?>
<svg
   xmlns:dc="http://purl.org/dc/elements/1.1/"
   xmlns:cc="http://creativecommons.org/ns#"
   xmlns:rdf="http://www.w3.org/1999/02/22-rdf-syntax-ns#"
   xmlns:svg="http://www.w3.org/2000/svg"
   xmlns="http://www.w3.org/2000/svg"
   id="svg8"
   version="1.1"
   viewBox="0 0 79.374998 79.375002"
   height="300"
   width="300">
  <defs
     id="defs2" />
  <metadata
     id="metadata5">
    <rdf:RDF>
      <cc:Work
         rdf:about="">
        <dc:format>image/svg+xml</dc:format>
        <dc:type
           rdf:resource="http://purl.org/dc/dcmitype/StillImage" />
        <dc:title></dc:title>
      </cc:Work>
    </rdf:RDF>
  </metadata>
  <g
     transform="translate(0,-217.62499)"
     id="layer1">
    <path
       id="rect825"
       transform="matrix(0.26458333,0,0,0.26458333,0,217.62499)"
       d="M 47.619141 19.541016 C 45.815083 19.512203 44.572266 19.699291 44.572266 20.15625 C 44.572266 20.840004 165.82462 141.45766 166.58008 141.52539 C 166.8601 141.55185 176.24837 132.40617 187.44141 121.20312 L 207.79102 100.83398 L 200.43164 96.808594 C 153.06231 70.906471 61.966636 22.521468 58.142578 21.232422 C 55.188315 20.236564 50.625904 19.589037 47.619141 19.541016 z M 30.009766 29.572266 C 28.345006 29.572266 25.753323 35.856878 24.564453 42.777344 C 23.821943 47.099536 23.575204 83.211655 23.777344 158.07227 C 24.051084 259.45341 24.193855 267.3792 25.833984 271.48438 C 26.803844 273.91189 28.124075 276.53166 28.765625 277.30469 C 29.717345 278.45147 41.449986 267.19063 92.5 216.14062 L 155.06836 153.57422 L 93.072266 91.572266 C 58.975039 57.471705 30.597055 29.572266 30.009766 29.572266 z M 223.21484 109.57227 C 222.57629 109.57227 212.16293 119.47222 200.07227 131.57227 L 178.08789 153.57227 L 200.53125 176.03125 L 222.97461 198.49023 L 234.02344 192.58594 C 240.10017 189.33823 250.34195 183.84459 256.7832 180.37695 C 270.7352 172.86597 276.61648 168.1768 279.46289 162.29688 C 283.51111 153.93437 281.47812 145.36013 273.64648 137.75977 C 270.04944 134.26896 225.86304 109.57227 223.21484 109.57227 z M 166.73828 165.24414 L 105.17969 226.11328 C 63.987989 266.84502 44.028175 287.24304 44.847656 287.76367 C 46.668326 288.92036 49.499455 288.74229 55.933594 287.06641 C 59.423387 286.15743 74.271219 278.77653 93.392578 268.44727 C 110.81578 259.03537 143.52227 241.40909 166.07227 229.2793 C 188.62226 217.14947 207.27608 207.0615 207.52734 206.85938 C 207.77861 206.65717 198.70433 197.21019 187.36133 185.86719 L 166.73828 165.24414 z "
       style="opacity:1;fill:#ffffff;fill-opacity:1;fill-rule:evenodd;stroke:none;stroke-width:0;stroke-linecap:square;stroke-linejoin:miter;stroke-miterlimit:4;stroke-dasharray:none;stroke-opacity:1;paint-order:normal" />
  </g>
</svg>
