<?xml version="1.0" encoding="UTF-8" standalone="no"?>
<svg
   xmlns:dc="http://purl.org/dc/elements/1.1/"
   xmlns:cc="http://creativecommons.org/ns#"
   xmlns:rdf="http://www.w3.org/1999/02/22-rdf-syntax-ns#"
   xmlns:svg="http://www.w3.org/2000/svg"
   xmlns="http://www.w3.org/2000/svg"
   xmlns:sodipodi="http://sodipodi.sourceforge.net/DTD/sodipodi-0.dtd"
   xmlns:inkscape="http://www.inkscape.org/namespaces/inkscape"
   id="svg8"
   version="1.1"
   viewBox="0 0 79.374998 79.375002"
   height="300"
   width="300"
   sodipodi:docname="playstore.svg"
   inkscape:version="0.92.4 (5da689c313, 2019-01-14)">
  <sodipodi:namedview
     pagecolor="#ffffff"
     bordercolor="#666666"
     borderopacity="1"
     objecttolerance="10"
     gridtolerance="10"
     guidetolerance="10"
     inkscape:pageopacity="0"
     inkscape:pageshadow="2"
     inkscape:window-width="1195"
     inkscape:window-height="930"
     id="namedview7"
     showgrid="false"
     borderlayer="true"
     inkscape:showpageshadow="false"
     inkscape:zoom="2.2250293"
     inkscape:cx="144.69374"
     inkscape:cy="155.04921"
     inkscape:window-x="648"
     inkscape:window-y="36"
     inkscape:window-maximized="0"
     inkscape:current-layer="svg8" />
  <defs
     id="defs2" />
  <metadata
     id="metadata5">
    <rdf:RDF>
      <cc:Work
         rdf:about="">
        <dc:format>image/svg+xml</dc:format>
        <dc:type
           rdf:resource="http://purl.org/dc/dcmitype/StillImage" />
        <dc:title></dc:title>
      </cc:Work>
    </rdf:RDF>
  </metadata>
  <g
     transform="matrix(0.46902715,0,0,0.46902715,23.427059,-82.658834)"
     id="layer1">
    <path
       id="rect825"
       transform="matrix(0.26458333,0,0,0.26458333,0,217.62499)"
       d="m 47.619141,19.541016 c -1.804058,-0.02881 -3.046875,0.158275 -3.046875,0.615234 0,0.683754 121.252354,121.30141 122.007814,121.36914 0.28002,0.0265 9.66829,-9.11922 20.86133,-20.32227 l 20.34961,-20.36914 -7.35938,-4.025386 C 153.06231,70.906471 61.966636,22.521468 58.142578,21.232422 55.188315,20.236564 50.625904,19.589037 47.619141,19.541016 Z m -17.609375,10.03125 c -1.66476,0 -4.256443,6.284612 -5.445313,13.205078 -0.74251,4.322192 -0.989249,40.434311 -0.787109,115.294926 0.27374,101.38114 0.416511,109.30693 2.05664,113.41211 0.96986,2.42751 2.290091,5.04728 2.931641,5.82031 0.95172,1.14678 12.684361,-10.11406 63.734375,-61.16407 l 62.56836,-62.5664 -61.996094,-62.001954 c -34.097227,-34.100561 -62.475211,-62 -63.0625,-62 z M 223.21484,109.57227 c -0.63855,0 -11.05191,9.89995 -23.14257,22 l -21.98438,22 22.44336,22.45898 22.44336,22.45898 11.04883,-5.90429 c 6.07673,-3.24771 16.31851,-8.74135 22.75976,-12.20899 13.952,-7.51098 19.83328,-12.20015 22.67969,-18.08007 4.04822,-8.36251 2.01523,-16.93675 -5.81641,-24.53711 -3.59704,-3.49081 -47.78344,-28.1875 -50.43164,-28.1875 z m -56.47656,55.67187 -61.55859,60.86914 c -41.191701,40.73174 -61.151515,61.12976 -60.332034,61.65039 1.82067,1.15669 4.651799,0.97862 11.085938,-0.69726 3.489793,-0.90898 18.337625,-8.28988 37.458984,-18.61914 17.423202,-9.4119 50.129692,-27.03818 72.679692,-39.16797 22.54999,-12.12983 41.20381,-22.2178 41.45507,-22.41992 0.25127,-0.20221 -8.82301,-9.64919 -20.16601,-20.99219 z"
       style="opacity:1;fill:#ffffff;fill-opacity:1;fill-rule:evenodd;stroke:none;stroke-width:0;stroke-linecap:square;stroke-linejoin:miter;stroke-miterlimit:4;stroke-dasharray:none;stroke-opacity:1;paint-order:normal"
       inkscape:connector-curvature="0" />
  </g>
</svg>
