<?xml version="1.0" encoding="UTF-8" standalone="no"?>
<svg
   xmlns:dc="http://purl.org/dc/elements/1.1/"
   xmlns:cc="http://creativecommons.org/ns#"
   xmlns:rdf="http://www.w3.org/1999/02/22-rdf-syntax-ns#"
   xmlns:svg="http://www.w3.org/2000/svg"
   xmlns="http://www.w3.org/2000/svg"
   xmlns:sodipodi="http://sodipodi.sourceforge.net/DTD/sodipodi-0.dtd"
   xmlns:inkscape="http://www.inkscape.org/namespaces/inkscape"
   id="svg8"
   version="1.1"
   viewBox="0 0 79.374998 79.375002"
   height="300"
   width="300"
   sodipodi:docname="pythonanywhere.svg"
   inkscape:version="0.92.4 (5da689c313, 2019-01-14)">
  <sodipodi:namedview
     pagecolor="#ffffff"
     bordercolor="#666666"
     borderopacity="1"
     objecttolerance="10"
     gridtolerance="10"
     guidetolerance="10"
     inkscape:pageopacity="0"
     inkscape:pageshadow="2"
     inkscape:window-width="1190"
     inkscape:window-height="805"
     id="namedview7"
     showgrid="false"
     borderlayer="true"
     inkscape:showpageshadow="false"
     inkscape:zoom="1.5364583"
     inkscape:cx="137.11855"
     inkscape:cy="150.76933"
     inkscape:window-x="622"
     inkscape:window-y="165"
     inkscape:window-maximized="0"
     inkscape:current-layer="svg8" />
  <defs
     id="defs2" />
  <metadata
     id="metadata5">
    <rdf:RDF>
      <cc:Work
         rdf:about="">
        <dc:format>image/svg+xml</dc:format>
        <dc:type
           rdf:resource="http://purl.org/dc/dcmitype/StillImage" />
        <dc:title></dc:title>
      </cc:Work>
    </rdf:RDF>
  </metadata>
  <g
     transform="matrix(0.70140577,0,0,0.70140577,13.700448,-139.60235)"
     id="layer1">
    <path
       id="path823"
       d="m 36.08441,285.56579 c -0.421596,-0.27916 -0.772493,-0.52497 -0.77977,-0.54628 -0.0098,-0.0287 2.225699,-16.54502 2.420049,-17.87999 l 0.03113,-0.21382 0.812332,0.54128 c 0.446781,0.29769 0.812029,0.56639 0.81165,0.59709 -3.68e-4,0.0307 -0.480649,3.59719 -1.067275,7.92552 -0.586629,4.32836 -1.062089,7.87496 -1.056575,7.88136 0.0055,0.007 3.193556,-1.72678 7.08454,-3.8515 3.890991,-2.12473 7.121915,-3.88511 7.179839,-3.91196 0.08784,-0.0407 0.238534,0.0382 0.908324,0.47568 0.625889,0.40879 0.788649,0.53742 0.737873,0.58312 -0.07629,0.0686 -16.125543,8.84821 -16.238939,8.88333 -0.04217,0.0131 -0.421591,-0.20467 -0.843182,-0.48383 z m -11.335235,-6.39508 -7.600928,-5.22519 0.03223,-0.28106 c 0.01772,-0.15459 0.0816,-0.58001 0.141957,-0.94538 l 0.109739,-0.66434 8.840652,-2.79449 c 4.862357,-1.53697 8.864916,-2.79601 8.894577,-2.79784 0.06411,-0.004 -0.214049,1.84428 -0.284074,1.88755 -0.02507,0.0154 -3.530147,1.13123 -7.789076,2.47941 -7.182653,2.27371 -7.737105,2.45721 -7.655202,2.53376 0.04857,0.0454 3.049029,2.12249 6.667693,4.6158 3.618664,2.49328 6.579386,4.56425 6.579386,4.60213 0,0.0378 -0.05725,0.43297 -0.127232,0.87798 -0.06998,0.445 -0.127465,0.83784 -0.127753,0.87297 -3.07e-4,0.0351 -0.01866,0.0639 -0.04075,0.0639 -0.02214,0 -3.460672,-2.35133 -7.641184,-5.22517 z m 26.316472,-5.41158 c -0.01841,-0.31907 -0.03354,-0.76728 -0.03364,-0.99602 v -0.41588 l 0.472695,-0.11456 c 4.229643,-1.02519 7.670798,-3.23645 10.138012,-6.51457 1.937687,-2.57457 3.026658,-5.38131 3.365023,-8.67313 0.09036,-0.87899 0.102509,-2.84523 0.02351,-3.80577 -0.04752,-0.57798 -0.249098,-2.12565 -0.331506,-2.54529 l -0.03006,-0.15313 0.948503,-0.30252 c 0.521674,-0.16638 0.961104,-0.28991 0.976517,-0.27449 0.07687,0.0768 0.375362,1.82478 0.517423,3.02991 0.129896,1.10193 0.130497,3.938 9.67e-4,4.98246 -0.446509,3.60279 -1.734703,6.66954 -3.992576,9.50497 -0.628483,0.78924 -2.011605,2.18027 -2.762482,2.77825 -1.839519,1.46495 -3.950663,2.58251 -6.332213,3.35202 -0.636334,0.20561 -2.287127,0.62791 -2.71752,0.69519 l -0.209077,0.0327 -0.03344,-0.58013 z m -34.47667,-4.42469 c 0,-0.17563 2.819588,-17.87656 2.851755,-17.90286 0.01953,-0.0159 0.432225,-0.15224 0.917103,-0.30284 l 0.881584,-0.27377 0.445874,0.43058 c 1.72174,1.66269 12.688054,12.5414 12.653617,12.55253 -0.02371,0.008 -0.445061,0.14019 -0.936375,0.29449 l -0.893303,0.28055 -0.227799,-0.21624 c -0.125285,-0.11895 -2.724266,-2.67683 -5.775514,-5.68418 -4.8159,-4.74662 -5.549878,-5.45106 -5.564125,-5.34016 -0.0089,0.0702 -0.573745,3.62096 -1.254936,7.89045 l -1.238522,7.7627 -0.929677,0.29171 c -0.71635,0.22478 -0.929682,0.27458 -0.929682,0.21704 z m 25.887843,-0.38851 c -1.228142,-4.22535 -1.104058,-8.38328 0.361684,-12.1196 2.11174,-5.38301 6.341514,-9.25306 12.539977,-11.4735 0.796841,-0.28544 2.29235,-0.72688 2.366355,-0.69847 0.06104,0.0234 0.378931,1.85202 0.330389,1.90055 -0.0121,0.0121 -0.434816,0.16292 -0.939321,0.33512 -2.797328,0.95472 -5.074737,2.15866 -6.99613,3.69846 -0.627409,0.50282 -1.740773,1.57963 -2.275477,2.20078 -1.390578,1.61544 -2.568559,3.69164 -3.245259,5.71981 -0.982779,2.94554 -1.094399,5.85228 -0.352336,9.17524 0.07233,0.32388 0.135072,0.60946 0.139426,0.63465 0.0046,0.0251 -0.410701,0.23593 -0.922343,0.46834 l -0.930252,0.42254 z m -6.361978,-6.87777 -0.684999,-0.65537 2.621656,-7.54492 c 1.441909,-4.14972 2.612505,-7.55242 2.601323,-7.56159 -0.0112,-0.009 -3.523605,1.08685 -7.80538,2.43562 l -7.785051,2.45227 -0.687375,-0.68439 c -0.640503,-0.63775 -0.679378,-0.68738 -0.570135,-0.72791 0.06449,-0.024 4.061042,-1.29031 8.88124,-2.81418 l 8.764,-2.77069 0.69996,0.65942 0.699961,0.65942 -0.225596,0.64725 c -0.124075,0.35598 -1.473875,4.22866 -2.999549,8.60595 -1.525679,4.3773 -2.785459,7.95776 -2.799512,7.95659 -0.01407,-7.4e-4 -0.333795,-0.29703 -0.710543,-0.65747 z m 22.0135,-1.04714 c -0.815959,-0.31389 -1.181609,-1.03595 -0.938732,-1.85379 0.173499,-0.58424 0.856419,-1.39789 1.409473,-1.67928 0.932362,-0.47437 2.139767,0.23501 2.141558,1.25822 9.67e-4,0.40795 -0.11878,0.7547 -0.410278,1.19051 -0.297441,0.44472 -0.712817,0.84227 -1.051198,1.00606 -0.297063,0.14382 -0.877797,0.18332 -1.150823,0.0783 z m -56.4611608,-4.5585 c -0.3794321,-0.26462 -0.72112274,-0.50031 -0.75931252,-0.52373 -0.0569318,-0.0349 0.15855942,-1.69806 1.19667012,-9.23579 0.6963585,-5.05628 1.280994,-9.21082 1.2991939,-9.23231 0.018195,-0.0214 0.3765372,0.19459 0.7963095,0.4802 0.4197715,0.28561 0.7676791,0.52227 0.7731264,0.52594 0.00549,0.004 -0.4831632,3.60489 -1.0858035,8.00272 -0.6026383,4.39785 -1.0957599,8.04562 -1.0958235,8.10616 -1.024e-4,0.0935 1.0128151,-0.47578 6.7325793,-3.7838 3.7029811,-2.14163 6.8666971,-3.97029 7.0304841,-4.06371 l 0.297784,-0.16985 0.783696,0.5298 c 0.586197,0.3963 0.768712,0.54424 0.724252,0.58702 -0.06958,0.0669 -15.8489529,9.21361 -15.9410641,9.24039 -0.034215,0.01 -0.372657,-0.19843 -0.7520917,-0.46304 z m 50.5046478,0.341 c -0.29548,-0.13415 -0.653024,-0.47655 -0.787332,-0.75398 -0.134976,-0.27884 -0.149674,-0.79448 -0.03214,-1.12775 0.215553,-0.6112 0.874043,-1.38852 1.37307,-1.62081 0.389499,-0.18132 0.940229,-0.18103 1.304879,7.6e-4 1.137699,0.56693 1.169468,1.76011 0.07831,2.94093 -0.445426,0.48202 -0.807363,0.66079 -1.334784,0.65928 -0.270171,-7.6e-4 -0.45286,-0.0307 -0.60201,-0.0983 z m 10.372789,-10.18296 c -0.483662,-0.2561 -0.872293,-0.47915 -0.863622,-0.49565 0.0087,-0.0165 0.883102,-1.59723 1.9432,-3.51272 l 1.92743,-3.48272 -0.05105,-6.14926 c -0.02809,-3.38209 -0.04687,-6.15137 -0.04176,-6.15395 0.0052,-0.002 0.509442,0.25768 1.120749,0.57836 l 1.111468,0.58306 v 3.48961 c 0,1.91928 -0.02497,4.13835 -0.05549,4.93124 -0.03053,0.79289 -0.04605,1.45109 -0.03445,1.46269 0.01161,0.0116 0.237687,-0.13171 0.502468,-0.31841 1.239017,-0.87367 7.878089,-5.14643 7.991597,-5.14323 0.05351,0.002 2.013434,1.02127 2.083839,1.08423 0.02071,0.0186 -2.396396,1.51603 -5.371242,3.32788 l -5.40881,3.29428 -1.933238,3.4877 c -1.063285,1.91826 -1.957636,3.48656 -1.987459,3.48512 -0.02981,-0.002 -0.449943,-0.21213 -0.933605,-0.46823 z m -39.720966,0.12589 c 10e-5,-0.0491 0.575017,-4.06452 1.27755,-8.92296 0.702529,-4.85845 1.277329,-8.86384 1.277329,-8.90086 0,-0.0701 1.740759,-0.65656 1.860776,-0.62692 0.109547,0.0269 13.269394,12.73114 13.228047,12.76992 -0.02159,0.0203 -0.440104,0.16657 -0.93001,0.32515 l -0.890741,0.28829 -0.335713,-0.32893 c -1.29763,-1.27147 -11.315706,-10.86533 -11.330405,-10.85063 -0.01015,0.0101 -0.523425,3.48876 -1.140642,7.73026 -0.617215,4.24151 -1.13545,7.78619 -1.151636,7.87709 -0.02931,0.16465 -0.03258,0.16627 -0.910082,0.44714 -0.484356,0.15504 -0.897311,0.28189 -0.917675,0.28189 -0.02038,0 -0.03693,-0.0402 -0.03677,-0.0894 z M 12.296406,241.3089 c -4.1737586,-2.83764 -7.6205923,-5.17793 -7.6596321,-5.20068 -0.059591,-0.0347 -0.048575,-0.18796 0.068626,-0.95515 0.076785,-0.50261 0.1553471,-0.93056 0.1745916,-0.95101 0.041649,-0.0443 17.6908565,-5.72662 17.7124615,-5.70272 0.0082,0.009 -0.04626,0.42824 -0.121038,0.93151 -0.09518,0.64077 -0.158533,0.92831 -0.211346,0.95928 -0.04146,0.0243 -3.535941,1.16061 -7.765474,2.52505 -4.229532,1.36442 -7.6973539,2.48805 -7.7062707,2.49698 -0.00889,0.009 2.9974364,2.0689 6.6807877,4.57776 4.974791,3.38848 6.69701,4.58671 6.69701,4.65938 0,0.10747 -0.250873,1.79061 -0.269497,1.80807 -0.0064,0.006 -3.42646,-2.31086 -7.600219,-5.14847 z"
       style="fill:#ffffff;fill-opacity:1;stroke-width:0.05110205"
       inkscape:connector-curvature="0" />
  </g>
</svg>
