<?xml version="1.0" encoding="UTF-8" standalone="no"?>
<svg
   xmlns:dc="http://purl.org/dc/elements/1.1/"
   xmlns:cc="http://creativecommons.org/ns#"
   xmlns:rdf="http://www.w3.org/1999/02/22-rdf-syntax-ns#"
   xmlns:svg="http://www.w3.org/2000/svg"
   xmlns="http://www.w3.org/2000/svg"
   height="300"
   width="300"
   id="svg24"
   version="1.1"
   viewbox="0 0 300 300">
  <metadata
     id="metadata30">
    <rdf:RDF>
      <cc:Work
         rdf:about="">
        <dc:format>image/svg+xml</dc:format>
        <dc:type
           rdf:resource="http://purl.org/dc/dcmitype/StillImage" />
        <dc:title></dc:title>
      </cc:Work>
    </rdf:RDF>
  </metadata>
  <defs
     id="defs28" />
  <g
     transform="matrix(3.030908,0,0,3.030908,-40.665196,-26.878019)"
     id="g22">
    <path
       id="ellipse2"
       d="M 62.810417,42.241143 A 45.502106,30.334737 0 0 0 17.308309,72.575882 45.502106,30.334737 0 0 0 62.810417,102.91062 45.502106,30.334737 0 0 0 108.31252,72.575882 45.502106,30.334737 0 0 0 62.810417,42.241143 Z M 47.643046,57.408514 a 7.5836843,7.5836843 0 0 1 7.583686,7.583685 7.5836843,7.5836843 0 0 1 -7.583686,7.583683 7.5836843,7.5836843 0 0 1 -7.583684,-7.583683 7.5836843,7.5836843 0 0 1 7.583684,-7.583685 z m 30.334739,0 a 7.5836843,7.5836843 0 0 1 7.583685,7.583685 7.5836843,7.5836843 0 0 1 -7.583685,7.583683 7.5836843,7.5836843 0 0 1 -7.583685,-7.583683 7.5836843,7.5836843 0 0 1 7.583685,-7.583685 z m 0.01703,28.424744 a 1.8961107,1.8961107 0 0 1 0.987953,3.517823 c 0,0 -16.213902,10.081756 -32.344712,0 a 1.8961107,1.8961107 0 1 1 2.009973,-3.215664 c 14.203931,8.877454 28.324767,0 28.324767,0 a 1.8961107,1.8961107 0 0 1 1.022019,-0.302159 z"
       style="fill:#ffffff;stroke-width:0" />
    <circle
       style="fill:#000000;fill-opacity:0;stroke:#ffffff;stroke-width:3.79184198"
       r="9.4796057"
       id="ellipse12"
       cy="53.616394"
       cx="26.787636" />
    <circle
       style="fill:#000000;fill-opacity:0;stroke:#ffffff;stroke-width:3.79184198"
       r="9.4796057"
       id="ellipse14"
       cy="53.616394"
       cx="98.832634" />
    <line
       style="fill:none;stroke:#ffffff;stroke-width:3.79184198;stroke-linecap:round"
       id="line16"
       x1="61.672585"
       y1="43.757603"
       x2="69.256264"
       y2="16.456341" />
    <line
       style="fill:none;stroke:#ffffff;stroke-width:3.79184198;stroke-linecap:round"
       id="line18"
       x1="69.256264"
       y1="16.456341"
       x2="85.561188"
       y2="26.315128" />
    <circle
       style="fill:#000000;fill-opacity:0;stroke:#ffffff;stroke-width:3.79184198"
       r="7.583684"
       id="ellipse20"
       cy="28.969418"
       cx="93.144875" />
  </g>
</svg>
