<?xml version="1.0" encoding="UTF-8" standalone="no"?>
<svg
   xmlns:dc="http://purl.org/dc/elements/1.1/"
   xmlns:cc="http://creativecommons.org/ns#"
   xmlns:rdf="http://www.w3.org/1999/02/22-rdf-syntax-ns#"
   xmlns:svg="http://www.w3.org/2000/svg"
   xmlns="http://www.w3.org/2000/svg"
   xmlns:sodipodi="http://sodipodi.sourceforge.net/DTD/sodipodi-0.dtd"
   xmlns:inkscape="http://www.inkscape.org/namespaces/inkscape"
   id="svg8"
   version="1.1"
   viewBox="0 0 79.374998 79.375002"
   height="300"
   width="300"
   sodipodi:docname="redlettermedia.svg"
   inkscape:version="0.92.4 (5da689c313, 2019-01-14)">
  <sodipodi:namedview
     pagecolor="#ffffff"
     bordercolor="#666666"
     borderopacity="1"
     objecttolerance="10"
     gridtolerance="10"
     guidetolerance="10"
     inkscape:pageopacity="0"
     inkscape:pageshadow="2"
     inkscape:window-width="928"
     inkscape:window-height="745"
     id="namedview7"
     showgrid="false"
     borderlayer="true"
     inkscape:showpageshadow="false"
     inkscape:zoom="1.5733333"
     inkscape:cx="138.20019"
     inkscape:cy="148.25855"
     inkscape:window-x="975"
     inkscape:window-y="121"
     inkscape:window-maximized="0"
     inkscape:current-layer="svg8" />
  <defs
     id="defs2" />
  <metadata
     id="metadata5">
    <rdf:RDF>
      <cc:Work
         rdf:about="">
        <dc:format>image/svg+xml</dc:format>
        <dc:type
           rdf:resource="http://purl.org/dc/dcmitype/StillImage" />
        <dc:title />
      </cc:Work>
    </rdf:RDF>
  </metadata>
  <g
     transform="matrix(0.58893823,0,0,0.58893823,16.49876,-112.5924)"
     id="layer1">
    <path
       id="text814"
       d="M 6.5854225,273.18749 H 1.3691791 l 5.3007171,-30.95957 c 4.4724528,0.0577 8.9543088,-0.12702 13.4197488,0.11586 4.034049,0.10483 6.02734,4.37472 6.009173,8.01476 -0.01978,3.96241 -2.149334,8.82179 -7.160952,9.68917 1.78121,4.60237 3.41274,8.73352 5.133587,13.13982 H 18.45396 c -1.254754,-3.80792 -3.194896,-8.82445 -4.610234,-12.79399 l -5.0619901,-0.0248 -2.1963134,12.81887 z m 2.9988122,-17.4649 c 0,2e-5 3.8170953,0.0303 6.9348943,0.0219 5.008162,-0.0136 6.193581,-8.01292 0.293847,-8.1428 -2.904704,-0.064 -5.764098,0.0346 -5.764098,0.0346 l -1.4646433,8.08644 z m 17.4226753,17.4649 5.300716,-30.95957 h 5.237362 c -1.478288,8.59518 -2.956575,17.19037 -4.434863,25.78555 h 12.924457 l -0.886972,5.17402 z m 36.154686,0 h -4.962823 l -0.90809,-25.87003 c -1.344537,8.62333 -2.689075,17.24669 -4.033614,25.87003 h -4.7094 c 1.766905,-10.31986 3.53381,-20.63972 5.300716,-30.95957 h 7.454792 l 0.781381,21.6886 c 2.886181,-7.22953 5.772361,-14.45907 8.658542,-21.6886 h 7.518148 l -5.300717,30.95957 h -4.772757 l 5.005059,-25.67998 c -3.343745,8.56 -6.68749,17.12 -10.031237,25.67998 z"
       style="font-style:normal;font-weight:normal;font-size:10.58333302px;line-height:1.25;font-family:sans-serif;letter-spacing:0px;word-spacing:0px;fill:#ffffff;fill-opacity:1;stroke:none;stroke-width:0.32437849"
       inkscape:connector-curvature="0" />
  </g>
</svg>
