<?xml version="1.0" encoding="UTF-8" standalone="no"?>
<svg
   xmlns:dc="http://purl.org/dc/elements/1.1/"
   xmlns:cc="http://creativecommons.org/ns#"
   xmlns:rdf="http://www.w3.org/1999/02/22-rdf-syntax-ns#"
   xmlns:svg="http://www.w3.org/2000/svg"
   xmlns="http://www.w3.org/2000/svg"
   xmlns:sodipodi="http://sodipodi.sourceforge.net/DTD/sodipodi-0.dtd"
   xmlns:inkscape="http://www.inkscape.org/namespaces/inkscape"
   id="svg8"
   version="1.1"
   viewBox="0 0 79.374998 79.375002"
   height="300"
   width="300"
   sodipodi:docname="skype.svg"
   inkscape:version="0.92.4 (5da689c313, 2019-01-14)">
  <sodipodi:namedview
     pagecolor="#ffffff"
     bordercolor="#666666"
     borderopacity="1"
     objecttolerance="10"
     gridtolerance="10"
     guidetolerance="10"
     inkscape:pageopacity="0"
     inkscape:pageshadow="2"
     inkscape:window-width="1215"
     inkscape:window-height="928"
     id="namedview7"
     showgrid="false"
     inkscape:zoom="2.2250293"
     inkscape:cx="120.1908"
     inkscape:cy="141.24778"
     inkscape:window-x="693"
     inkscape:window-y="58"
     inkscape:window-maximized="0"
     inkscape:current-layer="svg8" />
  <defs
     id="defs2" />
  <metadata
     id="metadata5">
    <rdf:RDF>
      <cc:Work
         rdf:about="">
        <dc:format>image/svg+xml</dc:format>
        <dc:type
           rdf:resource="http://purl.org/dc/dcmitype/StillImage" />
        <dc:title />
      </cc:Work>
    </rdf:RDF>
  </metadata>
  <g
     transform="matrix(0.52190756,0,0,0.52190756,19.667502,-94.85541)"
     id="layer1">
    <path
       id="rect838"
       transform="matrix(0.26458333,0,0,0.26458333,0,217.62499)"
       d="M 85.474609,6.6015625 C 78.482769,6.5233823 71.616576,7.2585205 65.609375,8.8710938 29.672521,18.517922 5.9754016,49.186293 6.0117188,86.001953 c 0.012548,12.724611 1.7396651,21.407947 6.4316402,32.332027 3.424201,7.97235 3.544719,8.67059 3.554688,20.70899 0.02098,25.33481 3.182979,46.80372 9.28125,63.00391 15.651049,41.57741 49.019631,70.56142 92.208983,80.0957 6.83502,1.5089 15.01382,2.17389 34,2.76172 22.37349,0.69267 25.42113,0.98912 29.01172,2.83398 14.66566,7.53532 36.1816,9.78898 53.48828,5.60156 21.38067,-5.17315 41.34562,-20.78237 51.34375,-40.14062 6.88901,-13.33837 9.03308,-22.13528 9.06641,-37.19727 0.0299,-13.45164 -1.6767,-21.75883 -6.88477,-33.53515 -2.32592,-5.25933 -2.57757,-7.26518 -3.11914,-24.8418 C 283.4473,126.88323 280.23395,111.50729 270.57422,91.501953 263.5786,77.014041 254.85143,65.035767 243.00781,53.667969 224.46199,35.867263 203.03942,24.662299 177.48828,19.398438 c -3.85,-0.793134 -17.575,-1.858539 -30.5,-2.367188 C 124.58992,16.149826 123.23239,15.983976 118.06641,13.470703 109.12673,9.1215771 97.127676,6.7318628 85.474609,6.6015625 Z M 146.48242,64.287109 c 10.99999,-0.06418 22.41641,1.632459 33.44727,5.308594 13.36702,4.454665 20.05062,8.293984 27.73047,15.929688 7.3764,7.333984 10.20779,14.490109 8.39648,21.216799 -2.28899,8.50068 -12.70596,13.78259 -22.16211,11.23633 -3.06288,-0.82477 -6.18075,-3.15997 -12.14062,-9.0879 -8.44846,-8.40317 -13.05933,-11.337204 -21.26563,-13.529292 -6.77792,-1.810545 -20.93932,-1.715543 -27.33398,0.183594 -15.72684,4.670358 -20.38364,21.640848 -8.01953,29.222658 4.92706,3.02131 10.74806,4.68081 37.35351,10.64453 27.01439,6.05545 32.89317,8.00197 41.48633,13.74023 14.522,9.69744 21.85876,26.94449 19.08008,44.85352 -3.42767,22.09183 -17.51924,36.11641 -42.82813,42.62109 -12.52611,3.21937 -35.10733,4.08087 -48.70703,1.85938 -29.96429,-4.89464 -50.710468,-20.56457 -52.193358,-39.42188 -0.818419,-10.40753 5.714215,-17.0625 16.748047,-17.0625 7.146931,0 10.200161,1.99113 18.875001,12.3086 11.23416,13.36142 19.25702,17.12489 36.53906,17.14257 12.14012,0.0113 18.44534,-1.89053 24.80469,-7.48828 10.41712,-9.16951 9.6241,-22.75929 -1.67383,-28.67187 -1.72198,-0.90115 -16.37154,-4.90113 -32.55273,-8.88672 -23.45291,-5.77671 -31.11055,-8.0821 -37.75196,-11.37305 -9.927107,-4.91905 -16.957728,-11.53122 -20.982419,-19.73242 -2.69997,-5.50178 -3.510379,-8.99655 -3.738281,-19.29883 -0.208063,-9.40494 0.977778,-13.67585 4.136719,-20.3457 C 92.98385,76.11852 118.37134,64.451132 146.48242,64.287109 Z"
       style="opacity:1;fill:#ffffff;fill-opacity:1;fill-rule:evenodd;stroke:#ffffff;stroke-width:0;stroke-linecap:square;stroke-linejoin:round;stroke-miterlimit:4;stroke-dasharray:none;stroke-opacity:1;paint-order:normal"
       inkscape:connector-curvature="0" />
  </g>
</svg>
