<?xml version="1.0" encoding="UTF-8" standalone="no"?>
<svg
   xmlns:dc="http://purl.org/dc/elements/1.1/"
   xmlns:cc="http://creativecommons.org/ns#"
   xmlns:rdf="http://www.w3.org/1999/02/22-rdf-syntax-ns#"
   xmlns:svg="http://www.w3.org/2000/svg"
   xmlns="http://www.w3.org/2000/svg"
   id="svg8"
   version="1.1"
   viewBox="0 0 79.374998 79.375002"
   height="300"
   width="300">
  <defs
     id="defs2" />
  <metadata
     id="metadata5">
    <rdf:RDF>
      <cc:Work
         rdf:about="">
        <dc:format>image/svg+xml</dc:format>
        <dc:type
           rdf:resource="http://purl.org/dc/dcmitype/StillImage" />
        <dc:title></dc:title>
      </cc:Work>
    </rdf:RDF>
  </metadata>
  <g
     transform="translate(0,-217.62499)"
     id="layer1">
    <path
       id="rect838"
       transform="matrix(0.26458333,0,0,0.26458333,0,217.62499)"
       d="M 85.474609 6.6015625 C 78.482769 6.5233823 71.616576 7.2585205 65.609375 8.8710938 C 29.672521 18.517922 5.9754016 49.186293 6.0117188 86.001953 C 6.0242668 98.726564 7.7513839 107.4099 12.443359 118.33398 C 15.86756 126.30633 15.988078 127.00457 15.998047 139.04297 C 16.019023 164.37778 19.181026 185.84669 25.279297 202.04688 C 40.930346 243.62429 74.298928 272.6083 117.48828 282.14258 C 124.3233 283.65148 132.5021 284.31647 151.48828 284.9043 C 173.86177 285.59697 176.90941 285.89342 180.5 287.73828 C 195.16566 295.2736 216.6816 297.52726 233.98828 293.33984 C 255.36895 288.16669 275.3339 272.55747 285.33203 253.19922 C 292.22104 239.86085 294.36511 231.06394 294.39844 216.00195 C 294.4283 202.55031 292.72174 194.24312 287.51367 182.4668 C 285.18775 177.20747 284.9361 175.20162 284.39453 157.625 C 283.4473 126.88323 280.23395 111.50729 270.57422 91.501953 C 263.5786 77.014041 254.85143 65.035767 243.00781 53.667969 C 224.46199 35.867263 203.03942 24.662299 177.48828 19.398438 C 173.63828 18.605304 159.91328 17.539899 146.98828 17.03125 C 124.58992 16.149826 123.23239 15.983976 118.06641 13.470703 C 109.12673 9.1215771 97.127676 6.7318628 85.474609 6.6015625 z M 146.48242 64.287109 C 157.48241 64.222927 168.89883 65.919568 179.92969 69.595703 C 193.29671 74.050368 199.98031 77.889687 207.66016 85.525391 C 215.03656 92.859375 217.86795 100.0155 216.05664 106.74219 C 213.76765 115.24287 203.35068 120.52478 193.89453 117.97852 C 190.83165 117.15375 187.71378 114.81855 181.75391 108.89062 C 173.30545 100.48745 168.69458 97.553416 160.48828 95.361328 C 153.71036 93.550783 139.54896 93.645785 133.1543 95.544922 C 117.42746 100.21528 112.77066 117.18577 125.13477 124.76758 C 130.06183 127.78889 135.88283 129.44839 162.48828 135.41211 C 189.50267 141.46756 195.38145 143.41408 203.97461 149.15234 C 218.49661 158.84978 225.83337 176.09683 223.05469 194.00586 C 219.62702 216.09769 205.53545 230.12227 180.22656 236.62695 C 167.70045 239.84632 145.11923 240.70782 131.51953 238.48633 C 101.55524 233.59169 80.809062 217.92176 79.326172 199.06445 C 78.507753 188.65692 85.040387 182.00195 96.074219 182.00195 C 103.22115 182.00195 106.27438 183.99308 114.94922 194.31055 C 126.18338 207.67197 134.20624 211.43544 151.48828 211.45312 C 163.6284 211.46446 169.93362 209.56259 176.29297 203.96484 C 186.71009 194.79533 185.91707 181.20555 174.61914 175.29297 C 172.89716 174.39182 158.2476 170.39184 142.06641 166.40625 C 118.6135 160.62954 110.95586 158.32415 104.31445 155.0332 C 94.387343 150.11415 87.356722 143.50198 83.332031 135.30078 C 80.632061 129.799 79.821652 126.30423 79.59375 116.00195 C 79.385687 106.59701 80.571528 102.3261 83.730469 95.65625 C 92.98385 76.11852 118.37134 64.451132 146.48242 64.287109 z "
       style="opacity:1;fill:#ffffff;fill-opacity:1;fill-rule:evenodd;stroke:#ffffff;stroke-width:0;stroke-linecap:square;stroke-linejoin:round;stroke-miterlimit:4;stroke-dasharray:none;stroke-opacity:1;paint-order:normal" />
  </g>
</svg>
