<?xml version="1.0" encoding="UTF-8" standalone="no"?>
<svg
   xmlns:dc="http://purl.org/dc/elements/1.1/"
   xmlns:cc="http://creativecommons.org/ns#"
   xmlns:rdf="http://www.w3.org/1999/02/22-rdf-syntax-ns#"
   xmlns:svg="http://www.w3.org/2000/svg"
   xmlns="http://www.w3.org/2000/svg"
   id="svg8"
   version="1.1"
   viewBox="0 0 79.374998 79.375002"
   height="300"
   width="300">
  <defs
     id="defs2" />
  <metadata
     id="metadata5">
    <rdf:RDF>
      <cc:Work
         rdf:about="">
        <dc:format>image/svg+xml</dc:format>
        <dc:type
           rdf:resource="http://purl.org/dc/dcmitype/StillImage" />
        <dc:title></dc:title>
      </cc:Work>
    </rdf:RDF>
  </metadata>
  <g
     transform="translate(0,-217.62499)"
     id="layer1">
    <path
       id="path823"
       d="m 28.875054,293.65822 c -1.576338,-0.32618 -2.982155,-1.0877 -4.062581,-2.20068 -1.333974,-1.37415 -2.010605,-2.88193 -2.181585,-4.86136 -0.05176,-0.59925 -0.06722,-4.00703 -0.04884,-10.76533 0.02913,-10.70801 0.01297,-10.2503 0.403787,-11.43715 0.499703,-1.51751 1.66629,-3.06303 2.970576,-3.93548 2.671232,-1.78682 5.965142,-1.80257 8.65499,-0.0414 0.564824,0.36982 1.690253,1.48885 2.055315,2.04364 0.403858,0.61374 0.779252,1.38735 0.979809,2.01919 0.380994,1.20029 0.376255,1.04975 0.376699,11.96459 2.79e-4,6.86655 -0.02358,10.24388 -0.07479,10.58489 -0.269246,1.79304 -0.986611,3.25661 -2.188975,4.46594 -0.990742,0.99649 -2.180646,1.68893 -3.501399,2.0376 -0.8459,0.2233 -2.596601,0.28827 -3.38301,0.12554 z m 19.183896,-0.0429 c -2.280981,-0.47877 -4.214813,-1.97236 -5.264339,-4.0659 -0.437113,-0.87193 -0.682921,-1.66952 -0.794079,-2.57659 -0.04777,-0.38983 -0.07688,-2.13529 -0.077,-4.6177 l -1.96e-4,-3.99097 4.404568,0.0272 c 4.87439,0.0301 4.807176,0.0245 6.055775,0.50589 1.855002,0.71515 3.319408,2.05856 4.172431,3.82767 0.627538,1.30147 0.874647,2.64742 0.744996,4.0578 -0.316384,3.44182 -2.857384,6.22657 -6.272703,6.87444 -0.786952,0.14928 -2.150314,0.13006 -2.969452,-0.0419 z M 10.280248,274.46199 c -3.0700552,-0.28451 -5.7231752,-2.45989 -6.6112405,-5.42079 -0.258194,-0.86084 -0.3248099,-1.31891 -0.3248099,-2.23349 0,-3.9195 2.8849653,-7.16896 6.7896494,-7.64746 0.389828,-0.0478 2.135172,-0.0769 4.617258,-0.077 l 3.99052,-2.1e-4 -0.02369,4.43939 -0.02369,4.43938 -0.185761,0.68203 c -1.030953,3.78517 -4.40689,6.17228 -8.228228,5.81814 z m 38.989836,0.0341 c -1.730553,-0.14319 -3.049688,-0.63321 -4.331685,-1.60911 -1.943776,-1.47968 -3.134235,-4.04937 -2.986227,-6.446 0.123878,-2.0059 0.86668,-3.66358 2.27376,-5.07422 1.021052,-1.02364 2.292687,-1.73324 3.75586,-2.09584 0.585985,-0.14521 0.694536,-0.14693 10.82862,-0.17093 7.280524,-0.0173 10.435629,-0.002 10.925536,0.0541 3.190056,0.36312 5.833116,2.63316 6.637262,5.70053 0.217094,0.82808 0.293452,2.30531 0.161684,3.1278 -0.422658,2.63819 -2.222966,4.92749 -4.665764,5.93303 -0.730009,0.30049 -1.443424,0.4699 -2.334553,0.55434 -0.693129,0.0657 -19.493551,0.09 -20.264493,0.0263 z M 9.8509215,255.07479 c -2.7480073,-0.46195 -4.9896982,-2.26252 -5.9907579,-4.81188 -0.900146,-2.29237 -0.6264917,-4.92773 0.726831,-6.99956 1.3141189,-2.01181 3.4093143,-3.25162 5.8602214,-3.46771 1.088241,-0.0959 19.412796,-0.0963 20.42415,-4.1e-4 0.859807,0.0815 1.477407,0.21268 2.093447,0.44456 4.243226,1.59715 6.238103,6.48113 4.294107,10.51311 -0.421971,0.87519 -0.807398,1.41291 -1.530148,2.13472 -1.242667,1.24107 -2.614202,1.93793 -4.320399,2.19513 -0.951209,0.1434 -20.700469,0.1361 -21.5574515,-0.008 z m 38.8620635,0.0301 c -0.75877,-0.0948 -1.675637,-0.37766 -2.43731,-0.75198 -2.19773,-1.08007 -3.642127,-2.95901 -4.190416,-5.45108 -0.119916,-0.54505 -0.127105,-1.16853 -0.127105,-11.02334 0,-11.33106 -0.01521,-10.8563 0.387538,-12.0936 0.379769,-1.1667 0.878178,-1.97897 1.802963,-2.93834 1.557281,-1.61552 3.60091,-2.4235 5.877559,-2.32378 3.47713,0.1523 6.299584,2.56077 7.159376,6.10928 0.07527,0.31068 0.0928,2.43448 0.0928,11.24644 v 10.86344 l -0.166949,0.59192 c -0.39467,1.3993 -1.09461,2.62408 -2.027863,3.54844 -1.712865,1.69655 -4.051102,2.51233 -6.370593,2.2226 z m 12.499919,-3.95543 c 0,-5.01688 0.04909,-5.44615 0.800942,-7.0036 1.001003,-2.07358 2.657253,-3.44713 4.978965,-4.12911 0.528562,-0.15527 0.726081,-0.17465 1.845392,-0.18114 0.980147,-0.006 1.363905,0.0196 1.759919,0.11579 3.429608,0.83333 5.836181,3.70615 5.986507,7.14631 0.04478,1.02477 -0.05409,1.80159 -0.34201,2.68731 -0.775789,2.38654 -2.559573,4.19235 -4.917559,4.97829 -1.152423,0.38412 -1.674669,0.42009 -6.099529,0.42009 H 61.212904 Z M 29.284141,235.81831 c -1.908484,-0.22474 -3.898459,-1.38216 -5.083467,-2.95667 -1.058119,-1.40591 -1.572105,-2.92748 -1.575083,-4.66279 -0.0038,-2.19791 0.796465,-4.06413 2.392633,-5.5798 1.158204,-1.0998 2.631684,-1.82602 4.157682,-2.04915 0.782913,-0.11447 2.246212,-0.0485 2.972786,0.13398 2.562484,0.64365 4.701882,2.65234 5.485309,5.15017 0.366332,1.16798 0.389054,1.51513 0.389358,5.94854 l 2.8e-4,4.0912 -4.126018,-0.009 c -2.26931,-0.005 -4.345376,-0.0349 -4.61348,-0.0664 z"
       style="fill:#ffffff;stroke-width:0.06963743;fill-opacity:1" />
  </g>
</svg>
