<?xml version="1.0" encoding="UTF-8" standalone="no"?>
<svg
   xmlns:dc="http://purl.org/dc/elements/1.1/"
   xmlns:cc="http://creativecommons.org/ns#"
   xmlns:rdf="http://www.w3.org/1999/02/22-rdf-syntax-ns#"
   xmlns:svg="http://www.w3.org/2000/svg"
   xmlns="http://www.w3.org/2000/svg"
   id="svg8"
   version="1.1"
   viewBox="0 0 79.374998 79.375002"
   height="300"
   width="300">
  <defs
     id="defs2" />
  <metadata
     id="metadata5">
    <rdf:RDF>
      <cc:Work
         rdf:about="">
        <dc:format>image/svg+xml</dc:format>
        <dc:type
           rdf:resource="http://purl.org/dc/dcmitype/StillImage" />
        <dc:title></dc:title>
      </cc:Work>
    </rdf:RDF>
  </metadata>
  <g
     transform="translate(0,-217.62499)"
     id="layer1">
    <path
       id="rect825"
       transform="matrix(0.26458333,0,0,0.26458333,0,217.62499)"
       d="M 149.57422 28.179688 C 143.74639 28.145021 137.97852 28.614012 133.09961 29.613281 C 124.77806 31.317621 119.02566 33.211 113.26367 36.140625 C 100.04558 42.861192 87.819499 55.978601 82.111328 69.564453 C 78.661428 77.775477 77.890618 86.406505 78.611328 108.6875 C 78.946875 119.06068 79.25462 128.91952 79.296875 130.5957 C 79.411886 135.15733 76.701712 136.89004 68.904297 137.24414 C 64.12903 137.46109 61.875912 137.15443 58.152344 135.78125 C 51.411186 133.29549 49.641223 133.12018 46.482422 134.61914 C 39.40972 137.97536 43.546936 142.92843 57.34375 147.62109 C 70.412045 152.06597 75.138309 155.54545 77.052734 162.13086 C 78.066763 165.61899 78.06369 166.62484 77.027344 170.60352 C 73.789158 183.03574 58.884184 203.37453 45.814453 213.19922 C 39.858364 217.67652 28.391699 223.37603 21.3125 225.37695 C 18.33688 226.21801 15.730882 227.07769 15.521484 227.28711 C 14.795974 228.01259 17.658902 230.17504 21.939453 232.13477 C 26.472568 234.2101 38.473984 237.42837 45.058594 238.33398 C 50.39616 239.06808 51.909631 240.93094 53.949219 249.27734 C 54.875615 253.06836 56.091296 256.34526 56.652344 256.56055 C 57.213392 256.77598 60.382696 256.39222 63.695312 255.70703 C 71.244416 254.14586 84.886969 254.11701 91.382812 255.64844 C 97.793598 257.15991 100.97525 258.82675 112.37891 266.64062 C 126.67157 276.4341 131.95939 278.95206 141.36719 280.44531 C 146.82862 281.31218 158.09381 280.61892 163.19727 279.10352 L 163.19922 279.10352 C 169.41721 277.25699 176.74198 273.33918 185.91992 266.95117 C 202.11056 255.68221 207.81953 253.89852 224.80664 254.80273 C 230.39779 255.10056 236.73537 255.41081 238.89062 255.49219 L 242.80859 255.64062 L 244.78516 248.375 C 245.87153 244.37947 247.28917 240.6094 247.9375 239.99609 C 248.58583 239.38279 252.99752 238.1048 257.74023 237.15625 C 262.48295 236.2077 268.79751 234.60771 271.77148 233.60156 C 277.03386 231.82114 283.30454 228.30792 283.29883 227.14258 C 283.29726 226.82472 280.73357 225.92955 277.60156 225.1543 C 269.97946 223.26756 260.51639 218.59493 252.93359 212.97266 C 237.04556 201.1924 220.88847 177.46639 220.96875 166.0332 C 221.03051 157.23499 226.17078 152.42103 240.76953 147.48633 C 254.96124 142.68916 258.78549 138.19746 251.76758 134.56836 C 248.61667 132.93897 245.05034 133.18149 239.6875 135.39062 C 233.22635 138.05224 225.70337 138.12256 221.92578 135.55664 L 219.25586 133.74219 L 219.64844 122.39453 C 220.48033 98.36626 220.10862 83.141857 218.53906 76.859375 C 215.93114 66.42066 209.43509 55.656296 200.85938 47.566406 C 191.44833 38.688485 183.81235 34.447375 170.60156 30.759766 C 164.66076 29.101477 157.06714 28.224259 149.57422 28.179688 z "
       style="opacity:1;fill:#ffffff;fill-opacity:1;fill-rule:evenodd;stroke:#ffffff;stroke-width:0;stroke-linecap:square;stroke-linejoin:round;stroke-miterlimit:4;stroke-dasharray:none;stroke-opacity:1;paint-order:normal" />
  </g>
</svg>
