<?xml version="1.0" encoding="UTF-8" standalone="no"?>
<svg
   xmlns:dc="http://purl.org/dc/elements/1.1/"
   xmlns:cc="http://creativecommons.org/ns#"
   xmlns:rdf="http://www.w3.org/1999/02/22-rdf-syntax-ns#"
   xmlns:svg="http://www.w3.org/2000/svg"
   xmlns="http://www.w3.org/2000/svg"
   xmlns:sodipodi="http://sodipodi.sourceforge.net/DTD/sodipodi-0.dtd"
   xmlns:inkscape="http://www.inkscape.org/namespaces/inkscape"
   id="svg8"
   version="1.1"
   viewBox="0 0 79.374998 79.375002"
   height="300"
   width="300"
   sodipodi:docname="snapchat.svg"
   inkscape:version="0.92.4 (5da689c313, 2019-01-14)">
  <sodipodi:namedview
     pagecolor="#ffffff"
     bordercolor="#666666"
     borderopacity="1"
     objecttolerance="10"
     gridtolerance="10"
     guidetolerance="10"
     inkscape:pageopacity="0"
     inkscape:pageshadow="2"
     inkscape:window-width="1268"
     inkscape:window-height="961"
     id="namedview7"
     showgrid="false"
     inkscape:zoom="2.2250293"
     inkscape:cx="147.3703"
     inkscape:cy="146.93277"
     inkscape:window-x="642"
     inkscape:window-y="31"
     inkscape:window-maximized="0"
     inkscape:current-layer="svg8" />
  <defs
     id="defs2" />
  <metadata
     id="metadata5">
    <rdf:RDF>
      <cc:Work
         rdf:about="">
        <dc:format>image/svg+xml</dc:format>
        <dc:type
           rdf:resource="http://purl.org/dc/dcmitype/StillImage" />
        <dc:title />
      </cc:Work>
    </rdf:RDF>
  </metadata>
  <g
     transform="matrix(0.58758216,0,0,0.58758216,16.25412,-112.28784)"
     id="layer1">
    <path
       id="rect825"
       transform="matrix(0.26458333,0,0,0.26458333,0,217.62499)"
       d="m 149.57422,28.179688 c -5.82783,-0.03467 -11.5957,0.434324 -16.47461,1.433593 -8.32155,1.70434 -14.07395,3.597719 -19.83594,6.527344 -13.21809,6.720567 -25.444171,19.837976 -31.152342,33.423828 -3.4499,8.211024 -4.22071,16.842052 -3.5,39.123047 0.335547,10.37318 0.643292,20.23202 0.685547,21.9082 0.115011,4.56163 -2.595163,6.29434 -10.392578,6.64844 -4.775267,0.21695 -7.028385,-0.0897 -10.751953,-1.46289 -6.741158,-2.48576 -8.511121,-2.66107 -11.669922,-1.16211 -7.072702,3.35622 -2.935486,8.30929 10.861328,13.00195 13.068295,4.44488 17.794559,7.92436 19.708984,14.50977 1.014029,3.48813 1.010956,4.49398 -0.02539,8.47266 -3.238186,12.43222 -18.14316,32.77101 -31.212891,42.5957 -5.956089,4.4773 -17.422754,10.17681 -24.501953,12.17773 -2.97562,0.84106 -5.581618,1.70074 -5.791016,1.91016 -0.72551,0.72548 2.137418,2.88793 6.417969,4.84766 4.533115,2.07533 16.534531,5.2936 23.119141,6.19921 5.337566,0.7341 6.851037,2.59696 8.890625,10.94336 0.926396,3.79102 2.142077,7.06792 2.703125,7.28321 0.561048,0.21543 3.730352,-0.16833 7.042968,-0.85352 7.549104,-1.56117 21.191657,-1.59002 27.6875,-0.0586 6.410786,1.51147 9.592438,3.17831 20.996098,10.99218 14.29266,9.79348 19.58048,12.31144 28.98828,13.80469 5.46143,0.86687 16.72662,0.17361 21.83008,-1.34179 h 0.002 c 6.21799,-1.84653 13.54276,-5.76434 22.7207,-12.15235 16.19064,-11.26896 21.89961,-13.05265 38.88672,-12.14844 5.59115,0.29783 11.92873,0.60808 14.08398,0.68946 l 3.91797,0.14843 1.97657,-7.26562 c 1.08637,-3.99553 2.50401,-7.7656 3.15234,-8.37891 0.64833,-0.6133 5.06002,-1.89129 9.80273,-2.83984 4.74272,-0.94855 11.05728,-2.54854 14.03125,-3.55469 5.26238,-1.78042 11.53306,-5.29364 11.52735,-6.45898 -0.002,-0.31786 -2.56526,-1.21303 -5.69727,-1.98828 -7.6221,-1.88674 -17.08517,-6.55937 -24.66797,-12.18164 -15.88803,-11.78026 -32.04512,-35.50627 -31.96484,-46.93946 0.0618,-8.79821 5.20203,-13.61217 19.80078,-18.54687 14.19171,-4.79717 18.01596,-9.28887 10.99805,-12.91797 -3.15091,-1.62939 -6.71724,-1.38687 -12.08008,0.82226 -6.46115,2.66162 -13.98413,2.73194 -17.76172,0.16602 l -2.66992,-1.81445 0.39258,-11.34766 c 0.83189,-24.02827 0.46018,-39.252673 -1.10938,-45.535155 -2.60792,-10.438715 -9.10397,-21.203079 -17.67968,-29.292969 -9.41105,-8.877921 -17.04703,-13.119031 -30.25782,-16.80664 -5.9408,-1.658289 -13.53442,-2.535507 -21.02734,-2.580078 z"
       style="opacity:1;fill:#ffffff;fill-opacity:1;fill-rule:evenodd;stroke:#ffffff;stroke-width:0;stroke-linecap:square;stroke-linejoin:round;stroke-miterlimit:4;stroke-dasharray:none;stroke-opacity:1;paint-order:normal"
       inkscape:connector-curvature="0" />
  </g>
</svg>
