<?xml version="1.0" encoding="UTF-8" standalone="no"?>
<svg
   xmlns:dc="http://purl.org/dc/elements/1.1/"
   xmlns:cc="http://creativecommons.org/ns#"
   xmlns:rdf="http://www.w3.org/1999/02/22-rdf-syntax-ns#"
   xmlns:svg="http://www.w3.org/2000/svg"
   xmlns="http://www.w3.org/2000/svg"
   xmlns:sodipodi="http://sodipodi.sourceforge.net/DTD/sodipodi-0.dtd"
   xmlns:inkscape="http://www.inkscape.org/namespaces/inkscape"
   id="svg8"
   version="1.1"
   viewBox="0 0 79.374998 79.375002"
   height="300"
   width="300"
   sodipodi:docname="soundcloud.svg"
   inkscape:version="0.92.4 (5da689c313, 2019-01-14)">
  <sodipodi:namedview
     pagecolor="#ffffff"
     bordercolor="#666666"
     borderopacity="1"
     objecttolerance="10"
     gridtolerance="10"
     guidetolerance="10"
     inkscape:pageopacity="0"
     inkscape:pageshadow="2"
     inkscape:window-width="746"
     inkscape:window-height="820"
     id="namedview7"
     showgrid="false"
     borderlayer="true"
     inkscape:showpageshadow="false"
     inkscape:zoom="1.5733333"
     inkscape:cx="150"
     inkscape:cy="147.92616"
     inkscape:window-x="1099"
     inkscape:window-y="110"
     inkscape:window-maximized="0"
     inkscape:current-layer="svg8" />
  <defs
     id="defs2" />
  <metadata
     id="metadata5">
    <rdf:RDF>
      <cc:Work
         rdf:about="">
        <dc:format>image/svg+xml</dc:format>
        <dc:type
           rdf:resource="http://purl.org/dc/dcmitype/StillImage" />
        <dc:title></dc:title>
      </cc:Work>
    </rdf:RDF>
  </metadata>
  <g
     transform="matrix(0.87983308,0,0,0.87983308,4.4623711,-186.97853)"
     id="layer1">
    <path
       id="rect825"
       transform="matrix(0.26458333,0,0,0.26458333,0,217.62499)"
       d="m 183.50781,76.552734 c -8.67606,-0.114055 -18.16225,1.487754 -24.21289,4.328125 -1.16687,0.547805 -1.84076,1.173378 -2.20898,2.054688 -0.79491,1.902463 -0.78911,109.770873 0.006,111.673833 1.14673,2.7445 -3.17054,2.53489 52.07031,2.52929 47.66002,-0.004 49.89966,-0.0366 53.3457,-0.74609 2.44835,-0.50517 4.85885,-1.35995 7.54883,-2.67383 7.34058,-3.58534 12.42806,-8.67769 15.91992,-15.93359 2.75253,-5.71964 3.27389,-8.12672 3.2461,-15.01563 -0.0208,-5.12069 -0.13833,-6.13568 -1.05664,-9.13867 -5.77518,-18.88554 -25.34369,-29.20666 -43.77149,-23.08594 -1.02159,0.3394 -1.93582,0.53877 -2.0332,0.44141 -0.0974,-0.0975 -0.42941,-1.71371 -0.73633,-3.5918 -4.22189,-25.83466 -23.99734,-45.717795 -49.86914,-50.138671 -2.55467,-0.436535 -5.35603,-0.665106 -8.24805,-0.703125 z m -33.45117,7.972657 c -1.65138,-0.09738 -3.35376,0.844838 -3.85352,2.722656 -0.20462,0.768831 -0.68978,18.680943 -1.07812,39.804683 -0.70522,38.36043 -0.70436,38.4231 0.084,52.82813 0.67793,12.38755 0.8876,14.57266 1.48243,15.48047 1.34015,2.04533 3.9639,2.36616 5.64062,0.68945 0.60193,-0.60193 1.18885,-1.68209 1.30274,-2.40039 0.11387,-0.7183 0.56235,-7.43492 0.99804,-14.92383 l 0.79297,-13.61523 -0.82617,-38.61719 c -0.6684,-31.263495 -0.93034,-38.845028 -1.37305,-39.810546 -0.63216,-1.378725 -1.88551,-2.082466 -3.16992,-2.158203 z m -11.51562,6.634765 c -0.92312,-0.04224 -1.91382,0.298252 -2.79102,1.082032 l -1.23242,1.099609 -0.68164,35.291013 c -0.61562,31.83183 -0.62717,36.55087 -0.11914,48.15625 0.78891,18.02245 0.80501,18.18787 1.99023,19.37305 1.32798,1.32801 3.60888,1.35784 4.90235,0.0644 0.50449,-0.50449 1.01148,-1.49689 1.12695,-2.20703 0.11546,-0.71013 0.51681,-7.48655 0.89062,-15.05664 0.65037,-13.17044 0.65025,-15.26424 -0.002,-48.58398 -0.37485,-19.15144 -0.77621,-35.401196 -0.89062,-36.111332 -0.30694,-1.904929 -1.65483,-3.037029 -3.19336,-3.107422 z m -35.48633,8.09961 c -0.6556,0.07311 -1.30112,0.371939 -1.8086,0.912114 l -0.90429,0.96484 -0.884769,31.96875 -0.884765,31.9707 0.929687,15.11914 c 0.890507,14.4813 0.967167,15.15624 1.791017,16.03321 1.13229,1.20525 2.78661,1.19513 4.00781,-0.0254 0.51849,-0.51851 0.94141,-1.30603 0.94141,-1.74804 0,-0.44198 0.44575,-7.20861 0.99023,-15.03711 l 0.99024,-14.23242 -0.99805,-31.87891 c -0.57702,-18.40709 -1.16139,-32.18391 -1.38281,-32.59766 -0.57063,-1.066224 -1.69444,-1.571059 -2.78711,-1.449214 z m 11.99023,1.480464 c -1.02724,-0.0583 -2.09336,0.31822 -2.70312,1.15625 -0.64476,0.88615 -0.76169,3.35727 -1.51368,32.06641 l -0.81445,31.10742 0.84375,14.78907 c 0.84057,14.73233 1.08893,16.5052 2.38672,17.02734 1.29271,0.5201 2.8879,0.21745 3.76367,-0.71484 0.88863,-0.94591 0.94061,-1.36086 1.84766,-15.26563 l 0.93164,-14.29492 -0.86719,-31.68555 c -0.6834,-24.95822 -0.98145,-31.9088 -1.40234,-32.73633 -0.45701,-0.89858 -1.44542,-1.39094 -2.47266,-1.44922 z m -23.123045,0.83594 c -1.170402,0.008 -2.360412,0.80728 -2.666016,2.25391 -0.154733,0.73243 -0.673353,14.8106 -1.152343,31.28711 l -0.871094,29.95898 0.978516,14.97852 c 0.587576,8.98378 1.161939,15.31037 1.435546,15.80859 0.795111,1.44782 2.723117,1.7124 3.900391,0.53516 0.975511,-0.97554 0.978669,-0.99681 2.142578,-17.11328 l 0.998047,-13.82618 -1.033203,-30.7246 c -0.662706,-19.70514 -1.188371,-31.06769 -1.464844,-31.67774 -0.460431,-1.01599 -1.357265,-1.48682 -2.267578,-1.48047 z m 34.296875,1.06445 c -0.7447,0.0257 -1.4866,0.31864 -2.09375,0.92579 -1.16388,1.16386 -1.18634,1.58829 -1.96289,35.39257 -0.55249,24.05073 -0.55459,27.58372 -0.0117,38.21485 0.91931,17.9989 0.92109,18.01483 1.97266,19.0664 0.96756,0.96756 2.75104,1.19476 4.02734,0.51172 h 0.002 c 0.40375,-0.21619 0.94152,-0.77761 1.19532,-1.24804 0.2832,-0.52498 0.78943,-6.34439 1.3125,-15.06641 l 0.85351,-14.21094 -0.74805,-29.57226 c -0.41129,-16.26528 -0.83812,-30.1551 -0.94726,-30.86524 -0.30371,-1.97613 -1.96128,-3.20501 -3.59961,-3.14844 z m -45.861328,3.86524 c -0.314684,0 -1.014635,0.38797 -1.554688,0.86328 l -0.980468,0.86524 -1.015625,28.41992 -1.015625,28.42187 1.042968,15.15039 c 0.574016,8.33341 1.205683,15.4551 1.404297,15.82617 0.404213,0.75531 1.439525,1.44716 2.19336,1.46485 0.273637,0.008 0.922915,-0.41313 1.441406,-0.93164 0.518491,-0.51848 0.942728,-1.33935 0.943359,-1.82422 7.67e-4,-0.48488 0.510751,-7.31123 1.134766,-15.16992 l 1.134766,-14.28907 -1.13086,-27.57421 c -0.622465,-15.16619 -1.134534,-27.97216 -1.136719,-28.45704 -0.0045,-0.98997 -1.584744,-2.76562 -2.460937,-2.76562 z m -11.183594,10.81445 c -0.825282,0.004 -1.6471,0.34149 -1.916016,1.00977 -0.145625,0.3617 -0.761521,11.02889 -1.36914,23.70312 l -1.103516,23.04297 1.126953,15.31836 c 0.941163,12.77178 1.238288,15.43735 1.779297,16.03516 0.83353,0.92103 2.149234,0.91585 2.988282,-0.0117 0.546882,-0.60431 0.877687,-3.32718 1.943359,-16.03516 l 1.283203,-15.30664 -1.251953,-23.04492 c -0.689118,-12.67423 -1.382521,-23.34726 -1.541016,-23.71875 -0.283825,-0.66523 -1.11417,-0.99615 -1.939453,-0.99219 z m -22.146484,15.94922 c -0.369569,0.0245 -0.753797,0.17052 -1.085938,0.44531 -0.704621,0.583 -0.873522,1.92484 -1.99414,15.9668 l -1.222657,15.33203 1.222657,14.93555 c 0.673232,8.21423 1.405182,15.27088 1.625,15.68164 0.45826,0.85625 1.993294,0.99311 2.623046,0.23437 0.233613,-0.28157 1.06429,-7.32394 1.845704,-15.65039 l 1.419922,-15.13867 -1.384766,-15.16992 c -0.762021,-8.34387 -1.496689,-15.45779 -1.632813,-15.80664 -0.225637,-0.57829 -0.800067,-0.87086 -1.416015,-0.83008 z m -11.275391,0.91211 c -0.327167,0.034 -0.648766,0.19562 -0.896484,0.49414 -0.242945,0.29254 -0.999554,7.00671 -1.742188,15.45899 l -1.3125,14.9414 1.332031,14.58203 c 0.733259,8.02001 1.517216,14.80315 1.742188,15.07422 0.521257,0.62808 1.64367,0.63515 2.142578,0.0117 0.414094,-0.52964 3.277264,-26.97553 3.232422,-29.85937 -0.04997,-3.21438 -2.752483,-28.99053 -3.130859,-29.86133 -0.261001,-0.60066 -0.821909,-0.89848 -1.367188,-0.8418 z m 22,1.04297 c -0.741532,0.0345 -1.423912,0.47954 -1.613281,1.31641 -0.109606,0.48446 -0.703306,7.1025 -1.31836,14.70703 l -1.11914,13.82617 1.15625,14.97851 c 1.224041,15.87969 1.38142,16.70704 3.185547,16.70704 0.562658,0 1.158816,-0.34723 1.478515,-0.86329 0.363289,-0.58624 0.947666,-5.6662 1.81836,-15.79492 l 1.283203,-14.92968 -1.28125,-14.06641 c -0.704171,-7.73692 -1.436359,-14.36563 -1.626953,-14.73047 -0.422304,-0.80835 -1.221358,-1.18493 -1.962891,-1.15039 z m -32.738281,3.92773 c -0.265126,0 -0.658606,0.21463 -0.873047,0.47852 -0.214439,0.26419 -1.01578,6.09768 -1.78125,12.96289 l -1.392578,12.48242 1.398437,12.48242 c 0.768743,6.86525 1.570082,12.6969 1.78125,12.96094 0.21117,0.26419 0.602062,0.48047 0.867188,0.48047 0.265126,0 0.650953,-0.21658 0.859375,-0.48047 0.208418,-0.26419 1.091805,-6.09569 1.962891,-12.96094 l 1.583984,-12.48242 -1.56836,-12.48242 c -0.862824,-6.86521 -1.746211,-12.69885 -1.96289,-12.96289 -0.21668,-0.26419 -0.609874,-0.47852 -0.875,-0.47852 z m -10.001953,9.58204 c -0.510511,0.0294 -1.106308,0.36794 -1.320313,0.88281 -0.197522,0.47527 -0.78136,4.17773 -1.296875,8.22851 l -0.9375,7.36524 1.076172,7.95312 c 1.004108,7.42031 1.323965,8.58819 2.351563,8.61328 0.132559,0.003 0.41802,-0.21053 0.634765,-0.47461 0.216745,-0.26418 0.948261,-3.99996 1.625,-8.30273 l 1.228516,-7.82422 -1.228516,-7.91992 c -0.675683,-4.35655 -1.307467,-8.05306 -1.40625,-8.21289 -0.143795,-0.23267 -0.420256,-0.32623 -0.726562,-0.30859 z"
       style="opacity:1;fill:#ffffff;fill-opacity:1;fill-rule:evenodd;stroke:none;stroke-width:0;stroke-linecap:square;stroke-linejoin:miter;stroke-miterlimit:4;stroke-dasharray:none;stroke-opacity:1;paint-order:normal"
       inkscape:connector-curvature="0" />
  </g>
</svg>
