<?xml version="1.0" encoding="UTF-8" standalone="no"?>
<svg
   xmlns:dc="http://purl.org/dc/elements/1.1/"
   xmlns:cc="http://creativecommons.org/ns#"
   xmlns:rdf="http://www.w3.org/1999/02/22-rdf-syntax-ns#"
   xmlns:svg="http://www.w3.org/2000/svg"
   xmlns="http://www.w3.org/2000/svg"
   id="svg8"
   version="1.1"
   viewBox="0 0 79.374998 79.375002"
   height="300"
   width="300">
  <defs
     id="defs2" />
  <metadata
     id="metadata5">
    <rdf:RDF>
      <cc:Work
         rdf:about="">
        <dc:format>image/svg+xml</dc:format>
        <dc:type
           rdf:resource="http://purl.org/dc/dcmitype/StillImage" />
        <dc:title></dc:title>
      </cc:Work>
    </rdf:RDF>
  </metadata>
  <g
     transform="translate(0,-217.62499)"
     id="layer1">
    <path
       id="rect825"
       transform="matrix(0.26458333,0,0,0.26458333,0,217.62499)"
       d="M 183.50781 76.552734 C 174.83175 76.438679 165.34556 78.040488 159.29492 80.880859 C 158.12805 81.428664 157.45416 82.054237 157.08594 82.935547 C 156.29103 84.83801 156.29683 192.70642 157.0918 194.60938 C 158.23853 197.35388 153.92126 197.14427 209.16211 197.13867 C 256.82213 197.13489 259.06177 197.10203 262.50781 196.39258 C 264.95616 195.88741 267.36666 195.03263 270.05664 193.71875 C 277.39722 190.13341 282.4847 185.04106 285.97656 177.78516 C 288.72909 172.06552 289.25045 169.65844 289.22266 162.76953 C 289.20187 157.64884 289.08433 156.63385 288.16602 153.63086 C 282.39084 134.74532 262.82233 124.4242 244.39453 130.54492 C 243.37294 130.88432 242.45871 131.08369 242.36133 130.98633 C 242.26393 130.88882 241.93192 129.27262 241.625 127.39453 C 237.40311 101.55987 217.62766 81.676735 191.75586 77.255859 C 189.20119 76.819324 186.39983 76.590753 183.50781 76.552734 z M 150.05664 84.525391 C 148.40526 84.428014 146.70288 85.370229 146.20312 87.248047 C 145.9985 88.016878 145.51334 105.92899 145.125 127.05273 C 144.41978 165.41316 144.42064 165.47583 145.20898 179.88086 C 145.88691 192.26841 146.09658 194.45352 146.69141 195.36133 C 148.03156 197.40666 150.65531 197.72749 152.33203 196.05078 C 152.93396 195.44885 153.52088 194.36869 153.63477 193.65039 C 153.74864 192.93209 154.19712 186.21547 154.63281 178.72656 L 155.42578 165.11133 L 154.59961 126.49414 C 153.93121 95.230645 153.66927 87.649112 153.22656 86.683594 C 152.5944 85.304869 151.34105 84.601128 150.05664 84.525391 z M 138.54102 91.160156 C 137.6179 91.11792 136.6272 91.458408 135.75 92.242188 L 134.51758 93.341797 L 133.83594 128.63281 C 133.22032 160.46464 133.20877 165.18368 133.7168 176.78906 C 134.50571 194.81151 134.52181 194.97693 135.70703 196.16211 C 137.03501 197.49012 139.31591 197.51995 140.60938 196.22656 C 141.11387 195.72207 141.62086 194.72967 141.73633 194.01953 C 141.85179 193.3094 142.25314 186.53298 142.62695 178.96289 C 143.27732 165.79245 143.2772 163.69865 142.625 130.37891 C 142.25015 111.22747 141.84879 94.977714 141.73438 94.267578 C 141.42744 92.362649 140.07955 91.230549 138.54102 91.160156 z M 103.05469 99.259766 C 102.39909 99.332872 101.75357 99.631705 101.24609 100.17188 L 100.3418 101.13672 L 99.457031 133.10547 L 98.572266 165.07617 L 99.501953 180.19531 C 100.39246 194.67661 100.46912 195.35155 101.29297 196.22852 C 102.42526 197.43377 104.07958 197.42365 105.30078 196.20312 C 105.81927 195.68461 106.24219 194.89709 106.24219 194.45508 C 106.24219 194.0131 106.68794 187.24647 107.23242 179.41797 L 108.22266 165.18555 L 107.22461 133.30664 C 106.64759 114.89955 106.06322 101.12273 105.8418 100.70898 C 105.27117 99.642756 104.14736 99.137921 103.05469 99.259766 z M 115.04492 100.74023 C 114.01768 100.68195 112.95156 101.05845 112.3418 101.89648 C 111.69704 102.78263 111.58011 105.25375 110.82812 133.96289 L 110.01367 165.07031 L 110.85742 179.85938 C 111.69799 194.59171 111.94635 196.36458 113.24414 196.88672 C 114.53685 197.40682 116.13204 197.10417 117.00781 196.17188 C 117.89644 195.22597 117.94842 194.81102 118.85547 180.90625 L 119.78711 166.61133 L 118.91992 134.92578 C 118.23652 109.96756 117.93847 103.01698 117.51758 102.18945 C 117.06057 101.29087 116.07216 100.79851 115.04492 100.74023 z M 91.921875 101.57617 C 90.751473 101.58434 89.561463 102.38345 89.255859 103.83008 C 89.101126 104.56251 88.582506 118.64068 88.103516 135.11719 L 87.232422 165.07617 L 88.210938 180.05469 C 88.798514 189.03847 89.372877 195.36506 89.646484 195.86328 C 90.441595 197.3111 92.369601 197.57568 93.546875 196.39844 C 94.522386 195.4229 94.525544 195.40163 95.689453 179.28516 L 96.6875 165.45898 L 95.654297 134.73438 C 94.991591 115.02924 94.465926 103.66669 94.189453 103.05664 C 93.729022 102.04065 92.832188 101.56982 91.921875 101.57617 z M 126.21875 102.64062 C 125.47405 102.66634 124.73215 102.95926 124.125 103.56641 C 122.96112 104.73027 122.93866 105.1547 122.16211 138.95898 C 121.60962 163.00971 121.60752 166.5427 122.15039 177.17383 C 123.0697 195.17273 123.07148 195.18866 124.12305 196.24023 C 125.09061 197.20779 126.87409 197.43499 128.15039 196.75195 L 128.15234 196.75195 C 128.55609 196.53576 129.09386 195.97434 129.34766 195.50391 C 129.63086 194.97893 130.13709 189.15952 130.66016 180.4375 L 131.51367 166.22656 L 130.76562 136.6543 C 130.35433 120.38902 129.9275 106.4992 129.81836 105.78906 C 129.51465 103.81293 127.85708 102.58405 126.21875 102.64062 z M 80.357422 106.50586 C 80.042738 106.50586 79.342787 106.89383 78.802734 107.36914 L 77.822266 108.23438 L 76.806641 136.6543 L 75.791016 165.07617 L 76.833984 180.22656 C 77.408 188.55997 78.039667 195.68166 78.238281 196.05273 C 78.642494 196.80804 79.677806 197.49989 80.431641 197.51758 C 80.705278 197.52514 81.354556 197.10445 81.873047 196.58594 C 82.391538 196.06746 82.815775 195.24659 82.816406 194.76172 C 82.817173 194.27684 83.327157 187.45049 83.951172 179.5918 L 85.085938 165.30273 L 83.955078 137.72852 C 83.332613 122.56233 82.820544 109.75636 82.818359 109.27148 C 82.813824 108.28151 81.233615 106.50586 80.357422 106.50586 z M 69.173828 117.32031 C 68.348546 117.32428 67.526728 117.6618 67.257812 118.33008 C 67.112187 118.69178 66.496291 129.35897 65.888672 142.0332 L 64.785156 165.07617 L 65.912109 180.39453 C 66.853272 193.16631 67.150397 195.83188 67.691406 196.42969 C 68.524936 197.35072 69.84064 197.34554 70.679688 196.41797 C 71.22657 195.81366 71.557375 193.09079 72.623047 180.38281 L 73.90625 165.07617 L 72.654297 142.03125 C 71.965179 129.35702 71.271776 118.68399 71.113281 118.3125 C 70.829456 117.64727 69.999111 117.31635 69.173828 117.32031 z M 47.027344 133.26953 C 46.657775 133.294 46.273547 133.44005 45.941406 133.71484 C 45.236785 134.29784 45.067884 135.63968 43.947266 149.68164 L 42.724609 165.01367 L 43.947266 179.94922 C 44.620498 188.16345 45.352448 195.2201 45.572266 195.63086 C 46.030526 196.48711 47.56556 196.62397 48.195312 195.86523 C 48.428925 195.58366 49.259602 188.54129 50.041016 180.21484 L 51.460938 165.07617 L 50.076172 149.90625 C 49.314151 141.56238 48.579483 134.44846 48.443359 134.09961 C 48.217722 133.52132 47.643292 133.22875 47.027344 133.26953 z M 35.751953 134.18164 C 35.424786 134.21565 35.103187 134.37726 34.855469 134.67578 C 34.612524 134.96832 33.855915 141.68249 33.113281 150.13477 L 31.800781 165.07617 L 33.132812 179.6582 C 33.866071 187.67821 34.650028 194.46135 34.875 194.73242 C 35.396257 195.3605 36.51867 195.36757 37.017578 194.74414 C 37.431672 194.2145 40.294842 167.76861 40.25 164.88477 C 40.200035 161.67039 37.497517 135.89424 37.119141 135.02344 C 36.85814 134.42278 36.297232 134.12496 35.751953 134.18164 z M 57.751953 135.22461 C 57.010421 135.25915 56.328041 135.70415 56.138672 136.54102 C 56.029066 137.02548 55.435366 143.64352 54.820312 151.24805 L 53.701172 165.07422 L 54.857422 180.05273 C 56.081463 195.93242 56.238842 196.75977 58.042969 196.75977 C 58.605627 196.75977 59.201785 196.41254 59.521484 195.89648 C 59.884773 195.31024 60.46915 190.23028 61.339844 180.10156 L 62.623047 165.17188 L 61.341797 151.10547 C 60.637626 143.36855 59.905438 136.73984 59.714844 136.375 C 59.29254 135.56665 58.493486 135.19007 57.751953 135.22461 z M 25.013672 139.15234 C 24.748546 139.15234 24.355066 139.36697 24.140625 139.63086 C 23.926186 139.89505 23.124845 145.72854 22.359375 152.59375 L 20.966797 165.07617 L 22.365234 177.55859 C 23.133977 184.42384 23.935316 190.25549 24.146484 190.51953 C 24.357654 190.78372 24.748546 191 25.013672 191 C 25.278798 191 25.664625 190.78342 25.873047 190.51953 C 26.081465 190.25534 26.964852 184.42384 27.835938 177.55859 L 29.419922 165.07617 L 27.851562 152.59375 C 26.988738 145.72854 26.105351 139.8949 25.888672 139.63086 C 25.671992 139.36667 25.278798 139.15234 25.013672 139.15234 z M 15.011719 148.73438 C 14.501208 148.76377 13.905411 149.10232 13.691406 149.61719 C 13.493884 150.09246 12.910046 153.79492 12.394531 157.8457 L 11.457031 165.21094 L 12.533203 173.16406 C 13.537311 180.58437 13.857168 181.75225 14.884766 181.77734 C 15.017325 181.78041 15.302786 181.56681 15.519531 181.30273 C 15.736276 181.03855 16.467792 177.30277 17.144531 173 L 18.373047 165.17578 L 17.144531 157.25586 C 16.468848 152.89931 15.837064 149.2028 15.738281 149.04297 C 15.594486 148.8103 15.318025 148.71674 15.011719 148.73438 z "
       style="opacity:1;fill:#ffffff;fill-opacity:1;fill-rule:evenodd;stroke:none;stroke-width:0;stroke-linecap:square;stroke-linejoin:miter;stroke-miterlimit:4;stroke-dasharray:none;stroke-opacity:1;paint-order:normal" />
  </g>
</svg>
