<?xml version="1.0" encoding="UTF-8" standalone="no"?>
<svg
   xmlns:dc="http://purl.org/dc/elements/1.1/"
   xmlns:cc="http://creativecommons.org/ns#"
   xmlns:rdf="http://www.w3.org/1999/02/22-rdf-syntax-ns#"
   xmlns:svg="http://www.w3.org/2000/svg"
   xmlns="http://www.w3.org/2000/svg"
   id="svg8"
   version="1.1"
   viewBox="0 0 79.374998 79.375002"
   height="300"
   width="300">
  <defs
     id="defs2" />
  <metadata
     id="metadata5">
    <rdf:RDF>
      <cc:Work
         rdf:about="">
        <dc:format>image/svg+xml</dc:format>
        <dc:type
           rdf:resource="http://purl.org/dc/dcmitype/StillImage" />
        <dc:title></dc:title>
      </cc:Work>
    </rdf:RDF>
  </metadata>
  <g
     transform="translate(0,-217.62499)"
     id="layer1">
    <path
       id="path831"
       d="m 30.967341,294.86441 c -13.53949,-1.0485 -20.586584,-4.02647 -15.885195,-6.7128 0.965006,-0.5514 3.256159,-1.35044 4.703708,-1.64044 l 0.763259,-0.1529 -0.368263,0.56204 c -0.492636,0.75186 -0.261441,1.23576 0.864956,1.81041 3.18852,1.62666 9.841586,2.46965 19.517009,2.47293 6.5998,0.002 10.407479,-0.26607 14.476188,-1.02006 3.311854,-0.61374 5.19548,-1.26667 5.939774,-2.05894 0.508743,-0.54153 0.513349,-0.58151 0.133729,-1.16088 -0.216236,-0.33002 -0.359208,-0.63075 -0.317715,-0.66829 0.142771,-0.12917 4.192793,1.17705 5.106304,1.64689 2.892211,1.48755 2.207236,3.24648 -1.801347,4.62564 -1.865915,0.64197 -6.361716,1.51511 -10.089785,1.95957 -3.667399,0.43722 -18.875512,0.65953 -23.042622,0.33683 z m 4.485127,-7.11329 c -5.287518,-0.30353 -9.253642,-1.30958 -9.407772,-2.38636 -0.07883,-0.55071 1.17344,-1.33296 2.516381,-1.57188 2.091671,-0.37214 6.018067,-2.64592 7.065228,-4.09148 1.148535,-1.58551 0.650943,-4.08199 -0.875169,-4.39084 -6.822667,-1.38076 -13.387455,-5.80175 -17.40922,-11.72406 -5.671668,-8.3519 -6.341517,-19.23974 -1.733572,-28.17774 0.143634,-0.36938 5.133464,-7.77577 5.951657,-7.68385 0.41488,-0.51538 0.949896,-0.62261 0.949896,-0.62261 2.119042,-1.60449 0.339947,0.0272 -0.36978,1.062 -1.046664,1.52604 -1.991561,3.55028 -2.689653,5.76199 -0.608101,1.92661 -0.648622,2.30272 -0.652457,6.05601 -0.0045,4.38447 0.226003,5.70093 1.537821,8.78366 1.053504,2.4757 2.282619,4.23651 4.340544,6.2182 2.268288,2.18426 3.976731,3.25304 6.580367,4.11659 1.674802,0.55548 2.307602,0.64522 4.573513,0.64859 2.237131,0.003 2.919979,-0.0887 4.573512,-0.6166 2.768086,-0.88367 4.623734,-2.04226 6.860268,-4.28328 1.959867,-1.9638 3.29235,-3.94566 4.29631,-6.39009 3.566774,-8.68435 1.040051,-19.21994 -5.897039,-24.58867 -1.919028,-1.48517 -4.18955,-2.64197 -6.102273,-3.0935 -1.735396,-0.40967 -1.448898,-0.54094 0.106594,-0.57938 1.097749,-0.0271 3.334862,0.0103 5.309652,0.20492 3.100873,0.30562 8.529674,2.48576 11.773039,4.72789 8.707279,6.01934 13.384974,17.05249 11.580433,27.31446 -0.970998,5.52183 -2.744764,9.30005 -6.45235,13.74387 -2.312697,2.77194 -6.508641,5.9271 -9.69784,7.29234 -1.621635,0.6942 -4.75916,1.71701 -5.266994,1.71701 -0.592908,0 -1.116747,0.53912 -1.563508,1.6091 -0.450347,1.07857 -0.0373,2.24691 1.262621,3.57143 1.051174,1.07107 4.221734,2.83223 5.909609,3.28262 0.565263,0.15084 1.420675,0.4747 1.90091,0.7197 1.061214,0.54139 1.077766,1.22606 0.04412,1.82478 -1.137437,0.65885 -5.035213,1.31502 -9.267532,1.56015 -4.409991,0.25541 -5.054575,0.25442 -9.747314,-0.015 z"
       style="fill:#ffffff;stroke-width:0.22867562;fill-opacity:1" />
  </g>
</svg>
