<?xml version="1.0" encoding="UTF-8" standalone="no"?>
<svg
   xmlns:dc="http://purl.org/dc/elements/1.1/"
   xmlns:cc="http://creativecommons.org/ns#"
   xmlns:rdf="http://www.w3.org/1999/02/22-rdf-syntax-ns#"
   xmlns:svg="http://www.w3.org/2000/svg"
   xmlns="http://www.w3.org/2000/svg"
   xmlns:sodipodi="http://sodipodi.sourceforge.net/DTD/sodipodi-0.dtd"
   xmlns:inkscape="http://www.inkscape.org/namespaces/inkscape"
   id="svg8"
   version="1.1"
   viewBox="0 0 79.374998 79.375002"
   height="300"
   width="300"
   sodipodi:docname="sporcle.svg"
   inkscape:version="0.92.4 (5da689c313, 2019-01-14)">
  <sodipodi:namedview
     pagecolor="#ffffff"
     bordercolor="#666666"
     borderopacity="1"
     objecttolerance="10"
     gridtolerance="10"
     guidetolerance="10"
     inkscape:pageopacity="0"
     inkscape:pageshadow="2"
     inkscape:window-width="957"
     inkscape:window-height="931"
     id="namedview7"
     showgrid="false"
     borderlayer="true"
     inkscape:showpageshadow="false"
     inkscape:zoom="2.2250293"
     inkscape:cx="156.10524"
     inkscape:cy="142.00524"
     inkscape:window-x="953"
     inkscape:window-y="86"
     inkscape:window-maximized="0"
     inkscape:current-layer="svg8" />
  <defs
     id="defs2" />
  <metadata
     id="metadata5">
    <rdf:RDF>
      <cc:Work
         rdf:about="">
        <dc:format>image/svg+xml</dc:format>
        <dc:type
           rdf:resource="http://purl.org/dc/dcmitype/StillImage" />
        <dc:title></dc:title>
      </cc:Work>
    </rdf:RDF>
  </metadata>
  <g
     transform="matrix(0.5605465,0,0,0.5605465,16.700653,-105.52953)"
     id="layer1">
    <path
       id="path831"
       d="m 30.967341,294.86441 c -13.53949,-1.0485 -20.642508,-4.1268 -15.885195,-6.7128 1.741002,-0.94638 3.576664,-1.41466 5.466967,-1.79334 -1.389591,1.07823 -0.398866,2.10303 0.496693,2.37245 11.77266,3.28839 23.569703,3.28788 33.993197,1.45287 3.31723,-0.58398 5.19548,-1.26667 5.939774,-2.05894 0.508743,-0.54153 0.513349,-0.58151 0.133729,-1.16088 -0.216236,-0.33002 -0.359208,-0.63075 -0.317715,-0.66829 0.142771,-0.12917 4.192793,1.17705 5.106304,1.64689 2.892211,1.48755 2.207236,3.24648 -1.801347,4.62564 -1.865915,0.64197 -6.361716,1.51511 -10.089785,1.95957 -3.667399,0.43722 -18.875512,0.65953 -23.042622,0.33683 z m -4.922645,-9.49965 c -0.477373,-0.28568 1.17344,-1.33296 2.516381,-1.57188 2.091671,-0.37214 6.018067,-2.64592 7.065228,-4.09148 1.148535,-1.58551 0.650943,-4.08199 -0.875169,-4.39084 -6.822667,-1.38076 -13.387455,-5.80175 -17.40922,-11.72406 -5.671668,-8.3519 -6.496918,-19.32158 -1.733572,-28.17774 2.114451,-3.58666 5.467157,-7.64446 7.84785,-8.91514 -13.6539293,18.2192 3.897746,36.89126 19.479711,32.00643 25.487888,-7.99025 15.139313,-38.9666 -4.555661,-38.15175 37.67354,-0.2614 42.699986,47.82411 8.53332,54.85001 -2.904697,0.59731 -2.153864,3.73444 -0.300887,5.18053 2.629981,2.05248 3.652619,2.58186 7.810519,4.00232 1.061214,0.54139 1.077766,1.22606 0.04412,1.82478 -2.284809,1.51248 -21.34537,3.39408 -28.42262,-0.84118 z"
       style="fill:#ffffff;fill-opacity:1;stroke-width:0.22867562"
       inkscape:connector-curvature="0"
       sodipodi:nodetypes="ssccsccccscssccssccscssccs" />
  </g>
</svg>
