<?xml version="1.0" encoding="UTF-8" standalone="no"?>
<svg
   xmlns:dc="http://purl.org/dc/elements/1.1/"
   xmlns:cc="http://creativecommons.org/ns#"
   xmlns:rdf="http://www.w3.org/1999/02/22-rdf-syntax-ns#"
   xmlns:svg="http://www.w3.org/2000/svg"
   xmlns="http://www.w3.org/2000/svg"
   id="svg8"
   version="1.1"
   viewBox="0 0 79.374998 79.375002"
   height="300"
   width="300">
  <defs
     id="defs2" />
  <metadata
     id="metadata5">
    <rdf:RDF>
      <cc:Work
         rdf:about="">
        <dc:format>image/svg+xml</dc:format>
        <dc:type
           rdf:resource="http://purl.org/dc/dcmitype/StillImage" />
        <dc:title></dc:title>
      </cc:Work>
    </rdf:RDF>
  </metadata>
  <g
     transform="translate(0,-217.62499)"
     id="layer1">
    <path
       id="path823"
       d="M 37.06492,295.44448 C 33.165626,295.16697 29.227885,294.27471 25.6551,292.85911 15.539789,288.85126 7.6465653,280.77739 3.83319,270.53778 1.5848934,264.50069 0.92708923,257.70807 1.965115,251.24764 c 1.0926588,-6.80044 3.9414323,-13.03977 8.418275,-18.43753 0.922245,-1.11195 3.174487,-3.40301 4.277213,-4.35092 1.858187,-1.59732 4.186502,-3.2479 6.181793,-4.38237 7.735617,-4.3983 16.891425,-5.94377 25.717404,-4.34101 5.685098,1.03239 11.186788,3.42128 15.869204,6.89058 2.676191,1.98285 5.371874,4.62429 7.495996,7.34515 0.802342,1.02775 2.321649,3.30599 2.998174,4.49585 5.337829,9.38804 6.427795,20.6435 2.996835,30.94643 -4.664318,14.0066 -17.045006,24.10027 -31.699196,25.84357 -2.207079,0.26256 -5.050832,0.33692 -7.155893,0.18709 z m 18.974001,-20.19649 c 0.453038,-0.14413 1.056514,-0.68502 1.316974,-1.1804 0.174858,-0.33257 0.201316,-0.47108 0.201915,-1.05709 6e-4,-0.58836 -0.02618,-0.72909 -0.209937,-1.1033 -0.263704,-0.53701 -0.610717,-0.83537 -1.700109,-1.46176 -5.487846,-3.15543 -11.42635,-4.90586 -18.395517,-5.42227 -2.479921,-0.18376 -6.369865,-0.10039 -9.366353,0.20073 -3.050374,0.30654 -8.196558,1.21552 -9.079793,1.60377 -0.481422,0.21163 -0.951427,0.69127 -1.182979,1.20724 -0.180433,0.40206 -0.201663,0.52941 -0.177978,1.06757 0.0326,0.74078 0.231941,1.20028 0.726123,1.67379 0.422078,0.40442 0.986125,0.62325 1.606176,0.62313 0.256029,-5e-5 1.005009,-0.11637 1.6644,-0.25848 2.496774,-0.5381 5.354207,-0.96604 8.092529,-1.21196 1.783304,-0.16015 6.231721,-0.18515 7.830271,-0.044 6.068065,0.5358 11.105625,2.04068 15.735473,4.70072 1.522178,0.87455 1.960874,0.97342 2.938805,0.66232 z m 4.635886,-10.27562 c 1.505188,-0.72519 2.127226,-2.58228 1.368156,-4.08462 -0.383144,-0.75831 -0.873564,-1.13076 -3.060777,-2.3245 -5.989061,-3.2687 -13.392393,-5.32935 -21.505147,-5.98578 -1.560915,-0.12629 -6.886361,-0.12582 -8.392252,7.5e-4 -3.707111,0.31158 -6.734677,0.82529 -9.853403,1.67192 -1.70296,0.4623 -1.914813,0.55366 -2.443663,1.05378 -1.843616,1.74345 -0.896851,4.7564 1.622891,5.16464 0.551509,0.0893 0.544493,0.0906 3.068696,-0.5543 2.357047,-0.60222 4.45626,-0.96256 7.155894,-1.22834 1.935228,-0.19053 7.292935,-0.19062 9.216491,-1.5e-4 7.509405,0.74355 14.020103,2.6946 19.294688,5.78199 1.211781,0.70929 1.455644,0.78947 2.322855,0.76367 0.621317,-0.0185 0.774631,-0.0514 1.205571,-0.25904 z m 4.386637,-11.58551 c 1.024157,-0.2727 1.859866,-0.97925 2.334866,-1.97401 0.274662,-0.57519 0.277851,-0.59263 0.277851,-1.51851 0,-0.92224 -0.0042,-0.94527 -0.270601,-1.49862 -0.490197,-1.01803 -0.857084,-1.32622 -2.889742,-2.42739 -2.777474,-1.50466 -6.190234,-2.86749 -9.802689,-3.91453 -11.875243,-3.44196 -26.656678,-3.71038 -37.840066,-0.68717 -1.387886,0.37519 -1.93504,0.62657 -2.497783,1.14757 -1.991402,1.84369 -1.234881,5.21923 1.355227,6.04694 0.783768,0.25046 1.472092,0.21317 2.791034,-0.15123 3.043099,-0.84076 6.068565,-1.35879 9.965799,-1.70639 1.830806,-0.1633 7.313497,-0.2278 9.42074,-0.11084 9.401077,0.52181 17.827353,2.67601 23.811081,6.08736 0.789039,0.44984 1.292243,0.67712 1.685943,0.76148 0.338837,0.0726 1.299249,0.041 1.65834,-0.0547 z"
       style="fill:#ffffff;stroke-width:0.07493082;fill-opacity:1" />
  </g>
</svg>
