<?xml version="1.0" encoding="UTF-8" standalone="no"?>
<svg
   xmlns:dc="http://purl.org/dc/elements/1.1/"
   xmlns:cc="http://creativecommons.org/ns#"
   xmlns:rdf="http://www.w3.org/1999/02/22-rdf-syntax-ns#"
   xmlns:svg="http://www.w3.org/2000/svg"
   xmlns="http://www.w3.org/2000/svg"
   height="300"
   width="300"
   id="svg854"
   viewBox="0 0 300 300"
   version="1.1">
  <metadata
     id="metadata858">
    <rdf:RDF>
      <cc:Work
         rdf:about="">
        <dc:format>image/svg+xml</dc:format>
        <dc:type
           rdf:resource="http://purl.org/dc/dcmitype/StillImage" />
        <dc:title></dc:title>
      </cc:Work>
    </rdf:RDF>
  </metadata>
  <defs
     id="defs846">
    <linearGradient
       y2="1"
       x1="0.5"
       x2="0.5"
       id="a">
      <stop
         id="stop836"
         offset="0"
         stop-color="#F6F6F6" />
      <stop
         id="stop838"
         offset="1"
         stop-color="#989693" />
    </linearGradient>
    <linearGradient
       y2="1"
       x1="0.5"
       x2="0.5"
       id="b">
      <stop
         id="stop841"
         offset="0"
         stop-color="#EFEFEE" />
      <stop
         id="stop843"
         offset="1"
         stop-color="#84827E" />
    </linearGradient>
  </defs>
  <path
     style="fill:#ffffff;fill-opacity:1;stroke-width:4.98824358"
     id="path852"
     d="m 257.26579,87.568526 c -21.80362,0 -39.53682,17.733204 -39.53682,39.531824 0,0.17459 0,0.34919 0.0104,0.5138 l -25.47049,36.93294 c -4.12527,-0.17956 -8.26551,0.53874 -12.19126,2.15494 -1.73093,0.70333 -3.3521,1.57129 -4.87351,2.56895 L 60.419724,121.82279 c -1.93045,-8.93394 -8.041049,-16.82035 -17.099698,-20.60144 -14.690379,-6.115589 -31.620478,0.85798 -37.7460401,15.55334 -6.12057503,14.68539 0.8579787,31.61549 15.5483551,37.73607 7.113235,2.96301 14.954754,2.97798 22.087943,0.05 1.641132,-0.67842 3.187487,-1.51643 4.664008,-2.44924 L 162.91316,199.6694 c 1.98532,8.84914 8.07098,16.62083 17.04981,20.35702 14.69038,6.13055 31.62548,-0.85299 37.74107,-15.5284 1.58625,-3.83097 2.3295,-7.85649 2.21976,-11.87202 l 36.44411,-25.99873 c 0.29929,0.0105 0.59859,0.015 0.89788,0.015 21.80361,0 39.53184,-17.74318 39.53184,-39.5418 0,-21.79862 -17.72823,-39.531831 -39.53184,-39.531831 M 23.661358,148.42012 C 15.121484,144.8635 9.9586521,136.56804 9.9586521,127.83862 c 0,-2.85328 0.5487069,-5.74147 1.7159549,-8.52491 4.713891,-11.33828 17.7781,-16.72059 29.106402,-12.00172 5.347397,2.22476 9.333004,6.30515 11.597666,11.17866 l -13.173951,-5.44716 c -8.35032,-3.47681 -17.947701,0.47388 -21.434483,8.82919 -3.476805,8.36029 0.478872,17.96766 8.829191,21.44445 l 13.213858,5.45714 c -5.262597,1.92048 -10.959171,1.82072 -16.151932,-0.35415 m 187.962002,53.52883 c -4.73384,11.33329 -17.78309,16.71561 -29.12635,11.99673 -5.23267,-2.17987 -9.18336,-6.16547 -11.46298,-10.91927 l 12.86965,5.32745 c 8.36529,3.48179 17.96267,-0.47888 21.43948,-8.82919 3.48678,-8.35531 -0.46888,-17.95269 -8.82919,-21.43448 l -13.30364,-5.50204 c 5.1329,-1.94541 10.96914,-2.01525 16.4213,0.24942 5.49704,2.28461 9.76198,6.57948 12.02165,12.07653 2.26468,5.49704 2.2547,11.55777 -0.0298,17.03485 m 45.64243,-48.50069 c -14.52078,0 -26.33792,-11.82214 -26.33792,-26.34791 0,-14.51578 11.81714,-26.33792 26.33792,-26.33792 14.52078,0 26.34292,11.82214 26.34292,26.33792 0,14.52577 -11.82214,26.34791 -26.34292,26.34791 m 0.0399,-6.60443 c -10.91927,0 -19.7784,-8.85414 -19.7784,-19.78338 0,-10.92924 8.85913,-19.79335 19.7784,-19.79335 10.92923,0 19.79335,8.86411 19.79335,19.79335 0,10.92924 -8.86412,19.78338 -19.79335,19.78338" />
</svg>
