<?xml version="1.0" encoding="UTF-8" standalone="no"?>
<svg
   xmlns:dc="http://purl.org/dc/elements/1.1/"
   xmlns:cc="http://creativecommons.org/ns#"
   xmlns:rdf="http://www.w3.org/1999/02/22-rdf-syntax-ns#"
   xmlns:svg="http://www.w3.org/2000/svg"
   xmlns="http://www.w3.org/2000/svg"
   xmlns:sodipodi="http://sodipodi.sourceforge.net/DTD/sodipodi-0.dtd"
   xmlns:inkscape="http://www.inkscape.org/namespaces/inkscape"
   height="300"
   width="300"
   id="svg854"
   viewBox="0 0 300 300"
   version="1.1"
   sodipodi:docname="steam.svg"
   inkscape:version="0.92.4 (5da689c313, 2019-01-14)">
  <sodipodi:namedview
     pagecolor="#ffffff"
     bordercolor="#666666"
     borderopacity="1"
     objecttolerance="10"
     gridtolerance="10"
     guidetolerance="10"
     inkscape:pageopacity="0"
     inkscape:pageshadow="2"
     inkscape:window-width="901"
     inkscape:window-height="748"
     id="namedview12"
     showgrid="false"
     borderlayer="true"
     inkscape:showpageshadow="false"
     inkscape:zoom="1.1125147"
     inkscape:cx="184.62875"
     inkscape:cy="119.82528"
     inkscape:window-x="966"
     inkscape:window-y="156"
     inkscape:window-maximized="0"
     inkscape:current-layer="svg854" />
  <metadata
     id="metadata858">
    <rdf:RDF>
      <cc:Work
         rdf:about="">
        <dc:format>image/svg+xml</dc:format>
        <dc:type
           rdf:resource="http://purl.org/dc/dcmitype/StillImage" />
        <dc:title></dc:title>
      </cc:Work>
    </rdf:RDF>
  </metadata>
  <defs
     id="defs846">
    <linearGradient
       y2="1"
       x1="0.5"
       x2="0.5"
       id="a">
      <stop
         id="stop836"
         offset="0"
         stop-color="#F6F6F6" />
      <stop
         id="stop838"
         offset="1"
         stop-color="#989693" />
    </linearGradient>
    <linearGradient
       y2="1"
       x1="0.5"
       x2="0.5"
       id="b">
      <stop
         id="stop841"
         offset="0"
         stop-color="#EFEFEE" />
      <stop
         id="stop843"
         offset="1"
         stop-color="#84827E" />
    </linearGradient>
  </defs>
  <path
     style="fill:#ffffff;fill-opacity:1;stroke-width:5.48713732"
     d="m 204.21705,76.377283 c -23.98428,0 -43.49136,19.50614 -43.49136,43.484937 0,0.19205 0.001,0.38397 0.0129,0.56504 l -28.01813,40.62747 c -7.17056,0.0716 -13.25106,1.60428 -18.77113,5.19713 L 51.96396,140.62928 v 39.02471 l 48.46506,20.03657 c 2.18388,9.73418 8.87711,18.28359 18.75395,22.39345 16.15962,6.74369 34.78755,-0.93928 41.51478,-17.08244 1.7449,-4.21412 2.56352,-8.64123 2.44281,-13.05837 l 40.0882,-28.60036 c 0.32922,0.0115 0.65906,0.0172 0.98829,0.0172 23.98427,0 43.48493,-19.51903 43.48493,-43.49782 0,-23.978787 -19.50065,-43.48493 -43.48493,-43.48493 z m 0,14.512882 c 15.97307,0 28.97849,13.004495 28.9785,28.972055 0,15.97855 -13.00543,28.98493 -28.9785,28.98493 -15.97306,0 -28.97205,-13.00638 -28.97205,-28.98493 0,-15.96756 12.99899,-28.972055 28.97205,-28.972055 z m 0.0451,7.156538 c -12.01135,0 -21.75751,9.750227 -21.75751,21.772547 0,12.02232 9.74616,21.76179 21.75751,21.76179 12.0223,0 21.77254,-9.73947 21.77254,-21.76179 0,-12.02232 -9.75024,-21.772547 -21.77254,-21.772547 z m -63.44416,72.128257 c 6.04682,2.5131 10.73812,7.23712 13.22379,13.28395 2.49118,6.04682 2.48076,12.71405 -0.0322,18.73892 -5.20729,12.46677 -19.56231,18.3867 -32.04006,13.19586 -5.75601,-2.39789 -10.10172,-6.78067 -12.60934,-12.00992 l 14.15839,5.85888 c 9.20194,3.83001 19.75916,-0.52561 23.58369,-9.71107 3.83551,-9.19096 -0.51675,-19.74939 -9.71321,-23.5794 l -14.63318,-6.05222 c 6.08826,-2.01581 12.6392,-1.93051 18.06212,0.275 z"
     id="path852"
     inkscape:connector-curvature="0"
     sodipodi:nodetypes="csccccccccccssccsssssssssscccccccccc" />
</svg>
