<?xml version="1.0" encoding="UTF-8" standalone="no"?>
<svg
   xmlns:dc="http://purl.org/dc/elements/1.1/"
   xmlns:cc="http://creativecommons.org/ns#"
   xmlns:rdf="http://www.w3.org/1999/02/22-rdf-syntax-ns#"
   xmlns:svg="http://www.w3.org/2000/svg"
   xmlns="http://www.w3.org/2000/svg"
   xmlns:sodipodi="http://sodipodi.sourceforge.net/DTD/sodipodi-0.dtd"
   xmlns:inkscape="http://www.inkscape.org/namespaces/inkscape"
   height="300"
   width="300"
   id="svg854"
   viewBox="0 0 300 300"
   version="1.1"
   sodipodi:docname="steam.svg"
   inkscape:version="0.92.4 (5da689c313, 2019-01-14)">
  <sodipodi:namedview
     pagecolor="#ffffff"
     bordercolor="#666666"
     borderopacity="1"
     objecttolerance="10"
     gridtolerance="10"
     guidetolerance="10"
     inkscape:pageopacity="0"
     inkscape:pageshadow="2"
     inkscape:window-width="901"
     inkscape:window-height="748"
     id="namedview12"
     showgrid="false"
     borderlayer="true"
     inkscape:showpageshadow="false"
     inkscape:zoom="1.1125147"
     inkscape:cx="168.89862"
     inkscape:cy="119.82528"
     inkscape:window-x="966"
     inkscape:window-y="156"
     inkscape:window-maximized="0"
     inkscape:current-layer="svg854" />
  <metadata
     id="metadata858">
    <rdf:RDF>
      <cc:Work
         rdf:about="">
        <dc:format>image/svg+xml</dc:format>
        <dc:type
           rdf:resource="http://purl.org/dc/dcmitype/StillImage" />
        <dc:title />
      </cc:Work>
    </rdf:RDF>
  </metadata>
  <defs
     id="defs846">
    <linearGradient
       y2="1"
       x1="0.5"
       x2="0.5"
       id="a">
      <stop
         id="stop836"
         offset="0"
         stop-color="#F6F6F6" />
      <stop
         id="stop838"
         offset="1"
         stop-color="#989693" />
    </linearGradient>
    <linearGradient
       y2="1"
       x1="0.5"
       x2="0.5"
       id="b">
      <stop
         id="stop841"
         offset="0"
         stop-color="#EFEFEE" />
      <stop
         id="stop843"
         offset="1"
         stop-color="#84827E" />
    </linearGradient>
  </defs>
  <path
     style="fill:#ffffff;fill-opacity:1;stroke-width:4.0572834"
     d="m 190.60957,95.253433 c -17.73438,0 -32.15825,14.423167 -32.15825,32.153507 0,0.14201 7.3e-4,0.28391 0.01,0.4178 l -20.71708,30.04064 c -5.30203,0.053 -9.79806,1.18625 -13.87971,3.84285 L 78.031031,142.76245 V 171.618 l 35.835899,14.81538 c 1.61479,7.19762 6.56389,13.5192 13.86699,16.5581 11.9487,4.9864 25.72251,-0.69452 30.69674,-12.63104 1.2902,-3.11601 1.89551,-6.38949 1.80626,-9.65559 l 29.64189,-21.1476 c 0.24343,0.009 0.48733,0.0127 0.73076,0.0127 17.73439,0 32.1535,-14.43272 32.1535,-32.16304 0,-17.73034 -14.4191,-32.153506 -32.1535,-32.153506 z m 0,10.731077 c 11.81076,0 21.42719,9.61575 21.42719,21.42243 0,11.81482 -9.61643,21.43196 -21.42719,21.43196 -11.81076,0 -21.42243,-9.61714 -21.42243,-21.43196 0,-11.80668 9.61167,-21.42243 21.42243,-21.42243 z m 0.0334,5.29167 c -8.88142,0 -16.08789,7.20948 -16.08789,16.09899 0,8.8895 7.20647,16.09104 16.08789,16.09104 8.88949,0 16.09898,-7.20154 16.09898,-16.09104 0,-8.88951 -7.20949,-16.09899 -16.09898,-16.09899 z m -46.91172,53.33286 c 4.47114,1.85822 7.93996,5.35125 9.77791,9.82238 1.84202,4.47113 1.83432,9.40098 -0.0238,13.85588 -3.85036,9.21815 -14.46471,13.59545 -23.69096,9.75725 -4.2561,-1.77304 -7.46939,-5.01376 -9.32358,-8.88036 l 10.46896,4.33216 c 6.80407,2.83199 14.61026,-0.38864 17.4382,-7.18052 2.83603,-6.79595 -0.3821,-14.60304 -7.18213,-17.435 l -10.81999,-4.47513 c 4.50176,-1.49052 9.34564,-1.42746 13.35544,0.20334 z"
     id="path852"
     inkscape:connector-curvature="0"
     sodipodi:nodetypes="csccccccccccssccsssssssssscccccccccc" />
</svg>
