<?xml version="1.0" encoding="UTF-8" standalone="no"?>
<svg
   xmlns:dc="http://purl.org/dc/elements/1.1/"
   xmlns:cc="http://creativecommons.org/ns#"
   xmlns:rdf="http://www.w3.org/1999/02/22-rdf-syntax-ns#"
   xmlns:svg="http://www.w3.org/2000/svg"
   xmlns="http://www.w3.org/2000/svg"
   id="svg2"
   height="300"
   width="300"
   version="1.1">
  <metadata
     id="metadata8">
    <rdf:RDF>
      <cc:Work
         rdf:about="">
        <dc:format>image/svg+xml</dc:format>
        <dc:type
           rdf:resource="http://purl.org/dc/dcmitype/StillImage" />
        <dc:title></dc:title>
      </cc:Work>
    </rdf:RDF>
  </metadata>
  <defs
     id="defs6" />
  <path
     style="fill:#ffffff;stroke:none;stroke-width:1.41874385"
     id="rect3003"
     d="m 150.27119,60.118644 c -29.77518,0 -53.912263,24.137088 -53.912263,53.912266 v 76.61216 c 0,7.05258 -5.716121,12.7687 -12.768696,12.7687 -7.052009,0 -12.768695,-5.71612 -12.768695,-12.7687 V 156.59321 H 29.677967 v 35.46861 c 0,29.77517 24.137372,53.91226 53.912264,53.91226 29.775179,0 53.912259,-24.13709 53.912259,-53.91226 v -78.03091 c 0,-7.05258 5.71612,-12.7687 12.7687,-12.7687 7.05258,0 12.7687,5.71612 12.7687,12.7687 v 15.60617 l 17.02492,7.80309 24.11865,-7.80309 v -15.60617 c 0,-29.775178 -24.13709,-53.912266 -53.91227,-53.912266 z m 12.7687,97.183936 v 34.75924 c 0,29.77517 24.13708,53.91226 53.91226,53.91226 29.77517,0 53.91226,-24.13709 53.91226,-53.91226 v -34.04987 h -41.14357 v 34.04987 c 0,7.05257 -5.71612,12.76869 -12.76869,12.76869 -7.05257,0 -12.76869,-5.71612 -12.76869,-12.76869 v -34.75924 l -24.11865,7.8031 z" />
</svg>
