<?xml version="1.0" encoding="UTF-8" standalone="no"?>
<svg
   xmlns:dc="http://purl.org/dc/elements/1.1/"
   xmlns:cc="http://creativecommons.org/ns#"
   xmlns:rdf="http://www.w3.org/1999/02/22-rdf-syntax-ns#"
   xmlns:svg="http://www.w3.org/2000/svg"
   xmlns="http://www.w3.org/2000/svg"
   id="svg8"
   version="1.1"
   viewBox="0 0 79.374998 79.375002"
   height="300"
   width="300">
  <defs
     id="defs2" />
  <metadata
     id="metadata5">
    <rdf:RDF>
      <cc:Work
         rdf:about="">
        <dc:format>image/svg+xml</dc:format>
        <dc:type
           rdf:resource="http://purl.org/dc/dcmitype/StillImage" />
        <dc:title></dc:title>
      </cc:Work>
    </rdf:RDF>
  </metadata>
  <g
     transform="translate(0,-217.62499)"
     id="layer1">
    <path
       id="path859"
       d="m 32.587023,271.56408 c -3.847588,-4.43947 -7.009548,-8.13091 -7.026576,-8.20321 -0.01703,-0.0723 0.0087,-0.15597 0.05722,-0.18594 0.04849,-0.03 3.187645,2.72567 6.975882,6.12365 3.788239,3.39799 6.920167,6.17848 6.959841,6.17888 0.03967,3.9e-4 1.7713,-1.91546 3.84806,-4.25747 2.076758,-2.34201 3.835022,-4.2582 3.907255,-4.2582 0.07223,0 0.129608,0.0571 0.127502,0.12673 -0.0066,0.22024 -7.568887,12.49456 -7.714556,12.52155 -0.07646,0.0142 -3.287037,-3.60652 -7.134626,-8.04599 z m -24.7381192,-0.007 c -3.1784427,-1.0356 -5.9102032,-1.97584 -6.070578,-2.08942 -0.3984318,-0.28219 -0.709968,-1.00978 -0.6340412,-1.48082 0.1316529,-0.81673 1.7934912,-5.68097 2.0416178,-5.97586 0.324129,-0.38521 1.0020681,-0.66007 1.4300136,-0.57978 0.1787582,0.0335 2.9139047,0.90155 6.078102,1.92893 5.034094,1.63451 5.794187,1.9078 6.081943,2.1867 0.362901,0.35173 0.611555,1.05753 0.503507,1.42917 -0.03817,0.13131 -0.453918,1.4335 -0.923874,2.89377 -0.903992,2.8089 -1.086988,3.17273 -1.731202,3.4419 -0.18204,0.0761 -0.480723,0.13605 -0.663741,0.13331 -0.183019,-0.003 -2.933304,-0.8523 -6.1117472,-1.8879 z m 56.8112772,1.6883 c -0.203655,-0.1076 -0.461488,-0.34511 -0.572958,-0.5278 -0.285503,-0.46791 -1.946609,-5.65379 -1.94459,-6.07089 0.0022,-0.44979 0.375455,-1.09867 0.758781,-1.319 0.399035,-0.22937 11.833012,-3.94263 12.140231,-3.94263 0.337466,0 1.097186,0.4113 1.310916,0.7097 0.291204,0.40657 1.933615,5.5596 1.941154,6.09032 0.0083,0.58701 -0.322581,1.14724 -0.828372,1.40241 -0.678015,0.34205 -11.690447,3.8626 -12.067962,3.85799 -0.201807,-0.002 -0.53355,-0.0925 -0.7372,-0.20011 z M 21.382318,259.17161 c -0.468028,-0.24673 -7.663571,-10.09138 -7.762908,-10.6209 -0.09338,-0.49774 0.02856,-1.00306 0.327886,-1.35878 0.263629,-0.31331 4.320613,-3.31503 4.862086,-3.59742 0.424257,-0.22125 1.214202,-0.1969 1.613254,0.0497 0.385872,0.23848 7.377736,9.81065 7.624011,10.4376 0.177743,0.45249 0.123916,0.91148 -0.161815,1.37984 -0.165979,0.27206 -3.872512,3.06754 -4.878761,3.67958 -0.444292,0.27023 -1.143917,0.28332 -1.623753,0.0304 z m 35.119916,0.005 c -0.586811,-0.32161 -4.603756,-3.28987 -4.852943,-3.58601 -0.28773,-0.34195 -0.406443,-0.85205 -0.313539,-1.34727 0.08654,-0.46128 7.17417,-10.24765 7.65842,-10.57449 0.404629,-0.2731 1.17798,-0.30773 1.631788,-0.073 0.682768,0.35307 4.791404,3.44117 4.971784,3.73686 0.275747,0.45201 0.329171,0.87116 0.169845,1.33264 -0.0764,0.22129 -1.763572,2.63889 -3.74927,5.37245 -3.89352,5.35992 -3.862476,5.32534 -4.772655,5.3163 -0.235098,-0.002 -0.569641,-0.0822 -0.74343,-0.17743 z m -21.127103,-7.99572 v -5.91523 l 0.02263,-6.09629 c 0.0018,-0.47434 0.554585,-1.29998 1.281834,-1.33965 0.650108,-0.0355 -0.141481,-0.0744 3.101261,-0.0452 3.175028,0.0286 3.256107,0.0344 3.565899,0.25537 0.665739,0.47487 0.646161,0.25598 0.646161,7.22573 0,6.96976 0.01957,6.75086 -0.646161,7.22573 -0.309796,0.22099 -0.390871,0.22679 -3.565899,0.25538 -3.242742,0.0292 -2.345928,0.0439 -2.897562,1.1e-4 -0.712556,-0.0565 -1.508163,-0.73491 -1.508163,-1.56595 z"
       style="fill:#ffffff;fill-opacity:1;stroke-width:0.10138573" />
  </g>
</svg>
