<?xml version="1.0" encoding="UTF-8" standalone="no"?>
<svg
   xmlns:dc="http://purl.org/dc/elements/1.1/"
   xmlns:cc="http://creativecommons.org/ns#"
   xmlns:rdf="http://www.w3.org/1999/02/22-rdf-syntax-ns#"
   xmlns:svg="http://www.w3.org/2000/svg"
   xmlns="http://www.w3.org/2000/svg"
   xmlns:sodipodi="http://sodipodi.sourceforge.net/DTD/sodipodi-0.dtd"
   xmlns:inkscape="http://www.inkscape.org/namespaces/inkscape"
   xml:space="preserve"
   enable-background="new 0 0 256 256"
   viewBox="0 0 300 300"
   height="300"
   width="300"
   y="0px"
   x="0px"
   id="Calque_1"
   version="1.1"
   sodipodi:docname="tumblr.svg"
   inkscape:version="0.92.4 (5da689c313, 2019-01-14)"><sodipodi:namedview
   pagecolor="#ffffff"
   bordercolor="#666666"
   borderopacity="1"
   objecttolerance="10"
   gridtolerance="10"
   guidetolerance="10"
   inkscape:pageopacity="0"
   inkscape:pageshadow="2"
   inkscape:window-width="1188"
   inkscape:window-height="942"
   id="namedview8"
   showgrid="false"
   inkscape:zoom="2.6074563"
   inkscape:cx="134.96972"
   inkscape:cy="150.62375"
   inkscape:window-x="656"
   inkscape:window-y="9"
   inkscape:window-maximized="0"
   inkscape:current-layer="Calque_1" /><metadata
   id="metadata19"><rdf:RDF><cc:Work
       rdf:about=""><dc:format>image/svg+xml</dc:format><dc:type
         rdf:resource="http://purl.org/dc/dcmitype/StillImage" /><dc:title></dc:title></cc:Work></rdf:RDF></metadata><defs
   id="defs17" />
<g
   id="g12"
   transform="translate(16.491168,30.193441)">
	
	<g
   id="g10">
		<path
   id="path8"
   d="m 168.08,170.918 c -2.969,1.416 -8.647,2.648 -12.881,2.754 -12.783,0.342 -15.264,-8.979 -15.367,-15.736 v -49.705 h 32.065 V 84.055 H 139.943 V 43.382 c 0,0 -23.008,0 -23.383,0 -0.385,0 -1.057,0.337 -1.152,1.192 -1.368,12.448 -7.192,34.296 -31.416,43.032 v 20.624 h 16.16 v 52.167 c 0,17.863 13.176,43.24 47.959,42.641 11.736,-0.201 24.77,-5.113 27.648,-9.354 l -7.679,-22.766"
   inkscape:connector-curvature="0"
   style="fill:#ffffff" />
	</g>
</g>
</svg>