<?xml version="1.0" encoding="UTF-8" standalone="no"?>
<svg
   xmlns:dc="http://purl.org/dc/elements/1.1/"
   xmlns:cc="http://creativecommons.org/ns#"
   xmlns:rdf="http://www.w3.org/1999/02/22-rdf-syntax-ns#"
   xmlns:svg="http://www.w3.org/2000/svg"
   xmlns="http://www.w3.org/2000/svg"
   id="svg8"
   version="1.1"
   viewBox="0 0 79.374998 79.375002"
   height="300"
   width="300">
  <defs
     id="defs2" />
  <metadata
     id="metadata5">
    <rdf:RDF>
      <cc:Work
         rdf:about="">
        <dc:format>image/svg+xml</dc:format>
        <dc:type
           rdf:resource="http://purl.org/dc/dcmitype/StillImage" />
        <dc:title></dc:title>
      </cc:Work>
    </rdf:RDF>
  </metadata>
  <g
     transform="translate(0,-217.62499)"
     id="layer1">
    <path
       id="path823"
       transform="matrix(0.26458333,0,0,0.26458333,0,217.62499)"
       d="M 33 7 L 14 57 L 13.888672 260 L 83 260 L 83 298 L 121 298 L 159.09961 260 L 215.91992 260 L 292 184.08594 L 292 7 L 33 7 z M 58 32 L 267 32 L 266.07227 171.42773 L 222.5 216 L 152.85742 216 L 115 253.21484 L 115 216 L 58 216 L 58 32 z M 127.5 83 L 127.5 159 L 152.75 159 L 152.75 83 L 127.5 83 z M 196.44336 83 L 196.44336 159 L 221.69336 159 L 221.69336 83 L 196.44336 83 z "
       style="opacity:1;fill:#ffffff;fill-opacity:1;stroke:#000000;stroke-width:0;stroke-linecap:butt;stroke-linejoin:miter;stroke-miterlimit:4;stroke-dasharray:none;stroke-opacity:1" />
  </g>
</svg>
