<?xml version="1.0" encoding="UTF-8" standalone="no"?>
<svg
   xmlns:dc="http://purl.org/dc/elements/1.1/"
   xmlns:cc="http://creativecommons.org/ns#"
   xmlns:rdf="http://www.w3.org/1999/02/22-rdf-syntax-ns#"
   xmlns:svg="http://www.w3.org/2000/svg"
   xmlns="http://www.w3.org/2000/svg"
   xmlns:sodipodi="http://sodipodi.sourceforge.net/DTD/sodipodi-0.dtd"
   xmlns:inkscape="http://www.inkscape.org/namespaces/inkscape"
   id="svg859"
   version="1.1"
   viewBox="0 0 79.374999 79.374999"
   height="300"
   width="300"
   sodipodi:docname="twitter.svg"
   inkscape:version="0.92.4 (5da689c313, 2019-01-14)">
  <sodipodi:namedview
     pagecolor="#ffffff"
     bordercolor="#666666"
     borderopacity="1"
     objecttolerance="10"
     gridtolerance="10"
     guidetolerance="10"
     inkscape:pageopacity="0"
     inkscape:pageshadow="2"
     inkscape:window-width="1178"
     inkscape:window-height="977"
     id="namedview8"
     showgrid="false"
     inkscape:zoom="2.2250293"
     inkscape:cx="150.90736"
     inkscape:cy="151.69831"
     inkscape:window-x="653"
     inkscape:window-y="29"
     inkscape:window-maximized="0"
     inkscape:current-layer="svg859" />
  <defs
     id="defs853" />
  <metadata
     id="metadata856">
    <rdf:RDF>
      <cc:Work
         rdf:about="">
        <dc:format>image/svg+xml</dc:format>
        <dc:type
           rdf:resource="http://purl.org/dc/dcmitype/StillImage" />
        <dc:title />
      </cc:Work>
    </rdf:RDF>
  </metadata>
  <g
     transform="translate(0,-217.625)"
     id="layer1">
    <g
       style="fill:#ffffff;fill-opacity:1"
       transform="matrix(0.25748037,0,0,0.25748037,-137.76269,80.241486)"
       id="layer1-0">
      <path
         id="path3611"
         style="fill:#ffffff;fill-opacity:1;fill-rule:nonzero;stroke:none;stroke-width:0.51665109"
         d="m 663.87769,750.86546 c 58.10278,0 89.87471,-48.13517 89.87471,-89.87469 0,-1.36721 -0.0279,-2.72824 -0.0891,-4.08312 6.16778,-4.45878 11.5288,-10.02303 15.75664,-16.3571 -5.65971,2.51577 -11.7505,4.20937 -18.14,4.97303 6.5219,-3.91069 11.5288,-10.09693 13.89061,-17.47179 -6.10312,3.61815 -12.86213,6.24785 -20.05839,7.66739 -5.76438,-6.14007 -13.97064,-9.97991 -23.05757,-9.97991 -17.44409,0 -31.59025,14.14617 -31.59025,31.58407 0,2.47882 0.27713,4.88989 0.81908,7.20242 -26.25387,-1.32101 -49.53317,-13.89059 -65.11119,-33.00364 -2.71285,4.66819 -4.27711,10.09077 -4.27711,15.87673 0,10.95913 5.57654,20.63421 14.05687,26.29391 -5.18242,-0.16012 -10.05074,-1.58275 -14.3063,-3.95071 -0.005,0.13253 -0.005,0.26175 -0.005,0.40339 0,15.29782 10.88832,28.07064 25.34242,30.96514 -2.65434,0.72364 -5.44725,1.11162 -8.32944,1.11162 -2.03231,0 -4.01229,-0.20002 -5.93683,-0.56966 4.02152,12.55111 15.68272,21.68423 29.50866,21.93981 -10.81132,8.47415 -24.43094,13.52109 -39.233,13.52109 -2.54656,0 -5.06233,-0.14485 -7.53498,-0.43727 13.9799,8.96069 30.58026,14.18929 48.42154,14.18929"
         inkscape:connector-curvature="0" />
    </g>
  </g>
</svg>
