<?xml version="1.0" encoding="UTF-8" standalone="no"?>
<svg
   xmlns:dc="http://purl.org/dc/elements/1.1/"
   xmlns:cc="http://creativecommons.org/ns#"
   xmlns:rdf="http://www.w3.org/1999/02/22-rdf-syntax-ns#"
   xmlns:svg="http://www.w3.org/2000/svg"
   xmlns="http://www.w3.org/2000/svg"
   width="300"
   height="300"
   viewBox="0 0 79.374996 79.375003"
   version="1.1"
   id="svg8">
  <defs
     id="defs2" />
  <metadata
     id="metadata5">
    <rdf:RDF>
      <cc:Work
         rdf:about="">
        <dc:format>image/svg+xml</dc:format>
        <dc:type
           rdf:resource="http://purl.org/dc/dcmitype/StillImage" />
        <dc:title></dc:title>
      </cc:Work>
    </rdf:RDF>
  </metadata>
  <path
     id="path4530"
     d="M 29.127612,62.513071 C 27.5643,60.946133 26.829519,59.725533 26.201282,57.651893 25.80772,56.352859 25.799832,56.151026 25.737755,45.792213 l -0.06316,-10.538149 h 7.416392 l 0.0498,9.744484 c 0.04947,9.682817 0.05234,9.75079 0.452508,10.740468 1.074899,2.658399 4.209503,4.377436 7.048948,3.865682 2.517301,-0.453694 4.452506,-2.087219 5.150722,-4.347773 0.344479,-1.115298 0.360864,-1.595934 0.360864,-10.585603 v -9.417258 h 7.427937 l -0.06239,10.449964 c -0.06947,11.636063 -0.05174,11.451402 -1.35373,14.09613 -1.476492,2.999178 -4.886297,5.442399 -8.657378,6.203261 -1.751849,0.353457 -4.594838,0.636922 -7.017919,0.197659 -2.477662,-0.449159 -5.225367,-1.545681 -7.362741,-3.688007 z m -3.432789,-41.861763 13.933291,-7.871917 13.933289,7.871917 -0.09942,7.900666 -13.833868,-7.940695 -13.83387,7.940695 z"
     style="fill:#ffffff;stroke-width:0.17637074;fill-opacity:1" />
</svg>
