<?xml version="1.0" encoding="UTF-8" standalone="no"?>
<svg
   xmlns:dc="http://purl.org/dc/elements/1.1/"
   xmlns:cc="http://creativecommons.org/ns#"
   xmlns:rdf="http://www.w3.org/1999/02/22-rdf-syntax-ns#"
   xmlns:svg="http://www.w3.org/2000/svg"
   xmlns="http://www.w3.org/2000/svg"
   xmlns:sodipodi="http://sodipodi.sourceforge.net/DTD/sodipodi-0.dtd"
   xmlns:inkscape="http://www.inkscape.org/namespaces/inkscape"
   id="svg28"
   version="1.1"
   width="300"
   viewBox="0 0 299.99549 300.00622"
   height="300"
   xml:space="preserve"
   sodipodi:docname="umsl.svg"
   inkscape:version="0.92.4 (5da689c313, 2019-01-14)"><sodipodi:namedview
     pagecolor="#ffffff"
     bordercolor="#666666"
     borderopacity="1"
     objecttolerance="10"
     gridtolerance="10"
     guidetolerance="10"
     inkscape:pageopacity="0"
     inkscape:pageshadow="2"
     inkscape:window-width="1920"
     inkscape:window-height="1057"
     id="namedview8"
     showgrid="false"
     borderlayer="true"
     inkscape:showpageshadow="false"
     inkscape:zoom="2"
     inkscape:cx="96.713362"
     inkscape:cy="166.94616"
     inkscape:window-x="-8"
     inkscape:window-y="-8"
     inkscape:window-maximized="1"
     inkscape:current-layer="svg28" /><metadata
     id="metadata34"><rdf:RDF><cc:Work
         rdf:about=""><dc:format>image/svg+xml</dc:format><dc:type
           rdf:resource="http://purl.org/dc/dcmitype/StillImage" /><dc:title></dc:title></cc:Work></rdf:RDF></metadata><defs
     id="defs32" /><g
     id="g26"
     transform="matrix(1.254672,0,0,-1.254672,-232.85929,614.43205)"
     style="opacity:1"><g
       id="g24"
       transform="matrix(0.5,0,0,0.5,154.02,186.65)"
       style=""><path
         id="path4"
         transform="matrix(1.2967547,0,0,-1.2967547,110.58544,565.79019)"
         d="m 62.035156,21.857422 -0.0059,0.0039 0.0098,0.0078 z m 0.0039,0.01172 13.134766,46.222656 c 0,0 4.211474,-0.853128 5.833984,-1.181641 0.922303,1.871626 7.107113,14.419786 11.386719,23.105469 -1.27469,-0.02079 -5.802309,-0.716829 -11.845703,-4.001953 C 76.1625,83.629997 69.773949,75.685649 69.783203,75.6875 l 4.291016,-10.421875 c 0,0 -2.646606,-3.829987 -17.957031,-6.677734 -16.61302,-3.09003 -28.78711,6.140625 -28.78711,6.140625 0,0 5.47275,0.307255 11.066406,2.02539 9.830489,3.625011 13.224272,8.466579 17.609375,17.675782 3.824933,7.784354 7.782244,15.830662 20.75,22.375002 9.694355,4.89295 16.169287,5.62126 21.373047,6.20703 3.900504,0.43956 6.406604,1.33157 9.650394,2.72656 0.95978,0.41286 1.86983,1.21503 2.6875,2.11328 -0.97939,1.56826 -1.533,2.9638 -1.70703,4.75391 -0.34248,0.54254 -0.66284,1.08987 -0.93555,1.64648 -1.7744,3.61827 -1.84928,7.18199 -0.21289,10.03711 l 2.01367,3.74024 c 1.1468,2.00193 3.05466,3.49469 5.52734,4.40429 l -80.968746,7.01563 -1.97461,13.40625 c 0,0 4.533595,3.56801 4.53125,8.18359 l -1.890625,17.88086 c -0.631607,6.17295 -1.00553,10.55348 -1.007812,13.85156 0,0.98474 0.03411,1.8743 0.103515,2.68555 1.12743,13.217 10.177728,22.60361 24.740235,26.06641 l -4.757813,9.17383 c 0,0 13.355366,-9.88324 30.671875,-13.20313 31.097621,-5.96197 66.709771,19.07933 101.498101,13.09763 l 28.65429,46.63867 c 1.58932,2.22093 4.67652,2.73589 6.89844,1.15039 2.06435,-1.47599 2.63318,-4.23425 1.43555,-6.40039 -1.43634,-2.58441 -23.72464,-44.24027 -23.72464,-44.24027 13.06706,-3.61317 23.48792,-12.38915 28.74023,-22.20312 l 27.78906,-3.31055 c 1.11738,-0.12878 15.79909,-2.47161 22.00782,-9.27148 8.35809,-9.15393 0.082,-31.66211 0.082,-31.66211 0,0 -10.17431,15.63115 -23.14453,14.42383 1.15238,-10.49676 2.35038,-21.56903 3.51562,-32.28907 0.80972,-7.63691 1.37089,-7.95499 2.73047,-8.71875 l 3.38477,-1.90039 1.33984,-14.75195 c -0.006,8.8e-4 -28.64662,4.21024 -36.70898,4.6582 -8.06321,0.44959 -17.68092,0.21169 -21.55274,0.53711 -9.18847,0.78812 -17.22889,4.88494 -22.50976,11.07813 l -1.53711,-10.11719 -12.69336,1.07813 c 0,0 -8.3139,11.87517 -14.9668,21.3789 l -12.32812,-22.96289 c 4.00601,-4.30385 7.08529,-10.39044 3.4707,-15.85937 l -2.01563,-3.73633 c -1.73649,-2.45774 -4.81725,-4.01468 -8.63672,-4.51953 -1.31801,-0.90897 -3.00693,-1.49752 -4.94531,-1.73242 -0.59595,-2.17817 -0.26491,-3.88078 1.49024,-5.00586 9.87326,-6.829365 13.5221,-18.644347 12.63867,-26.693364 -2.33815,-12.974543 -11.16839,-18.597899 -14.9668,-24.853515 -6.37777,-10.50376 -4.49609,-27.644532 -4.49609,-27.644532 -9.96897,10.464017 -17.88381,25.746746 -16.63869,44.533202 3.0573,-2.996784 5.56575,-5.936786 9.1289,-7.794921 2.64198,3.706977 6.57573,10.229858 8.03906,16.1875 0.17274,0.94081 0.30966,1.908044 0.39063,2.908203 0.26913,3.30906 -11.01367,6.630859 -11.01367,6.630859 L 97.712891,63.455078 101.1543,55.617188 Z m 4.644532,8.191406 29.638672,31.416015 -7.488282,1.5625 24.521482,34.511719 c 0,0 10.95559,-1.77629 15.23242,-12.140625 4.27652,-10.364335 -9.34961,-27.873047 -9.34961,-27.873047 -2.91832,1.318808 -5.04391,2.840402 -7.66601,5.3125 0.57112,-12.485843 4.53031,-22.434672 11.66796,-32.363281 0,0 -2.9015,13.328368 1.28125,22.150391 4.18152,8.822023 19.45058,21.281796 15.85157,35.253906 -3.66885,14.245564 -12.28525,12.058437 -15.16797,20.318354 l -0.2168,0.66796 c -0.57911,1.99187 -0.13788,3.98996 0.52149,5.58008 l 3.17187,5.22266 c -2.56702,2.16695 -6.10449,3.75982 -9.2207,3.52539 -1.83918,-0.13801 -3.17334,-0.81781 -3.91211,-1.82031 0,0 -1.89054,-4.41601 -6.50977,-7.52149 C 101.4299,108.7489 94.602519,113.28349 77.773432,104.78905 60.943738,96.295245 60.124427,85.125634 53.533203,75.224609 46.94198,65.324572 35.076172,63.533203 35.076172,63.533203 c 12.403003,-1.000557 23.264445,1.572565 33.505859,9.238281 -1.899057,-0.472808 -6.21794,-0.347977 -7.867187,0.433594 0,0 5.712447,15.366745 16.958984,21.480469 11.247771,6.113723 21.986328,4.96289 21.986328,4.962891 L 82.265625,64.349609 76.773438,65.460938 66.677734,30.070312 Z M 132.7715,111.91807 c 1.2504,-0.0495 2.42853,0.0169 3.52735,0.17773 1.86327,2.10309 1.04971,4.8256 0.28311,6.49219 -2.88412,6.06745 -11.81866,10.90726 -19.12305,10.35742 -3.19066,-0.21836 -6.24631,-1.6901 -6.74804,-4.75781 0.61675,-1.00964 1.36963,-1.9958 2.23437,-2.94336 l 0.71117,1.23635 c 0.66702,1.70345 2.46665,2.90694 5.20117,3.11133 5.33714,0.40177 12.04408,-3.05856 14.27735,-7.75391 0.9107,-1.91629 0.85786,-3.58759 0.082,-4.84766 z m 6.1074,0.79091 c 1.76105,0.61666 3.15962,1.57436 4.05468,2.83985 1.49682,2.11913 1.49677,4.9042 -0.004,8.06055 -3.77635,7.94597 -15.48069,14.28702 -25.04688,13.56445 -6.95065,-0.52399 -10.44309,-4.79709 -8.34179,-10.57813 0.5159,0.99236 1.0726,2.00287 1.60936,2.99805 1.35569,2.37053 4.09175,3.82426 7.69922,4.0957 8.13724,0.61384 17.74747,-4.62315 20.98633,-11.43554 0.69172,-1.45672 1.03711,-2.8771 1.03711,-4.20118 0,-1.42432 -0.4003,-2.73862 -1.19922,-3.86914 z m 1.18164,22.88282 13.47265,24.37109 c -0.94414,1.34878 -1.25275,1.7907 -2.14843,3.07031 L 136.99219,137.25 Z m 117.56054,0.89843 -0.16211,1.7793 c -4.35394,2.44672 -5.47912,5.13615 -6.45312,14.35547 l -3.25781,29.96875 c -0.59919,5.13849 -0.60529,6.2826 -0.50196,7.51953 0.22827,2.67902 1.96561,3.56799 6.5,3.18164 0,0 15.22549,-1.87405 20.96289,-7.88672 0,0 2.39821,7.56469 -2.21484,12.50391 -4.61336,4.93675 -17.48633,6.98437 -17.48633,6.98437 l -26.52929,3.0879 c 2.79442,-17.55148 4.26022,-35.3454 6.24023,-53.9668 0.51945,-9.28163 4.57383,-15.75689 10.03516,-16.22266 5.2599,-0.44955 7.3164,-0.62224 12.86718,-1.30469 z m -28.63086,3.90821 -1.84961,17.79101 -1.95312,0.16211 c -9.37738,-10.388 -20.6603,-7.54307 -24.20117,-3.07229 -4.15662,5.24824 1.41382,9.23925 8.73047,12.53711 24.83245,12.85794 21.39293,52.85848 -12.11133,62.74609 -27.40594,8.08791 -47.01997,0.006 -68.21875,-5.5332 -15.6489,-4.08873 -26.99038,-6.82749 -38.777341,-4.7793 -15.919125,2.77246 -25.173828,9.51953 -25.173828,9.51953 0,0 12.696705,-17.13248 43.224609,-16.80859 30.52666,0.32388 54.35517,12.17464 76.40039,5.75195 22.04392,-6.4223 31.71368,-26.65382 14.75195,-38.90039 -6.15636,-4.91221 -13.9814,-7.44589 -14.27148,-16.35156 0.11943,-14.83003 12.36952,-22.18827 22.61914,-22.85938 5.68018,-0.45055 10.05856,0.28238 15.54687,1.32813 1.66451,0.31756 2.64248,-0.0753 3.71485,-1.39651 l 1.56445,-0.13281 z m -51.76367,1.74804 9.01172,59.3379 c 0.82051,5.95251 1.47013,7.45105 3.84375,9.74218 0,0 -17.04586,7.70681 -18.84765,-5.55664 -1.2809,-9.42902 -3.48832,-28.66797 -3.48832,-28.66797 l -22.15625,36.69336 -4.63086,-0.93554 -12.42578,-33.03125 -10.4707,28.40039 c -5.69539,-0.52994 -10.0468,-0.45715 -14.94336,-0.0215 l 25.67188,-61.82812 2.06054,-0.17774 16.13282,36.06446 27.87695,-39.81836 z m -58.39062,1.13868 c 0.96572,0.1578 2.01571,0.14558 2.90625,0.15431 l -3.88281,8.25196 z m -8.57032,7.27929 -0.25976,1.7793 c -4.58474,2.2598 -5.91116,4.97224 -6.97461,14.40625 -2.05249,14.74605 -1.90018,27.64164 -5.775387,42.27344 -14.213327,2.94211 -24.882757,10.62397 -30.667968,15.73828 -17.628048,0.12777 -24.593897,-10.14397 -25.294922,-19.93555 -0.238318,-2.78541 0.09714,-7.38177 0.890625,-15.13281 0.751849,-8.50365 2.425689,-19.10962 2.27539,-25.625 -0.299208,-3.50185 -1.227798,-4.67418 -4.125,-5.77539 l 0.263672,-1.78711 c 9.512534,-0.49712 19.057221,-1.38506 26.794922,-2.28516 l -0.263672,1.78711 c -4.469002,2.35542 -5.799746,5.06036 -6.767578,14.38086 -0.493532,5.33358 -3.165041,24.88516 -3.070312,32.13281 0.141007,10.78835 16.243143,13.27618 23.378906,2.67774 2.47467,-3.84468 2.771419,-5.2169 3.90039,-16.32031 l 2.279297,-20.75 c 0.414366,-5.06755 1.629752,-12.31258 -3.74414,-13.48438 l 0.158203,-1.78125 c 9.64508,-0.51303 18.983774,-1.35592 27.001944,-2.29883 z m 86.64258,87.85547 24.91797,45.07031 c 0.37016,0.66628 0.11915,1.50156 -0.5664,1.85938 -0.68479,0.35859 -1.54042,0.11041 -1.91211,-0.55664 -8.45324,-15.23054 -16.96837,-30.431 -25.46475,-45.631 1.31741,-0.29174 1.85021,-0.44902 3.02529,-0.74205 z"
         style="fill:#ffffff;fill-opacity:1;stroke-width:0.6169247"
         inkscape:connector-curvature="0"
         sodipodi:nodetypes="cccccccccccsccccccccccccccccccccsccccccccccccccccccccccccccccccccccccccccccccccccccccccccccccccccccccccccccccccccccccscccccccccccccccccccccccscssccssccccccccccsccccccccccccccccccccccccccccscccccccccccc" /></g></g></svg>