<?xml version="1.0" encoding="UTF-8" standalone="no"?>
<svg
   xmlns:dc="http://purl.org/dc/elements/1.1/"
   xmlns:cc="http://creativecommons.org/ns#"
   xmlns:rdf="http://www.w3.org/1999/02/22-rdf-syntax-ns#"
   xmlns:svg="http://www.w3.org/2000/svg"
   xmlns="http://www.w3.org/2000/svg"
   id="svg8"
   version="1.1"
   viewBox="0 0 79.374998 79.375002"
   height="300"
   width="300">
  <defs
     id="defs2" />
  <metadata
     id="metadata5">
    <rdf:RDF>
      <cc:Work
         rdf:about="">
        <dc:format>image/svg+xml</dc:format>
        <dc:type
           rdf:resource="http://purl.org/dc/dcmitype/StillImage" />
        <dc:title></dc:title>
      </cc:Work>
    </rdf:RDF>
  </metadata>
  <g
     transform="translate(0,-217.62499)"
     id="layer1">
    <path
       id="rect825"
       transform="matrix(0.26458333,0,0,0.26458333,0,217.62499)"
       d="M 243.23047 44.136719 C 236.67544 44.102703 231.23826 44.154756 231.14844 44.25 C 230.97447 44.434819 229.93138 46.236885 217.08203 68.517578 C 212.55463 76.368073 208.25565 83.820084 207.5293 85.076172 C 206.80294 86.33226 204.84707 89.722371 203.18359 92.611328 C 201.52009 95.500323 199.44594 99.098193 198.57422 100.60547 C 197.3226 102.7697 185.0954 123.95442 177.68164 136.80273 C 176.99311 137.99601 170.79409 148.73521 163.9082 160.66797 C 157.02233 172.60069 150.9831 183.08362 150.48633 183.96289 C 149.12476 186.37276 149.2482 186.34617 148.17578 184.47852 C 146.08184 180.83191 134.41997 160.61415 129.76562 152.56055 C 127.04344 147.85027 123.43009 141.58263 121.73438 138.63086 C 120.03866 135.67909 117.87855 131.92783 116.93555 130.29492 C 115.99254 128.66201 113.08772 123.62542 110.48047 119.10352 C 107.87321 114.58165 103.67959 107.31018 101.16016 102.94531 L 96.580078 95.009766 L 85.072266 95.009766 C 78.74308 95.009766 73.608055 95.08753 73.662109 95.181641 C 74.178121 96.080904 85.698227 116.03056 88.662109 121.1582 C 90.767631 124.8008 93.082978 128.81032 93.806641 130.06641 C 94.530303 131.32246 97.970751 137.28332 101.45312 143.3125 C 104.9355 149.34168 110.48459 158.94893 113.78516 164.66406 C 117.08572 170.3792 120.76646 176.75168 121.96484 178.82422 C 124.70268 183.5591 129.34066 191.59015 132.51367 197.09375 C 133.85339 199.41748 136.43833 203.88911 138.25781 207.0293 C 140.0773 210.16952 143.29991 215.74397 145.41992 219.41797 C 147.53993 223.09201 149.33115 226.09501 149.40039 226.0918 C 149.46963 226.08855 151.5816 222.52987 154.09375 218.18164 C 156.6059 213.83341 159.18321 209.38965 159.82031 208.30859 C 160.45742 207.22754 161.9607 204.64868 163.16211 202.57617 C 164.36351 200.50363 168.86984 192.74481 173.17578 185.33398 C 177.48173 177.92312 181.32958 171.29434 181.72656 170.60352 C 182.88659 168.58479 201.4145 136.66154 202.73633 134.4043 C 205.17764 130.23536 221.24556 102.58764 225.76367 94.78125 C 226.89051 92.83434 230.58942 86.461862 233.98242 80.621094 C 237.37543 74.780363 242.20587 66.456502 244.71875 62.123047 C 247.23161 57.789554 250.60709 51.984067 252.21875 49.220703 L 255.14844 44.195312 L 243.23047 44.136719 z M 133.14062 44.138672 C 81.736087 44.108436 39.648484 44.169123 39.613281 44.273438 C 39.555984 44.445406 38.000656 47.150097 28.691406 63.265625 L 26.119141 67.71875 L 108.09766 67.832031 L 190.07812 67.947266 L 187.82812 71.830078 C 186.59112 73.965398 183.74728 78.897195 181.50781 82.791016 C 179.26836 86.684874 176.95255 90.692403 176.36133 91.697266 C 175.7701 92.702129 173.66163 96.350464 171.67773 99.804688 C 169.69382 103.25887 167.38478 107.26839 166.54492 108.71289 C 164.85687 111.61617 162.1642 116.28249 148.96094 139.20117 C 144.04035 147.74253 139.67696 155.29551 139.26367 155.98633 C 138.85039 156.67719 138.17698 157.85964 137.76758 158.61328 L 137.02344 159.98242 L 143.02148 169.86914 C 146.32057 175.30618 149.10532 179.7254 149.20898 179.68945 C 149.31266 179.65166 151.53901 175.87179 154.15625 171.28711 C 156.77349 166.70243 160.49247 160.17656 162.42188 156.78516 C 164.35128 153.39375 171.08698 141.57494 177.38867 130.52148 C 183.69037 119.46799 194.58628 100.3545 201.60156 88.044922 C 208.61687 75.735379 217.1107 60.833272 220.47852 54.929688 L 226.60352 44.195312 L 133.14062 44.138672 z M 258.46484 44.179688 C 258.40081 44.204339 258.35668 44.315221 258.28711 44.445312 C 258.15921 44.684557 256.69339 47.243817 255.0293 50.132812 C 251.26116 56.67457 240.58192 75.191563 238.36719 79.023438 C 237.4597 80.593529 235.74049 83.57398 234.54688 85.646484 C 233.35326 87.719026 230.24084 93.114854 227.62891 97.636719 C 225.017 102.15858 221.90834 107.55246 220.7207 109.625 C 219.5331 111.6975 217.81214 114.67796 216.89648 116.24805 C 215.01068 119.48174 196.61573 151.37344 193.31641 157.12891 C 192.12832 159.20145 190.40589 162.18186 189.49023 163.75195 C 188.05616 166.21103 174.61129 189.5103 165.04492 206.11523 C 161.80468 211.73955 157.31504 219.52951 152.37305 228.09766 C 150.68862 231.01802 149.25177 233.40625 149.17969 233.40625 C 149.10761 233.40625 147.70226 231.06852 146.05664 228.21094 C 144.41102 225.35339 142.1446 221.42152 141.02148 219.47461 C 139.89837 217.5277 136.99784 212.49302 134.57422 208.28516 C 132.1506 204.07729 129.18633 198.93778 127.98828 196.86523 C 126.79023 194.79273 124.15222 190.22013 122.125 186.70312 C 120.09778 183.18609 116.83877 177.53399 114.88281 174.14258 C 112.92685 170.75117 109.96367 165.61357 108.29883 162.72461 C 106.63399 159.83561 104.32467 155.82613 103.16602 153.81641 C 102.00736 151.80668 100.05338 148.41657 98.824219 146.28125 C 97.595056 144.14589 94.924288 139.52091 92.888672 136.00391 C 90.853056 132.48687 85.66843 123.49317 81.367188 116.01953 C 72.842308 101.20703 71.707752 99.244134 69.273438 95.074219 C 68.37761 93.539655 67.583659 92.126161 67.509766 91.933594 C 67.389312 91.619515 72.812983 91.583984 120.00195 91.583984 L 172.62891 91.583984 L 177.79492 82.277344 C 180.63589 77.158843 183.0256 72.797742 183.10547 72.585938 C 183.2413 72.225749 180.89452 72.200237 146.86133 72.1875 C 126.84794 72.179941 92.052288 72.107406 69.537109 72.025391 C 47.021935 71.943375 28.599609 71.93241 28.599609 72.001953 C 28.599609 72.071874 30.160637 74.835555 32.066406 78.144531 C 40.181989 92.235517 41.609357 94.714129 47.316406 104.60156 C 50.615204 110.3167 55.119004 118.12603 57.324219 121.95703 C 59.529433 125.78807 62.018436 130.10433 62.855469 131.54883 C 63.692502 132.99333 65.382044 135.92327 66.611328 138.05859 C 67.840608 140.19391 69.237459 142.60937 69.714844 143.42578 C 70.192228 144.24223 73.837599 150.56226 77.816406 157.4707 C 86.346464 172.28146 88.225259 175.53619 90.271484 179.05273 C 91.112014 180.49723 92.981616 183.73392 94.425781 186.24609 C 95.86995 188.75823 100.9341 197.54612 105.67969 205.77344 C 110.42527 214.00071 116.61642 224.73995 119.4375 229.63867 C 128.26841 244.97316 134.83315 256.33703 135.16992 256.87305 L 135.49414 257.38867 L 149.2168 257.33008 L 162.9375 257.27148 L 166.63867 250.87695 C 168.67363 247.35991 171.75931 242.01654 173.49609 239.00195 C 175.23288 235.98736 178.37443 230.54107 180.47852 226.89844 C 183.80146 221.14573 191.30293 208.14453 198.36523 195.89648 C 199.54264 193.85456 202.64031 188.48476 205.25 183.96289 C 207.8597 179.44099 210.94302 174.09762 212.10156 172.08789 C 213.2601 170.07816 216.34343 164.7328 218.95312 160.21094 C 221.56282 155.68904 224.64615 150.34566 225.80469 148.33594 C 226.96323 146.32621 230.0446 140.9828 232.6543 136.46094 C 235.26399 131.93904 238.34732 126.59371 239.50586 124.58398 C 240.66439 122.57426 243.74773 117.23089 246.35742 112.70898 C 248.96711 108.18712 252.05045 102.84371 253.20898 100.83398 C 254.36752 98.824258 257.45047 93.478934 260.06055 88.957031 C 262.67063 84.435167 265.98901 78.680107 267.43359 76.167969 C 268.87817 73.655792 270.55887 70.748253 271.16992 69.707031 L 272.28125 67.814453 L 269.16602 62.400391 C 267.45259 59.422198 265.27914 55.648532 264.33594 54.015625 C 263.39276 52.382718 261.8551 49.711032 260.91797 48.078125 C 259.04046 44.806717 258.65695 44.105732 258.46484 44.179688 z "
       style="opacity:1;fill:#ffffff;fill-opacity:1;fill-rule:evenodd;stroke:#ffffff;stroke-width:0;stroke-linecap:square;stroke-linejoin:round;stroke-miterlimit:4;stroke-dasharray:none;stroke-opacity:1;paint-order:normal" />
  </g>
</svg>
