<?xml version="1.0" encoding="UTF-8" standalone="no"?>
<svg
   xmlns:dc="http://purl.org/dc/elements/1.1/"
   xmlns:cc="http://creativecommons.org/ns#"
   xmlns:rdf="http://www.w3.org/1999/02/22-rdf-syntax-ns#"
   xmlns:svg="http://www.w3.org/2000/svg"
   xmlns="http://www.w3.org/2000/svg"
   id="svg8"
   version="1.1"
   viewBox="0 0 79.374998 79.375002"
   height="300"
   width="300">
  <defs
     id="defs2" />
  <metadata
     id="metadata5">
    <rdf:RDF>
      <cc:Work
         rdf:about="">
        <dc:format>image/svg+xml</dc:format>
        <dc:type
           rdf:resource="http://purl.org/dc/dcmitype/StillImage" />
        <dc:title></dc:title>
      </cc:Work>
    </rdf:RDF>
  </metadata>
  <g
     transform="translate(0,-217.62499)"
     id="layer1">
    <path
       id="path823"
       transform="matrix(0.26458333,0,0,0.26458333,0,217.62499)"
       d="M 236.42773 43.572266 C 196.9356 43.572266 180.51466 67.473736 179.74609 87.945312 C 179.6496 90.51544 179.59874 93.117066 179.53906 95.712891 L 207.94141 96.955078 C 208.12553 94.886764 208.25999 92.888384 208.3418 91 C 208.71735 82.331479 218.6122 70.976817 236.42773 70.714844 C 257.86588 70.399601 266.42773 84.250955 266.42773 98.572266 C 266.42773 119.28657 252.28571 132.85742 228 132.85742 L 228 154.28516 C 228 154.28516 267.85742 149.9735 267.85742 189.28516 C 267.85742 212.8566 251.3915 220.63248 236.42773 221.42773 C 222.24163 222.18164 205.00084 216.57144 203.57227 193 L 177.14258 193 C 177.14258 193 178.56725 245.71484 232.85742 245.71484 C 266.42885 245.71484 290.71484 230.89876 290.71484 194.28516 L 290.71484 101.42773 C 292.8577 64.665069 273.03095 43.572266 236.42773 43.572266 z M 93.572266 97 C 93.572266 97 92.142856 140.71344 60 141.42773 C 27.857143 142.14203 25.714844 108.57227 25.714844 108.57227 L 2.8574219 108.57227 C 2.8574221 152.85797 29.987144 165.99364 59.285156 167.14258 C 95.713732 168.57116 105.71484 141.42773 105.71484 141.42773 C 105.71484 141.42773 111.34117 165.76545 152.14258 166.42773 C 187.73725 167.00548 201.79341 134.98942 206.45898 108.26562 L 179.05273 107.06836 C 177.79509 123.9851 172.94164 138.44244 149.28516 140 C 115.71373 140.00004 118.57227 97 118.57227 97 L 93.572266 97 z "
       style="fill:#ffffff;fill-opacity:1;stroke:#000000;stroke-width:0;stroke-linecap:butt;stroke-linejoin:miter;stroke-miterlimit:4;stroke-dasharray:none;stroke-opacity:1" />
  </g>
</svg>
