<?xml version="1.0" encoding="UTF-8" standalone="no"?>
<svg
   xmlns:dc="http://purl.org/dc/elements/1.1/"
   xmlns:cc="http://creativecommons.org/ns#"
   xmlns:rdf="http://www.w3.org/1999/02/22-rdf-syntax-ns#"
   xmlns:svg="http://www.w3.org/2000/svg"
   xmlns="http://www.w3.org/2000/svg"
   id="svg8"
   version="1.1"
   viewBox="0 0 79.374998 79.375002"
   height="300"
   width="300">
  <defs
     id="defs2" />
  <metadata
     id="metadata5">
    <rdf:RDF>
      <cc:Work
         rdf:about="">
        <dc:format>image/svg+xml</dc:format>
        <dc:type
           rdf:resource="http://purl.org/dc/dcmitype/StillImage" />
        <dc:title></dc:title>
      </cc:Work>
    </rdf:RDF>
  </metadata>
  <g
     transform="translate(0,-217.62499)"
     id="layer1">
    <path
       id="path823"
       d="m 16.080845,247.81352 9.835179,-0.0103 4.564867,8.08471 4.546655,-8.08364 c 3.648407,0.006 10.945216,0.0183 10.945216,0.0183 l 9.363097,16.79884 c 0,0 -4.859568,8.6848 -4.873131,8.67123 L 40.510836,255.61273 30.49472,273.38438 Z m 38.004026,6.89678 1.141767,-1.71297 0.187522,0.16978 c 0.288173,0.2609 0.806018,0.59765 1.179571,0.74959 0.915111,0.37218 1.973144,0.42949 2.75359,-0.0108 1.257619,-0.70939 1.205964,-2.45892 -0.08845,-3.0985 -0.505887,-0.24996 -0.793808,-0.30503 -1.697359,-0.32463 l -0.799085,-0.0173 -0.506304,-1.14542 c 0,0 2.791279,-3.42308 3.129906,-3.60704 l -4.759491,0.003 v -1.93794 l 7.526168,0.0197 0.01671,1.39303 -3.015569,3.50401 c 1.282731,0.18131 2.368479,0.87685 2.871481,1.80048 0.777458,1.4276 0.630709,3.24656 -0.669308,4.6242 -1.580525,1.67491 -5.125318,1.67079 -7.271141,-0.40973 z"
       style="fill:#ffffff;stroke-width:0.03869495;fill-opacity:1" />
  </g>
</svg>
