<?xml version="1.0" encoding="UTF-8" standalone="no"?>
<svg
   xmlns:dc="http://purl.org/dc/elements/1.1/"
   xmlns:cc="http://creativecommons.org/ns#"
   xmlns:rdf="http://www.w3.org/1999/02/22-rdf-syntax-ns#"
   xmlns:svg="http://www.w3.org/2000/svg"
   xmlns="http://www.w3.org/2000/svg"
   id="svg8"
   version="1.1"
   viewBox="0 0 79.374998 79.375002"
   height="300"
   width="300">
  <defs
     id="defs2" />
  <metadata
     id="metadata5">
    <rdf:RDF>
      <cc:Work
         rdf:about="">
        <dc:format>image/svg+xml</dc:format>
        <dc:type
           rdf:resource="http://purl.org/dc/dcmitype/StillImage" />
        <dc:title></dc:title>
      </cc:Work>
    </rdf:RDF>
  </metadata>
  <g
     transform="translate(0,-217.62499)"
     id="layer1">
    <path
       id="rect827"
       d="m 55.304117,229.10773 c -0.494962,0.025 -1.03788,0.23382 -1.604756,0.64832 -0.897789,0.65647 -1.114818,3.29157 -0.902386,6.15347 2.047782,-0.41169 2.677214,-0.50411 5.048468,-0.0757 v -2.5049 c 0,-2.70907 -1.056433,-4.29609 -2.541326,-4.22117 z m -10.527558,2.63633 c -0.524621,-0.0295 -1.055817,0.12929 -1.568311,0.48816 -1.445912,1.01277 -1.98918,2.31603 -0.24298,4.42992 0.804881,0.97436 0,0 1.351571,1.86601 2.307229,-1.30124 2.355866,-1.58028 4.649536,-2.06255 -0.840947,-1.51778 -1.772907,-4.51319 -4.189816,-4.72154 z m 21.246189,0.72783 c -0.93541,-0.0149 -1.887567,0.74198 -2.910208,2.28728 -0.636097,0.96122 -1.198773,1.91783 -1.303306,2.32591 1.459768,0.42841 2.777896,1.42519 4.160915,2.56171 0.403405,-0.13188 0.776849,-0.6836 1.44199,-1.75983 1.408203,-2.27852 1.477028,-3.36927 0.288262,-4.55804 -0.561172,-0.56117 -1.116407,-0.84791 -1.677653,-0.85703 z m -11.185811,5.57413 c -3.586787,-0.11542 -7.285889,1.12138 -10.421537,4.1505 -1.010786,0.97646 -1.837793,2.48897 -1.837793,2.48897 6.537534,1.06349 11.20391,8.89845 12.141836,12.20117 5.131045,-0.41449 9.105664,0.95054 12.5447,3.74745 0.359534,0.0442 1.059306,-1.10957 1.555057,-2.56453 3.612868,-10.60318 -4.816025,-19.72871 -13.982263,-20.02356 z m -18.57675,1.26238 c -1.337893,0.0149 -3.021539,1.94554 -2.236115,3.90971 1.927852,-0.0106 2.717103,-0.11326 5.367153,0.41638 l 2.146159,-2.22595 c -2.385761,-1.1923 -1.19728,-0.52225 -2.385761,-1.1923 -1.101999,-0.62129 -2.088703,-0.91663 -2.891436,-0.90784 z m 36.996672,1.26349 c -0.92234,0.0267 -2.034405,0.45198 -3.281302,1.269 l -1.322023,0.86699 c 1.362613,1.37573 2.019047,2.70378 2.736814,4.43542 0.233621,0 1.28906,-0.58172 2.345841,-1.29218 2.200678,-1.4795 2.694055,-3.22577 1.304349,-4.61547 -0.464035,-0.46404 -1.066306,-0.6846 -1.783679,-0.66376 z m -37.258425,5.45813 c -9.130567,-0.16584 -15.193487,7.75127 -17.039363,14.91995 -9.7382622,0.075 -13.4666534,3.046 -16.2982864,8.36948 -3.56468598,6.9746 0.3754461,16.10026 8.1507984,18.87716 3.094207,1.10506 48.551121,1.11825 51.192093,0.0149 v -10e-4 c 2.624695,-1.09666 5.813999,-4.04118 7.50912,-6.93369 4.040773,-6.89504 1.062646,-16.13895 -6.37154,-19.77617 -3.811231,-1.75278 -6.314626,-1.5639 -10.312197,-1.5639 -1.757872,-7.21539 -7.765126,-13.74243 -16.830625,-13.90717 z m 35.983894,4.35262 c 0.285612,2.79293 0.357012,3.65799 0,5.8083 h 2.015613 c 1.108991,0 2.508536,-0.26343 3.110117,-0.58537 1.114784,-0.59661 1.435605,-2.52512 0.630635,-3.79267 -0.245371,-0.38637 -1.640846,-0.86671 -3.101277,-1.06688 z m -0.666033,9.2727 c -0.467814,0.0451 -0.771738,1.32826 -2.179564,2.12468 0,0 1.847528,1.86505 1.927639,3.3891 1.320107,2.03791 2.380147,1.77256 3.631579,0.52114 1.133824,-1.13383 0.768199,-2.53816 -1.061368,-4.07763 -1.17649,-0.98994 0,0 -2.318286,-1.95729 z"
       style="opacity:1;fill:#ffffff;fill-opacity:1;fill-rule:evenodd;stroke:#ffffff;stroke-width:0;stroke-linecap:square;stroke-linejoin:round;stroke-miterlimit:4;stroke-dasharray:none;stroke-opacity:1;paint-order:normal" />
  </g>
</svg>
