<?xml version="1.0" encoding="UTF-8" standalone="no"?>
<svg
   xmlns:dc="http://purl.org/dc/elements/1.1/"
   xmlns:cc="http://creativecommons.org/ns#"
   xmlns:rdf="http://www.w3.org/1999/02/22-rdf-syntax-ns#"
   xmlns:svg="http://www.w3.org/2000/svg"
   xmlns="http://www.w3.org/2000/svg"
   xmlns:sodipodi="http://sodipodi.sourceforge.net/DTD/sodipodi-0.dtd"
   xmlns:inkscape="http://www.inkscape.org/namespaces/inkscape"
   id="svg8"
   version="1.1"
   viewBox="0 0 79.374998 79.375002"
   height="300"
   width="300"
   sodipodi:docname="weather.svg"
   inkscape:version="0.92.4 (5da689c313, 2019-01-14)">
  <sodipodi:namedview
     pagecolor="#ffffff"
     bordercolor="#666666"
     borderopacity="1"
     objecttolerance="10"
     gridtolerance="10"
     guidetolerance="10"
     inkscape:pageopacity="0"
     inkscape:pageshadow="2"
     inkscape:window-width="944"
     inkscape:window-height="919"
     id="namedview7"
     showgrid="false"
     borderlayer="true"
     inkscape:showpageshadow="false"
     inkscape:zoom="3.1466667"
     inkscape:cx="154.9398"
     inkscape:cy="176.84775"
     inkscape:window-x="955"
     inkscape:window-y="74"
     inkscape:window-maximized="0"
     inkscape:current-layer="svg8" />
  <defs
     id="defs2" />
  <metadata
     id="metadata5">
    <rdf:RDF>
      <cc:Work
         rdf:about="">
        <dc:format>image/svg+xml</dc:format>
        <dc:type
           rdf:resource="http://purl.org/dc/dcmitype/StillImage" />
        <dc:title></dc:title>
      </cc:Work>
    </rdf:RDF>
  </metadata>
  <g
     transform="matrix(0.5852369,-0.00746735,0.00746735,0.5852369,13.34189,-112.66457)"
     id="layer1">
    <path
       id="rect827"
       d="m 52.712428,232.83202 0.144477,4.06267 c 1.672648,-0.39754 2.889958,-0.436 4.87496,-0.0731 l -0.05079,-3.89179 c -0.11606,-4.52282 -5.197836,-4.18974 -4.968647,-0.0978 z m -6.1781,0.59909 c -1.664148,-2.42939 -6.13988,-0.21623 -4.085495,2.76814 l 2.219385,3.22407 c 1.720008,-1.10414 2.630447,-1.57676 4.489739,-1.99166 -0.812045,-1.46562 -2.623629,-4.00055 -2.623629,-4.00055 z m 17.553426,0.93057 -2.528327,3.66816 c 1.444717,0.5501 2.631632,1.17304 4.017911,2.47367 l 2.408282,-3.47708 c 1.965588,-3.37083 -1.981822,-5.63284 -3.897866,-2.66475 z m -9.260997,4.59608 c -3.463515,-0.11145 -7.035485,1.08284 -10.063366,4.00785 -0.976046,0.9429 -1.774631,2.40343 -1.774631,2.40343 6.31285,1.02694 10.81885,8.59263 11.724541,11.78184 4.954699,-0.40025 8.792717,0.91787 12.113559,3.61865 0.347177,0.0427 1.022899,-1.07143 1.501612,-2.47639 3.4887,-10.23876 -4.650506,-19.05066 -13.501715,-19.33538 z m -20.09756,4.99433 c 1.861595,-0.0102 2.62372,-0.10937 5.182692,0.40207 l 2.072399,-2.14945 -2.811691,-1.55766 c -3.521708,-1.95101 -5.581208,1.29178 -4.4434,3.30504 z m 36.849176,-2.75207 -3.409873,2.25938 c 1.315782,1.32845 2.05124,2.50926 2.642754,4.28298 0,0 2.666947,-1.57758 3.687408,-2.26362 3.06089,-2.36283 0.103073,-6.31564 -2.920289,-4.27874 z m -34.079197,5.46734 c -9.93439,-0.20587 -15.534784,7.48487 -17.31722,14.40718 -9.403574,0.0724 -13.0514836,2.91624 -15.7381411,8.08183 -3.49003359,6.71022 0.035963,18.23664 10.8875901,18.37204 4.704557,0.0587 40.989321,0.6618 44.180911,0.68342 4.372809,0.0296 8.582376,-4.64706 10.247802,-8.01696 3.310346,-6.6983 0.264237,-15.07635 -6.914448,-18.58857 -3.680245,-1.69254 -6.097603,-1.51015 -9.957783,-1.51015 -2.273355,-7.28038 -5.720941,-13.22845 -15.388711,-13.42879 z m 34.086882,4.45699 c 0.275796,2.34139 0.243158,3.3291 -0.20317,5.35472 h 3.622493 c 3.895136,0 3.871146,-5.25941 0.109572,-5.30858 z m -0.846312,8.70005 c -0.451736,0.0435 -0.745215,1.28261 -2.104656,2.05166 0,0 2.037995,1.80095 2.674069,3.425 1.974511,1.80562 4.38934,-1.23382 1.669197,-3.58664 -1.136056,-0.95592 0,0 -2.23861,-1.89002 z"
       style="opacity:1;fill:#ffffff;fill-opacity:1;fill-rule:evenodd;stroke:#ffffff;stroke-width:0;stroke-linecap:square;stroke-linejoin:round;stroke-miterlimit:4;stroke-dasharray:none;stroke-opacity:1;paint-order:normal"
       inkscape:connector-curvature="0"
       sodipodi:nodetypes="cccccccscccccccccccccccccccccccccscssssccsccssccsccc" />
  </g>
</svg>
