<?xml version="1.0" encoding="UTF-8" standalone="no"?>
<svg
   xmlns:dc="http://purl.org/dc/elements/1.1/"
   xmlns:cc="http://creativecommons.org/ns#"
   xmlns:rdf="http://www.w3.org/1999/02/22-rdf-syntax-ns#"
   xmlns:svg="http://www.w3.org/2000/svg"
   xmlns="http://www.w3.org/2000/svg"
   xmlns:sodipodi="http://sodipodi.sourceforge.net/DTD/sodipodi-0.dtd"
   xmlns:inkscape="http://www.inkscape.org/namespaces/inkscape"
   id="svg8"
   version="1.1"
   viewBox="0 0 79.374998 79.375002"
   height="300"
   width="300"
   sodipodi:docname="whatsapp.svg"
   inkscape:version="0.92.4 (5da689c313, 2019-01-14)">
  <sodipodi:namedview
     pagecolor="#ffffff"
     bordercolor="#666666"
     borderopacity="1"
     objecttolerance="10"
     gridtolerance="10"
     guidetolerance="10"
     inkscape:pageopacity="0"
     inkscape:pageshadow="2"
     inkscape:window-width="1253"
     inkscape:window-height="857"
     id="namedview7"
     showgrid="false"
     inkscape:zoom="0.78666667"
     inkscape:cx="127.75424"
     inkscape:cy="150"
     inkscape:window-x="656"
     inkscape:window-y="98"
     inkscape:window-maximized="0"
     inkscape:current-layer="svg8" />
  <defs
     id="defs2" />
  <metadata
     id="metadata5">
    <rdf:RDF>
      <cc:Work
         rdf:about="">
        <dc:format>image/svg+xml</dc:format>
        <dc:type
           rdf:resource="http://purl.org/dc/dcmitype/StillImage" />
        <dc:title />
      </cc:Work>
    </rdf:RDF>
  </metadata>
  <g
     transform="matrix(0.55419563,0,0,0.55419563,17.803203,-103.63584)"
     id="layer1">
    <path
       id="rect825"
       transform="matrix(0.26458333,0,0,0.26458333,0,217.62499)"
       d="m 154.71094,24.119141 c -7.35224,0 -14.70413,0.344554 -18.69336,1.033203 C 101.49175,31.112432 72.851486,49.491658 53.726562,77.958984 28.585906,115.38065 26.574767,164.80685 48.597656,204.04492 l 2.109375,3.75781 -10.685547,31.64649 c -5.877095,17.40597 -10.873226,32.12195 -11.103515,32.70312 -0.359671,0.90773 -0.227063,0.99985 0.941406,0.65039 0.748145,-0.22374 11.302208,-3.589 23.453125,-7.47851 12.150913,-3.88955 26.760716,-8.57309 32.466797,-10.4082 l 10.375,-3.33594 5.486323,2.74609 c 16.24262,8.13415 33.46335,12.09554 52.78711,12.14063 27.35843,0.0639 52.11987,-8.22516 73.92579,-24.74805 5.57481,-4.22415 15.03793,-13.33337 19.90625,-19.16016 39.64344,-47.4483 36.51645,-118.43265 -7.16016,-162.515621 C 222.59702,41.368247 200.06598,29.754863 173.4043,25.152344 169.41506,24.463695 162.06318,24.119141 154.71094,24.119141 Z m 1.82422,19.710937 c 22.41059,0.402075 44.58028,8.209748 62.79296,23.083984 10.37609,8.474117 21.01592,22.017127 26.8418,34.162108 11.35922,23.6801 13.19267,50.55438 5.13672,75.31641 -12.05225,37.04564 -43.26554,63.38268 -82.04687,69.22851 -6.80801,1.02622 -22.92164,1.00893 -29.60157,-0.0332 -12.95765,-2.02004 -26.29619,-6.82536 -37.01953,-13.33594 l -3.921873,-2.38086 -9.957031,3.18946 c -5.47609,1.75442 -14.200342,4.55903 -19.386719,6.23242 l -9.429688,3.04297 6.173829,-18.09375 c 3.394896,-9.95176 6.171875,-18.44837 6.171874,-18.88086 0,-0.43249 -1.425308,-2.97212 -3.166015,-5.64258 C 53.770685,176.16613 49.219654,145.33031 57.007812,117.62891 64.200435,92.045776 82.208538,69.368534 105.55469,56.494141 c 15.97259,-8.808194 33.55,-12.976788 50.98047,-12.664063 z m -36.99805,46.714844 c -0.62981,0.0038 -1.33682,0.01925 -2.13477,0.04102 -7.01501,0.191244 -8.90692,1.110955 -13.17773,6.404296 -5.960769,7.387912 -7.836528,13.239502 -7.419922,23.140622 0.416473,9.89798 3.351942,17.13316 12.130862,29.89844 12.70062,18.46771 26.13912,31.39079 41.52734,39.93554 6.23643,3.46296 22.99916,9.71735 30.82422,11.5 4.30865,0.98158 10.91919,0.60777 15.74414,-0.89062 7.9252,-2.46115 15.33837,-8.38523 17.40625,-13.91211 1.40075,-3.74385 2.37376,-9.95153 1.91797,-12.23047 -0.40869,-2.04344 -1.24318,-2.54505 -15.19336,-9.14062 -11.78339,-5.5711 -13.74396,-6.30656 -15.26563,-5.72266 -0.50097,0.19238 -3.35169,3.38816 -6.33398,7.10352 -6.59008,8.20996 -7.31322,8.76354 -10.24219,7.8125 -3.78065,-1.22756 -13.91117,-6.57103 -18.20312,-9.60157 -7.86627,-5.55432 -16.10563,-14.36019 -21.79492,-23.29492 -3.29876,-5.18052 -3.28455,-5.28882 1.27539,-10.6875 3.9347,-4.65846 6.26953,-8.52144 6.26953,-10.36914 0,-0.95119 -8.86556,-22.738923 -10.77735,-26.486324 -1.5212,-2.981802 -2.14407,-3.526899 -6.55273,-3.5 z"
       style="opacity:1;fill:#ffffff;fill-opacity:1;fill-rule:evenodd;stroke:#ffffff;stroke-width:0;stroke-linecap:square;stroke-linejoin:round;stroke-miterlimit:4;stroke-dasharray:none;stroke-opacity:1;paint-order:normal"
       inkscape:connector-curvature="0" />
  </g>
</svg>
