<?xml version="1.0" encoding="UTF-8" standalone="no"?>
<svg
   xmlns:dc="http://purl.org/dc/elements/1.1/"
   xmlns:cc="http://creativecommons.org/ns#"
   xmlns:rdf="http://www.w3.org/1999/02/22-rdf-syntax-ns#"
   xmlns:svg="http://www.w3.org/2000/svg"
   xmlns="http://www.w3.org/2000/svg"
   id="svg8"
   version="1.1"
   viewBox="0 0 79.374998 79.375002"
   height="300"
   width="300">
  <defs
     id="defs2" />
  <metadata
     id="metadata5">
    <rdf:RDF>
      <cc:Work
         rdf:about="">
        <dc:format>image/svg+xml</dc:format>
        <dc:type
           rdf:resource="http://purl.org/dc/dcmitype/StillImage" />
        <dc:title></dc:title>
      </cc:Work>
    </rdf:RDF>
  </metadata>
  <g
     transform="translate(0,-217.62499)"
     id="layer1">
    <path
       id="rect825"
       transform="matrix(0.26458333,0,0,0.26458333,0,217.62499)"
       d="M 154.71094 24.119141 C 147.3587 24.119141 140.00681 24.463695 136.01758 25.152344 C 101.49175 31.112432 72.851486 49.491658 53.726562 77.958984 C 28.585906 115.38065 26.574767 164.80685 48.597656 204.04492 L 50.707031 207.80273 L 40.021484 239.44922 C 34.144389 256.85519 29.148258 271.57117 28.917969 272.15234 C 28.558298 273.06007 28.690906 273.15219 29.859375 272.80273 C 30.60752 272.57899 41.161583 269.21373 53.3125 265.32422 C 65.463413 261.43467 80.073216 256.75113 85.779297 254.91602 L 96.154297 251.58008 L 101.64062 254.32617 C 117.88324 262.46032 135.10397 266.42171 154.42773 266.4668 C 181.78616 266.53067 206.5476 258.24164 228.35352 241.71875 C 233.92833 237.4946 243.39145 228.38538 248.25977 222.55859 C 287.90321 175.11029 284.77622 104.12594 241.09961 60.042969 C 222.59702 41.368247 200.06598 29.754863 173.4043 25.152344 C 169.41506 24.463695 162.06318 24.119141 154.71094 24.119141 z M 156.53516 43.830078 C 178.94575 44.232153 201.11544 52.039826 219.32812 66.914062 C 229.70421 75.388179 240.34404 88.931189 246.16992 101.07617 C 257.52914 124.75627 259.36259 151.63055 251.30664 176.39258 C 239.25439 213.43822 208.0411 239.77526 169.25977 245.62109 C 162.45176 246.64731 146.33813 246.63002 139.6582 245.58789 C 126.70055 243.56785 113.36201 238.76253 102.63867 232.25195 L 98.716797 229.87109 L 88.759766 233.06055 C 83.283676 234.81497 74.559424 237.61958 69.373047 239.29297 L 59.943359 242.33594 L 66.117188 224.24219 C 69.512084 214.29043 72.289063 205.79382 72.289062 205.36133 C 72.289062 204.92884 70.863754 202.38921 69.123047 199.71875 C 53.770685 176.16613 49.219654 145.33031 57.007812 117.62891 C 64.200435 92.045776 82.208538 69.368534 105.55469 56.494141 C 121.52728 47.685947 139.10469 43.517353 156.53516 43.830078 z M 119.53711 90.544922 C 118.9073 90.548765 118.20029 90.564172 117.40234 90.585938 C 110.38733 90.777182 108.49542 91.696893 104.22461 96.990234 C 98.263841 104.37815 96.388082 110.22974 96.804688 120.13086 C 97.221161 130.02884 100.15663 137.26402 108.93555 150.0293 C 121.63617 168.49701 135.07467 181.42009 150.46289 189.96484 C 156.69932 193.4278 173.46205 199.68219 181.28711 201.46484 C 185.59576 202.44642 192.2063 202.07261 197.03125 200.57422 C 204.95645 198.11307 212.36962 192.18899 214.4375 186.66211 C 215.83825 182.91826 216.81126 176.71058 216.35547 174.43164 C 215.94678 172.3882 215.11229 171.88659 201.16211 165.29102 C 189.37872 159.71992 187.41815 158.98446 185.89648 159.56836 C 185.39551 159.76074 182.54479 162.95652 179.5625 166.67188 C 172.97242 174.88184 172.24928 175.43542 169.32031 174.48438 C 165.53966 173.25682 155.40914 167.91335 151.11719 164.88281 C 143.25092 159.32849 135.01156 150.52262 129.32227 141.58789 C 126.02351 136.40737 126.03772 136.29907 130.59766 130.90039 C 134.53236 126.24193 136.86719 122.37895 136.86719 120.53125 C 136.86719 119.58006 128.00163 97.792323 126.08984 94.044922 C 124.56864 91.06312 123.94577 90.518023 119.53711 90.544922 z "
       style="opacity:1;fill:#ffffff;fill-opacity:1;fill-rule:evenodd;stroke:#ffffff;stroke-width:0;stroke-linecap:square;stroke-linejoin:round;stroke-miterlimit:4;stroke-dasharray:none;stroke-opacity:1;paint-order:normal" />
  </g>
</svg>
