<?xml version="1.0" encoding="UTF-8" standalone="no"?>
<svg
   xmlns:dc="http://purl.org/dc/elements/1.1/"
   xmlns:cc="http://creativecommons.org/ns#"
   xmlns:rdf="http://www.w3.org/1999/02/22-rdf-syntax-ns#"
   xmlns:svg="http://www.w3.org/2000/svg"
   xmlns="http://www.w3.org/2000/svg"
   height="300"
   width="300"
   id="svg20"
   version="1.1"
   viewbox="0 0 300 300">
  <metadata
     id="metadata26">
    <rdf:RDF>
      <cc:Work
         rdf:about="">
        <dc:format>image/svg+xml</dc:format>
        <dc:type
           rdf:resource="http://purl.org/dc/dcmitype/StillImage" />
        <dc:title></dc:title>
      </cc:Work>
    </rdf:RDF>
  </metadata>
  <defs
     id="defs24" />
  <g
     transform="matrix(1.1521739,0,0,1.1521739,-31.637984,-19.080608)"
     style="fill:#ffffff;fill-opacity:1"
     id="g18">
    <path
       style="fill:#ffffff;fill-opacity:1"
       id="ellipse4"
       d="M 157.85938,18.130859 A 128.77499,129.00999 0 0 0 29.085938,147.14062 128.77499,129.00999 0 0 0 157.85938,276.15039 a 128.77499,129.00999 0 0 0 1.70898,-0.0859 l 3.28516,-9.96093 A 117.39,117.39 0 0 1 158.4707,266.25977 117.39,117.39 0 0 1 41.080078,148.86914 117.39,117.39 0 0 1 158.4707,31.480469 117.39,117.39 0 0 1 231.74805,57.300781 l 4.17187,-12.642578 A 128.77499,129.00999 0 0 0 157.85938,18.130859 Z" />
    <rect
       style="fill:#ffffff;fill-opacity:1;stroke-width:0"
       id="rect8"
       x="156.91"
       y="37.57"
       width="9.0360003"
       height="25.6" />
    <rect
       style="fill:#ffffff;fill-opacity:1;stroke-width:0"
       id="rect10"
       x="52.169998"
       y="148.82001"
       width="25.165001"
       height="7.6750002" />
    <ellipse
       style="fill:#ffffff;fill-opacity:1;stroke-width:0"
       id="ellipse12"
       cx="126.196"
       cy="216.78999"
       rx="22.450001"
       ry="23.379999" />
    <path
       style="fill:#ffffff;fill-opacity:1;stroke-width:0"
       id="path16"
       d="m 55.7,97.28 11.77,-4.382 39.5,117.02 40.82,6.234 13.81,-39.255 20.95,60.73 25.33,0.3457 56.73,-171.15 -30.02,-0.3703 -38.84,126.04 -34.1,-91.965 -33.77,92.71 -33.77,-109 12.49,-4.876 -40.52,-36.79" />
  </g>
</svg>
