<?xml version="1.0" encoding="UTF-8" standalone="no"?>
<svg
   xmlns:dc="http://purl.org/dc/elements/1.1/"
   xmlns:cc="http://creativecommons.org/ns#"
   xmlns:rdf="http://www.w3.org/1999/02/22-rdf-syntax-ns#"
   xmlns:svg="http://www.w3.org/2000/svg"
   xmlns="http://www.w3.org/2000/svg"
   xmlns:sodipodi="http://sodipodi.sourceforge.net/DTD/sodipodi-0.dtd"
   xmlns:inkscape="http://www.inkscape.org/namespaces/inkscape"
   id="svg4"
   version="1.1"
   viewBox="0 0 300 300"
   sodipodi:docname="wikipedia.svg"
   inkscape:version="0.92.4 (5da689c313, 2019-01-14)"
   width="300"
   height="300">
  <sodipodi:namedview
     pagecolor="#ffffff"
     bordercolor="#666666"
     borderopacity="1"
     objecttolerance="10"
     gridtolerance="10"
     guidetolerance="10"
     inkscape:pageopacity="0"
     inkscape:pageshadow="2"
     inkscape:window-width="1016"
     inkscape:window-height="891"
     id="namedview6"
     showgrid="false"
     borderlayer="true"
     inkscape:showpageshadow="false"
     inkscape:zoom="1.5706089"
     inkscape:cx="197.08889"
     inkscape:cy="157.92722"
     inkscape:window-x="892"
     inkscape:window-y="87"
     inkscape:window-maximized="0"
     inkscape:current-layer="svg4" />
  <metadata
     id="metadata10">
    <rdf:RDF>
      <cc:Work
         rdf:about="">
        <dc:format>image/svg+xml</dc:format>
        <dc:type
           rdf:resource="http://purl.org/dc/dcmitype/StillImage" />
        <dc:title></dc:title>
      </cc:Work>
    </rdf:RDF>
  </metadata>
  <defs
     id="defs8" />
  <path
     style="fill:#ffffff;fill-opacity:1;stroke-width:0.09333907"
     id="path2"
     d="m 125.09047,207.2275 h 6.91549 l 23.08929,-44.79155 18.9945,44.79155 h 6.65788 l 39.4619,-90.79371 c 2.21214,-5.09351 6.5244,-8.15224 11.10734,-8.84482 v -5.40741 h -31.90889 v 5.40928 c 4.23385,0.94179 8.72813,2.52856 10.72652,6.99679 l -28.97618,66.83639 c -5.23818,-11.14002 -10.60891,-23.3133 -15.7351,-35.46139 5.29092,-11.24082 9.61206,-21.68173 16.10285,-31.9425 3.7948,-6.03717 9.95276,-6.17905 13.12628,-6.47586 v -5.36234 h -33.91942 v 5.36234 c 4.232,0.004 13.03853,0.38064 9.11177,8.63293 l -9.83701,20.683 -10.41944,-23.00715 c -1.62214,-3.58235 1.52889,-5.96903 6.6728,-6.25344 l -0.0378,-5.41301 h -38.17381 v 5.36233 c 4.54822,0.14944 10.96081,0.12507 13.32789,3.98138 7.28884,13.38949 12.16209,27.29795 18.80689,40.94972 l -17.19492,32.15438 -28.90152,-66.43688 c -3.25679,-7.48673 4.47515,-9.89862 9.49818,-10.52399 l -0.0564,-5.48778 H 72.828049 v 5.36233 c 5.619944,1.8582 12.869594,10.21876 14.893185,14.44982 15.204006,31.80063 22.859676,53.12114 37.372036,85.23539 z"
     inkscape:connector-curvature="0" />
</svg>
