<?xml version="1.0" encoding="UTF-8" standalone="no"?>
<svg
   xmlns:dc="http://purl.org/dc/elements/1.1/"
   xmlns:cc="http://creativecommons.org/ns#"
   xmlns:rdf="http://www.w3.org/1999/02/22-rdf-syntax-ns#"
   xmlns:svg="http://www.w3.org/2000/svg"
   xmlns="http://www.w3.org/2000/svg"
   xmlns:sodipodi="http://sodipodi.sourceforge.net/DTD/sodipodi-0.dtd"
   xmlns:inkscape="http://www.inkscape.org/namespaces/inkscape"
   id="svg8"
   version="1.1"
   viewBox="0 0 79.374998 79.375002"
   height="300"
   width="300"
   sodipodi:docname="wired.svg"
   inkscape:version="0.92.4 (5da689c313, 2019-01-14)">
  <sodipodi:namedview
     pagecolor="#ffffff"
     bordercolor="#666666"
     borderopacity="1"
     objecttolerance="10"
     gridtolerance="10"
     guidetolerance="10"
     inkscape:pageopacity="0"
     inkscape:pageshadow="2"
     inkscape:window-width="960"
     inkscape:window-height="952"
     id="namedview7"
     showgrid="false"
     borderlayer="true"
     inkscape:showpageshadow="false"
     inkscape:zoom="1.4142136"
     inkscape:cx="136.07648"
     inkscape:cy="159.20638"
     inkscape:window-x="952"
     inkscape:window-y="40"
     inkscape:window-maximized="0"
     inkscape:current-layer="svg8" />
  <defs
     id="defs2" />
  <metadata
     id="metadata5">
    <rdf:RDF>
      <cc:Work
         rdf:about="">
        <dc:format>image/svg+xml</dc:format>
        <dc:type
           rdf:resource="http://purl.org/dc/dcmitype/StillImage" />
        <dc:title></dc:title>
      </cc:Work>
    </rdf:RDF>
  </metadata>
  <g
     transform="matrix(0.84432735,0,0,0.84432735,6.2112184,-177.64859)"
     id="layer1">
    <path
       id="rect833"
       d="m 15.902117,248.45412 v 16.74614 h 16.408887 v -16.74614 z m 32.944977,0 v 8.4099 8.33624 h 16.472488 v -8.33624 -8.4099 z m -28.747357,2.52687 h 8.013644 v 2.03286 l -2.830215,0.0341 v 7.63204 l 2.830215,0.0344 v 2.03272 h -8.013644 v -2.03521 h 2.862016 v -7.69564 h -2.862016 z m 31.736573,0 h 9.794453 v 3.81602 H 59.531952 V 253.0162 H 55.65233 v 2.67122 h 3.116418 v 1.97161 h -3.118654 l 0.03404,3.02101 3.975022,0.0337 v -2.03707 h 2.098811 v 4.07042 h -9.921654 v -2.03521 h 1.590009 v -7.69564 H 51.83631 Z m 17.235694,0.053 v 11.65923 l 6.880719,-0.0334 c 4.625261,-0.0489 3.787007,-11.49156 0.352536,-11.55196 z m -33.00858,0.004 v 11.6452 h 2.287998 l 0.03342,-4.54743 c 0,0 2.68397,0.0426 4.026075,0.0517 0.295246,0.002 0.642034,0.28679 0.659317,0.85231 0.02191,0.71707 0.153903,3.64642 0.153903,3.64642 l 2.300752,-0.0127 -0.255149,-3.68311 c -0.111992,-1.36891 -0.630624,-1.45907 -1.733274,-1.69211 1.21142,-0.19564 1.739968,-0.95942 1.817579,-1.67473 0.05155,-0.47515 0.06352,-2.31311 -0.0033,-2.79841 -0.186468,-1.35433 -1.33899,-1.80989 -2.329057,-1.80706 z m -23.518213,0.006 -1.597479,9.18615 -2.2070398,-9.15733 -2.1375721,0.0147 -2.1687075,9.27396 -1.584784,-9.31745 -2.30458204,-0.004 2.50687184,11.60781 2.6196033,-0.0238 c 0,0 1.3391233,-5.71822 1.9854888,-8.5819 0.667184,2.91371 1.2440494,6.02439 1.9711774,8.61149 l 2.4971011,0.012 c 0.494278,-2.08562 1.974309,-8.89473 2.551106,-11.6166 z m 25.807826,1.90132 4.379728,0.04 c 1.028725,0.009 0.937129,3.33687 -0.102151,3.33711 l -4.277577,10e-4 z m 33.040379,0.0385 h 3.874569 c 2.316049,0.0814 2.250243,7.59475 0.286199,7.62396 l -4.161266,0.0931 z"
       style="opacity:1;fill:#ffffff;fill-opacity:1;fill-rule:evenodd;stroke:#ffffff;stroke-width:0;stroke-linecap:square;stroke-linejoin:round;stroke-miterlimit:4;stroke-dasharray:none;stroke-opacity:1;paint-order:normal"
       inkscape:connector-curvature="0"
       sodipodi:nodetypes="cccccccccccccccccccccccccccccccccccccccccccccccccccccccssccccsssccccccccccccccccssccccccc" />
  </g>
</svg>
