<?xml version="1.0" encoding="UTF-8" standalone="no"?>
<svg
   xmlns:dc="http://purl.org/dc/elements/1.1/"
   xmlns:cc="http://creativecommons.org/ns#"
   xmlns:rdf="http://www.w3.org/1999/02/22-rdf-syntax-ns#"
   xmlns:svg="http://www.w3.org/2000/svg"
   xmlns="http://www.w3.org/2000/svg"
   id="svg8"
   version="1.1"
   viewBox="0 0 79.374998 79.375002"
   height="300"
   width="300">
  <defs
     id="defs2" />
  <metadata
     id="metadata5">
    <rdf:RDF>
      <cc:Work
         rdf:about="">
        <dc:format>image/svg+xml</dc:format>
        <dc:type
           rdf:resource="http://purl.org/dc/dcmitype/StillImage" />
        <dc:title></dc:title>
      </cc:Work>
    </rdf:RDF>
  </metadata>
  <g
     transform="translate(0,-217.62499)"
     id="layer1">
    <path
       id="rect833"
       d="m 15.902117,248.45412 v 8.4099 8.33624 h 16.408887 v -8.33624 -8.4099 z m 32.944977,0 v 8.4099 8.33624 h 16.472488 v -8.33624 -8.4099 z m -28.747357,2.52687 h 4.006823 4.006821 v 1.01649 1.01637 l -1.415107,0.0171 -1.415108,0.017 v 3.81601 3.81603 l 1.415108,0.0172 1.415107,0.0172 v 1.01636 1.01636 H 24.10656 20.099737 v -1.01761 -1.0176 h 1.431012 1.431004 v -3.84782 -3.84782 h -1.431004 -1.431012 v -1.0176 z m 31.736573,0 h 4.897226 4.897227 v 1.90801 1.90801 h -1.049406 -1.049405 v -0.8904 -0.89041 H 57.592141 55.65233 v 1.33561 1.33561 h 1.558209 1.558209 v 0.9858 0.98581 h -1.559327 -1.559327 l 0.01702,1.51051 0.01702,1.5105 1.987511,0.0169 1.987511,0.0168 v -1.01847 -1.0186 h 1.049407 1.049404 v 2.03521 2.03521 H 56.79714 51.836313 v -1.01761 -1.0176 h 0.795005 0.795004 v -3.84782 -3.84782 H 52.631315 51.83631 v -1.01761 z m 17.235694,0.053 v 5.82961 5.82962 l 3.386717,-0.0267 c 3.222443,-0.0254 3.410936,-0.0333 3.885709,-0.16335 1.987819,-0.54456 2.606467,-1.88426 2.604382,-5.63919 -0.0023,-3.76466 -0.617057,-5.09615 -2.604382,-5.63858 -0.473828,-0.12932 -0.669622,-0.13751 -3.885709,-0.16372 z m -33.00858,0.004 v 5.82266 5.82254 h 1.144062 1.143936 l 0.01677,-2.27371 0.01665,-2.27372 h 1.90801 c 1.049406,0 2.002516,0.0233 2.118065,0.0517 0.115549,0.0284 0.297669,0.12994 0.404707,0.22558 0.220636,0.19714 0.230667,0.26583 0.36831,2.55296 0.03894,0.64713 0.08593,1.29891 0.10447,1.44839 l 0.03366,0.2718 1.093006,-0.0174 c 0.933285,-0.0149 1.089695,-0.0313 1.070648,-0.11279 -0.01228,-0.0525 -0.04774,-0.8109 -0.07888,-1.68541 -0.0981,-2.7551 -0.213035,-3.02604 -1.456969,-3.43603 l -0.413403,-0.13627 0.349803,-0.11465 c 0.904161,-0.29631 1.247077,-0.66086 1.467776,-1.56008 0.113921,-0.46416 0.111705,-2.32223 -0.0033,-2.79841 -0.20221,-0.83693 -0.592134,-1.35776 -1.200083,-1.6033 -0.358973,-0.14498 -0.368262,-0.1454 -4.223461,-0.16459 z m -22.094656,0.006 c -0.10925,-3e-5 -0.235525,4.8e-4 -0.381109,4.8e-4 h -1.042448 l -0.02896,0.2067 c -0.01592,0.11369 -0.17729,1.09393 -0.358621,2.17832 -0.181326,1.08438 -0.400713,2.4009 -0.487563,2.92561 -0.138975,0.83965 -0.303488,1.78434 -0.470667,2.70301 -0.02867,0.15741 -0.08839,0.49422 -0.13279,0.74843 -0.04441,0.25421 -0.09789,0.44506 -0.118878,0.42408 -0.02097,-0.021 -0.07346,-0.18607 -0.11664,-0.36682 -0.144327,-0.60415 -0.596971,-2.61474 -0.65389,-2.9045 -0.07763,-0.39522 -0.7135944,-3.46016 -0.9465524,-4.56183 -0.294276,-1.39163 -0.249888,-1.353 -1.551999,-1.353 h -0.944813 l -0.173412,0.1749 c -0.183787,0.18539 -0.183276,0.18352 -0.612028,2.21012 -0.118408,0.55968 -0.304463,1.43259 -0.413525,1.9398 -0.109062,0.50721 -0.238139,1.12255 -0.286821,1.36741 -0.0487,0.24486 -0.177131,0.86019 -0.285459,1.36741 -0.108322,0.50721 -0.224504,1.0653 -0.25813,1.24021 -0.0336,0.1749 -0.10814,0.47541 -0.165582,0.6678 l -0.104468,0.3498 -0.04993,-0.22508 c -0.105713,-0.47561 -0.807252,-4.60956 -1.16518,-6.86636 -0.12483,-0.78705 -0.258994,-1.60988 -0.298254,-1.82851 l -0.07142,-0.3975 h -1.137605 c -0.62568,0 -1.13759899,0.0249 -1.13759899,0.0552 0,0.0303 0.07018,0.36656 0.155894,0.7473 0.151312,0.67211 0.42386399,2.0027 1.27536499,6.22538 0.956555,4.74369 0.896199,4.51188 1.193125,4.57637 0.374994,0.0814 0.521559,0.0885 1.373118,0.0663 0.769967,-0.0201 0.932957,-0.0418 1.040839,-0.13901 0.174916,-0.15752 0.221325,-0.29792 0.437998,-1.32368 0.10344,-0.48972 0.245811,-1.1623 0.316383,-1.4946 0.07058,-0.33232 0.196987,-0.93334 0.280859,-1.33561 0.08388,-0.40228 0.241152,-1.1464 0.349556,-1.65362 0.108404,-0.50721 0.252643,-1.20118 0.320489,-1.54218 0.241088,-1.21182 0.323362,-1.41487 0.399737,-0.98593 0.02027,0.11369 0.07882,0.39273 0.130182,0.62011 0.16524,0.7315 0.486387,2.22916 0.70917,3.30721 0.637541,3.08508 0.860494,4.07521 0.962571,4.27626 0.04858,0.0957 0.166422,0.19587 0.261984,0.2226 0.2258084,0.0632 2.0297634,0.0632 2.2555714,0 0.322122,-0.0901 0.287615,0.0479 1.4402,-5.77086 0.369213,-1.86391 0.808845,-4.02433 1.093504,-5.37423 0.09458,-0.44851 0.162515,-0.4773 -0.602211,-0.4775 z m 24.384269,1.9018 2.189864,0.02 2.189864,0.02 c 0.570444,0.005 0.54356,0.58735 0.556197,1.5222 0.01404,1.03874 -0.166092,1.79913 -0.658348,1.81491 -0.162003,0.005 -0.812827,-0.006 -2.226466,-0.003 l -2.051111,0.004 v -1.68876 z m 33.040379,0.0385 h 2.035209 2.035214 c 1.241908,0 1.185064,1.43961 1.223063,3.5133 0.04478,2.44358 -0.09136,3.71365 -0.936864,4.11066 -0.268939,0.12629 -0.407915,0.13573 -2.305387,0.15615 -1.640324,0.0176 -2.025351,0.006 -2.051733,-0.0631 -0.01786,-0.0467 -0.02511,-1.80217 -0.01603,-3.90099 z"
       style="opacity:1;fill:#ffffff;fill-opacity:1;fill-rule:evenodd;stroke:#ffffff;stroke-width:0;stroke-linecap:square;stroke-linejoin:round;stroke-miterlimit:4;stroke-dasharray:none;stroke-opacity:1;paint-order:normal" />
  </g>
</svg>
