<?xml version="1.0" encoding="UTF-8" standalone="no"?>
<svg
   xmlns:dc="http://purl.org/dc/elements/1.1/"
   xmlns:cc="http://creativecommons.org/ns#"
   xmlns:rdf="http://www.w3.org/1999/02/22-rdf-syntax-ns#"
   xmlns:svg="http://www.w3.org/2000/svg"
   xmlns="http://www.w3.org/2000/svg"
   id="svg8"
   version="1.1"
   viewBox="0 0 79.374998 79.375002"
   height="300"
   width="300">
  <defs
     id="defs2" />
  <metadata
     id="metadata5">
    <rdf:RDF>
      <cc:Work
         rdf:about="">
        <dc:format>image/svg+xml</dc:format>
        <dc:type
           rdf:resource="http://purl.org/dc/dcmitype/StillImage" />
        <dc:title></dc:title>
      </cc:Work>
    </rdf:RDF>
  </metadata>
  <g
     transform="translate(0,-217.62499)"
     id="layer1">
    <path
       id="path823"
       d="m 35.799711,287.76722 c -2.105475,-3.62282 -3.925234,-6.58694 -4.043908,-6.58694 -0.118676,0 -3.360973,1.38369 -7.20511,3.07485 l -6.989333,3.07487 0.120467,-0.78827 c 0.324285,-2.12196 1.466271,-14.5323 1.348114,-14.65046 -0.07451,-0.0747 -3.493771,-0.86769 -7.598339,-1.76257 l -7.462852,-1.62707 5.1167489,-5.73177 c 2.8142121,-3.15247 5.1183651,-5.79225 5.1203371,-5.86614 0.002,-0.0738 -2.289257,-2.70257 -5.0916261,-5.84144 -2.8023689,-3.13889 -5.0756687,-5.72542 -5.0517776,-5.74786 0.023892,-0.0224 3.389747,-0.77199 7.4796807,-1.66569 4.089934,-0.8937 7.478405,-1.66708 7.529939,-1.71861 0.05154,-0.0515 -0.248949,-3.51596 -0.667731,-7.69873 -0.418786,-4.18277 -0.743104,-7.62335 -0.720707,-7.64576 0.0224,-0.0224 3.187754,1.34041 7.034133,3.02844 3.846379,1.68804 7.051745,3.06649 7.123041,3.06327 0.0713,-0.003 1.852546,-2.97 3.95834,-6.59279 2.105793,-3.62281 3.876575,-6.58654 3.935069,-6.58605 0.0585,5e-4 1.829275,2.96366 3.935069,6.58484 2.105795,3.62118 3.891477,6.58752 3.968183,6.59193 0.07671,0.003 3.283258,-1.37065 7.125666,-3.05556 3.842409,-1.68495 7.003339,-3.04773 7.024291,-3.02844 0.02096,0.0192 -0.304547,3.45735 -0.723333,7.64012 -0.418782,4.18277 -0.719454,7.64699 -0.668162,7.69829 0.05129,0.0513 3.439766,0.82388 7.529936,1.71684 4.090173,0.89295 7.456268,1.64277 7.480215,1.66623 0.02395,0.0235 -2.249354,2.61669 -5.051778,5.76267 -2.802424,3.14601 -5.093802,5.77463 -5.091955,5.84135 0.002,0.0667 2.309481,2.70571 5.128072,5.8644 3.963696,4.44197 5.035139,5.76082 4.729354,5.82146 -2.819677,0.55908 -14.59426,3.2016 -14.689345,3.29668 -0.112331,0.11233 1.030313,12.6029 1.339124,14.63834 l 0.118975,0.78418 -6.98007,-3.07077 c -3.83904,-1.68893 -7.077171,-3.07078 -7.195847,-3.07078 -0.118675,0 -1.938434,2.96412 -4.043909,6.58694 -2.105472,3.62282 -3.875992,6.58694 -3.934486,6.58694 -0.0585,0 -1.829013,-2.96412 -3.934486,-6.58694 z m 3.08366,-4.00748 v -4.6274 l -2.787729,-4.08099 c -1.53325,-2.24454 -2.883542,-4.08099 -3.000646,-4.08099 -0.117105,0 -0.154818,0.15141 -0.0838,0.33648 0.07101,0.18504 0.129111,2.07936 0.129111,4.2096 v 3.87312 l 2.697119,4.60661 c 1.483418,2.53364 2.775608,4.55809 2.871538,4.49881 0.09592,-0.0593 0.174416,-2.19013 0.174415,-4.73524 z m 4.768434,0.19013 2.676292,-4.56827 v -3.86915 c 0,-2.12806 0.0581,-4.02057 0.12911,-4.20561 0.07101,-0.18507 0.03329,-0.33648 -0.0838,-0.33648 -0.117105,0 -1.467396,1.83645 -3.000646,4.08099 l -2.78773,4.08099 v 4.60453 c 0,3.95769 0.07913,5.09262 0.33705,4.83469 0.0294,-0.0295 1.257773,-2.10916 2.729731,-4.62169 z m -17.637173,-2.42189 5.104956,-2.23983 0.06816,-2.51041 c 0.0375,-1.38074 0.0044,-3.7697 -0.0739,-5.30881 l -0.142071,-2.7984 -0.883283,0.28688 c -0.485804,0.15777 -2.707994,0.86506 -4.9382,1.57173 l -4.05492,1.28487 -0.574072,5.79985 c -0.315739,3.1899 -0.572888,5.96497 -0.571444,6.16681 0.0031,0.44264 -0.528929,0.64028 6.064759,-2.25269 z m 32.960431,-3.64255 -0.598962,-6.0728 -4.375526,-1.3911 c -2.406542,-0.76511 -4.624958,-1.47128 -4.929819,-1.56926 l -0.554291,-0.17817 -0.135904,2.05213 c -0.07475,1.12867 -0.136401,3.5019 -0.137007,5.27383 l -0.001,3.22167 3.988244,1.75447 c 2.193535,0.96495 4.704865,2.06894 5.58073,2.4533 0.875867,0.38437 1.630762,0.66057 1.677542,0.6138 0.04678,-0.0467 -0.184479,-2.81783 -0.513907,-6.15787 z m -16.57156,-4.84118 c 1.378342,-2.01806 2.826033,-4.11382 3.217089,-4.65725 l 0.711014,-0.98805 -3.196078,-4.32962 c -1.757844,-2.38126 -3.288441,-4.32958 -3.401331,-4.32958 -0.112889,0 -1.643486,1.94832 -3.401331,4.32958 l -3.196077,4.32962 0.711015,0.98805 c 0.391054,0.54343 1.838746,2.63919 3.217087,4.65725 1.37834,2.01806 2.579529,3.6692 2.669306,3.6692 0.08979,0 1.290967,-1.65114 2.669306,-3.6692 z m -17.898597,-4.33788 c 3.477485,-1.09607 3.914918,-1.26392 3.72542,-1.42941 -0.168169,-0.14686 -9.030944,-2.68779 -9.375037,-2.68779 -0.361537,0 -8.349315,2.67679 -8.8969855,2.98149 -0.374542,0.20838 -0.8250457,0.086 5.4210065,1.4717 2.573748,0.57095 4.870979,0.98391 5.104957,0.91766 0.233977,-0.0661 2.043262,-0.63038 4.020639,-1.25365 z m 40.009589,0.23324 c 5.506287,-1.19137 5.378977,-1.15543 4.948478,-1.39637 -0.53907,-0.30167 -8.494061,-2.95407 -8.859779,-2.95407 -0.3895,0 -9.224449,2.55826 -9.38285,2.71691 -0.135902,0.13612 -0.155038,0.1291 4.254129,1.55874 2.0473,0.66383 3.913798,1.16966 4.147775,1.12409 0.233977,-0.0456 2.435488,-0.51774 4.892247,-1.0493 z m -29.590304,-7.20057 c 1.709595,-2.32799 3.108354,-4.29175 3.108354,-4.36387 0,-0.12525 -9.827846,-3.46024 -10.331035,-3.50577 -0.222777,-0.0201 -7.110891,8.70116 -7.110891,9.00337 0,0.19692 10.931086,3.37828 11.089798,3.22759 0.07448,-0.0707 1.534177,-2.03333 3.243774,-4.36132 z m 22.305109,1.75335 c 0.906662,-0.2524 1.648475,-0.52503 1.648475,-0.60587 0,-0.31141 -6.881653,-9.03784 -7.11089,-9.01712 -0.133236,0.0121 -2.513685,0.77676 -5.289883,1.69934 -3.466674,1.15205 -5.015727,1.76058 -4.945762,1.94289 0.05602,0.14602 1.502783,2.16796 3.215013,4.4932 l 3.113138,4.22768 3.860718,-1.1406 c 2.123395,-0.62733 4.60253,-1.34712 5.509191,-1.59952 z m -43.031588,0.54209 c 2.157848,-0.74328 4.041073,-1.47291 4.184947,-1.62142 0.508719,-0.52508 5.797842,-7.4927 5.735235,-7.55531 -0.135627,-0.13562 -7.697468,2.77147 -8.074396,3.10413 -0.632143,0.55791 -6.7263194,7.42588 -6.7263194,7.58038 0,0.17141 0.055532,0.15426 4.8805334,-1.50778 z m 55.953503,1.49343 c 0,-0.14453 -6.129682,-7.03945 -6.726319,-7.56603 -0.376928,-0.33266 -7.938769,-3.23975 -8.074395,-3.10413 -0.06217,0.0621 5.224212,7.02768 5.730126,7.5502 0.214614,0.22166 8.422398,3.20022 8.911059,3.23381 0.08774,0.005 0.159529,-0.0452 0.159529,-0.11385 z M 19.953087,254.27403 c 2.046976,-0.75981 4.128576,-1.53345 4.625779,-1.71924 0.497199,-0.18578 0.904,-0.41855 0.904,-0.51728 0,-0.43643 -5.603908,-8.08106 -5.925603,-8.08348 -0.709652,-0.005 -11.7290294,2.45263 -11.7290294,2.61626 0,0.26904 7.9425534,9.08522 8.1849534,9.08522 0.11997,0 1.892925,-0.62167 3.9399,-1.38148 z m 47.716596,-3.07945 c 2.183762,-2.4535 3.970477,-4.53586 3.970477,-4.62743 0,-0.15977 -11.024358,-2.61853 -11.716479,-2.61312 -0.308093,0.003 -5.938153,7.65923 -5.938153,8.07583 0,0.18666 8.80797,3.57444 9.37685,3.6066 0.185254,0.0108 2.123542,-1.98837 4.307305,-4.44188 z m -28.835955,-1.32397 c 0.0437,-4.18379 -0.0051,-5.47939 -0.212707,-5.64313 -0.354557,-0.27972 -10.624708,-3.91871 -10.738487,-3.80493 -0.04828,0.0483 -0.0098,2.64676 0.08569,5.77442 l 0.173467,5.68664 5.104954,1.76676 c 2.807724,0.97171 5.200671,1.74067 5.31766,1.7088 0.132826,-0.0361 0.234003,-2.09737 0.269416,-5.48856 z m 7.388016,3.79267 5.104953,-1.75684 0.173467,-5.69806 c 0.0954,-3.13394 0.135223,-5.7363 0.08848,-5.78303 -0.109752,-0.10977 -10.386467,3.52917 -10.737742,3.80218 -0.200212,0.15559 -0.265883,1.53115 -0.265883,5.56914 0,4.93368 0.05309,5.6672 0.407689,5.6348 0.06825,-0.006 2.421308,-0.80192 5.229032,-1.76819 z m -20.21587,-9.44074 c -0.112795,-3.76818 -0.216295,-4.9526 -0.467686,-5.352 -0.177559,-0.28213 -1.435188,-2.00495 -2.79473,-3.82852 -1.756067,-2.3554 -2.487809,-3.19241 -2.52684,-2.89036 -0.03022,0.23388 0.162463,2.62671 0.42818,5.31745 l 0.483122,4.89224 2.337003,3.34145 c 1.285352,1.83777 2.415485,3.34535 2.511402,3.35013 0.09591,0.004 0.109216,-2.1689 0.02954,-4.83039 z m 29.994292,1.48467 2.333697,-3.33699 0.487958,-4.79033 c 0.268376,-2.63467 0.462542,-5.02666 0.431486,-5.31553 -0.04631,-0.43068 -0.563675,0.1553 -2.874833,3.25618 l -2.818359,3.7814 v 1.6554 c 0,0.91049 -0.06281,3.10642 -0.139563,4.87985 -0.08178,1.8895 -0.05976,3.22081 0.05318,3.21574 0.106002,-0.004 1.242903,-1.51034 2.526434,-3.34572 z m -13.1707,-7.70634 c 1.601016,-2.04728 2.957103,-3.84048 3.013528,-3.98485 0.09537,-0.24399 -5.874037,-10.69132 -6.108797,-10.69127 -0.0585,2e-5 -1.485008,2.35836 -3.170029,5.24073 -2.790439,4.77329 -3.038688,5.28071 -2.783473,5.68957 0.626305,1.00332 5.85765,7.56821 5.99249,7.52008 0.07994,-0.0286 1.455266,-1.72695 3.056281,-3.77426 z m -6.208597,3.13742 c -0.0883,-0.14622 -1.20988,-1.60594 -2.4924,-3.24377 -1.282522,-1.63785 -2.357043,-3.01028 -2.387826,-3.04986 -0.11056,-0.14216 -9.709459,-4.31103 -9.775098,-4.24539 -0.03694,0.0369 1.170162,1.73907 2.682432,3.78252 l 2.749587,3.71541 4.519841,1.63056 c 5.012281,1.80819 4.928391,1.78305 4.703464,1.41053 z m 12.947808,-2.14662 2.496108,-0.88445 2.756571,-3.71645 c 1.516114,-2.04403 2.726411,-3.74659 2.689552,-3.78344 -0.06403,-0.064 -9.685733,4.10675 -9.789208,4.24339 -0.02746,0.0361 -1.117989,1.42719 -2.423411,3.09096 -1.305423,1.66377 -2.373495,3.11484 -2.373495,3.22463 0,0.10977 0.933249,-0.13562 2.073886,-0.54532 1.140639,-0.40968 3.197138,-1.14289 4.569997,-1.62932 z"
       style="fill:#ffffff;stroke-width:0.21270642;fill-opacity:1" />
  </g>
</svg>
