<?xml version="1.0" encoding="UTF-8" standalone="no"?>
<svg
   xmlns:dc="http://purl.org/dc/elements/1.1/"
   xmlns:cc="http://creativecommons.org/ns#"
   xmlns:rdf="http://www.w3.org/1999/02/22-rdf-syntax-ns#"
   xmlns:svg="http://www.w3.org/2000/svg"
   xmlns="http://www.w3.org/2000/svg"
   xmlns:sodipodi="http://sodipodi.sourceforge.net/DTD/sodipodi-0.dtd"
   xmlns:inkscape="http://www.inkscape.org/namespaces/inkscape"
   id="svg8"
   version="1.1"
   viewBox="0 0 79.374998 79.375002"
   height="300"
   width="300"
   sodipodi:docname="xkcd.svg"
   inkscape:version="0.92.4 (5da689c313, 2019-01-14)">
  <sodipodi:namedview
     pagecolor="#ffffff"
     bordercolor="#666666"
     borderopacity="1"
     objecttolerance="10"
     gridtolerance="10"
     guidetolerance="10"
     inkscape:pageopacity="0"
     inkscape:pageshadow="2"
     inkscape:window-width="1026"
     inkscape:window-height="801"
     id="namedview11"
     showgrid="false"
     borderlayer="true"
     inkscape:showpageshadow="false"
     inkscape:zoom="1.1125146"
     inkscape:cx="203.67255"
     inkscape:cy="146.07306"
     inkscape:window-x="166"
     inkscape:window-y="116"
     inkscape:window-maximized="0"
     inkscape:current-layer="svg8" />
  <defs
     id="defs2" />
  <metadata
     id="metadata5">
    <rdf:RDF>
      <cc:Work
         rdf:about="">
        <dc:format>image/svg+xml</dc:format>
        <dc:type
           rdf:resource="http://purl.org/dc/dcmitype/StillImage" />
        <dc:title />
      </cc:Work>
    </rdf:RDF>
  </metadata>
  <g
     transform="matrix(0.57968139,0,0,0.57968139,16.445686,-110.58065)"
     id="layer1">
    <g
       id="text814"
       style="font-style:normal;font-weight:normal;font-size:36.92745209px;line-height:1.25;font-family:sans-serif;letter-spacing:0px;word-spacing:0px;fill:#000000;fill-opacity:1;stroke:none;stroke-width:0.9231863"
       aria-label="xkcd">
      <path
         id="path816"
         style="font-style:normal;font-variant:normal;font-weight:normal;font-stretch:normal;font-family:Consolas;-inkscape-font-specification:Consolas;fill:#ffffff;fill-opacity:1;stroke-width:0.9231863"
         d="m 19.058515,268.9494 h -4.165157 l -4.886397,-6.90586 -4.8323029,6.90586 H 1.117687 l 7.0140522,-9.08761 -6.6894945,-9.01549 h 4.0209091 l 4.7601792,6.95995 4.670025,-6.95995 h 3.876661 l -6.797681,9.08761 z"
         inkscape:connector-curvature="0" />
      <path
         id="path818"
         style="font-style:normal;font-variant:normal;font-weight:normal;font-stretch:normal;font-family:Consolas;-inkscape-font-specification:Consolas;fill:#ffffff;fill-opacity:1;stroke-width:0.9231863"
         d="m 39.3614,268.9494 h -4.309405 l -8.4385,-9.70067 v 9.70067 h -3.137391 v -25.47778 h 3.137391 v 15.6509 l 8.131973,-8.27622 h 4.147126 l -8.492592,8.34834 z"
         inkscape:connector-curvature="0" />
      <path
         id="path820"
         style="font-style:normal;font-variant:normal;font-weight:normal;font-stretch:normal;font-family:Consolas;-inkscape-font-specification:Consolas;fill:#ffffff;fill-opacity:1;stroke-width:0.9231863"
         d="m 57.482536,268.28226 c -1.708458,0.62422 -3.499771,0.98539 -5.174892,0.91958 -6.216737,-0.24425 -8.886459,-3.72915 -8.925336,-9.12368 -0.03942,-5.47007 3.931414,-9.46772 9.123677,-9.4843 1.742236,-0.006 3.470991,0.24797 4.976551,0.84746 v 2.99314 c -1.571533,-0.7908 -3.287631,-1.211 -4.904427,-1.17201 -3.778502,0.0911 -5.891771,3.30912 -5.914162,6.70752 -0.02629,3.98977 2.542369,6.53503 6.022348,6.54525 1.716991,0.005 3.384053,-0.43318 4.796241,-1.15398 z"
         inkscape:connector-curvature="0"
         sodipodi:nodetypes="csssccssscc" />
      <path
         id="path822"
         style="font-style:normal;font-variant:normal;font-weight:normal;font-stretch:normal;font-family:Consolas;-inkscape-font-specification:Consolas;fill:#ffffff;fill-opacity:1;stroke-width:0.9231863"
         d="m 62.837737,260.2765 c -0.03362,-6.14304 3.385515,-9.59886 8.853213,-9.64658 1.16505,-0.0102 2.312913,0.15343 3.353762,0.45078 v -7.60908 h 3.155422 v 25.47778 h -2.812833 l -0.108186,-3.42588 c -1.385099,2.50553 -3.718984,3.78368 -6.166596,3.75044 -4.923542,-0.0669 -6.253498,-5.10811 -6.274782,-8.99746 z m 3.209515,-0.19834 c -0.01729,2.67853 0.746801,6.67352 3.696352,6.50918 2.474555,-0.13788 4.168419,-2.36157 5.301108,-4.21925 v -8.40243 c -1.162864,-0.4822 -2.390826,-0.75818 -3.570134,-0.73927 -4.12579,0.0662 -5.413296,3.54859 -5.427326,6.85177 z"
         inkscape:connector-curvature="0"
         sodipodi:nodetypes="ssccccccsscsccsc" />
    </g>
  </g>
</svg>
