<?xml version="1.0" encoding="UTF-8" standalone="no"?>
<svg
   xmlns:dc="http://purl.org/dc/elements/1.1/"
   xmlns:cc="http://creativecommons.org/ns#"
   xmlns:rdf="http://www.w3.org/1999/02/22-rdf-syntax-ns#"
   xmlns:svg="http://www.w3.org/2000/svg"
   xmlns="http://www.w3.org/2000/svg"
   id="svg8"
   version="1.1"
   viewBox="0 0 79.374998 79.375002"
   height="300"
   width="300">
  <defs
     id="defs2" />
  <metadata
     id="metadata5">
    <rdf:RDF>
      <cc:Work
         rdf:about="">
        <dc:format>image/svg+xml</dc:format>
        <dc:type
           rdf:resource="http://purl.org/dc/dcmitype/StillImage" />
        <dc:title></dc:title>
      </cc:Work>
    </rdf:RDF>
  </metadata>
  <g
     transform="translate(0,-217.62499)"
     id="layer1">
    <path
       id="path825"
       d="m 32.053092,281.3889 c -5.797015,-2.32521 -5.798804,-2.48868 -0.09835,-8.99223 4.45013,-5.07706 5.422071,-5.79871 6.43509,-4.77795 0.477502,0.48115 0.537612,1.37232 0.480333,7.1213 -0.105839,8.95533 0.485001,10.07173 -6.817073,6.64888 z m 20.234821,-3.33781 c -0.684338,-0.60449 -6.050501,-9.88017 -6.446536,-11.14317 -0.408561,-1.30294 0.06026,-2.04838 1.288243,-2.04838 1.32192,0 11.831929,3.71355 12.678617,4.47977 1.080065,0.97745 0.736275,2.18753 -1.362815,4.79685 -3.009781,3.74137 -3.790895,4.48848 -4.692784,4.48848 -0.44848,0 -1.107605,-0.25809 -1.464725,-0.57355 z M 19.294456,260.69275 c 0.250594,-4.39869 0.62486,-5.33769 2.127526,-5.33769 0.810755,0 11.122264,3.97021 12.277563,4.72719 1.028236,0.67372 1.064316,1.9169 0.07418,2.55587 -1.170838,0.7556 -11.23342,4.18839 -12.26121,4.18285 -3.045677,-0.31278 -2.281945,-4.9562 -2.218059,-6.12822 z m 26.250615,-1.95103 c -0.120167,-0.12015 -0.218495,-0.62858 -0.218495,-1.1298 0,-0.64423 1.017489,-2.28507 3.471916,-5.59889 3.939636,-5.31908 4.442484,-5.83469 5.690327,-5.83469 1.099309,0 1.477,0.40792 3.952742,4.26899 2.046577,3.19179 2.454449,4.74575 1.461852,5.56954 -0.274568,0.22787 -2.966136,0.97974 -5.981262,1.67079 -5.222521,1.19701 -7.897545,1.5336 -8.37708,1.05406 z m -9.105991,-3.94708 c -1.108607,-1.20428 -12.273299,-18.34628 -12.721365,-19.53208 -0.265955,-0.70383 -0.236025,-1.13533 0.127521,-1.83835 0.549124,-1.06188 0.75569,-1.15454 6.970442,-3.12679 5.030394,-1.5964 5.869551,-1.61046 6.689814,-0.11209 0.50585,0.92403 1.693463,22.88671 1.316729,24.35042 -0.758668,1.44826 -1.798317,0.87038 -2.383141,0.25889 z"
       style="fill:#ffffff;fill-opacity:1;stroke-width:0.32774034" />
  </g>
</svg>
