<?xml version="1.0" encoding="UTF-8" standalone="no"?>
<svg
   xmlns:dc="http://purl.org/dc/elements/1.1/"
   xmlns:cc="http://creativecommons.org/ns#"
   xmlns:rdf="http://www.w3.org/1999/02/22-rdf-syntax-ns#"
   xmlns:svg="http://www.w3.org/2000/svg"
   xmlns="http://www.w3.org/2000/svg"
   version="1.1"
   id="svg2"
   viewBox="0 0 1000 1000"
   height="1000"
   width="1000">
  <metadata
     id="metadata14">
    <rdf:RDF>
      <cc:Work
         rdf:about="">
        <dc:format>image/svg+xml</dc:format>
        <dc:type
           rdf:resource="http://purl.org/dc/dcmitype/StillImage" />
        <dc:title></dc:title>
      </cc:Work>
    </rdf:RDF>
  </metadata>
  <defs
     id="defs12" />
  <path
     id="path8"
     d="m 361.9857,132.19737 c -13.25515,0.0534 -122.91111,3.16565 -238.59243,89.12328 0,0 -123.39327,221.9383 -123.39327,495.28893 0,0 71.978249,123.39208 261.35281,129.39038 0,0 31.70511,-37.7037 57.41206,-70.26582 C 209.93876,743.17197 168.80785,675.47959 168.80785,675.47959 c 0,0 8.5708,5.99726 23.99498,14.56626 0.85689,0 1.71122,0.85558 3.42502,1.7125 2.57069,1.71377 5.1422,2.57081 7.7129,4.28459 21.42246,11.99658 42.84423,21.42368 62.5529,29.13581 35.13283,14.56729 77.12215,27.41951 125.96536,36.84541 64.26736,11.9966 139.67306,16.28044 221.93532,0.85625 40.27424,-7.71208 81.40794,-18.85053 124.25286,-36.84541 29.99142,-11.13969 63.40925,-27.41914 98.54205,-50.55541 0,0 -42.84417,69.40888 -155.09786,101.11413 25.70697,31.70521 56.55581,68.54998 56.55581,68.54998 C 928.02173,839.14547 1000,715.75266 1000,716.60958 1000,443.25895 876.60671,221.32065 876.60671,221.32065 754.07028,129.63252 636.67349,132.20402 636.67349,132.20402 L 624.67932,145.914 C 770.35209,189.61582 838.04548,253.88478 838.04548,253.88478 748.92802,205.89847 661.52634,181.90363 580.121,172.47775 c -61.69669,-6.85519 -120.82499,-5.13937 -173.09576,1.71581 -5.14137,0 -9.42484,0.85563 -14.56623,1.7125 -29.99144,3.42762 -102.82721,13.70953 -194.51535,53.98375 -31.70523,13.71036 -50.55871,23.99497 -50.55871,23.99497 0,0 70.26568,-67.69727 224.50739,-111.3991 l -8.56916,-10.28166 c 0,0 -0.4538,-0.0102 -1.33748,-0.007 z m -21.79792,316.20275 c 48.8432,0 88.26098,41.98669 87.40413,94.25746 0,52.27084 -38.56093,94.2608 -87.40413,94.2608 -47.98632,0 -87.40413,-41.98996 -87.40413,-94.2608 0,-52.27077 38.56091,-94.25746 87.40413,-94.25746 z m 312.76778,0 c 47.98631,0 87.40413,41.98669 87.40413,94.25746 0,52.27084 -38.56089,94.2608 -87.40413,94.2608 -47.9863,0 -87.40413,-41.98996 -87.40413,-94.2608 0,-52.27077 38.56091,-94.25746 87.40413,-94.25746 z"
     style="fill:#ffffff;fill-opacity:1" />
</svg>
