<?xml version="1.0" encoding="UTF-8" standalone="no"?>
<svg
   xmlns:dc="http://purl.org/dc/elements/1.1/"
   xmlns:cc="http://creativecommons.org/ns#"
   xmlns:rdf="http://www.w3.org/1999/02/22-rdf-syntax-ns#"
   xmlns:svg="http://www.w3.org/2000/svg"
   xmlns="http://www.w3.org/2000/svg"
   height="300"
   width="300"
   id="svg25"
   version="1.1"
   viewbox="0 0 300 300">
  <metadata
     id="metadata31">
    <rdf:RDF>
      <cc:Work
         rdf:about="">
        <dc:format>image/svg+xml</dc:format>
        <dc:type
           rdf:resource="http://purl.org/dc/dcmitype/StillImage" />
        <dc:title></dc:title>
      </cc:Work>
    </rdf:RDF>
  </metadata>
  <defs
     id="defs29">
    <mask
       id="gooby"
       x="0"
       y="0"
       width="300"
       height="300">
      <ellipse
         cx="150"
         cy="170"
         rx="120"
         ry="80"
         id="ellipse2"
         style="fill:#ffffff;stroke-width:0" />
      <circle
         cx="110"
         cy="150"
         id="ellipse4"
         r="20"
         style="fill:#000000;stroke-width:0" />
      <circle
         cx="190"
         cy="150"
         id="ellipse6"
         r="20"
         style="fill:#000000;stroke-width:0" />
      <path
         d="m 110,210 c 40,25 80,0 80,0"
         id="path8"
         style="fill:none;stroke:#000000;stroke-width:10;stroke-linecap:round" />
    </mask>
  </defs>
  <path
     id="path880"
     d="M 150.11133 114.23438 A 120.14822 79.998947 0 0 0 29.962891 194.23438 A 120.14822 79.998947 0 0 0 150.11133 274.23242 A 120.14822 79.998947 0 0 0 270.25781 194.23438 A 120.14822 79.998947 0 0 0 150.11133 114.23438 z M 109.5 152.5 A 18 18 0 0 1 127.5 170.5 A 18 18 0 0 1 109.5 188.5 A 18 18 0 0 1 91.5 170.5 A 18 18 0 0 1 109.5 152.5 z M 188.19336 152.5 A 18 18 0 0 1 206.19336 170.5 A 18 18 0 0 1 188.19336 188.5 A 18 18 0 0 1 170.19336 170.5 A 18 18 0 0 1 188.19336 152.5 z M 110.02539 228.9668 A 5.0005 5.0005 0 0 1 112.41211 229.62109 C 150.37951 250.5311 187.55078 229.64062 187.55078 229.64062 A 5.0005 5.0005 0 1 1 192.44922 238.35938 C 192.44922 238.35938 150.44049 261.97939 107.58789 238.37891 A 5.0005 5.0005 0 0 1 110.02539 228.9668 z "
     style="opacity:1;fill:#ffffff;fill-opacity:1;fill-rule:evenodd;stroke:#220093;stroke-width:0;stroke-linecap:round;stroke-linejoin:miter;stroke-miterlimit:4;stroke-dasharray:none;stroke-opacity:1;paint-order:normal" />
  <circle
     cx="55"
     cy="144"
     id="ellipse13"
     r="25"
     style="fill:#000000;fill-opacity:0;stroke:#ffffff;stroke-width:10" />
  <circle
     cx="245"
     cy="144"
     id="ellipse15"
     r="25"
     style="fill:#000000;fill-opacity:0;stroke:#ffffff;stroke-width:10" />
  <line
     y2="46"
     x2="167"
     y1="118"
     x1="147"
     id="line17"
     style="fill:none;stroke:#ffffff;stroke-width:10;stroke-linecap:round" />
  <line
     y2="72"
     x2="210"
     y1="46"
     x1="167"
     id="line19"
     style="fill:none;stroke:#ffffff;stroke-width:10;stroke-linecap:round" />
  <circle
     cx="230"
     cy="79"
     id="ellipse21"
     r="20"
     style="fill:#000000;fill-opacity:0;stroke:#ffffff;stroke-width:10" />
</svg>
