<?xml version="1.0" encoding="UTF-8" standalone="no"?>
<svg
   xmlns:dc="http://purl.org/dc/elements/1.1/"
   xmlns:cc="http://creativecommons.org/ns#"
   xmlns:rdf="http://www.w3.org/1999/02/22-rdf-syntax-ns#"
   xmlns:svg="http://www.w3.org/2000/svg"
   xmlns="http://www.w3.org/2000/svg"
   id="svg8"
   version="1.1"
   viewBox="0 0 3543 3543"
   height="100"
   width="100">
  <metadata
     id="metadata14">
    <rdf:RDF>
      <cc:Work
         rdf:about="">
        <dc:format>image/svg+xml</dc:format>
        <dc:type
           rdf:resource="http://purl.org/dc/dcmitype/StillImage" />
        <dc:title></dc:title>
      </cc:Work>
    </rdf:RDF>
  </metadata>
  <defs
     id="defs12" />
    <g
     id="g6">
    <path
       id="path2"
       style="opacity:1;fill:#fff;fill-opacity:1;stroke:#000;stroke-width:0"
       d="m 752.8,533.37 c 0,0 -357.68,128.5 -358.04102,328.29 -0.26,143.63 94.2,166.22 94.71,264.46 l -1.91,113.33 c -4.71,160.76 -5.71,269.75 -5.71485,269.7539 -169.40505,-0.1781 -190.06148,167.56 -194.46,206.31 -2.58,22.71 11.9,110.03 11.9,110.03 l 24.52,-0.6 c 12,-78.31 70.48,-84.24 70.48,-84.24 l 93.39,-0.9903 -1.30469,464.668 340.13395,295.4906 253.54496,-286.5469 327.6699,284.9043 488.6621,-450.4394 0.6063,-877.3676 L 1633.4648,909.02148 1357.0527,1195.7148 1066.3691,907.90039 786.54883,1200.8066 784.3457,1045.8711 C 782.06648,891.01578 641.51261,895.84689 637.97656,744.55469 634.7324,605.75139 779.52344,556.75977 779.52344,556.75977 Z m 144.48632,617.22851 164.3039,161.7933 1.5097,854.7266 -73.81441,84.0117 -203.21485,-174.7519 -0.15934,-809.184 z m 569.9431,0.3265 133.0182,134.0203 -3.5339,994.7152 -234.0337,-206.7919 2.6094,-819.1604 z" />
    <path
       id="path4"
       style="opacity:1;fill:#ffffff;fill-opacity:1;fill-rule:evenodd;stroke:#000000;stroke-width:0;stroke-linecap:butt;stroke-linejoin:miter;stroke-miterlimit:4;stroke-dasharray:none;stroke-opacity:1"
       d="m 2282.23,909.41 c -87.64,89.59 -129.83,133.75 -264.89,270.76 l 33.63,31.34 66.65,-66.12 82.84,78.05 1.9296,254.9844 c -137.8339,-1.3352 -215.0561,65.3901 -220.1464,210.2227 -1.7031,30.5914 13.8574,97.9707 13.8574,97.9707 l 32.8164,0.4238 c 6.1046,-57.0129 64.5994,-93.4136 93.5859,-94.9141 l 79.7657,-0.8183 c -1.1421,20.1696 2.0429,463.3105 2.0429,463.3105 -126.7011,30.2474 -248.7137,167.9838 -262.3496,366.7071 l 16.2949,13.3379 c 119.0017,-138.5478 242.2891,-153.4688 242.2891,-153.4688 l 3.582,638.0508 278.8672,-255.9668 132.9629,122.4199 3.459,-494.2148 c 37.7924,11.9835 64.6812,26.6664 94.3672,53.1718 29.686,26.5053 54.3105,55.5606 54.3105,55.5606 l 413.8379,-315.0938 -2.418,-1030.9668 -266.4667,-243.74214 -293.9004,313.55274 -0.5723,-225.63282 -45.9082,-0.38281 -1.824,276.84953 -65.8963,69.4842 -1.9569,-231.2891 z m 460.2402,226.3965 139.2402,126.5723 0.461,989.7187 c 0,0 -104.2006,-119.7961 -263.5977,-122.5 l -1.1465,-859.4687 z m -170.4448,183.7087 -0.011,1466.3313 -67.29,-65.5771 -0.5515,-1332.3633 z" />
  </g>
</svg>
