<?xml version="1.0" encoding="UTF-8" standalone="no"?>
<svg
   xmlns:dc="http://purl.org/dc/elements/1.1/"
   xmlns:cc="http://creativecommons.org/ns#"
   xmlns:rdf="http://www.w3.org/1999/02/22-rdf-syntax-ns#"
   xmlns:svg="http://www.w3.org/2000/svg"
   xmlns="http://www.w3.org/2000/svg"
   xmlns:sodipodi="http://sodipodi.sourceforge.net/DTD/sodipodi-0.dtd"
   xmlns:inkscape="http://www.inkscape.org/namespaces/inkscape"
   id="svg4"
   version="1.1"
   viewBox="0 0 1700 1700"
   sodipodi:docname="wikipedia.svg"
   inkscape:version="0.92.4 (5da689c313, 2019-01-14)">
  <sodipodi:namedview
     pagecolor="#ffffff"
     bordercolor="#666666"
     borderopacity="1"
     objecttolerance="10"
     gridtolerance="10"
     guidetolerance="10"
     inkscape:pageopacity="0"
     inkscape:pageshadow="2"
     inkscape:window-width="1016"
     inkscape:window-height="770"
     id="namedview6"
     showgrid="false"
     borderlayer="true"
     inkscape:showpageshadow="false"
     inkscape:zoom="0.13882353"
     inkscape:cx="723.94068"
     inkscape:cy="850"
     inkscape:window-x="796"
     inkscape:window-y="155"
     inkscape:window-maximized="0"
     inkscape:current-layer="svg4" />
  <metadata
     id="metadata10">
    <rdf:RDF>
      <cc:Work
         rdf:about="">
        <dc:format>image/svg+xml</dc:format>
        <dc:type
           rdf:resource="http://purl.org/dc/dcmitype/StillImage" />
        <dc:title></dc:title>
      </cc:Work>
    </rdf:RDF>
  </metadata>
  <defs
     id="defs8" />
  <path
     style="fill:#ffffff;fill-opacity:1;stroke-width:0.83879244"
     id="path2"
     d="M 608.68667,1359.2733 H 670.8328 L 878.32489,956.75359 1049.0191,1359.2733 h 59.8311 l 354.6247,-815.91856 c 19.8794,-45.77291 58.6316,-73.26014 99.8163,-79.48398 V 415.277 h -286.7496 v 48.61054 c 38.0476,8.46341 78.4355,22.72289 96.394,62.87672 L 1112.5409,1127.39 c -47.073,-100.1099 -95.3371,-209.50521 -141.40363,-318.67405 47.54693,-101.01577 86.37883,-194.8431 144.70843,-287.05155 34.102,-54.25309 89.4405,-55.52806 117.9594,-58.19542 V 415.28036 H 928.98795 v 48.18862 c 38.03085,0.0378 117.17095,3.4206 81.88295,77.57991 l -88.40037,185.86802 -93.6344,-206.75395 c -14.57737,-32.19285 13.73942,-53.64077 59.96527,-56.19657 l -0.33971,-48.6441 H 545.41236 v 48.18863 c 40.87268,1.34291 98.4994,1.12398 119.77117,35.77869 65.5013,120.32478 109.29466,245.31324 169.00829,367.99502 L 679.66948,1156.2402 419.94578,559.20456 c -29.26714,-67.27955 40.21591,-88.95394 85.35552,-94.57385 l -0.50747,-49.31596 H 139.03 v 48.18862 c 50.50369,16.69868 115.6527,91.831 133.83772,129.85346 136.6309,285.77659 205.42866,477.37357 335.84411,765.96847 z"
     inkscape:connector-curvature="0" />
</svg>
